<svg xmlns="http://www.w3.org/2000/svg" version="1.1" xmlns:xlink="http://www.w3.org/1999/xlink" xmlns:svgjs="http://svgjs.com/svgjs" width="512" height="512" x="0" y="0" viewBox="0 0 512 512" style="enable-background:new 0 0 512 512" xml:space="preserve" class=""><g><g fill-rule="evenodd" clip-rule="evenodd"><path fill="#7655b6" d="M102.443 15.998h259.574c2.332 0 4.339.831 5.987 2.48l47.543 47.542c1.649 1.649 2.48 3.656 2.48 5.987V427.53c0 4.664-3.804 8.467-8.468 8.467H102.443c-4.664 0-8.467-3.804-8.467-8.467V24.465c-.001-4.663 3.803-8.467 8.467-8.467z" data-original="#eceff1" class=""></path><path fill="#7655b6" d="M102.443 15.998h15.49v420h-15.49c-4.664 0-8.468-3.804-8.468-8.467V24.465c0-4.663 3.804-8.467 8.468-8.467z" data-original="#d1d1d6" class=""></path><path fill="#74f5db" d="M365.525 16.732a8.496 8.496 0 0 1 2.48 1.746l47.543 47.542a8.496 8.496 0 0 1 1.746 2.48h-47.535a4.242 4.242 0 0 1-4.234-4.234z" data-original="#a79ba7" class=""></path><circle cx="183.893" cy="105.917" r="63.44" fill="#f5f772" data-original="#ffc338" class=""></circle><path fill="#f5f772" d="M183.893 42.477c35.037 0 63.44 28.403 63.44 63.44s-28.403 63.44-63.44 63.44c-1.723 0-3.428-.071-5.117-.206 32.644-2.606 58.324-29.92 58.324-63.234s-25.68-60.629-58.324-63.234a64.201 64.201 0 0 1 5.117-.206z" data-original="#f5b829" class=""></path><path fill="#74f5db" d="m348.031 328.113 103.084-178.547c5.588-9.679 18.04-13.016 27.719-7.428l7.03 4.059c9.679 5.588 13.016 18.04 7.427 27.719L390.208 352.464l-42.176 24.35v-48.701z" data-original="#e3a76f" class=""></path><path fill="#74f5db" d="M476.239 140.878c.882.354 1.75.772 2.596 1.261l7.03 4.058c9.679 5.588 13.016 18.041 7.427 27.719L390.208 352.464l-42.176 24.35V362.94l30.161-17.413L481.276 166.98c5.099-8.833 2.766-19.974-5.037-26.102z" data-original="#c48958" class=""></path><path fill="#f5f772" d="M348.031 376.814v-48.701l42.177 24.351z" data-original="#837683" class=""></path><path fill="#f5f772" d="M348.031 376.814V362.94l30.161-17.413 12.015 6.937z" data-original="#685e68" class=""></path><path fill="#f5f772" d="m442.597 164.321 8.518-14.754c5.588-9.679 18.04-13.016 27.719-7.427l7.03 4.059c9.679 5.588 13.015 18.04 7.427 27.719l-8.518 14.754z" data-original="#837683" class=""></path><path fill="#f5f772" d="M476.238 140.878c.883.354 1.75.773 2.596 1.261l7.03 4.059c9.679 5.588 13.015 18.04 7.427 27.72l-8.518 14.754-12.016-6.937 8.518-14.754c5.1-8.834 2.767-19.976-5.037-26.103z" data-original="#685e68" class=""></path><path fill="#f5f772" d="M48.24 195.832h184.549c17.732 0 32.24 14.508 32.24 32.24v235.689c0 17.732-14.508 32.24-32.24 32.24H48.24c-17.733 0-32.241-14.508-32.241-32.24V228.072c0-17.732 14.508-32.24 32.241-32.24z" data-original="#837683" class=""></path><path fill="#f5f772" d="M214.316 195.832h18.473c17.732 0 32.24 14.508 32.24 32.241v235.689c0 17.732-14.508 32.24-32.24 32.24h-18.473c17.732 0 32.24-14.508 32.24-32.24V228.073c0-17.733-14.508-32.241-32.24-32.241z" data-original="#685e68" class=""></path><path fill="#6cf5c2" d="M58.986 242.108h163.056c4.082 0 7.411 3.329 7.411 7.411v29.091c0 4.082-3.329 7.411-7.411 7.411H58.986c-4.082 0-7.411-3.329-7.411-7.411v-29.09c0-4.083 3.329-7.412 7.411-7.412z" data-original="#6cf5c2" class=""></path><path fill="#00e499" d="M220.217 242.108h1.825c4.082 0 7.411 3.329 7.411 7.411v29.091c0 4.082-3.329 7.411-7.411 7.411H58.986c-4.082 0-7.411-3.329-7.411-7.411v-1.825h161.231c4.082 0 7.411-3.33 7.411-7.412z" data-original="#00e499" class=""></path><path fill="#7655b6" d="M65.796 321.32h27.702c4.082 0 7.411 3.329 7.411 7.411v9.635c0 4.082-3.329 7.411-7.411 7.411H65.796c-4.082 0-7.411-3.329-7.411-7.411v-9.635c-.001-4.082 3.329-7.411 7.411-7.411zm121.735 103.948h27.701c4.082 0 7.411 3.33 7.411 7.411v9.635c0 4.082-3.329 7.411-7.411 7.411h-27.701c-4.082 0-7.411-3.329-7.411-7.411v-9.635c0-4.082 3.329-7.411 7.411-7.411zm-60.868 0h27.702c4.082 0 7.411 3.33 7.411 7.411v9.635c0 4.082-3.329 7.411-7.411 7.411h-27.702c-4.082 0-7.411-3.329-7.411-7.411v-9.635c0-4.082 3.329-7.411 7.411-7.411zm-60.867 0h27.702c4.082 0 7.411 3.33 7.411 7.411v9.635c0 4.082-3.329 7.411-7.411 7.411H65.796c-4.082 0-7.411-3.329-7.411-7.411v-9.635c-.001-4.082 3.329-7.411 7.411-7.411zm121.735-51.974h27.701c4.082 0 7.411 3.329 7.411 7.411v9.636c0 4.082-3.329 7.411-7.411 7.411h-27.701c-4.082 0-7.411-3.329-7.411-7.411v-9.636c0-4.082 3.329-7.411 7.411-7.411zm-60.868 0h27.702c4.082 0 7.411 3.329 7.411 7.411v9.636c0 4.082-3.329 7.411-7.411 7.411h-27.702c-4.082 0-7.411-3.329-7.411-7.411v-9.636c0-4.082 3.329-7.411 7.411-7.411zm-60.867 0h27.702c4.082 0 7.411 3.329 7.411 7.411v9.636c0 4.082-3.329 7.411-7.411 7.411H65.796c-4.082 0-7.411-3.329-7.411-7.411v-9.636c-.001-4.082 3.329-7.411 7.411-7.411zm121.735-51.974h27.701c4.082 0 7.411 3.329 7.411 7.411v9.635c0 4.082-3.329 7.411-7.411 7.411h-27.701c-4.082 0-7.411-3.329-7.411-7.411v-9.635c0-4.082 3.329-7.411 7.411-7.411zm-60.868 0h27.702c4.082 0 7.411 3.329 7.411 7.411v9.635c0 4.082-3.329 7.411-7.411 7.411h-27.702c-4.082 0-7.411-3.329-7.411-7.411v-9.635c0-4.082 3.329-7.411 7.411-7.411z" data-original="#eceff1" class=""></path><path fill="#7655b6" d="M94.735 321.424c3.496.592 6.173 3.647 6.173 7.307v9.635c0 4.082-3.329 7.411-7.411 7.411H65.796c-3.243 0-6.01-2.101-7.011-5.011.403.068.817.104 1.239.104h27.701c4.082 0 7.411-3.329 7.411-7.411v-9.635c0-.839-.142-1.646-.401-2.4zm121.736 103.948c3.496.592 6.173 3.647 6.173 7.307v9.635c0 4.082-3.329 7.411-7.411 7.411h-27.701c-3.243 0-6.01-2.101-7.011-5.012a7.44 7.44 0 0 0 1.238.105h27.701c4.082 0 7.411-3.33 7.411-7.411v-9.635c0-.839-.141-1.646-.4-2.4zm-60.868 0c3.496.592 6.173 3.647 6.173 7.307v9.635c0 4.082-3.329 7.411-7.411 7.411h-27.702c-3.243 0-6.01-2.101-7.011-5.012a7.43 7.43 0 0 0 1.238.105h27.701c4.082 0 7.411-3.33 7.411-7.411v-9.635a7.346 7.346 0 0 0-.399-2.4zm-60.868 0c3.496.592 6.173 3.647 6.173 7.307v9.635c0 4.082-3.329 7.411-7.411 7.411H65.796c-3.243 0-6.01-2.101-7.011-5.012.403.068.817.105 1.239.105h27.701c4.082 0 7.411-3.33 7.411-7.411v-9.635c0-.839-.142-1.646-.401-2.4zm121.736-51.974c3.496.592 6.173 3.647 6.173 7.307v9.636c0 4.082-3.329 7.411-7.411 7.411h-27.701c-3.243 0-6.01-2.101-7.011-5.011a7.44 7.44 0 0 0 1.238.104h27.701c4.082 0 7.411-3.329 7.411-7.411v-9.635c0-.84-.141-1.647-.4-2.401zm-60.868 0c3.496.592 6.173 3.647 6.173 7.307v9.636c0 4.082-3.329 7.411-7.411 7.411h-27.702c-3.243 0-6.01-2.101-7.011-5.011.403.068.816.104 1.238.104h27.701c4.082 0 7.411-3.329 7.411-7.411v-9.635a7.347 7.347 0 0 0-.399-2.401zm-60.868 0c3.496.592 6.173 3.647 6.173 7.307v9.636c0 4.082-3.329 7.411-7.411 7.411H65.796c-3.243 0-6.01-2.101-7.011-5.011.403.068.817.104 1.239.104h27.701c4.082 0 7.411-3.329 7.411-7.411v-9.635c0-.84-.142-1.647-.401-2.401zm121.736-51.974c3.496.592 6.173 3.647 6.173 7.307v9.635c0 4.082-3.329 7.411-7.411 7.411h-27.701c-3.243 0-6.01-2.101-7.011-5.011a7.44 7.44 0 0 0 1.238.104h27.701c4.082 0 7.411-3.329 7.411-7.411v-9.635c0-.839-.141-1.646-.4-2.4zm-60.868 0c3.496.592 6.173 3.647 6.173 7.307v9.635c0 4.082-3.329 7.411-7.411 7.411h-27.702c-3.243 0-6.01-2.101-7.011-5.011.403.068.816.104 1.238.104h27.701c4.082 0 7.411-3.329 7.411-7.411v-9.635a7.346 7.346 0 0 0-.399-2.4z" data-original="#d1d1d6" class=""></path><path d="M185.241 97.785c-11.329-1.85-11.527-5.86-11.588-7.18-.268-5.4 5.441-7.119 7.201-7.52 3.916-.89 11.348-.5 14.347 6.642 1.713 4.069 6.401 5.979 10.463 4.269a7.982 7.982 0 0 0 4.279-10.46c-3.723-8.849-10.652-13.789-18.06-15.76v-2.01a7.995 7.995 0 1 0-15.989 0v2.091c-11.49 3.179-18.748 12.481-18.211 23.529.329 6.81 4.02 18.75 24.96 22.181 12.831 2.109 13.321 6.191 13.551 8.151.24 1.92-.344 2.879-.932 3.569-1.878 2.169-6.19 3.701-10.741 3.809-5.149.122-11.687-1.919-13.231-8.069-1.068-4.28-5.408-6.889-9.687-5.81a7.99 7.99 0 0 0-5.822 9.69c2.424 9.68 10.073 16.741 20.113 19.212v1.949a7.995 7.995 0 1 0 15.989 0v-1.809c6.35-1.371 11.88-4.361 15.471-8.511 3.808-4.419 5.441-9.93 4.712-15.939-1.422-11.913-10.455-19.323-26.825-22.024zm54.091 8.122c0 30.569-24.871 55.44-55.442 55.44-30.566 0-55.447-24.871-55.447-55.44 0-30.58 24.881-55.451 55.447-55.451 30.571-.001 55.442 24.87 55.442 55.451zm-55.442 71.428c-39.387 0-71.436-32.04-71.436-71.429 0-39.391 32.049-71.44 71.436-71.44 39.392 0 71.432 32.049 71.432 71.44 0 39.389-32.04 71.429-71.432 71.429zm30.755 255.911h-26.533v8.48h26.533zm15.989-.561v9.63c0 8.489-6.9 15.4-15.392 15.4h-27.7c-8.501 0-15.42-6.911-15.42-15.4v-9.63c0-8.51 6.919-15.43 15.42-15.43h27.7c8.492 0 15.392 6.921 15.392 15.43zm-76.854.561h-26.528v8.48h26.528zm15.994-.561v9.63c0 8.489-6.924 15.4-15.42 15.4h-27.691c-8.491 0-15.401-6.911-15.401-15.4v-9.63c0-8.51 6.91-15.43 15.401-15.43h27.691c8.496 0 15.42 6.921 15.42 15.43zm-76.854.561H66.392v8.48H92.92zm15.994-.561v9.63c0 8.489-6.924 15.4-15.425 15.4H65.804c-8.491 0-15.391-6.911-15.391-15.4v-9.63c0-8.51 6.9-15.43 15.391-15.43H93.49c8.5 0 15.424 6.921 15.424 15.43zm105.731-51.399h-26.533v8.48h26.533zm15.989-.59v9.64c0 8.5-6.9 15.419-15.392 15.419h-27.7c-8.501 0-15.42-6.919-15.42-15.419v-9.64c0-8.491 6.919-15.391 15.42-15.391h27.7c8.492 0 15.392 6.9 15.392 15.391zm-76.854.59h-26.528v8.48h26.528zm15.994-.59v9.64c0 8.5-6.924 15.419-15.42 15.419h-27.691c-8.491 0-15.401-6.919-15.401-15.419v-9.64c0-8.491 6.91-15.391 15.401-15.391h27.691c8.496 0 15.42 6.9 15.42 15.391zm-76.854.59H66.392v8.48H92.92zm15.994-.59v9.64c0 8.5-6.924 15.419-15.425 15.419H65.804c-8.491 0-15.391-6.919-15.391-15.419v-9.64c0-8.491 6.9-15.391 15.391-15.391H93.49c8.5 0 15.424 6.9 15.424 15.391zm105.731-51.391h-26.533v8.47h26.533zm15.989-.57v9.64c0 8.482-6.9 15.391-15.392 15.391h-27.7c-8.501 0-15.42-6.91-15.42-15.391v-9.64c0-8.5 6.919-15.419 15.42-15.419h27.7c8.492 0 15.392 6.919 15.392 15.419zm-76.854.57h-26.528v8.47h26.528zm15.994-.57v9.64c0 8.482-6.924 15.391-15.42 15.391h-27.691c-8.491 0-15.401-6.91-15.401-15.391v-9.64c0-8.5 6.91-15.419 15.401-15.419h27.691c8.496 0 15.42 6.919 15.42 15.419zm-76.854.57H66.392v8.47H92.92zm15.994-.57v9.64c0 8.482-6.924 15.391-15.425 15.391H65.804c-8.491 0-15.391-6.91-15.391-15.391v-9.64c0-8.5 6.9-15.419 15.391-15.419H93.49c8.5 0 15.424 6.919 15.424 15.419zm112.537-78.629H59.562v27.92h161.889zm15.994-.601v29.111c0 8.491-6.914 15.389-15.401 15.389H58.993c-8.501 0-15.42-6.899-15.42-15.389v-29.111c0-8.489 6.919-15.39 15.42-15.39h163.051c8.487 0 15.401 6.901 15.401 15.39zm244.405-96.399-7.014-4.05c-5.884-3.389-13.414-1.379-16.803 4.501l-7.86 13.601 28.335 16.349 7.86-13.601c3.389-5.861 1.365-13.4-4.518-16.8zm-71.809 180.979-12.92 22.37a7.95 7.95 0 0 1-2.928 2.929l-42.183 24.351a8.032 8.032 0 0 1-3.996 1.07H273.01v43.2h136.542a.49.49 0 0 0 .49-.48v-93.44zm-153.02-106.01v235.67c0 13.38-10.868 24.27-24.231 24.27H48.252c-13.377 0-24.259-10.89-24.259-24.27v-235.67c0-13.379 10.882-24.261 24.259-24.261H232.79c13.362.001 24.231 10.882 24.231 24.261zm-155.05-40.249V24.469c0-.254.231-.48.48-.48H357.54v40.277c0 6.731 5.479 12.21 12.219 12.21h40.281v128.229l-59.928 103.791H273.01v-44.329h95.474c4.42 0 7.988-3.58 7.988-8a7.985 7.985 0 0 0-7.988-7.99H273.01v-20.1c0-9.11-3.036-17.509-8.157-24.261h103.631c4.42 0 7.988-3.58 7.988-8a7.985 7.985 0 0 0-7.988-7.989H101.971zm271.564-152.51v25.18h25.168zm96.971 162.04-83.232 144.191-28.34-16.36 2.707-4.691c.052-.081.103-.171.15-.261l80.403-139.239zm-114.495 165.61v-21.01l18.201 10.498zm-83.001 5.849v-44.329h67.901a8.01 8.01 0 0 0-.889 3.62v40.709zm227.196-190.91-74.185 128.49v121.131c0 9.079-7.381 16.47-16.47 16.47H273.01v19.749c0 22.2-18.037 40.26-40.22 40.26H48.252c-22.188 0-40.249-18.061-40.249-40.26v-235.67c0-22.19 18.06-40.249 40.249-40.249h37.73V24.469c0-9.084 7.39-16.474 16.47-16.474h259.57c4.443 0 8.468 1.671 11.63 4.829l47.54 47.542c3.14 3.091 4.829 7.13 4.829 11.631v105.019l18.173-31.459c7.813-13.51 25.135-18.151 38.644-10.352l7.013 4.05c13.509 7.82 18.169 25.16 10.355 38.65zM273.801 83.166h42.183c4.42 0 7.997-3.58 7.997-7.99a7.988 7.988 0 0 0-7.997-7.991h-42.183a7.988 7.988 0 0 0-7.988 7.991c0 4.411 3.582 7.99 7.988 7.99zm-7.988 52.329a7.989 7.989 0 0 0 7.988 7.991h94.683a7.98 7.98 0 0 0 7.988-7.991 7.985 7.985 0 0 0-7.988-7.989h-94.683c-4.406 0-7.988 3.58-7.988 7.989z" fill="#000000" data-original="#000000" class=""></path></g></g></svg>