<svg width="51" height="45" viewBox="0 0 51 45" fill="none" xmlns="http://www.w3.org/2000/svg">
<g clip-path="url(#clip0_460_642)">
<path d="M47.3957 33.0469L50.1458 26.9803L48.666 26.4579L45.6793 33.0469H45.4219V24.6094H43.8281V13.3594H40.6406V10.5469H39.0469V13.3594H37.4531V9.14062H35.8594V13.3594H34.2656V10.5469H32.6719V13.3594H29.4844V21.7969H26.2969V25.4032C24.4186 23.3684 21.8551 21.8862 18.9457 21.207L18.5839 20.25C19.7458 19.9666 20.7004 19.2417 21.1777 18.2812H21.5156C23.2735 18.2812 24.7031 17.0198 24.7031 15.4688V11.9531C25.5821 11.9531 26.2969 11.3224 26.2969 10.5469V9.14062C26.2969 8.36508 25.5821 7.73438 24.7031 7.73438H24.5645C23.8019 3.68437 19.8765 0.703125 15.1406 0.703125C10.4048 0.703125 6.47939 3.68437 5.71678 7.73438H5.57812C4.69917 7.73438 3.98438 8.36508 3.98438 9.14062V10.5469C3.98438 11.3224 4.69917 11.9531 5.57812 11.9531V15.4688C5.57812 17.0198 7.00772 18.2812 8.76562 18.2812H9.1035C9.58162 19.2417 10.5355 19.9673 11.6973 20.25L11.3355 21.207C5.10797 22.6561 0.796875 27.5681 0.796875 33.2873V33.75C0.796875 36.7481 2.74444 39.3476 5.57812 40.6308V44.2969H29.4844V38.6719H31.9555C32.326 40.2743 33.9349 41.4844 35.8594 41.4844C37.7838 41.4844 39.3927 40.2743 39.7633 38.6719H43.7628C46.9622 38.6719 49.6668 36.6504 50.1928 33.866L50.3474 33.0469H47.3957ZM37.4531 33.0469V26.0156H43.8281V33.0469H37.4531ZM31.0781 14.7656H42.2344V24.6094H37.4531V21.7969H31.0781V14.7656ZM35.8594 23.2031V33.0469H27.8906V23.2031H35.8594ZM26.2969 27.8972V33.0469H26.0395L23.052 26.4572L21.5722 26.9796L24.323 33.0469H21.3722L21.5268 33.866C21.738 34.984 22.3045 35.9761 23.1094 36.7664V42.8906H19.125V41.4844C20.443 41.4844 21.5156 40.538 21.5156 39.375C21.5156 38.212 20.443 37.2656 19.125 37.2656V22.7299C22.1635 23.5821 24.7334 25.4215 26.2969 27.8972ZM16.9567 20.3906L17.4484 21.6928L15.1406 24.7479L12.8321 21.6928L13.3245 20.3906H16.9567ZM17.5312 27.5266L16.1272 25.9777L17.5312 24.1193V27.5266ZM12.75 27.5266V24.1193L14.1541 25.9777L12.75 27.5266ZM12.75 29.7773L15.1406 27.1406L17.5312 29.7773V35.9831C17.281 35.9051 17.0141 35.8594 16.7344 35.8594H15.8012C15.1629 35.8594 14.5621 36.0788 14.1103 36.4774L13.2927 37.1988L12.75 37.092V29.7773ZM14.3438 38.2598L15.237 37.4716C15.3877 37.3387 15.5885 37.2656 15.8012 37.2656H16.7344C17.1735 37.2656 17.5312 37.5813 17.5312 37.9688V38.6719H19.125C19.5641 38.6719 19.9219 38.9876 19.9219 39.375C19.9219 39.7624 19.5641 40.0781 19.125 40.0781H14.3438V38.2598ZM17.5312 41.4844V42.8906H12.75V41.4844H17.5312ZM21.5156 16.875V14.0625C22.3946 14.0625 23.1094 14.6932 23.1094 15.4688C23.1094 16.2443 22.3946 16.875 21.5156 16.875ZM23.1094 13.0472C22.6384 12.8053 22.0989 12.6562 21.5156 12.6562V11.9531H23.1094V13.0472ZM22.9468 7.73438H17.5312V2.43141C20.2685 3.18023 22.3683 5.18344 22.9468 7.73438ZM15.9375 2.14453V7.73438H14.3438V2.14453C14.6059 2.12203 14.8713 2.10938 15.1406 2.10938C15.41 2.10938 15.6753 2.12203 15.9375 2.14453ZM12.75 2.43141V7.73438H7.33444C7.91297 5.18344 10.0127 3.18023 12.75 2.43141ZM5.57733 9.14062H24.7031V10.5469H5.57812L5.57733 9.14062ZM8.76562 11.9531V12.6562C8.18231 12.6562 7.64283 12.8053 7.17188 13.0472V11.9531H8.76562ZM7.17188 15.4688C7.17188 14.6932 7.88667 14.0625 8.76562 14.0625V16.875C7.88667 16.875 7.17188 16.2443 7.17188 15.4688ZM10.3594 16.875V11.9531H19.9219V16.875C19.9219 18.038 18.8493 18.9844 17.5312 18.9844H12.75C11.432 18.9844 10.3594 18.038 10.3594 16.875ZM2.39062 33.75V33.2873C2.39062 28.3936 5.94788 24.1692 11.1562 22.7201V36.7805L10.2916 36.611C8.45484 36.2503 7.17188 34.8391 7.17188 33.1784V30.2344H5.57812V33.1784C5.57812 35.5029 7.37428 37.4787 9.9458 37.9828L12.75 38.5327V40.0781H9.5625C5.60841 40.0781 2.39062 37.2389 2.39062 33.75ZM7.17188 41.1848C7.93289 41.3754 8.73295 41.4844 9.5625 41.4844H11.1562V42.8906H7.17188V41.1848ZM24.7031 42.8906V37.9083C25.6458 38.3864 26.7352 38.6592 27.8906 38.6698V42.8906H24.7031ZM35.8594 40.0781C34.5413 40.0781 33.4688 39.1317 33.4688 37.9688C33.4688 37.5813 33.8265 37.2656 34.2656 37.2656H37.4531C37.8922 37.2656 38.25 37.5813 38.25 37.9688C38.25 39.1317 37.1774 40.0781 35.8594 40.0781ZM43.762 37.2656H39.6963C39.3664 36.4493 38.4899 35.8594 37.4523 35.8594H34.2648C33.2273 35.8594 32.3507 36.4493 32.0208 37.2656H27.9552C25.8642 37.2656 24.0537 36.123 23.3452 34.4531H48.3703C47.6635 36.123 45.8538 37.2656 43.762 37.2656Z" fill="#947AC6"/>
<path d="M39.0469 16.1719H40.6406V17.5781H39.0469V16.1719Z" fill="#947AC6"/>
<path d="M35.8594 16.1719H37.4531V17.5781H35.8594V16.1719Z" fill="#947AC6"/>
<path d="M32.6719 16.1719H34.2656V17.5781H32.6719V16.1719Z" fill="#947AC6"/>
<path d="M39.0469 18.9844H40.6406V20.3906H39.0469V18.9844Z" fill="#947AC6"/>
<path d="M32.6719 18.9844H34.2656V20.3906H32.6719V18.9844Z" fill="#947AC6"/>
<path d="M35.8594 18.9844H37.4531V20.3906H35.8594V18.9844Z" fill="#947AC6"/>
<path d="M39.0469 21.7969H40.6406V23.2031H39.0469V21.7969Z" fill="#947AC6"/>
<path d="M29.4844 24.6094H31.0781V31.6406H29.4844V24.6094Z" fill="#947AC6"/>
<path d="M32.6719 24.6094H34.2656V31.6406H32.6719V24.6094Z" fill="#947AC6"/>
<path d="M39.0469 27.4219H42.2344V28.8281H39.0469V27.4219Z" fill="#947AC6"/>
<path d="M39.0469 30.2344H42.2344V31.6406H39.0469V30.2344Z" fill="#947AC6"/>
</g>
<defs>
<clipPath id="clip0_460_642">
<rect width="51" height="45" fill="white"/>
</clipPath>
</defs>
</svg>
