<svg width="50" height="42" viewBox="0 0 50 42" fill="none" xmlns="http://www.w3.org/2000/svg">
<path d="M45.9473 14.9953C45.2539 14.7656 44.5215 14.6344 43.7402 14.6262C45.459 13.8633 46.6602 12.477 46.9531 10.8527C48.2715 10.7133 48.8867 9.15469 47.9883 8.31797C47.9981 8.31797 47.9883 6.39844 47.9883 6.39844C47.6465 -0.0656246 36.6602 0.082032 36.5527 6.5625H34.6387C33.4863 6.5625 32.5586 7.3418 32.5586 8.30977C32.5586 8.56406 32.8027 8.77734 33.1152 8.77734H36.8848V10.2129C36.8848 12.0996 38.0566 13.8059 39.9414 14.6344C37.207 14.577 35.332 16.4063 33.7793 18.0305L31.6406 20.0813L28.8672 17.8746C27.3145 16.7016 25.1074 18.4242 26.416 19.8023L30.2539 23.6988C30.9375 24.3797 32.1191 24.4863 32.9492 23.9367C34.1113 23.1738 35.3418 22.4766 36.5332 21.7629V26.2664C36.5332 26.5207 36.7773 26.734 37.0898 26.734H45.7031C47.041 26.7258 48.3691 26.734 49.4043 26.734C49.707 26.734 49.9609 26.5289 49.9609 26.2664V19.9336C49.9512 17.6941 48.291 15.7746 45.9473 14.9953ZM33.8379 7.84219C34.0137 7.62891 34.3066 7.49766 34.6387 7.49766H37.1094C37.4121 7.49766 37.666 7.29258 37.666 7.03008C37.4121 4.90547 39.0332 2.87109 41.6211 2.57578C44.3164 2.19844 46.9434 4.11797 46.8848 6.40664V7.85039C44.4141 7.85859 36.1328 7.84219 33.8379 7.84219ZM37.9785 10.2047V8.78555H46.9434C47.1582 8.88399 47.2949 9.10547 47.2949 9.33516C47.2949 9.67148 47.0117 9.94219 46.6699 9.94219C46.3184 9.86016 45.9082 10.0242 45.8887 10.3523C45.7617 11.9191 44.6191 13.2891 42.9102 13.9289C40.293 14.7738 37.9199 12.3785 37.9785 10.2047ZM42.5977 15.0199C42.6563 16.0125 40.9766 15.9961 41.0449 15.0117C41.1523 15.0281 41.25 15.0445 41.3574 15.0609C41.7676 15.1184 42.1875 15.0855 42.5977 15.0199ZM37.9883 25.807H37.6367V20.8605C37.6367 20.6063 37.3926 20.393 37.0801 20.393C36.8945 20.393 36.7285 20.4668 36.6309 20.5816C35.1367 21.4266 33.6914 22.2715 32.2559 23.1984C31.9043 23.4281 31.3867 23.3789 31.1035 23.0918L27.2656 19.1953C26.8164 18.7441 27.5977 18.1289 28.1055 18.5391L31.2988 21.0738C31.5234 21.2543 31.9043 21.2379 32.0996 21.041L34.6191 18.6293C35.6543 17.6613 36.5723 16.4965 38.0078 15.9223V25.807H37.9883ZM45.1367 25.807H39.4824C39.4824 25.807 39.1113 25.807 39.1016 25.807V17.9813H45.1367V25.807ZM45.1465 17.0543H39.1016V15.6352C39.3945 15.5859 39.707 15.5613 40.0195 15.5613C40.5762 17.0789 43.0664 17.0461 43.6426 15.5613C44.1699 15.5613 44.6777 15.627 45.1563 15.75V17.0543H45.1465ZM48.8477 25.807H46.2598C46.2598 24.8555 46.2598 16.8574 46.2598 16.1602C47.8027 16.923 48.8477 18.3258 48.8477 19.9336V25.807ZM22.7637 34.1414C19.4629 34.2234 19.4727 38.243 22.7637 38.3332C26.0547 38.243 26.0645 34.2316 22.7637 34.1414ZM24.1504 36.2332C24.1016 37.7672 21.4258 37.7672 21.377 36.2332C21.4258 34.7074 24.1016 34.6992 24.1504 36.2332ZM34.4727 30.1875C33.584 28.0793 31.3867 26.4305 28.7793 25.9711L19.6484 24.2895L9.47266 18.4406C8.84766 18.0797 8.125 17.891 7.38281 17.891H0.605469C0.302734 17.891 0.0488281 18.0961 0.0488281 18.3586V36.2742C0.0488281 36.5285 0.292969 36.7418 0.605469 36.7418H17.8809C18.1836 38.7844 20.2637 40.3758 22.7637 40.3758C25.2637 40.3758 27.3438 38.7844 27.6465 36.7418H32.9297C34.0137 36.7418 34.9023 35.9953 34.9023 35.0848V34.0348C34.8926 32.8535 34.9902 31.2211 34.4727 30.1875ZM28.7695 28.0301C28.7695 27.8742 28.916 27.7512 29.1016 27.7512H30.918C31.7578 28.227 32.4512 28.8832 32.9395 29.6297H30.3418C29.3164 29.6379 28.6523 28.8422 28.7695 28.0301ZM1.15234 20.6801H7.38281C7.5293 20.6473 8.64258 21.3773 8.78906 21.4266V24.5848H1.15234V20.6801ZM17.8613 35.8066H1.15234V34.4941H18.291C18.0762 34.9125 17.9199 35.3473 17.8613 35.8066ZM26.5723 36.2742C26.543 38.0215 24.834 39.4406 22.7539 39.4406C19.4922 39.4816 17.6758 36.0035 20.0098 34.0184C22.3535 31.9348 26.6211 33.4031 26.5723 36.2742ZM33.7891 35.0848C33.7891 35.4867 33.3984 35.8066 32.9297 35.8066H27.666C27.6074 35.3555 27.4512 34.9125 27.2363 34.4941H33.7891V35.0848ZM33.7891 33.559H26.5137C24.6582 31.6313 20.8691 31.6313 19.0137 33.559H1.15234V25.5117H16.084C16.3281 25.5117 16.543 25.3805 16.6113 25.1836C16.6797 24.9867 16.5918 24.7734 16.3965 24.6586L8.23242 19.9746C7.97852 19.8188 7.68555 19.7367 7.38281 19.7367H1.15234V18.818H7.38281C7.90039 18.818 8.4082 18.9492 8.84766 19.2035L19.1211 25.1016C19.1797 25.1344 19.248 25.159 19.3164 25.1754C19.4043 25.1918 28.5449 26.8734 28.623 26.8898C27.9297 27.0785 27.5781 27.702 27.666 28.309C27.666 29.5477 28.8672 30.5566 30.3418 30.5566C30.4883 30.5484 33.4082 30.5813 33.4375 30.5238C33.8184 31.3359 33.8086 32.6238 33.7891 33.559ZM9.90234 24.5848V22.0664L14.2969 24.5848H9.90234Z" fill="#947AC6"/>
</svg>
