<svg width="403" height="100" viewBox="0 0 403 100" fill="none" xmlns="http://www.w3.org/2000/svg">
<rect width="403" height="100" rx="50" fill="#7655B6"/>
<path d="M72.734 64L62.55 49.94L72.316 37.058H80.6L69.466 51.042L69.428 48.648L81.018 64H72.734ZM56.394 64V37.058H63.196V64H56.394ZM91.0355 64.418C89.0341 64.418 87.2481 64 85.6775 63.164C84.1321 62.3027 82.9035 61.1373 81.9915 59.668C81.0795 58.1733 80.6235 56.5013 80.6235 54.652C80.6235 52.8027 81.0668 51.156 81.9535 49.712C82.8655 48.2427 84.1068 47.09 85.6775 46.254C87.2481 45.3927 89.0215 44.962 90.9975 44.962C92.9735 44.962 94.7341 45.3927 96.2795 46.254C97.8501 47.09 99.0915 48.2427 100.003 49.712C100.915 51.156 101.371 52.8027 101.371 54.652C101.371 56.5013 100.915 58.1733 100.003 59.668C99.1168 61.1373 97.8881 62.3027 96.3175 63.164C94.7721 64 93.0115 64.418 91.0355 64.418ZM90.9975 58.528C91.7321 58.528 92.3655 58.376 92.8975 58.072C93.4548 57.7427 93.8855 57.2867 94.1895 56.704C94.4935 56.1213 94.6455 55.45 94.6455 54.69C94.6455 53.93 94.4808 53.2713 94.1515 52.714C93.8475 52.1313 93.4295 51.688 92.8975 51.384C92.3655 51.0547 91.7321 50.89 90.9975 50.89C90.2881 50.89 89.6548 51.0547 89.0975 51.384C88.5401 51.7133 88.1095 52.1693 87.8055 52.752C87.5015 53.3093 87.3495 53.968 87.3495 54.728C87.3495 55.4627 87.5015 56.1213 87.8055 56.704C88.1095 57.2867 88.5401 57.7427 89.0975 58.072C89.6548 58.376 90.2881 58.528 90.9975 58.528ZM111.063 64.532C109.923 64.532 108.795 64.38 107.681 64.076C106.591 63.772 105.565 63.3667 104.603 62.86C103.665 62.328 102.867 61.72 102.209 61.036L105.819 57.35C106.427 57.9833 107.149 58.4773 107.985 58.832C108.846 59.1867 109.758 59.364 110.721 59.364C111.278 59.364 111.696 59.288 111.975 59.136C112.279 58.984 112.431 58.7687 112.431 58.49C112.431 58.0847 112.215 57.7807 111.785 57.578C111.379 57.35 110.835 57.16 110.151 57.008C109.492 56.8307 108.795 56.628 108.061 56.4C107.326 56.1467 106.617 55.8173 105.933 55.412C105.249 55.0067 104.691 54.4367 104.261 53.702C103.855 52.9673 103.653 52.03 103.653 50.89C103.653 49.6993 103.969 48.6607 104.603 47.774C105.261 46.862 106.173 46.1527 107.339 45.646C108.504 45.114 109.872 44.848 111.443 44.848C113.039 44.848 114.559 45.1267 116.003 45.684C117.447 46.216 118.612 47.0267 119.499 48.116L115.851 51.802C115.243 51.118 114.571 50.6493 113.837 50.396C113.102 50.1173 112.431 49.978 111.823 49.978C111.24 49.978 110.822 50.0667 110.569 50.244C110.315 50.396 110.189 50.6113 110.189 50.89C110.189 51.2193 110.391 51.4853 110.797 51.688C111.227 51.8907 111.772 52.0807 112.431 52.258C113.115 52.41 113.811 52.6127 114.521 52.866C115.255 53.1193 115.952 53.474 116.611 53.93C117.295 54.3607 117.839 54.9433 118.245 55.678C118.675 56.4127 118.891 57.3627 118.891 58.528C118.891 60.3773 118.181 61.8467 116.763 62.936C115.344 64 113.444 64.532 111.063 64.532ZM124.427 64V37.742H131.039V64H124.427ZM120.323 50.928V45.418H135.143V50.928H120.323ZM146.556 64.418C144.479 64.418 142.642 64.0127 141.046 63.202C139.45 62.366 138.196 61.2133 137.284 59.744C136.372 58.2747 135.916 56.59 135.916 54.69C135.916 52.8153 136.36 51.156 137.246 49.712C138.133 48.2427 139.336 47.09 140.856 46.254C142.402 45.3927 144.137 44.962 146.062 44.962C147.937 44.962 149.596 45.3673 151.04 46.178C152.51 46.9633 153.65 48.0653 154.46 49.484C155.296 50.8773 155.714 52.4733 155.714 54.272C155.714 54.652 155.689 55.0447 155.638 55.45C155.613 55.83 155.537 56.2733 155.41 56.78L139.032 56.856V52.6L152.788 52.486L149.824 54.348C149.799 53.3093 149.647 52.4607 149.368 51.802C149.09 51.118 148.684 50.5987 148.152 50.244C147.62 49.8893 146.949 49.712 146.138 49.712C145.302 49.712 144.58 49.9147 143.972 50.32C143.364 50.7253 142.896 51.2953 142.566 52.03C142.237 52.7647 142.072 53.6513 142.072 54.69C142.072 55.754 142.25 56.666 142.604 57.426C142.959 58.1607 143.466 58.718 144.124 59.098C144.783 59.478 145.594 59.668 146.556 59.668C147.468 59.668 148.266 59.516 148.95 59.212C149.66 58.908 150.293 58.4393 150.85 57.806L154.308 61.264C153.396 62.3027 152.282 63.088 150.964 63.62C149.672 64.152 148.203 64.418 146.556 64.418ZM170.257 64V53.512C170.257 52.6507 170.004 51.9793 169.497 51.498C168.991 50.9913 168.345 50.738 167.559 50.738C167.027 50.738 166.546 50.852 166.115 51.08C165.71 51.308 165.393 51.6247 165.165 52.03C164.937 52.4353 164.823 52.9293 164.823 53.512L162.239 52.296C162.239 50.8013 162.569 49.522 163.227 48.458C163.886 47.3687 164.785 46.5327 165.925 45.95C167.091 45.342 168.408 45.038 169.877 45.038C171.22 45.038 172.411 45.3547 173.449 45.988C174.513 46.596 175.349 47.4193 175.957 48.458C176.565 49.4967 176.869 50.6747 176.869 51.992V64H170.257ZM158.211 64V45.418H164.823V64H158.211ZM180.366 64V36.298H186.978V64H180.366ZM200.026 64.418C198.024 64.418 196.238 64 194.668 63.164C193.122 62.3027 191.894 61.1373 190.982 59.668C190.07 58.1733 189.614 56.5013 189.614 54.652C189.614 52.8027 190.057 51.156 190.944 49.712C191.856 48.2427 193.097 47.09 194.668 46.254C196.238 45.3927 198.012 44.962 199.988 44.962C201.964 44.962 203.724 45.3927 205.27 46.254C206.84 47.09 208.082 48.2427 208.994 49.712C209.906 51.156 210.362 52.8027 210.362 54.652C210.362 56.5013 209.906 58.1733 208.994 59.668C208.107 61.1373 206.878 62.3027 205.308 63.164C203.762 64 202.002 64.418 200.026 64.418ZM199.988 58.528C200.722 58.528 201.356 58.376 201.888 58.072C202.445 57.7427 202.876 57.2867 203.18 56.704C203.484 56.1213 203.636 55.45 203.636 54.69C203.636 53.93 203.471 53.2713 203.142 52.714C202.838 52.1313 202.42 51.688 201.888 51.384C201.356 51.0547 200.722 50.89 199.988 50.89C199.278 50.89 198.645 51.0547 198.088 51.384C197.53 51.7133 197.1 52.1693 196.796 52.752C196.492 53.3093 196.34 53.968 196.34 54.728C196.34 55.4627 196.492 56.1213 196.796 56.704C197.1 57.2867 197.53 57.7427 198.088 58.072C198.645 58.376 199.278 58.528 199.988 58.528ZM220.053 64.532C218.913 64.532 217.786 64.38 216.671 64.076C215.582 63.772 214.556 63.3667 213.593 62.86C212.656 62.328 211.858 61.72 211.199 61.036L214.809 57.35C215.417 57.9833 216.139 58.4773 216.975 58.832C217.836 59.1867 218.748 59.364 219.711 59.364C220.268 59.364 220.686 59.288 220.965 59.136C221.269 58.984 221.421 58.7687 221.421 58.49C221.421 58.0847 221.206 57.7807 220.775 57.578C220.37 57.35 219.825 57.16 219.141 57.008C218.482 56.8307 217.786 56.628 217.051 56.4C216.316 56.1467 215.607 55.8173 214.923 55.412C214.239 55.0067 213.682 54.4367 213.251 53.702C212.846 52.9673 212.643 52.03 212.643 50.89C212.643 49.6993 212.96 48.6607 213.593 47.774C214.252 46.862 215.164 46.1527 216.329 45.646C217.494 45.114 218.862 44.848 220.433 44.848C222.029 44.848 223.549 45.1267 224.993 45.684C226.437 46.216 227.602 47.0267 228.489 48.116L224.841 51.802C224.233 51.118 223.562 50.6493 222.827 50.396C222.092 50.1173 221.421 49.978 220.813 49.978C220.23 49.978 219.812 50.0667 219.559 50.244C219.306 50.396 219.179 50.6113 219.179 50.89C219.179 51.2193 219.382 51.4853 219.787 51.688C220.218 51.8907 220.762 52.0807 221.421 52.258C222.105 52.41 222.802 52.6127 223.511 52.866C224.246 53.1193 224.942 53.474 225.601 53.93C226.285 54.3607 226.83 54.9433 227.235 55.678C227.666 56.4127 227.881 57.3627 227.881 58.528C227.881 60.3773 227.172 61.8467 225.753 62.936C224.334 64 222.434 64.532 220.053 64.532ZM240.431 64V37.742H247.043V64H240.431ZM236.327 50.928V45.418H251.147V50.928H236.327ZM262.56 64.418C260.483 64.418 258.646 64.0127 257.05 63.202C255.454 62.366 254.2 61.2133 253.288 59.744C252.376 58.2747 251.92 56.59 251.92 54.69C251.92 52.8153 252.364 51.156 253.25 49.712C254.137 48.2427 255.34 47.09 256.86 46.254C258.406 45.3927 260.141 44.962 262.066 44.962C263.941 44.962 265.6 45.3673 267.044 46.178C268.514 46.9633 269.654 48.0653 270.464 49.484C271.3 50.8773 271.718 52.4733 271.718 54.272C271.718 54.652 271.693 55.0447 271.642 55.45C271.617 55.83 271.541 56.2733 271.414 56.78L255.036 56.856V52.6L268.792 52.486L265.828 54.348C265.803 53.3093 265.651 52.4607 265.372 51.802C265.094 51.118 264.688 50.5987 264.156 50.244C263.624 49.8893 262.953 49.712 262.142 49.712C261.306 49.712 260.584 49.9147 259.976 50.32C259.368 50.7253 258.9 51.2953 258.57 52.03C258.241 52.7647 258.076 53.6513 258.076 54.69C258.076 55.754 258.254 56.666 258.608 57.426C258.963 58.1607 259.47 58.718 260.128 59.098C260.787 59.478 261.598 59.668 262.56 59.668C263.472 59.668 264.27 59.516 264.954 59.212C265.664 58.908 266.297 58.4393 266.854 57.806L270.312 61.264C269.4 62.3027 268.286 63.088 266.968 63.62C265.676 64.152 264.207 64.418 262.56 64.418ZM281.283 64.532C280.143 64.532 279.016 64.38 277.901 64.076C276.812 63.772 275.786 63.3667 274.823 62.86C273.886 62.328 273.088 61.72 272.429 61.036L276.039 57.35C276.647 57.9833 277.369 58.4773 278.205 58.832C279.067 59.1867 279.979 59.364 280.941 59.364C281.499 59.364 281.917 59.288 282.195 59.136C282.499 58.984 282.651 58.7687 282.651 58.49C282.651 58.0847 282.436 57.7807 282.005 57.578C281.6 57.35 281.055 57.16 280.371 57.008C279.713 56.8307 279.016 56.628 278.281 56.4C277.547 56.1467 276.837 55.8173 276.153 55.412C275.469 55.0067 274.912 54.4367 274.481 53.702C274.076 52.9673 273.873 52.03 273.873 50.89C273.873 49.6993 274.19 48.6607 274.823 47.774C275.482 46.862 276.394 46.1527 277.559 45.646C278.725 45.114 280.093 44.848 281.663 44.848C283.259 44.848 284.779 45.1267 286.223 45.684C287.667 46.216 288.833 47.0267 289.719 48.116L286.071 51.802C285.463 51.118 284.792 50.6493 284.057 50.396C283.323 50.1173 282.651 49.978 282.043 49.978C281.461 49.978 281.043 50.0667 280.789 50.244C280.536 50.396 280.409 50.6113 280.409 50.89C280.409 51.2193 280.612 51.4853 281.017 51.688C281.448 51.8907 281.993 52.0807 282.651 52.258C283.335 52.41 284.032 52.6127 284.741 52.866C285.476 53.1193 286.173 53.474 286.831 53.93C287.515 54.3607 288.06 54.9433 288.465 55.678C288.896 56.4127 289.111 57.3627 289.111 58.528C289.111 60.3773 288.402 61.8467 286.983 62.936C285.565 64 283.665 64.532 281.283 64.532ZM294.648 64V37.742H301.26V64H294.648ZM290.544 50.928V45.418H305.364V50.928H290.544ZM316.777 64.418C314.7 64.418 312.863 64.0127 311.267 63.202C309.671 62.366 308.417 61.2133 307.505 59.744C306.593 58.2747 306.137 56.59 306.137 54.69C306.137 52.8153 306.58 51.156 307.467 49.712C308.354 48.2427 309.557 47.09 311.077 46.254C312.622 45.3927 314.358 44.962 316.283 44.962C318.158 44.962 319.817 45.3673 321.261 46.178C322.73 46.9633 323.87 48.0653 324.681 49.484C325.517 50.8773 325.935 52.4733 325.935 54.272C325.935 54.652 325.91 55.0447 325.859 55.45C325.834 55.83 325.758 56.2733 325.631 56.78L309.253 56.856V52.6L323.009 52.486L320.045 54.348C320.02 53.3093 319.868 52.4607 319.589 51.802C319.31 51.118 318.905 50.5987 318.373 50.244C317.841 49.8893 317.17 49.712 316.359 49.712C315.523 49.712 314.801 49.9147 314.193 50.32C313.585 50.7253 313.116 51.2953 312.787 52.03C312.458 52.7647 312.293 53.6513 312.293 54.69C312.293 55.754 312.47 56.666 312.825 57.426C313.18 58.1607 313.686 58.718 314.345 59.098C315.004 59.478 315.814 59.668 316.777 59.668C317.689 59.668 318.487 59.516 319.171 59.212C319.88 58.908 320.514 58.4393 321.071 57.806L324.529 61.264C323.617 62.3027 322.502 63.088 321.185 63.62C319.893 64.152 318.424 64.418 316.777 64.418ZM340.478 64V53.512C340.478 52.6507 340.225 51.9793 339.718 51.498C339.211 50.9913 338.565 50.738 337.78 50.738C337.248 50.738 336.767 50.852 336.336 51.08C335.931 51.308 335.614 51.6247 335.386 52.03C335.158 52.4353 335.044 52.9293 335.044 53.512L332.46 52.296C332.46 50.8013 332.789 49.522 333.448 48.458C334.107 47.3687 335.006 46.5327 336.146 45.95C337.311 45.342 338.629 45.038 340.098 45.038C341.441 45.038 342.631 45.3547 343.67 45.988C344.734 46.596 345.57 47.4193 346.178 48.458C346.786 49.4967 347.09 50.6747 347.09 51.992V64H340.478ZM328.432 64V45.418H335.044V64H328.432Z" fill="white"/>
</svg>
