<svg xmlns="http://www.w3.org/2000/svg" version="1.1" xmlns:xlink="http://www.w3.org/1999/xlink" xmlns:svgjs="http://svgjs.com/svgjs" width="512" height="512" x="0" y="0" viewBox="0 0 64 64" style="enable-background:new 0 0 512 512" xml:space="preserve" class=""><g><path fill="#7655b6" d="M62 14v44c0 2.21-1.79 4-4 4h-4c2.21 0 4-1.79 4-4V14c0-2.21-1.79-4-4-4h4c2.21 0 4 1.79 4 4z" data-original="#ecc19c" class=""></path><path fill="#f5f772" d="M58 14v44c0 2.21-1.79 4-4 4h-4c2.21 0 4-1.79 4-4V14c0-2.21-1.79-4-4-4h4c2.21 0 4 1.79 4 4z" data-original="#fcd770" class=""></path><path fill="#74f5db" d="M46 62c2.21 0 4-1.79 4-4V14c0-2.21-1.79-4-4-4h4c2.21 0 4 1.79 4 4v44c0 2.21-1.79 4-4 4h-1z" data-original="#5cd6b3" class=""></path><path fill="#ccd1d9" d="M50 48v10c0 2.21-1.79 4-4 4H6c-2.21 0-4-1.79-4-4h40z" data-original="#ccd1d9" class=""></path><path fill="#e6e9ed" d="M50 22v26h-4V28H6v24h36v6H2V22z" data-original="#e6e9ed" class=""></path><path fill="#f5f772" d="m50 48-8 10V48h4z" data-original="#fcd770" class=""></path><path fill="#7655b6" d="M12 10h18c0 4.42 3.58 8 8 8v-4c-2.21 0-4-1.79-4-4h12c2.21 0 4 1.79 4 4v8H2v-8c0-2.21 1.79-4 4-4h2c0 4.42 3.58 8 8 8v-4c-2.21 0-4-1.79-4-4z" data-original="#ff826e" class=""></path><path fill="#aab2bd" d="M24 10h-4c0-2.21-1.79-4-4-4s-4 1.79-4 4 1.79 4 4 4v4c-4.42 0-8-3.58-8-8s3.58-8 8-8 8 3.58 8 8zM46 10h-4c0-2.21-1.79-4-4-4s-4 1.79-4 4 1.79 4 4 4v4c-4.42 0-8-3.58-8-8s3.58-8 8-8 8 3.58 8 8z" data-original="#aab2bd" class=""></path><path fill="#74f5db" d="M6 28v24h36v-4h4V28z" data-original="#5cd6b3" class=""></path><path d="M58 9H46.941C46.442 4.507 42.625 1 38 1s-8.442 3.507-8.941 8h-4.118C24.442 4.507 20.625 1 16 1S7.558 4.507 7.059 9H6c-2.757 0-5 2.243-5 5v44c0 2.757 2.243 5 5 5h52c2.757 0 5-2.243 5-5V14c0-2.757-2.243-5-5-5zM38 3c3.519 0 6.432 2.613 6.92 6h-2.021A5.01 5.01 0 0 0 38 5c-2.757 0-5 2.243-5 5a5.008 5.008 0 0 0 4 4.899v2.029c-3.388-.487-6-3.408-6-6.929C31 6.14 34.141 3 38 3zm2.816 6h-5.632c.414-1.161 1.514-2 2.816-2s2.402.839 2.816 2zM16 3c3.519 0 6.432 2.613 6.92 6h-2.021A5.01 5.01 0 0 0 16 5c-2.757 0-5 2.243-5 5a5.008 5.008 0 0 0 4 4.899v2.029c-3.388-.486-6-3.407-6-6.928 0-3.86 3.141-7 7-7zm2.816 6h-5.631c.413-1.161 1.513-2 2.815-2s2.402.839 2.816 2zM6 11h1.059c.499 4.493 4.316 8 8.941 8h1v-6h-1a2.996 2.996 0 0 1-2.816-2h15.875c.499 4.493 4.316 8 8.941 8h1v-6h-1a2.996 2.996 0 0 1-2.816-2H46c1.654 0 3 1.346 3 3v7H3v-7c0-1.654 1.346-3 3-3zm43 36h-2V27H5v26h36v4H3V23h46zm-8 0v4h-2v-6h6v2zM23 37h6v6h-6zm-2 6h-6v-6h6zm10-6h6v6h-6zm8 0h6v6h-6zm6-2h-6v-6h6zm-8 0h-6v-6h6zm-8 0h-6v-6h6zm-8 0h-6v-6h6zm-8 0H7v-6h6zm-6 2h6v6H7zm0 8h6v6H7zm8 0h6v6h-6zm8 0h6v6h-6zm8 0h6v6h-6zm12 4h4.919L43 55.149zm2 12H6a2.996 2.996 0 0 1-2.816-2H42.48L49 50.851V58c0 1.654-1.346 3-3 3zm4.974 0A4.948 4.948 0 0 0 51 58V14c0-1.13-.391-2.162-1.026-3H50c1.654 0 3 1.346 3 3v44c0 1.654-1.346 3-3 3zm4 0A4.948 4.948 0 0 0 55 58V14c0-1.13-.391-2.162-1.026-3H54c1.654 0 3 1.346 3 3v44c0 1.654-1.346 3-3 3zM61 58c0 1.654-1.346 3-3 3h-.026A4.948 4.948 0 0 0 59 58V14c0-1.13-.391-2.162-1.026-3H58c1.654 0 3 1.346 3 3z" fill="#000000" data-original="#000000" class=""></path></g></svg>