<svg xmlns="http://www.w3.org/2000/svg" version="1.1" xmlns:xlink="http://www.w3.org/1999/xlink" xmlns:svgjs="http://svgjs.com/svgjs" width="512" height="512" x="0" y="0" viewBox="0 0 505.003 505.003" style="enable-background:new 0 0 512 512" xml:space="preserve" class=""><g><path d="M104.254 142.764v-80.75h-57.25v80.75" style="" fill="#e5e9ea" data-original="#e5e9ea" class=""></path><path d="M73.003 142.764v-80.75H47.004v80.75" style="" fill="#d1d1d1" data-original="#d1d1d1" class=""></path><path d="M497.503 160.524v261.95c0 17.96-14.56 32.52-32.52 32.52H40.023c-17.96 0-32.52-14.56-32.52-32.52v-261.95c0-17.96 14.56-32.52 32.52-32.52h64.303c13.85 0 26.19-8.77 30.73-21.86l11.87-34.26a32.524 32.524 0 0 1 30.73-21.87h189.697c13.85 0 26.18 8.78 30.72 21.87l11.88 34.26a32.512 32.512 0 0 0 30.72 21.86h24.31c17.96 0 32.52 14.56 32.52 32.52z" style="" fill="#74f5db" data-original="#fcb65f" class=""></path><path d="M65.523 454.994h-25.5c-17.96 0-32.52-14.56-32.52-32.52v-261.95c0-17.96 14.56-32.52 32.52-32.52h23.48v.06c-17.02 1.05-30.5 15.18-30.5 32.46v261.95c0 17.96 14.56 32.52 32.52 32.52zM203.156 50.014c-13.86 0-26.19 8.78-30.73 21.87l-11.87 34.26c-4.54 13.09-16.88 21.86-30.73 21.86h-21.82v-.21c12.32-1.4 22.92-9.73 27.05-21.65l11.87-34.26a32.524 32.524 0 0 1 30.73-21.87h25.5z" style="" fill="#74f5db" data-original="#e29a4b" class=""></path><path d="M497.503 216.504v205.97c0 17.96-14.56 32.52-32.52 32.52H40.023c-17.96 0-32.52-14.56-32.52-32.52v-205.97h490z" style="" fill="#7655b6" data-original="#53bce9" class=""></path><path d="M65.523 454.994h-25.5c-17.96 0-32.52-14.56-32.52-32.52v-205.97h25.5v205.97c0 17.96 14.56 32.52 32.52 32.52z" style="" fill="#7655b6" data-original="#36a6ce" class=""></path><circle cx="252.5" cy="289.005" r="135.487" style="" fill="#e5e9ea" data-original="#e5e9ea" class=""></circle><path d="M348.303 289.004c0 28.21-12.19 53.57-31.6 71.11-16.99 15.35-39.49 24.7-64.2 24.7-24.7 0-47.21-9.35-64.2-24.7-19.41-17.53-31.61-42.9-31.61-71.11s12.2-53.58 31.61-71.1c16.99-15.36 39.5-24.7 64.2-24.7 24.71 0 47.21 9.35 64.2 24.7 19.41 17.53 31.6 42.89 31.6 71.1z" style="" fill="#566368" data-original="#566368"></path><path d="M320.239 221.261c19.947 19.947 29.26 46.499 27.938 72.627-26.128 1.322-52.68-7.99-72.627-27.938s-29.26-46.499-27.931-72.62c26.121-1.329 52.673 7.983 72.62 27.931zM229.447 312.053c19.947 19.947 29.26 46.499 27.938 72.627-26.121 1.329-52.687-7.983-72.634-27.931s-29.26-46.514-27.924-72.627c26.12-1.329 52.672 7.984 72.62 27.931z" style="" fill="#a7a7a7" data-original="#6f7b7f" class=""></path><circle cx="252.5" cy="289.005" r="30.958" style="" fill="#435054" data-original="#435054" class=""></circle><path d="M301.175 120.507h58.937c7.748 0 14.03-6.281 14.03-14.03V91.039c0-7.748-6.281-14.03-14.03-14.03h-58.937c-7.748 0-14.03 6.281-14.03 14.03v15.439c.001 7.748 6.282 14.029 14.03 14.029z" style="" fill="#e5e9ea" data-original="#e5e9ea" class=""></path><circle cx="100.654" cy="400.111" r="27.117" style="" fill="#566368" data-original="#566368"></circle><path d="M109.513 289.005c0 78.843 64.144 142.987 142.987 142.987 37.063 0 72.203-14.122 98.947-39.765a7.5 7.5 0 0 0 .223-10.604 7.498 7.498 0 0 0-10.604-.223c-23.938 22.952-55.392 35.592-88.566 35.592-70.572 0-127.987-57.415-127.987-127.987 0-70.573 57.415-127.988 127.987-127.988 70.573 0 127.988 57.415 127.988 127.988 0 27.394-8.528 53.516-24.661 75.543a7.5 7.5 0 1 0 12.101 8.863c18.03-24.616 27.56-53.803 27.56-84.406 0-78.844-64.144-142.988-142.988-142.988-78.843 0-142.987 64.144-142.987 142.988z" fill="#000000" data-original="#000000" class=""></path><path d="M252.5 185.701c-56.962 0-103.304 46.342-103.304 103.304S195.538 392.309 252.5 392.309s103.304-46.342 103.304-103.304S309.462 185.701 252.5 185.701zm0 191.608c-48.691 0-88.304-39.613-88.304-88.304s39.613-88.304 88.304-88.304 88.304 39.613 88.304 88.304-39.613 88.304-88.304 88.304z" fill="#000000" data-original="#000000" class=""></path><path d="M252.5 250.547c-21.206 0-38.458 17.252-38.458 38.458s17.252 38.458 38.458 38.458 38.458-17.252 38.458-38.458-17.252-38.458-38.458-38.458zm0 61.916c-12.935 0-23.458-10.523-23.458-23.458 0-12.935 10.523-23.458 23.458-23.458s23.458 10.523 23.458 23.458c0 12.935-10.523 23.458-23.458 23.458zM360.112 128.008c11.872 0 21.53-9.658 21.53-21.53V91.039c0-11.872-9.658-21.53-21.53-21.53h-58.937c-11.872 0-21.53 9.658-21.53 21.53v15.438c0 11.872 9.658 21.53 21.53 21.53h58.937zm-65.466-21.53V91.039a6.537 6.537 0 0 1 6.53-6.53h58.937a6.537 6.537 0 0 1 6.53 6.53v15.438a6.537 6.537 0 0 1-6.53 6.53h-58.937a6.536 6.536 0 0 1-6.53-6.529zM66.038 400.112c0 19.088 15.529 34.617 34.617 34.617s34.617-15.529 34.617-34.617-15.529-34.617-34.617-34.617-34.617 15.529-34.617 34.617zm54.233 0c0 10.817-8.8 19.617-19.617 19.617s-19.617-8.8-19.617-19.617 8.8-19.617 19.617-19.617 19.617 8.8 19.617 19.617z" fill="#000000" data-original="#000000" class=""></path><path d="M505.003 216.504c0-.023-.003-.045-.003-.068v-55.908c0-22.067-17.953-40.02-40.02-40.02h-24.303a25.036 25.036 0 0 1-23.64-16.825l-11.877-34.26c-5.581-16.097-20.776-26.911-37.813-26.911H208.152a7.5 7.5 0 0 0 0 15h159.196a25.036 25.036 0 0 1 23.64 16.824l11.877 34.26c5.581 16.097 20.776 26.912 37.813 26.912h24.303c13.796 0 25.02 11.224 25.02 25.02v48.476h-98.025a7.5 7.5 0 0 0 0 15H490v198.468c0 13.796-11.224 25.02-25.02 25.02H40.02c-13.796 0-25.02-11.224-25.02-25.02V224.004h98.021a7.5 7.5 0 0 0 0-15H15v-48.476c0-13.796 11.224-25.02 25.02-25.02h64.306c17.036 0 32.231-10.815 37.812-26.912l11.877-34.26a25.036 25.036 0 0 1 23.64-16.824h5.496a7.5 7.5 0 0 0 0-15h-5.496c-17.036 0-32.232 10.814-37.813 26.911l-11.877 34.26a25.036 25.036 0 0 1-23.639 16.825H40.02c-22.067 0-40.02 17.953-40.02 40.02v261.944c0 22.067 17.953 40.02 40.02 40.02h424.96c22.067 0 40.02-17.953 40.02-40.02v-205.9c0-.023.003-.045.003-.068z" fill="#000000" data-original="#000000" class=""></path><path d="M47.004 113.764a7.5 7.5 0 0 0 7.5-7.5v-36.75h42.25v36.75a7.5 7.5 0 0 0 15 0v-44.25a7.5 7.5 0 0 0-7.5-7.5h-57.25a7.5 7.5 0 0 0-7.5 7.5v44.25a7.5 7.5 0 0 0 7.5 7.5z" fill="#000000" data-original="#000000" class=""></path></g></svg>