<svg xmlns="http://www.w3.org/2000/svg" version="1.1" xmlns:xlink="http://www.w3.org/1999/xlink" xmlns:svgjs="http://svgjs.com/svgjs" width="512" height="512" x="0" y="0" viewBox="0 0 682.667 682.667" style="enable-background:new 0 0 512 512" xml:space="preserve" class=""><g><defs><clipPath id="a" clipPathUnits="userSpaceOnUse"><path d="M0 512h512V0H0Z" fill="#000000" data-original="#000000"></path></clipPath></defs><g clip-path="url(#a)" transform="matrix(1.33333 0 0 -1.33333 0 682.667)"><path d="M0 0h-60.305v-10.228c0-21.375-17.488-36.863-38.864-36.863h-150.385c-4.807 0-8.066-4.808-6.387-9.312 2.109-5.663 4.816-13.127 8.103-18.296l20.133-31.65c3.58-5.63-.346-10.473-6.43-7.732l-24.27 10.933a105.998 105.998 0 0 0-3.547 1.694v-98.922c0-21.375 17.488-38.864 38.863-38.864h150.385c4.808 0 8.066-4.808 6.388-9.312a86.875 86.875 0 0 0-8.104-16.295l-20.133-31.651c-3.58-5.629 2.346-12.472 8.43-9.731l24.27 10.933c22.52 10.145 39.929 27.663 50.17 48.744A12.987 12.987 0 0 0 0-239.24c21.375 0 38.864 17.489 38.864 38.864v161.512C38.864-17.488 21.375 0 0 0" style="fill-opacity:1;fill-rule:nonzero;stroke:none" transform="translate(416.452 314.353)" fill="#74f5db" data-original="#ffd301" class=""></path><path d="M0 0v153.285h-41.602c-4.807 0-8.066-4.808-6.387-9.312 2.11-5.662 4.816-13.126 8.103-18.295l20.133-31.651c3.58-5.629-.346-10.472-6.43-7.732l-24.27 10.934c-1.2.54-2.377 1.112-3.547 1.694V0c0-21.375 17.488-38.863 38.863-38.863h54C17.488-38.863 0-21.375 0 0" style="fill-opacity:1;fill-rule:nonzero;stroke:none" transform="translate(208.5 113.976)" fill="#d6fff7" data-original="#ffc20c" class=""></path><path d="M0 0h223.089c21.375 0 38.864-17.488 38.864-38.864v-161.512c0-21.375-17.489-38.864-38.864-38.864H72.704c-4.807 0-8.066-4.808-6.388-9.312a86.875 86.875 0 0 1 8.104-16.295l20.132-31.651c3.581-5.629-2.345-12.472-8.429-9.731l-24.27 10.933c-22.52 10.145-39.929 27.663-50.17 48.744A12.987 12.987 0 0 1 0-239.24c-21.375 0-38.864 17.489-38.864 38.864v161.512C-38.864-17.488-21.375 0 0 0" style="fill-opacity:1;fill-rule:nonzero;stroke:none" transform="translate(96.194 504.501)" fill="#b599eb" data-original="#60b8fe" class=""></path><path d="M0 0a86.875 86.875 0 0 0-8.104 16.295c-.184.493-.298.99-.368 1.483-.086.174-.18.343-.265.517a12.985 12.985 0 0 1-11.683 7.312c-21.375 0-38.864 17.489-38.864 38.864v161.512c0 21.376 17.489 38.864 38.864 38.864h-54c-21.375 0-38.864-17.488-38.864-38.864V64.471c0-21.375 17.489-38.864 38.864-38.864 4.974 0 9.509-2.837 11.683-7.312 10.241-21.081 27.65-38.6 50.17-48.744l24.27-10.933c6.084-2.741 12.01 4.102 8.429 9.732z" style="fill-opacity:1;fill-rule:nonzero;stroke:none" transform="translate(170.614 239.654)" fill="#7655b6" data-original="#23a8fe" class=""></path><path d="M0 0c0-8.746 7.09-15.836 15.836-15.836S31.672-8.746 31.672 0s-7.09 15.836-15.836 15.836S0 8.746 0 0" style="fill-opacity:1;fill-rule:nonzero;stroke:none" transform="translate(212.568 194.732)" fill="#dfebfa" data-original="#dfebfa" class=""></path><path d="M0 0c0-8.746 7.09-15.836 15.836-15.836S31.672-8.746 31.672 0s-7.09 15.836-15.836 15.836S0 8.746 0 0" style="fill-opacity:1;fill-rule:nonzero;stroke:none" transform="translate(266.979 194.732)" fill="#dfebfa" data-original="#dfebfa" class=""></path><path d="M0 0c0-8.746 7.09-15.836 15.835-15.836 8.747 0 15.836 7.09 15.836 15.836s-7.089 15.836-15.836 15.836C7.09 15.836 0 8.746 0 0" style="fill-opacity:1;fill-rule:nonzero;stroke:none" transform="translate(321.39 194.732)" fill="#dfebfa" data-original="#dfebfa" class=""></path><path d="M0 0c0-8.746 7.09-15.836 15.836-15.836S31.672-8.746 31.672 0s-7.09 15.836-15.836 15.836S0 8.746 0 0" style="fill-opacity:1;fill-rule:nonzero;stroke:none" transform="translate(375.802 194.732)" fill="#dfebfa" data-original="#dfebfa" class=""></path><path d="M0 0c0-8.746 7.09-15.836 15.836-15.836S31.671-8.746 31.671 0s-7.089 15.836-15.835 15.836S0 8.746 0 0Z" style="stroke-width:15;stroke-linecap:round;stroke-linejoin:round;stroke-miterlimit:10;stroke-dasharray:none;stroke-opacity:1" transform="translate(212.245 194.732)" fill="none" stroke="#000000" stroke-width="15" stroke-linecap="round" stroke-linejoin="round" stroke-miterlimit="10" stroke-dasharray="none" stroke-opacity="" data-original="#000000" class=""></path><path d="M0 0c0-8.746 7.09-15.836 15.836-15.836S31.672-8.746 31.672 0s-7.09 15.836-15.836 15.836S0 8.746 0 0Z" style="stroke-width:15;stroke-linecap:round;stroke-linejoin:round;stroke-miterlimit:10;stroke-dasharray:none;stroke-opacity:1" transform="translate(266.656 194.732)" fill="none" stroke="#000000" stroke-width="15" stroke-linecap="round" stroke-linejoin="round" stroke-miterlimit="10" stroke-dasharray="none" stroke-opacity="" data-original="#000000" class=""></path><path d="M0 0c0-8.746 7.09-15.836 15.836-15.836S31.672-8.746 31.672 0s-7.09 15.836-15.836 15.836S0 8.746 0 0Z" style="stroke-width:15;stroke-linecap:round;stroke-linejoin:round;stroke-miterlimit:10;stroke-dasharray:none;stroke-opacity:1" transform="translate(321.067 194.732)" fill="none" stroke="#000000" stroke-width="15" stroke-linecap="round" stroke-linejoin="round" stroke-miterlimit="10" stroke-dasharray="none" stroke-opacity="" data-original="#000000" class=""></path><path d="M0 0c0-8.746 7.09-15.836 15.836-15.836S31.672-8.746 31.672 0s-7.09 15.836-15.836 15.836S0 8.746 0 0Z" style="stroke-width:15;stroke-linecap:round;stroke-linejoin:round;stroke-miterlimit:10;stroke-dasharray:none;stroke-opacity:1" transform="translate(375.479 194.732)" fill="none" stroke="#000000" stroke-width="15" stroke-linecap="round" stroke-linejoin="round" stroke-miterlimit="10" stroke-dasharray="none" stroke-opacity="" data-original="#000000" class=""></path><path d="M0 0h200.809" style="stroke-width:15;stroke-linecap:round;stroke-linejoin:round;stroke-miterlimit:10;stroke-dasharray:none;stroke-opacity:1" transform="translate(107.011 449.737)" fill="none" stroke="#000000" stroke-width="15" stroke-linecap="round" stroke-linejoin="round" stroke-miterlimit="10" stroke-dasharray="none" stroke-opacity="" data-original="#000000" class=""></path><path d="M0 0h200.809" style="stroke-width:15;stroke-linecap:round;stroke-linejoin:round;stroke-miterlimit:10;stroke-dasharray:none;stroke-opacity:1" transform="translate(107.011 417.653)" fill="none" stroke="#000000" stroke-width="15" stroke-linecap="round" stroke-linejoin="round" stroke-miterlimit="10" stroke-dasharray="none" stroke-opacity="" data-original="#000000" class=""></path><path d="M0 0h200.809" style="stroke-width:15;stroke-linecap:round;stroke-linejoin:round;stroke-miterlimit:10;stroke-dasharray:none;stroke-opacity:1" transform="translate(107.011 385.57)" fill="none" stroke="#000000" stroke-width="15" stroke-linecap="round" stroke-linejoin="round" stroke-miterlimit="10" stroke-dasharray="none" stroke-opacity="" data-original="#000000" class=""></path><path d="M0 0h200.809" style="stroke-width:15;stroke-linecap:round;stroke-linejoin:round;stroke-miterlimit:10;stroke-dasharray:none;stroke-opacity:1" transform="translate(107.011 353.486)" fill="none" stroke="#000000" stroke-width="15" stroke-linecap="round" stroke-linejoin="round" stroke-miterlimit="10" stroke-dasharray="none" stroke-opacity="" data-original="#000000" class=""></path><path d="M0 0h200.809" style="stroke-width:15;stroke-linecap:round;stroke-linejoin:round;stroke-miterlimit:10;stroke-dasharray:none;stroke-opacity:1" transform="translate(107.011 321.402)" fill="none" stroke="#000000" stroke-width="15" stroke-linecap="round" stroke-linejoin="round" stroke-miterlimit="10" stroke-dasharray="none" stroke-opacity="" data-original="#000000" class=""></path><path d="M0 0h-94.044c-21.375 0-38.864-17.488-38.864-38.864v-161.512c0-21.375 17.489-38.864 38.864-38.864 4.974 0 9.509-2.838 11.683-7.312 10.241-21.081 27.65-38.6 50.17-48.744l24.27-10.933c6.083-2.741 12.01 4.102 8.429 9.731l-20.133 31.651a86.996 86.996 0 0 0-8.104 16.295c-1.678 4.504 1.582 9.312 6.389 9.312h150.384c21.375 0 38.864 17.489 38.864 38.864v161.512C167.908-17.488 150.419 0 129.044 0H35" style="stroke-width:15;stroke-linecap:round;stroke-linejoin:round;stroke-miterlimit:10;stroke-dasharray:none;stroke-opacity:1" transform="translate(189.916 504.501)" fill="none" stroke="#000000" stroke-width="15" stroke-linecap="round" stroke-linejoin="round" stroke-miterlimit="10" stroke-dasharray="none" stroke-opacity="" data-original="#000000" class=""></path><path d="M0 0v-96.923c0-21.375 17.488-38.863 38.863-38.863h150.385c4.808 0 8.066-4.808 6.388-9.312a86.853 86.853 0 0 0-8.104-16.296l-20.133-31.65c-3.58-5.629 2.347-12.473 8.43-9.732l24.271 10.933c22.52 10.145 39.928 27.664 50.169 48.745a12.987 12.987 0 0 0 11.683 7.312c21.376 0 38.864 17.488 38.864 38.863v61.592" style="stroke-width:15;stroke-linecap:round;stroke-linejoin:round;stroke-miterlimit:10;stroke-dasharray:none;stroke-opacity:1" transform="translate(154.177 210.899)" fill="none" stroke="#000000" stroke-width="15" stroke-linecap="round" stroke-linejoin="round" stroke-miterlimit="10" stroke-dasharray="none" stroke-opacity="" data-original="#000000" class=""></path><path d="M0 0v64.92c0 21.375-17.488 38.864-38.864 38.864h-58.305" style="stroke-width:15;stroke-linecap:round;stroke-linejoin:round;stroke-miterlimit:10;stroke-dasharray:none;stroke-opacity:1" transform="translate(454.993 210.568)" fill="none" stroke="#000000" stroke-width="15" stroke-linecap="round" stroke-linejoin="round" stroke-miterlimit="10" stroke-dasharray="none" stroke-opacity="" data-original="#000000" class=""></path></g></g></svg>