<svg id="Capa_1" enable-background="new 0 0 512 512" height="512" viewBox="0 0 512 512" width="512" xmlns="http://www.w3.org/2000/svg"><g><g><path d="m404.813 133.505-4.671 64.558-13.454 186.261-6.137 84.819c-1.442 19.938-17.398 35.358-36.595 35.358h-175.911c-19.197 0-35.154-15.419-36.595-35.358l-6.137-84.819-13.454-186.261-4.671-64.558z" fill="#d8ecfe"/><path d="m404.81 133.51-4.67 64.55-13.45 186.26-6.14 84.82c-1.44 19.94-17.4 35.36-36.59 35.36h-25c19.2 0 35.15-15.42 36.59-35.36l6.14-84.82 13.46-186.26 4.67-64.55z" fill="#b3dafe"/><path d="m429.809 133.505h-347.618v-48.493c0-7.002 5.676-12.678 12.678-12.678h322.261c7.002 0 12.678 5.676 12.678 12.678v48.493z" fill="#b57f5f"/><path d="m429.81 85.01v48.5h-25v-48.5c0-7-5.67-12.68-12.68-12.68h25c7 0 12.68 5.68 12.68 12.68z" fill="#9f6e50"/><path d="m411.037 72.333h-310.074l24.078-64.833 268.296 17.174z" fill="#b57f5f"/><path d="m411.04 72.33h-24l-18.28-49.23 24.58 1.57z" fill="#9f6e50"/><path d="m410.666 198.063-13.089 186.261h-283.154l-13.089-186.261z" fill="#e2a975"/><path d="m410.67 198.06-13.09 186.26h-25l13.09-186.26z" fill="#b57f5f"/><path d="m256 341.408c-21.55 0-39.02-17.47-39.02-39.02v-22.39c0-21.55 17.47-39.02 39.02-39.02 21.55 0 39.02 17.47 39.02 39.02v22.39c0 21.55-17.47 39.02-39.02 39.02z" fill="#b57f5f"/><path d="m295.02 280v22.39c0 21.55-17.47 39.02-39.02 39.02-4.37 0-8.57-.72-12.5-2.04 15.42-5.21 26.52-19.8 26.52-36.98v-22.39c0-10.78-4.37-20.53-11.43-27.59-4.2-4.2-9.34-7.44-15.09-9.39 3.93-1.32 8.13-2.04 12.5-2.04 10.78 0 20.53 4.37 27.59 11.43s11.43 16.81 11.43 27.59z" fill="#9f6e50"/></g><g><path d="m417.13 64.833h-.878l-15.884-42.771c-1.031-2.775-3.597-4.684-6.552-4.874l-202.07-12.934c-4.125-.256-7.699 2.872-7.964 7.006s2.872 7.699 7.006 7.964l197.213 12.624 12.25 32.985h-288.502l18.38-49.493 25.61 1.64c4.132.261 7.699-2.872 7.964-7.006s-2.872-7.699-7.006-7.964l-31.177-1.995c-3.314-.209-6.357 1.77-7.51 4.874l-22.262 59.944h-.878c-11.126 0-20.178 9.052-20.178 20.178v48.494c0 4.142 3.358 7.5 7.5 7.5h18.019l3.586 49.558c-4.857-.408-10.361 2.086-9.943 8.026l13.089 186.261c.276 3.928 3.543 6.974 7.481 6.974h264.202l-5.555 76.777c-1.152 15.925-13.941 28.399-29.115 28.399h-175.912c-15.174 0-27.963-12.474-29.115-28.399l-3.505-48.448c-.299-4.131-3.884-7.234-8.021-6.939-4.131.299-7.238 3.891-6.939 8.021l3.505 48.448c1.716 23.729 21.076 42.317 44.075 42.317h175.911c23 0 42.36-18.588 44.076-42.316l5.634-77.86c4.842.723 10.991-1.241 11.393-6.974l7.931-112.858c.291-4.132-2.824-7.717-6.956-8.007-4.129-.291-7.717 2.824-8.007 6.956l-7.441 105.884h-269.17l-12.035-171.261h293.241l-2.039 29.018c-.291 4.132 2.824 7.717 6.956 8.007 4.137.293 7.717-2.824 8.007-6.956l2.603-37.043c.418-5.94-5.086-8.434-9.943-8.026l3.586-49.558h18.019c4.142 0 7.5-3.358 7.5-7.5v-48.494c-.001-11.127-9.053-20.179-20.18-20.179zm-23.965 125.73h-274.33l-3.586-49.558h281.501zm29.144-64.558h-332.618v-40.993c0-2.855 2.323-5.178 5.178-5.178h322.261c2.855 0 5.178 2.323 5.178 5.178v40.993z"/><path d="m256.064 233.48c-.022 0-.043-.002-.064-.002-25.651 0-46.52 20.869-46.52 46.52v22.39c0 25.648 20.863 46.515 46.51 46.52h.006.001.003c25.651 0 46.52-20.869 46.52-46.52v-22.39c0-25.597-20.781-46.427-46.358-46.515-.033-.001-.065-.003-.098-.003zm-31.584 68.908v-22.39c0-12.208 6.982-22.81 17.158-28.043-4.084 12.311-4.266 28.553 8.594 44.031 13.149 15.826 6.005 31.416 2.07 37.698-15.644-1.838-27.822-15.167-27.822-31.296zm63.04-22.39v22.39c0 12.209-6.982 22.81-17.158 28.043 4.084-12.311 4.266-28.553-8.594-44.031-13.139-15.815-6.016-31.393-2.066-37.697 15.641 1.839 27.818 15.168 27.818 31.295z"/></g></g></svg>