<svg xmlns="http://www.w3.org/2000/svg" version="1.1" xmlns:xlink="http://www.w3.org/1999/xlink" width="512" height="512" x="0" y="0" viewBox="0 0 500 500" style="enable-background:new 0 0 512 512" xml:space="preserve" class=""><g><path fill-rule="evenodd" d="M101.56 233.913 85.607 217.96a6.856 6.856 0 0 1 9.692-9.698l10.72 10.725 27.088-31.612a6.865 6.865 0 0 1 9.675-.739 6.851 6.851 0 0 1 .739 9.663l-31.911 37.232c-2.596 3.031-7.233 3.198-10.05.382zm61.811-81.077a6.853 6.853 0 0 1 6.856-6.856l239.306-.006a6.852 6.852 0 0 1 6.856 6.856 6.853 6.853 0 0 1-6.856 6.856l-239.306.006a6.855 6.855 0 0 1-6.856-6.856zm-77.766 7.504a6.854 6.854 0 0 1 0-9.698 6.867 6.867 0 0 1 9.692 0l10.72 10.72 27.088-31.606a6.859 6.859 0 1 1 10.414 8.93l-31.911 37.22c-2.609 3.051-7.237 3.201-10.05.393zm312.903 279.372h-1.612l-.002-66.059h1.612c26.915-.001 48.829 14.82 48.83 33.031s-21.912 33.027-48.828 33.028zm-52.943-75.507a6.874 6.874 0 0 0-4.522 4.817 93.05 93.05 0 0 1-10.096 24.328 6.884 6.884 0 0 0-.208 6.614L340.951 420l-16.53 16.525-20.031-10.211a6.88 6.88 0 0 0-6.613.208 93.258 93.258 0 0 1-24.328 10.097 6.863 6.863 0 0 0-4.817 4.523l-6.948 21.371-23.369.001-6.949-21.371a6.85 6.85 0 0 0-4.817-4.522 93.499 93.499 0 0 1-24.334-10.095 6.848 6.848 0 0 0-6.596-.208l-20.036 10.212-16.537-16.524 10.205-20.037a6.84 6.84 0 0 0-.208-6.614 93.62 93.62 0 0 1-10.091-24.328 6.842 6.842 0 0 0-4.517-4.817l-21.371-6.936v-12.909l51.602-.001c-.012.404-.017.814-.017 1.219.001 36.03 29.314 65.353 65.356 65.352 36.03-.001 65.353-29.326 65.352-65.356 0-.404-.017-.814-.029-1.219l51.607-.001v12.909zM235.571 193.848a83.976 83.976 0 0 1 28.839-.001l.002 64.002c0 1.398-1.178 2.576-2.576 2.576l-23.675.001c-1.398 0-2.588-1.178-2.588-2.576zm-70.002 83.186c0 5.146.462 10.275 1.381 15.3l166.091-.004c7.626-41.467-16.466-81.274-54.919-94.902l.001 60.421c0 8.97-7.3 16.282-16.288 16.282l-23.675.001c-8.987 0-16.3-7.312-16.3-16.282l-.001-60.421c-32.755 11.611-56.291 42.917-56.29 79.605zm-52.108 53.619c-1.542 0-2.853-1.305-2.854-2.853v-18.899c0-1.542 1.311-2.853 2.853-2.853l273.071-.007c1.554 0 2.859 1.311 2.859 2.853v18.899c0 1.548-1.305 2.853-2.859 2.853zm188.183 14.926c0-.404-.017-.814-.029-1.219l-103.238.003c-.827 28.708 22.595 52.86 51.626 52.859 28.47-.001 51.642-23.174 51.641-51.643zm-248.98-18.656c0 17.9 24.866 33.026 54.288 33.025h12.401v-15.583h-5.891c-9.132 0-16.565-7.427-16.566-16.565v-18.899c0-9.132 7.433-16.565 16.565-16.566l39.588-.001c-9.293-59.636 36.791-113.439 96.951-113.44 24.917-.001 47.692 9.338 65.025 24.702l94.511-.002a6.845 6.845 0 0 1 6.856 6.856 6.853 6.853 0 0 1-6.856 6.856l-81.729.002c16.141 20.96 23.401 47.848 19.137 75.022l39.588-.001c9.138 0 16.571 7.433 16.571 16.565v18.899c0 9.137-7.433 16.565-16.57 16.566h-5.885v15.583h17.859c18.461 0 36.362 5.929 48.83 17.413l-.006-227.078c0-17.905-24.866-33.031-54.3-33.031l-291.543.007c-18.367 0-36.464-5.933-48.83-17.401zm48.822-289.441h1.6l.002 66.059h-1.6c-26.927.001-48.829-14.814-48.83-33.019-.001-18.218 21.901-33.04 48.828-33.04zm338.531 78.849c-12.649-8.254-29.336-12.799-46.987-12.798l-276.231.007-.002-72.909a6.849 6.849 0 0 0-6.856-6.856h-8.456c-16.294 0-31.698 4.604-43.371 12.962-12.354 8.855-19.163 20.858-19.163 33.784l.006 256.402c0 13.048 7.457 25.102 21.013 33.944 12.649 8.254 29.342 12.793 46.981 12.792l32.201-.001 7.543 2.449a106.715 106.715 0 0 0 8.664 20.914l-10.794 21.186a6.872 6.872 0 0 0 1.265 7.965l23.578 23.571a6.83 6.83 0 0 0 7.953 1.259l21.191-10.79a106.906 106.906 0 0 0 20.909 8.669l7.353 22.607a6.846 6.846 0 0 0 6.515 4.736l33.338-.001a6.858 6.858 0 0 0 6.521-4.736l7.341-22.607a106.523 106.523 0 0 0 20.914-8.67l21.186 10.789a6.846 6.846 0 0 0 7.965-1.259l23.571-23.572a6.863 6.863 0 0 0 1.259-7.965l-10.79-21.174a106.901 106.901 0 0 0 8.669-20.926l7.543-2.449 22.341-.001.002 72.915a6.849 6.849 0 0 0 6.856 6.856h8.462c16.288 0 31.692-4.598 43.359-12.962 12.371-8.861 19.181-20.852 19.181-33.778l-.006-256.408c.001-13.048-7.468-25.108-21.024-33.945z" clip-rule="evenodd" fill="#8668be" opacity="1" data-original="#000000" class=""></path></g></svg>