<?xml version="1.0" encoding="UTF-8" standalone="no"?>
<!-- Created with Inkscape (http://www.inkscape.org/) -->

<svg
   version="1.1"
   id="svg2022"
   xml:space="preserve"
   width="682.66669"
   height="682.66669"
   viewBox="0 0 682.66669 682.66669"
   xmlns="http://www.w3.org/2000/svg"
   xmlns:svg="http://www.w3.org/2000/svg"><defs
     id="defs2026"><clipPath
       clipPathUnits="userSpaceOnUse"
       id="clipPath2036"><path
         d="M 0,512 H 512 V 0 H 0 Z"
         id="path2034" /></clipPath></defs><g
     id="g2028"
     transform="matrix(1.3333333,0,0,-1.3333333,0,682.66667)"><g
       id="g2030"><g
         id="g2032"
         clip-path="url(#clipPath2036)"><g
           id="g2038"
           transform="translate(320.6455,365.9937)"><path
             d="M 0,0 C -9.896,33.106 -11.172,129.042 22.612,137.837 55.477,146.393 119.376,70.661 129.272,37.555 138.895,5.366 110.84,-12.435 79.873,-20.497 48.906,-28.559 9.622,-32.188 0,0"
             style="fill:#fccd7f;fill-opacity:1;fill-rule:nonzero;stroke:none"
             id="path2040" /></g><g
           id="g2042"
           transform="translate(433.4912,294.1753)"><path
             d="m 0,0 c -37.284,-6.301 -128.101,15.414 -137.188,58.811 -8.841,42.215 66.584,93.998 103.868,100.298 C 2.932,165.235 22.23,127.312 30.561,87.534 38.89,47.757 36.252,6.126 0,0"
             style="fill:#eab765;fill-opacity:1;fill-rule:nonzero;stroke:none"
             id="path2044" /></g><g
           id="g2046"
           transform="translate(464.0518,381.7095)"><path
             d="m 0,0 c -6.244,29.816 -18.651,58.59 -39.741,68.552 7.455,-12.745 12.679,-28.662 16.078,-44.889 8.33,-39.777 5.691,-81.408 -30.561,-87.535 -25.931,-4.381 -77.752,4.793 -109.966,25.384 19.382,-36.852 99.256,-54.855 133.629,-49.046 C 5.691,-81.408 8.33,-39.777 0,0"
             style="fill:#d9ab5e;fill-opacity:1;fill-rule:nonzero;stroke:none"
             id="path2048" /></g><g
           id="g2050"
           transform="translate(406.4375,160.8594)"><path
             d="m 0,0 c -50.384,14.83 -150.858,95.388 -136.164,152.877 14.295,55.924 139.656,72.73 190.041,57.9 C 102.865,196.359 104.219,139.302 90.749,86.608 77.28,33.914 48.989,-14.418 0,0"
             style="fill:#fccd7f;fill-opacity:1;fill-rule:nonzero;stroke:none"
             id="path2052" /></g><g
           id="g2054"
           transform="translate(471.6719,367.1177)"><path
             d="m 0,0 c 13.139,-25.052 10.679,-61.456 1.853,-95.988 -13.47,-52.694 -41.761,-101.026 -90.749,-86.607 -22.107,6.506 -53.855,25.667 -81.289,49.98 30.673,-35.001 76.049,-65.137 104.951,-73.643 48.989,-14.419 77.28,33.913 90.749,86.608 C 37.852,-71.386 37.746,-19.469 0,0"
             style="fill:#fbc56d;fill-opacity:1;fill-rule:nonzero;stroke:none"
             id="path2056" /></g><g
           id="g2058"
           transform="translate(146.0063,191.3545)"><path
             d="m 0,0 c -33.106,9.896 -129.042,11.172 -137.837,-22.612 -8.556,-32.865 67.176,-96.764 100.282,-106.66 32.189,-9.623 49.99,18.433 58.052,49.399 C 28.559,-48.906 32.188,-9.623 0,0"
             style="fill:#fccd7f;fill-opacity:1;fill-rule:nonzero;stroke:none"
             id="path2060" /></g><g
           id="g2062"
           transform="translate(217.8247,78.5088)"><path
             d="m 0,0 c 6.301,37.284 -15.414,128.101 -58.811,137.188 -42.215,8.841 -93.998,-66.584 -100.298,-103.868 -6.126,-36.252 31.797,-55.55 71.575,-63.88 C -47.757,-38.89 -6.126,-36.251 0,0"
             style="fill:#eab765;fill-opacity:1;fill-rule:nonzero;stroke:none"
             id="path2064" /></g><g
           id="g2066"
           transform="translate(168.7783,212.1387)"><path
             d="m 0,0 c 20.591,-32.215 29.766,-84.035 25.384,-109.967 -6.127,-36.252 -47.758,-38.89 -87.535,-30.56 -16.226,3.398 -32.143,8.622 -44.889,16.077 9.962,-21.089 38.736,-33.496 68.552,-39.74 39.778,-8.33 81.408,-5.691 87.534,30.56 C 54.855,-99.256 36.852,-19.383 0,0"
             style="fill:#d9ab5e;fill-opacity:1;fill-rule:nonzero;stroke:none"
             id="path2068" /></g><g
           id="g2070"
           transform="translate(351.1406,105.562)"><path
             d="m 0,0 c -14.829,50.384 -95.388,150.859 -152.877,136.164 -55.924,-14.294 -72.73,-139.656 -57.9,-190.04 14.418,-48.989 71.475,-50.342 124.17,-36.873 C -33.913,-77.28 14.418,-48.988 0,0"
             style="fill:#fccd7f;fill-opacity:1;fill-rule:nonzero;stroke:none"
             id="path2072" /></g><g
           id="g2074"
           transform="translate(351.1406,105.562)"><path
             d="m 0,0 c -8.507,28.901 -38.643,74.278 -73.644,104.951 24.313,-27.434 43.474,-59.181 49.981,-81.288 14.418,-48.989 -33.913,-77.28 -86.608,-90.749 -34.532,-8.827 -70.936,-11.286 -95.987,1.853 19.468,-37.747 71.386,-37.852 119.651,-25.516 C -33.913,-77.28 14.418,-48.988 0,0"
             style="fill:#fbc56d;fill-opacity:1;fill-rule:nonzero;stroke:none"
             id="path2076" /></g><g
           id="g2078"
           transform="translate(288.7314,52.5264)"><path
             d="m 0,0 c -44.593,44.593 -119.438,169.058 -59.242,229.253 54.68,54.68 185.39,-13.918 229.984,-58.511 C 214.101,127.383 181.878,68.924 141.849,28.894 101.818,-11.136 43.358,-43.358 0,0"
             style="fill:#eab765;fill-opacity:1;fill-rule:nonzero;stroke:none"
             id="path2080" /></g><g
           id="g2082"
           transform="translate(459.4736,223.2681)"><path
             d="m 0,0 c -4.206,4.206 -9.179,8.625 -14.781,13.134 29.341,-41.94 -0.904,-94.447 -37.776,-131.319 -37.073,-37.073 -89.953,-67.44 -132.005,-37.281 4.792,-5.765 9.453,-10.908 13.82,-15.276 43.358,-43.358 101.818,-11.136 141.848,28.894 C 11.136,-101.818 43.358,-43.358 0,0"
             style="fill:#d9ab5e;fill-opacity:1;fill-rule:nonzero;stroke:none"
             id="path2084" /></g><g
           id="g2086"
           transform="translate(288.7314,52.5264)"><path
             d="m 0,0 c -44.593,44.593 -119.438,169.058 -59.242,229.253 54.68,54.68 185.39,-13.918 229.984,-58.511 C 214.101,127.383 181.878,68.924 141.849,28.894 101.818,-11.136 43.358,-43.358 0,0 Z"
             style="fill:none;stroke:#000000;stroke-width:15;stroke-linecap:round;stroke-linejoin:round;stroke-miterlimit:10;stroke-dasharray:none;stroke-opacity:1"
             id="path2088" /></g><g
           id="g2090"
           transform="translate(282.4053,20.043)"><path
             d="M 0,0 C 12.229,4.071 23.821,9.036 33.967,14.976"
             style="fill:none;stroke:#000000;stroke-width:15;stroke-linecap:round;stroke-linejoin:round;stroke-miterlimit:10;stroke-dasharray:none;stroke-opacity:1"
             id="path2092" /></g><g
           id="g2094"
           transform="translate(209.0137,243.1602)"><path
             d="m 0,0 c -3.655,-0.078 -7.246,-0.539 -10.75,-1.434 -55.924,-14.295 -72.73,-139.656 -57.9,-190.04 13.273,-45.097 62.679,-49.826 111.552,-39.786"
             style="fill:none;stroke:#000000;stroke-width:15;stroke-linecap:round;stroke-linejoin:round;stroke-miterlimit:10;stroke-dasharray:none;stroke-opacity:1"
             id="path2096" /></g><g
           id="g2098"
           transform="translate(331.667,363.521)"><path
             d="m 0,0 c -30.666,-10.28 -55.492,-26.7 -61.394,-49.785 -1.076,-4.211 -1.518,-8.549 -1.423,-12.973"
             style="fill:none;stroke:#000000;stroke-width:15;stroke-linecap:round;stroke-linejoin:round;stroke-miterlimit:10;stroke-dasharray:none;stroke-opacity:1"
             id="path2100" /></g><g
           id="g2102"
           transform="translate(476.9814,195.6274)"><path
             d="m 0,0 c 8.776,14.992 15.426,33.139 20.205,51.84 13.47,52.694 12.116,109.751 -36.872,124.169 -22.97,6.761 -61.523,6.947 -98.031,-0.152"
             style="fill:none;stroke:#000000;stroke-width:15;stroke-linecap:round;stroke-linejoin:round;stroke-miterlimit:10;stroke-dasharray:none;stroke-opacity:1"
             id="path2104" /></g><g
           id="g2106"
           transform="translate(466.2158,369.5972)"><path
             d="m 0,0 c -0.596,4.031 -1.32,8.081 -2.164,12.112 -8.33,39.778 -27.629,77.701 -63.881,71.576 -37.284,-6.301 -112.709,-58.084 -103.868,-100.299 0.373,-1.781 0.896,-3.521 1.535,-5.228"
             style="fill:none;stroke:#000000;stroke-width:15;stroke-linecap:round;stroke-linejoin:round;stroke-miterlimit:10;stroke-dasharray:none;stroke-opacity:1"
             id="path2108" /></g><g
           id="g2110"
           transform="translate(420.7842,451.7139)"><path
             d="m 0,0 c -24.053,29.656 -56.9,57.487 -77.526,52.117 -25.127,-6.541 -30.858,-61.28 -28.075,-102.527"
             style="fill:none;stroke:#000000;stroke-width:15;stroke-linecap:round;stroke-linejoin:round;stroke-miterlimit:10;stroke-dasharray:none;stroke-opacity:1"
             id="path2112" /></g><g
           id="g2114"
           transform="translate(164.2417,214.1621)"><path
             d="m 0,0 c -1.707,0.639 -3.447,1.162 -5.228,1.535 -42.215,8.84 -93.998,-66.584 -100.298,-103.868 -6.126,-36.252 31.797,-55.55 71.575,-63.88 4.032,-0.845 8.081,-1.569 12.112,-2.164"
             style="fill:none;stroke:#000000;stroke-width:15;stroke-linecap:round;stroke-linejoin:round;stroke-miterlimit:10;stroke-dasharray:none;stroke-opacity:1"
             id="path2116" /></g><g
           id="g2118"
           transform="translate(110.6958,196.8164)"><path
             d="M 0,0 C -41.247,2.783 -95.985,-2.948 -102.527,-28.074 -107.896,-48.7 -80.066,-81.548 -50.41,-105.6"
             style="fill:none;stroke:#000000;stroke-width:15;stroke-linecap:round;stroke-linejoin:round;stroke-miterlimit:10;stroke-dasharray:none;stroke-opacity:1"
             id="path2120" /></g></g></g></g></svg>
