<svg id="Capa_1" enable-background="new 0 0 512 512" height="512" viewBox="0 0 512 512" width="512" xmlns="http://www.w3.org/2000/svg"><g><g><path d="m402.169 230.232-46.002-38.856 24.387-28.872c2.853-3.377 7.903-3.803 11.28-.95l33.772 28.526c3.377 2.853 3.803 7.903.95 11.28z" fill="#4f6c77"/><path d="m151.1 198.983h-36.55v-52.908c0-1.438 1.166-2.604 2.604-2.604h31.342c1.438 0 2.604 1.166 2.604 2.604z" fill="#4f6c77"/><path d="m151.1 158.69-36.55 16.204v24.089h36.55z" fill="#395a61"/><path d="m364.198 449.58h-276.361v-226.003l138.181-55.308 138.18 55.308z" fill="#faf7f8"/><path d="m87.837 223.577v38.12l132.569-58.772c3.573-1.584 7.65-1.584 11.223 0l132.569 58.771v-38.12l-138.18-55.308z" fill="#f0eef0"/><g><path d="m385.602 254.102-159.585-70.748-159.583 70.748c-2.31 1.024-5.012-.018-6.036-2.328l-11.732-26.462c-1.024-2.31.018-5.012 2.328-6.036l167.304-74.17c4.915-2.179 10.524-2.179 15.439 0l167.305 74.17c2.31 1.024 3.352 3.727 2.328 6.036l-11.732 26.462c-1.023 2.309-3.726 3.352-6.036 2.328z" fill="#6bb0e6"/></g><g><path d="m401.042 219.275-167.305-74.17c-4.915-2.179-10.524-2.179-15.439 0l-12.145 5.384c2.09.177 4.159.683 6.117 1.551l167.305 74.17c2.31 1.024 3.352 3.727 2.328 6.036l-7.49 16.894 11.19 4.961c2.31 1.024 5.012-.018 6.036-2.328l11.732-26.462c1.023-2.309-.019-5.012-2.329-6.036z" fill="#0c90db"/></g><g><path d="m258.829 449.58h-65.623v-61.276c0-5.242 4.249-9.491 9.491-9.491h46.641c5.242 0 9.491 4.249 9.491 9.491z" fill="#4f6c77"/><path d="m249.339 378.813h-20.844c5.242 0 9.491 4.249 9.491 9.491v61.276h20.844v-61.276c-.001-5.241-4.25-9.491-9.491-9.491z" fill="#395a61"/></g><g><g><path d="m180.664 343.141h-43.257c-2.531 0-4.582-2.051-4.582-4.582v-42.267c0-8.905 7.219-16.124 16.124-16.124h20.173c8.905 0 16.124 7.219 16.124 16.124v42.267c0 2.53-2.052 4.582-4.582 4.582z" fill="#a2dbff"/><path d="m169.122 280.168h-17.174c8.905 0 16.124 7.219 16.124 16.124v42.267c0 2.531-2.051 4.582-4.582 4.582h17.174c2.531 0 4.582-2.051 4.582-4.582v-42.267c0-8.905-7.219-16.124-16.124-16.124z" fill="#64caff"/></g><g><path d="m314.629 343.141h-43.257c-2.531 0-4.582-2.051-4.582-4.582v-42.267c0-8.905 7.219-16.124 16.124-16.124h20.173c8.905 0 16.124 7.219 16.124 16.124v42.267c0 2.53-2.052 4.582-4.582 4.582z" fill="#a2dbff"/><path d="m303.087 280.168h-17.174c8.905 0 16.124 7.219 16.124 16.124v42.267c0 2.531-2.051 4.582-4.582 4.582h17.174c2.531 0 4.582-2.051 4.582-4.582v-42.267c0-8.905-7.219-16.124-16.124-16.124z" fill="#64caff"/></g></g><g><path d="m118.037 384.682c.764-2.581 1.116-5.34.975-8.201-.61-12.371-10.629-22.514-22.992-23.259-14.242-.858-26.06 10.439-26.06 24.496 0 2.333.327 4.588.936 6.725.831 2.916.189 6.036-1.832 8.297-5.878 6.574-9.245 15.439-8.595 25.091 1.135 16.845 14.772 30.506 31.615 31.666 19.933 1.374 36.53-14.389 36.53-34.029 0-8.742-3.289-16.716-8.697-22.753-1.956-2.184-2.712-5.222-1.88-8.033z" fill="#6ce79a"/><path d="m119.917 392.715c-1.957-2.184-2.712-5.222-1.879-8.033.764-2.581 1.116-5.34.975-8.201-.61-12.371-10.629-22.514-22.992-23.259-4.358-.262-8.486.618-12.121 2.362 7.904 3.805 13.524 11.735 13.976 20.897.141 2.861-.21 5.619-.975 8.201-.833 2.811-.077 5.849 1.879 8.033 5.408 6.036 8.697 14.01 8.697 22.753 0 15.147-9.876 27.978-23.536 32.431 2.597.852 5.324 1.404 8.144 1.598 19.933 1.374 36.53-14.389 36.53-34.029-.001-8.743-3.29-16.717-8.698-22.753z" fill="#00d8a2"/></g><circle cx="345.271" cy="250.936" fill="#4f6c77" r="69.028"/><path d="m345.271 181.909c-4.324 0-8.549.417-12.653 1.177 32.076 5.946 56.374 34.052 56.374 67.85 0 33.799-24.298 61.904-56.374 67.85 4.104.761 8.329 1.178 12.653 1.178 38.123 0 69.028-30.905 69.028-69.028-.001-38.123-30.906-69.027-69.028-69.027z" fill="#395a61"/></g><g><path d="m137.407 350.64h43.257c6.662 0 12.082-5.42 12.082-12.082v-42.267c0-13.025-10.598-23.623-23.624-23.623h-20.174c-13.025 0-23.623 10.598-23.623 23.623v42.267c0 6.662 5.42 12.082 12.082 12.082zm2.918-54.348c0-4.755 3.868-8.623 8.623-8.623h20.174c4.755 0 8.624 3.868 8.624 8.623v39.349h-37.421z"/><path d="m509.34 56.691c-3.165-2.674-7.896-2.273-10.569.89l-90.941 107.667-11.156-9.423c-6.53-5.516-16.332-4.69-21.85 1.839l-15.272 18.082c-4.628-.877-9.402-1.336-14.282-1.336-7.129 0-14.033.98-20.584 2.812l-43.322-19.206c-3.788-1.682-8.219.03-9.896 3.816-1.679 3.787.03 8.218 3.816 9.896l30.647 13.586c-7.371 4.436-13.938 10.078-19.425 16.651l-57.449-25.469c-1.936-.857-4.145-.857-6.08 0l-156.909 69.563-9.36-21.113 164.629-72.984c2.975-1.318 6.388-1.318 9.36 0l17.925 7.946c3.785 1.68 8.218-.03 9.896-3.816 1.679-3.787-.03-8.218-3.817-9.896l-17.925-7.946c-6.838-3.031-14.681-3.031-21.519 0l-56.657 25.117v-17.292c0-5.571-4.532-10.104-10.104-10.104h-31.342c-5.571 0-10.104 4.533-10.104 10.104v40.145l-59.096 26.199c-2.949 1.308-5.212 3.685-6.372 6.694-1.161 3.009-1.08 6.29.228 9.239l11.73 26.458c1.307 2.95 3.685 5.215 6.694 6.375 1.411.544 2.881.815 4.349.815 1.664 0 3.324-.349 4.891-1.043l10.863-4.816v41.012c0 4.143 3.357 7.5 7.5 7.5s7.5-3.357 7.5-7.5v-47.662l130.681-57.935 51.927 23.021c-.963 1.776-1.857 3.594-2.68 5.451l-18.156.729-10.657-10.994c-2.882-2.974-7.631-3.048-10.604-.166-2.975 2.884-3.049 7.632-.165 10.605l12.991 13.402c1.415 1.461 3.359 2.28 5.385 2.28.1 0 .2-.002.301-.006l16.004-.642c-1.061 5.068-1.619 10.319-1.619 15.698 0 .109 0 .218.001.327l-31.261 5.861c-3.83.718-6.472 4.248-6.08 8.125l1.524 15.097-13.227 2.793c-4.053.855-6.646 4.834-5.789 8.887.745 3.531 3.86 5.953 7.33 5.953.514 0 1.035-.054 1.557-.164l19.816-4.184c3.749-.791 6.298-4.28 5.913-8.092l-1.509-14.942 23.26-4.362c.611 3 1.398 5.936 2.35 8.798-7.909 3.854-13.339 11.998-13.339 21.258v42.267c0 6.662 5.42 12.082 12.082 12.082h43.257c6.662 0 12.082-5.42 12.082-12.082v-13.37c3.134.783 6.344 1.373 9.616 1.756l-1.246 19.87-18.614 14.088c-3.303 2.499-3.955 7.202-1.456 10.506l9.027 11.933c1.475 1.949 3.718 2.975 5.987 2.975 1.576 0 3.165-.494 4.52-1.519 3.303-2.499 3.955-7.203 1.456-10.507l-4.503-5.951 15.378-11.638c1.742-1.318 2.823-3.331 2.96-5.512l1.502-23.961c1.801-.141 3.589-.345 5.36-.61v115.464h-90.369v-53.775c0-9.369-7.622-16.991-16.99-16.991h-46.642c-9.369 0-16.991 7.622-16.991 16.991v53.775h-59.22c6.168-7.429 9.628-16.876 9.628-26.612 0-10.262-3.768-20.12-10.61-27.757-.242-.271-.353-.633-.274-.899 1.025-3.461 1.454-7.06 1.275-10.699-.793-16.067-13.985-29.41-30.032-30.376-.379-.022-.757-.038-1.135-.047v-19.535c0-4.143-3.357-7.5-7.5-7.5s-7.5 3.357-7.5 7.5v22.802c-2.813 1.39-5.438 3.209-7.798 5.432-6.405 6.031-10.079 14.535-10.079 23.33 0 2.978.411 5.931 1.224 8.783.065.229.175.808-.211 1.24-7.525 8.415-11.249 19.28-10.487 30.594.605 8.983 4.098 17.208 9.553 23.745h-55.041c-4.143 0-7.5 3.357-7.5 7.5s3.357 7.5 7.5 7.5h437.035c4.143 0 7.5-3.357 7.5-7.5s-3.357-7.5-7.5-7.5h-72.837v-119.29c17.678-6.483 32.609-19.399 41.592-36.799 1.9-3.681.457-8.204-3.224-10.104-3.68-1.9-8.204-.458-10.104 3.224-10.622 20.573-31.578 33.354-54.691 33.354-33.927 0-61.527-27.601-61.527-61.527s27.601-61.527 61.527-61.527c34.936 0 63.236 29.283 61.444 64.735-.211 4.137 2.972 7.661 7.108 7.872 4.156.215 7.661-2.973 7.872-7.108.537-10.494-1.05-20.873-4.684-30.624l15.273-18.083c5.53-6.544 4.711-16.319-1.838-21.851l-11.157-9.424 90.94-107.666c2.673-3.168 2.275-7.899-.889-10.572zm-387.29 94.279h21.55v19.046l-21.55 9.554zm-47.396 246.769c3.719-4.159 5.01-9.898 3.454-15.35-.43-1.513-.648-3.084-.648-4.672 0-4.746 1.904-9.153 5.362-12.409 10.618-10.001 27.995-2.735 28.699 11.541.096 1.947-.132 3.865-.676 5.701v.003c-1.547 5.228-.212 11.038 3.485 15.165 4.373 4.883 6.782 11.187 6.782 17.749 0 7.457-3.004 14.367-8.458 19.459-16.354 15.269-43.206 4.634-44.703-17.6-.488-7.251 1.893-14.207 6.703-19.587zm126.052 44.341v-53.775c0-1.098.894-1.991 1.991-1.991h46.642c1.098 0 1.99.894 1.99 1.991v53.775zm111.005-122.375v15.935h-37.421v-39.349c0-3.221 1.797-6.071 4.46-7.55 7.611 13.34 19.118 24.182 32.961 30.964zm109.115-123.185-11.121 13.167c-8.275-12.881-20.304-23.131-34.529-29.193l11.108-13.151c.179-.214.498-.24.711-.06 11.311 9.553 21.223 17.926 33.772 28.525.212.177.243.497.059.712z"/></g></g></svg>