<?xml version="1.0" encoding="iso-8859-1"?>
<!-- Generator: Adobe Illustrator 19.0.0, SVG Export Plug-In . SVG Version: 6.00 Build 0)  -->
<svg xmlns="http://www.w3.org/2000/svg" xmlns:xlink="http://www.w3.org/1999/xlink" version="1.1" id="Layer_1" x="0px" y="0px" viewBox="0 0 502 502" style="enable-background:new 0 0 502 502;" xml:space="preserve" width="512" height="512">
<g>
	<g>
		<polygon style="fill:#E6E6E6;" points="163.592,492 338.408,492 342.59,467.95 159.41,467.95   "/>
		<rect x="149.059" y="10" style="fill:#E6E6E6;" width="203.883" height="26.054"/>
		<polygon style="fill:#E6E6E6;" points="352.941,255.509 352.941,36.054 316.968,36.054 250.779,255.509   "/>
		<polygon style="fill:#0071BC;" points="316.968,36.054 149.059,36.054 149.059,255.509 250.779,255.509   "/>
		<polygon style="fill:#0071BC;" points="352.941,255.509 250.779,255.509 186.707,467.95 352.941,467.95   "/>
		<polygon style="fill:#E6E6E6;" points="149.059,255.509 149.059,467.95 186.707,467.95 250.779,255.509   "/>
		<g>
			<polygon style="fill:#C1272D;" points="221.331,240.022 178.722,282.631 322.75,282.631 280.142,240.022    "/>
			<circle style="fill:#FBB03B;" cx="250.736" cy="250.5" r="31.5"/>
		</g>
	</g>
	<path d="M139.059,467.95c0,5.522,4.478,10,10,10h1.939l2.741,15.764c0.833,4.789,4.991,8.286,9.853,8.286h174.816   c4.861,0,9.02-3.497,9.853-8.286l2.741-15.764h1.939c5.522,0,10-4.478,10-10V10c0-5.522-4.478-10-10-10H149.059   c-5.522,0-10,4.478-10,10V467.95z M342.941,457.95h-0.351H200.168l49.861-165.319h72.721c4.047,0,7.695-2.439,9.241-6.18   c1.547-3.74,0.686-8.044-2.181-10.901l-10.069-10.04h23.2V457.95z M342.941,245.51h-43.257l-10.412-10.383   c-3.214-8.026-8.861-14.819-16.029-19.466l51.154-169.607h18.545V245.51z M272.236,250.5c0,11.855-9.645,21.5-21.5,21.5   s-21.5-9.645-21.5-21.5s9.645-21.5,21.5-21.5S272.236,238.645,272.236,250.5z M211.446,263.831c1.06,3.116,2.479,6.065,4.21,8.8   H202.72L211.446,263.831z M289.953,264.049l8.606,8.582h-12.742C287.508,269.96,288.901,267.085,289.953,264.049z M254.312,209.164   c-1.18-0.101-2.37-0.164-3.575-0.164c-17.159,0-31.92,10.469-38.23,25.354l-11.06,11.155h-42.387V46.054h144.448L254.312,209.164z    M159.059,457.95V265.51h22.557l-9.995,10.08c-2.843,2.867-3.683,7.161-2.13,10.888s5.193,6.153,9.23,6.153h50.417L179.278,457.95   h-19.869H159.059z M159.059,26.054V20h183.883v6.054H159.059z M330.701,477.95l-0.704,4.05H172.003l-0.704-4.05H330.701z"/>
</g>















</svg>
