<?xml version="1.0" encoding="UTF-8" standalone="no"?>
<!-- Created with Inkscape (http://www.inkscape.org/) -->

<svg
   version="1.1"
   id="svg576"
   width="682.66669"
   height="682.66669"
   viewBox="0 0 682.66669 682.66669"
   xmlns="http://www.w3.org/2000/svg"
   xmlns:svg="http://www.w3.org/2000/svg">
  <defs
     id="defs580">
    <clipPath
       clipPathUnits="userSpaceOnUse"
       id="clipPath590">
      <path
         d="M 0,512 H 512 V 0 H 0 Z"
         id="path588" />
    </clipPath>
  </defs>
  <g
     id="g582"
     transform="matrix(1.3333333,0,0,-1.3333333,0,682.66667)">
    <g
       id="g584">
      <g
         id="g586"
         clip-path="url(#clipPath590)">
        <g
           id="g592"
           transform="translate(377.128,85.1176)">
          <path
             d="m 0,0 10.479,-1.848 c 8.185,-1.443 16.615,0.195 23.664,4.597 l 40.414,25.242 c 16.179,10.104 27.309,26.601 30.622,45.387 l 15.974,90.594 -89.459,15.774 -89.459,15.774 -15.974,-90.594 c -3.312,-18.786 1.504,-38.095 13.251,-53.123 l 29.344,-37.542 c 5.119,-6.548 12.48,-10.97 20.665,-12.413 z"
             style="fill:#e1ebef;fill-opacity:1;fill-rule:nonzero;stroke:none"
             id="path594" />
        </g>
        <g
           id="g596"
           transform="translate(360.3672,151.053)">
          <path
             d="m 0,0 c 34.707,15.58 53.67,73.115 53.67,73.115 0,0 -56.619,21.543 -90.591,4.419 -6.698,-3.376 -11.729,-7.789 -15.498,-12.688 L -56.978,38.99 C -58.585,29.879 -58.263,20.649 -56.182,11.84 -46.08,3.058 -24.617,-11.051 0,0"
             style="fill:#c4d3d6;fill-opacity:1;fill-rule:nonzero;stroke:none"
             id="path598" />
        </g>
        <g
           id="g600"
           transform="translate(468.4613,254.3477)">
          <path
             d="m 0,0 -13.491,-76.513 c -3.313,-18.785 -14.443,-35.282 -30.622,-45.387 l -40.414,-25.241 c -7.049,-4.403 -15.479,-6.04 -23.664,-4.597 l -10.479,1.847 c 0,0 -6.857,1.21 -9.02,1.591 l 5.213,-6.669 c 5.118,-6.548 12.48,-10.97 20.665,-12.413 l 10.479,-1.848 10.479,-1.848 c 8.185,-1.443 16.614,0.195 23.664,4.598 l 40.414,25.241 c 16.179,10.104 27.309,26.601 30.621,45.386 L 29.82,-5.258 Z"
             style="fill:#c4d3d6;fill-opacity:1;fill-rule:nonzero;stroke:none"
             id="path602" />
        </g>
        <g
           id="g604"
           transform="translate(419.6302,326.1596)">
          <path
             d="m 0,0 -22.365,3.943 -10.808,-61.295 22.365,-3.944 22.365,-3.943 10.808,61.295 z"
             style="fill:#e1ebef;fill-opacity:1;fill-rule:nonzero;stroke:none"
             id="path606" />
        </g>
        <g
           id="g608"
           transform="translate(428.7417,324.5529)">
          <path
             d="m 0,0 -7.157,-40.588 c -0.806,-4.575 -5.169,-7.629 -9.744,-6.822 l -14.081,2.482 -9.112,1.607 -2.19,-12.425 22.364,-3.943 22.365,-3.944 10.808,61.296 z"
             style="fill:#c4d3d6;fill-opacity:1;fill-rule:nonzero;stroke:none"
             id="path610" />
        </g>
        <g
           id="g612"
           transform="translate(441.1003,447.923)">
          <path
             d="m 0,0 -22.365,3.944 -21.47,-121.764 22.365,-3.943 22.365,-3.944 21.47,121.764 z"
             style="fill:#ffd432;fill-opacity:1;fill-rule:nonzero;stroke:none"
             id="path614" />
        </g>
        <g
           id="g616"
           transform="translate(418.7356,451.8665)">
          <path
             d="m 0,0 -2.191,-12.425 23.193,-4.089 c 4.575,-0.807 7.63,-5.169 6.823,-9.744 l -14.168,-80.347 c -0.806,-4.575 -5.169,-7.63 -9.743,-6.823 l -23.193,4.089 -2.191,-12.424 44.729,-7.887 21.47,121.763 z"
             style="fill:#f4ac03;fill-opacity:1;fill-rule:nonzero;stroke:none"
             id="path618" />
        </g>
        <g
           id="g620"
           transform="translate(498.0565,460.9402)">
          <path
             d="M 0,0 3.944,22.365 -102.082,41.06 -106.025,18.695 -109.969,-3.67 -3.943,-22.365 Z"
             style="fill:#64aef7;fill-opacity:1;fill-rule:nonzero;stroke:none"
             id="path622" />
        </g>
        <g
           id="g624"
           transform="translate(486.2619,486.0799)">
          <path
             d="m 0,0 -3.651,-20.708 c -0.807,-4.575 -5.169,-7.629 -9.744,-6.823 l -82.004,14.46 -2.775,-15.738 106.025,-18.695 7.887,44.729 z"
             style="fill:#0a86e3;fill-opacity:1;fill-rule:nonzero;stroke:none"
             id="path626" />
        </g>
        <g
           id="g628"
           transform="translate(418,10)">
          <path
             d="M 0,0 H 84 C 84,23.196 65.196,42 42,42 36.937,42 32.083,41.103 27.588,39.461 14.479,60.209 -8.643,74 -35,74 -38.984,74 -42.891,73.676 -46.704,73.07 -50.532,95.18 -69.796,112 -93,112 c -17.055,0 -31.988,-9.085 -40.225,-22.679 C -140.355,97.112 -150.606,102 -162,102 -173.394,102 -183.645,97.112 -190.775,89.321 -199.012,102.915 -213.945,112 -231,112 -254.204,112 -273.468,95.18 -277.296,73.07 -281.109,73.676 -285.016,74 -289,74 -315.357,74 -338.479,60.209 -351.588,39.461 -356.083,41.103 -360.937,42 -366,42 -389.196,42 -408,23.196 -408,0 h 84 z"
             style="fill:#a77554;fill-opacity:1;fill-rule:nonzero;stroke:none"
             id="path630" />
        </g>
        <g
           id="g632"
           transform="translate(460,52)">
          <path
             d="M 0,0 C -5.063,0 -9.917,-0.897 -14.412,-2.539 -27.521,18.209 -50.643,32 -77,32 -80.984,32 -84.891,31.676 -88.704,31.07 -92.532,53.18 -111.796,70 -135,70 c -16.994,0 -31.876,-9.023 -40.131,-22.536 22.623,-2.705 42.103,-15.618 53.719,-34.003 4.495,1.642 9.349,2.539 14.412,2.539 15.676,0 29.347,-8.588 36.563,-21.317 C -65.202,-14.552 -72.124,-26 -82.74,-26 H -149 -446.837 C -448.871,-30.932 -450,-36.333 -450,-42 h 84 324 84 C 42,-18.804 23.196,0 0,0"
             style="fill:#915431;fill-opacity:1;fill-rule:nonzero;stroke:none"
             id="path634" />
        </g>
        <g
           id="g636"
           transform="translate(417,36)">
          <path
             d="m 0,0 c 0,-3.314 -2.686,-6 -6,-6 -3.314,0 -6,2.686 -6,6 0,3.314 2.686,6 6,6 3.314,0 6,-2.686 6,-6"
             style="fill:#000000;fill-opacity:1;fill-rule:nonzero;stroke:none"
             id="path638" />
        </g>
        <g
           id="g640"
           transform="translate(125,52)">
          <path
             d="m 0,0 c 0,-3.314 -2.686,-6 -6,-6 -3.314,0 -6,2.686 -6,6 0,3.314 2.686,6 6,6 3.314,0 6,-2.686 6,-6"
             style="fill:#000000;fill-opacity:1;fill-rule:nonzero;stroke:none"
             id="path642" />
        </g>
        <g
           id="g644"
           transform="translate(214,206.0145)">
          <path
             d="M 0,0 C 0,0 -25.454,-30.082 -56.42,-16.181 -87.835,-2.079 -105,50 -105,50 c 0,0 51.25,19.5 82,4 C 7.31,38.722 0,0 0,0"
             style="fill:#6ec030;fill-opacity:1;fill-rule:nonzero;stroke:none"
             id="path646" />
        </g>
        <g
           id="g648"
           transform="translate(191,260.0144)">
          <path
             d="M 0,0 C -4.191,2.113 -8.764,3.571 -13.535,4.521 5.892,-13.074 0.226,-43.165 0.226,-43.165 c 0,0 -19.763,-23.349 -45.646,-19.392 3.733,-3.09 7.734,-5.709 12,-7.624 C -2.454,-84.082 23,-54 23,-54 c 0,0 7.31,38.722 -23,54"
             style="fill:#378900;fill-opacity:1;fill-rule:nonzero;stroke:none"
             id="path650" />
        </g>
        <g
           id="g652"
           transform="translate(298,191.0145)">
          <path
             d="M 0,0 C 0,0 25.454,-30.082 56.42,-16.181 87.835,-2.079 105,50 105,50 105,50 53.75,69.5 23,54 -7.31,38.722 0,0 0,0"
             style="fill:#6ec030;fill-opacity:1;fill-rule:nonzero;stroke:none"
             id="path654" />
        </g>
        <g
           id="g656"
           transform="translate(382.3938,247.0247)">
          <path
             d="m 0,0 c -4.648,-12.27 -20.947,-50.571 -47.2,-62.356 -10.14,-4.552 -19.688,-4.387 -27.946,-2.107 10.118,-7.672 27.535,-16.543 47.172,-7.728 31.415,14.102 48.58,66.181 48.58,66.181 0,0 -8.478,3.225 -20.606,6.01"
             style="fill:#378900;fill-opacity:1;fill-rule:nonzero;stroke:none"
             id="path658" />
        </g>
        <g
           id="g660"
           transform="translate(256,268)">
          <path
             d="M 0,0 C 0,0 38,9.057 38,43 38,76.875 0,118 0,118 0,118 -38,76.875 -38,43 -38,9.057 0,0 0,0"
             style="fill:#6ec030;fill-opacity:1;fill-rule:nonzero;stroke:none"
             id="path662" />
        </g>
        <g
           id="g664"
           transform="translate(256.4622,385.4904)">
          <path
             d="m 0,0 c 9.344,-14.414 18.538,-32.828 18.538,-49.49 0,-17.93 -10.603,-28.916 -20.607,-35.291 -10.617,-6.765 -24.286,-6.711 -34.889,0.076 -0.09,0.058 -0.181,0.116 -0.272,0.175 6.483,-25.721 36.768,-32.96 36.768,-32.96 0,0 38,9.057 38,43 C 37.538,-42.813 4.312,-4.799 0,0"
             style="fill:#378900;fill-opacity:1;fill-rule:nonzero;stroke:none"
             id="path666" />
        </g>
        <g
           id="g668"
           transform="translate(173,61)">
          <path
             d="M 0,0 C 0,9.941 8.059,18 18,18 27.941,18 36,9.941 36,0"
             style="fill:none;stroke:#000000;stroke-width:15;stroke-linecap:round;stroke-linejoin:round;stroke-miterlimit:10;stroke-dasharray:none;stroke-opacity:1"
             id="path670" />
        </g>
        <g
           id="g672"
           transform="translate(289,42)">
          <path
             d="M 0,0 C 0,9.941 8.059,18 18,18 27.941,18 36,9.941 36,0"
             style="fill:none;stroke:#000000;stroke-width:15;stroke-linecap:round;stroke-linejoin:round;stroke-miterlimit:10;stroke-dasharray:none;stroke-opacity:1"
             id="path674" />
        </g>
        <g
           id="g676"
           transform="translate(417,36)">
          <path
             d="m 0,0 c 0,-3.314 -2.686,-6 -6,-6 -3.314,0 -6,2.686 -6,6 0,3.314 2.686,6 6,6 3.314,0 6,-2.686 6,-6"
             style="fill:#000000;fill-opacity:1;fill-rule:nonzero;stroke:none"
             id="path678" />
        </g>
        <g
           id="g680"
           transform="translate(125,52)">
          <path
             d="m 0,0 c 0,-3.314 -2.686,-6 -6,-6 -3.314,0 -6,2.686 -6,6 0,3.314 2.686,6 6,6 3.314,0 6,-2.686 6,-6"
             style="fill:#000000;fill-opacity:1;fill-rule:nonzero;stroke:none"
             id="path682" />
        </g>
        <g
           id="g684"
           transform="translate(256,112)">
          <path
             d="M 0,0 V 156"
             style="fill:none;stroke:#000000;stroke-width:15;stroke-linecap:round;stroke-linejoin:round;stroke-miterlimit:10;stroke-dasharray:none;stroke-opacity:1"
             id="path686" />
        </g>
        <g
           id="g688"
           transform="translate(256,171)">
          <path
             d="M 0,0 C 0,0 -14.958,25 -42,35"
             style="fill:none;stroke:#000000;stroke-width:15;stroke-linecap:round;stroke-linejoin:round;stroke-miterlimit:10;stroke-dasharray:none;stroke-opacity:1"
             id="path690" />
        </g>
        <g
           id="g692"
           transform="translate(214,206.0145)">
          <path
             d="M 0,0 C 0,0 -25.454,-30.082 -56.42,-16.181 -87.835,-2.079 -105,50 -105,50 c 0,0 51.25,19.5 82,4 C 7.31,38.722 0,0 0,0 Z"
             style="fill:none;stroke:#000000;stroke-width:15;stroke-linecap:round;stroke-linejoin:round;stroke-miterlimit:10;stroke-dasharray:none;stroke-opacity:1"
             id="path694" />
        </g>
        <g
           id="g696"
           transform="translate(256,156)">
          <path
             d="M 0,0 C 0,0 14.958,25 42,35"
             style="fill:none;stroke:#000000;stroke-width:15;stroke-linecap:round;stroke-linejoin:round;stroke-miterlimit:10;stroke-dasharray:none;stroke-opacity:1"
             id="path698" />
        </g>
        <g
           id="g700"
           transform="translate(298,191.0145)">
          <path
             d="M 0,0 C 0,0 25.454,-30.082 56.42,-16.181 87.835,-2.079 105,50 105,50 105,50 53.75,69.5 23,54 -7.31,38.722 0,0 0,0 Z"
             style="fill:none;stroke:#000000;stroke-width:15;stroke-linecap:round;stroke-linejoin:round;stroke-miterlimit:10;stroke-dasharray:none;stroke-opacity:1"
             id="path702" />
        </g>
        <g
           id="g704"
           transform="translate(256,268)">
          <path
             d="M 0,0 C 0,0 38,9.057 38,43 38,76.875 0,118 0,118 0,118 -38,76.875 -38,43 -38,9.057 0,0 0,0 Z"
             style="fill:none;stroke:#000000;stroke-width:15;stroke-linecap:round;stroke-linejoin:round;stroke-miterlimit:10;stroke-dasharray:none;stroke-opacity:1"
             id="path706" />
        </g>
        <g
           id="g708"
           transform="translate(298,191.0145)">
          <path
             d="M 0,0 46,21.986"
             style="fill:none;stroke:#000000;stroke-width:15;stroke-linecap:round;stroke-linejoin:round;stroke-miterlimit:10;stroke-dasharray:none;stroke-opacity:1"
             id="path710" />
        </g>
        <g
           id="g712"
           transform="translate(214,206.0145)">
          <path
             d="M 0,0 -46,21.986"
             style="fill:none;stroke:#000000;stroke-width:15;stroke-linecap:round;stroke-linejoin:round;stroke-miterlimit:10;stroke-dasharray:none;stroke-opacity:1"
             id="path714" />
        </g>
        <g
           id="g716"
           transform="translate(256,268)">
          <path
             d="M 0,0 V 40"
             style="fill:none;stroke:#000000;stroke-width:15;stroke-linecap:round;stroke-linejoin:round;stroke-miterlimit:10;stroke-dasharray:none;stroke-opacity:1"
             id="path718" />
        </g>
        <g
           id="g720"
           transform="translate(418,10)">
          <path
             d="M 0,0 H 84 C 84,23.196 65.196,42 42,42 36.937,42 32.083,41.103 27.588,39.461 14.479,60.209 -8.643,74 -35,74 -38.984,74 -42.891,73.676 -46.704,73.07 -50.532,95.18 -69.796,112 -93,112 c -17.055,0 -31.988,-9.085 -40.225,-22.679 C -140.355,97.112 -150.606,102 -162,102 -173.394,102 -183.645,97.112 -190.775,89.321 -199.012,102.915 -213.945,112 -231,112 -254.204,112 -273.468,95.18 -277.296,73.07 -281.109,73.676 -285.016,74 -289,74 -315.357,74 -338.479,60.209 -351.588,39.461 -356.083,41.103 -360.937,42 -366,42 -389.196,42 -408,23.196 -408,0 h 84 z"
             style="fill:none;stroke:#000000;stroke-width:15;stroke-linecap:round;stroke-linejoin:round;stroke-miterlimit:10;stroke-dasharray:none;stroke-opacity:1"
             id="path722" />
        </g>
        <g
           id="g724"
           transform="translate(396.9674,82.9433)">
          <path
             d="M 0,0 C 5.04,0.53 9.937,2.196 14.304,4.924 L 54.718,30.165 C 70.897,40.27 82.027,56.766 85.339,75.552 l 15.974,90.594 -13.559,2.391"
             style="fill:none;stroke:#000000;stroke-width:15;stroke-linecap:round;stroke-linejoin:round;stroke-miterlimit:10;stroke-dasharray:none;stroke-opacity:1"
             id="path726" />
        </g>
        <g
           id="g728"
           transform="translate(302.8215,186.1703)">
          <path
             d="M 0,0 C -2.051,-17.542 2.878,-35.252 13.819,-49.25 L 25.58,-64.296"
             style="fill:none;stroke:#000000;stroke-width:15;stroke-linecap:round;stroke-linejoin:round;stroke-miterlimit:10;stroke-dasharray:none;stroke-opacity:1"
             id="path730" />
        </g>
        <g
           id="g732"
           transform="translate(450.7672,257.4676)">
          <path
             d="m 0,0 -41.945,7.396 -89.459,15.774 -7.352,-41.696"
             style="fill:none;stroke:#000000;stroke-width:15;stroke-linecap:round;stroke-linejoin:round;stroke-miterlimit:10;stroke-dasharray:none;stroke-opacity:1"
             id="path734" />
        </g>
        <g
           id="g736"
           transform="translate(419.6302,326.1596)">
          <path
             d="m 0,0 -22.365,3.943 -10.808,-61.295 22.365,-3.944 22.365,-3.943 10.808,61.295 z"
             style="fill:none;stroke:#000000;stroke-width:15;stroke-linecap:round;stroke-linejoin:round;stroke-miterlimit:10;stroke-dasharray:none;stroke-opacity:1"
             id="path738" />
        </g>
        <g
           id="g740"
           transform="translate(407.3003,387.0133)">
          <path
             d="M 0,0 -10.035,-56.91 12.33,-60.854 34.695,-64.797 56.165,56.966 33.8,60.91 11.435,64.853 6.169,34.986"
             style="fill:none;stroke:#000000;stroke-width:15;stroke-linecap:round;stroke-linejoin:round;stroke-miterlimit:10;stroke-dasharray:none;stroke-opacity:1"
             id="path742" />
        </g>
        <g
           id="g744"
           transform="translate(498.0565,460.9402)">
          <path
             d="M 0,0 3.944,22.365 -102.082,41.06 -106.025,18.695 -109.969,-3.67 -3.943,-22.365 Z"
             style="fill:none;stroke:#000000;stroke-width:15;stroke-linecap:round;stroke-linejoin:round;stroke-miterlimit:10;stroke-dasharray:none;stroke-opacity:1"
             id="path746" />
        </g>
      </g>
    </g>
  </g>
</svg>
