<svg width="50" height="37" viewBox="0 0 50 37" fill="none" xmlns="http://www.w3.org/2000/svg">
<rect x="33.3203" y="9.96648" width="16.6789" height="9.18019" fill="#D9D9D9"/>
<g clip-path="url(#clip0_455_100)">
<path d="M35.0561 28.0022H32.6596V29.8522H30.5507V28.0022H28.1543V26.3742H30.5507V24.5242H32.6596V26.3742H35.0561V28.0022Z" stroke="#947AC6" stroke-miterlimit="10" stroke-linecap="round" stroke-linejoin="round"/>
<path d="M39.3711 13.9422H42.0551C42.822 13.9422 43.3971 14.3862 43.3971 14.9782V19.8622" stroke="#947AC6" stroke-miterlimit="10" stroke-linecap="round" stroke-linejoin="round"/>
<path d="M27.293 19.9362V15.6442C27.293 13.8682 29.1143 12.4622 31.4149 12.4622H35.8243C38.1249 12.4622 39.9462 13.8682 39.9462 15.6442V19.9362" stroke="#947AC6" stroke-miterlimit="10" stroke-linecap="round" stroke-linejoin="round"/>
<path d="M33.6199 10.6862C35.2081 10.6862 36.4956 9.69227 36.4956 8.4662C36.4956 7.24013 35.2081 6.2462 33.6199 6.2462C32.0317 6.2462 30.7441 7.24013 30.7441 8.4662C30.7441 9.69227 32.0317 10.6862 33.6199 10.6862Z" stroke="#947AC6" stroke-miterlimit="10" stroke-linecap="round" stroke-linejoin="round"/>
<path d="M44.5462 22.2302V32.1462H22.0195" stroke="#947AC6" stroke-miterlimit="10" stroke-linecap="round" stroke-linejoin="round"/>
<path d="M19.7188 19.9362H46.7507V22.2302H19.7188" stroke="#947AC6" stroke-miterlimit="10" stroke-linecap="round" stroke-linejoin="round"/>
<path d="M13.3933 14.6822C14.9815 14.6822 16.2691 13.6883 16.2691 12.4622C16.2691 11.2361 14.9815 10.2422 13.3933 10.2422C11.8051 10.2422 10.5176 11.2361 10.5176 12.4622C10.5176 13.6883 11.8051 14.6822 13.3933 14.6822Z" stroke="#947AC6" stroke-miterlimit="10" stroke-linecap="round" stroke-linejoin="round"/>
<path d="M18.7611 30.5922V34.6622C18.7611 35.4022 17.9943 35.9202 17.1315 35.9202C16.173 35.9202 15.502 35.3282 15.502 34.6622V30.5922" stroke="#947AC6" stroke-miterlimit="10" stroke-linecap="round" stroke-linejoin="round"/>
<path d="M18.761 28.5202V30.5922H4.09474C3.13616 30.5922 2.27344 29.9262 2.27344 29.1862V19.7142C2.27344 19.1222 2.84859 18.6782 3.61545 18.6782H13.5847C14.3515 18.6782 14.9267 19.1222 14.9267 19.7142V28.5202H18.761Z" stroke="#947AC6" stroke-miterlimit="10" stroke-linecap="round" stroke-linejoin="round"/>
<path d="M7.25781 18.6782C7.7371 17.3462 9.36669 16.3842 11.188 16.3842H15.5975C17.8981 16.3842 19.7194 17.7902 19.7194 19.5662V25.8562H20.4862C21.3489 25.8562 22.0199 26.3742 22.0199 27.0402V34.6622C22.0199 35.4022 21.2531 35.9202 20.3904 35.9202C19.4318 35.9202 18.7608 35.3282 18.7608 34.6622" stroke="#947AC6" stroke-miterlimit="10" stroke-linecap="round" stroke-linejoin="round"/>
<path d="M2.27344 21.0462H14.9267" stroke="#947AC6" stroke-miterlimit="10" stroke-linecap="round" stroke-linejoin="round"/>
<path d="M8.59961 30.5922V35.9942" stroke="#947AC6" stroke-miterlimit="10" stroke-linecap="round" stroke-linejoin="round"/>
<path d="M6.29883 35.9942H10.8042" stroke="#947AC6" stroke-miterlimit="10" stroke-linecap="round" stroke-linejoin="round"/>
<path d="M30.168 19.9362V17.7162" stroke="#947AC6" stroke-miterlimit="10" stroke-linecap="round" stroke-linejoin="round"/>
<path d="M37.0703 19.9362V17.7162" stroke="#947AC6" stroke-miterlimit="10" stroke-linecap="round" stroke-linejoin="round"/>
<path d="M28.5392 6.4682H25.1842V9.1322H22.1167V6.4682H18.7617V4.1742H22.1167V1.5842H25.1842V4.1742H28.5392V6.4682Z" stroke="#947AC6" stroke-miterlimit="10" stroke-linecap="round" stroke-linejoin="round"/>
<path d="M19.7205 25.9302H18.666" stroke="#947AC6" stroke-miterlimit="10" stroke-linecap="round" stroke-linejoin="round"/>
<path d="M6.39533 7.8742C8.67179 7.8742 10.5172 6.44957 10.5172 4.6922C10.5172 2.93483 8.67179 1.5102 6.39533 1.5102C4.11887 1.5102 2.27344 2.93483 2.27344 4.6922C2.27344 6.44957 4.11887 7.8742 6.39533 7.8742Z" stroke="#947AC6" stroke-miterlimit="10" stroke-linecap="round" stroke-linejoin="round"/>
<path d="M6.39453 1.5842V2.1762" stroke="#947AC6" stroke-miterlimit="10" stroke-linecap="round" stroke-linejoin="round"/>
<path d="M6.39453 7.2822V7.8742" stroke="#947AC6" stroke-miterlimit="10" stroke-linecap="round" stroke-linejoin="round"/>
<path d="M10.517 4.6922H9.6543" stroke="#947AC6" stroke-miterlimit="10" stroke-linecap="round" stroke-linejoin="round"/>
<path d="M3.0403 4.6922H2.27344" stroke="#947AC6" stroke-miterlimit="10" stroke-linecap="round" stroke-linejoin="round"/>
<path d="M6.39623 3.9522V4.6922H5.3418" stroke="#947AC6" stroke-miterlimit="10" stroke-linecap="round" stroke-linejoin="round"/>
</g>
<defs>
<clipPath id="clip0_455_100">
<rect width="47.929" height="37" fill="white"/>
</clipPath>
</defs>
</svg>
