<?xml version="1.0" encoding="UTF-8" standalone="no"?>
<!-- Created with Inkscape (http://www.inkscape.org/) -->

<svg
   version="1.1"
   id="svg2961"
   xml:space="preserve"
   width="682.66669"
   height="682.66669"
   viewBox="0 0 682.66669 682.66669"
   xmlns="http://www.w3.org/2000/svg"
   xmlns:svg="http://www.w3.org/2000/svg"><defs
     id="defs2965"><clipPath
       clipPathUnits="userSpaceOnUse"
       id="clipPath2979"><path
         d="M 0,512 H 512 V 0 H 0 Z"
         id="path2977" /></clipPath></defs><g
     id="g2967"
     transform="matrix(1.3333333,0,0,-1.3333333,0,682.66667)"><g
       id="g2969"
       transform="translate(208.5443,421.178)"><path
         d="m 0,0 286.265,-286.266 -75.335,-75.335 h -0.005 v 35.726 h -35.461 v 24.841 h -35.462 v 24.84 h -35.461 v 24.84 H 69.079 v 24.84 H 33.618 v 24.84 H -1.844 v 24.841 h -35.461 v 24.84 h -35.462 v 24.84 h -35.461 l -0.001,-10e-4 0.001,10e-4 -41.351,41.351 z"
         style="fill:#e0eaef;fill-opacity:1;fill-rule:nonzero;stroke:none"
         id="path2971" /></g><g
       id="g2973"><g
         id="g2975"
         clip-path="url(#clipPath2979)"><g
           id="g2981"
           transform="translate(25.1267,432.5415)"><path
             d="m 0,0 -3.38,-3.38 c -15.621,-15.621 -15.621,-40.948 0,-56.569 L 34.561,-97.891 H 96.89 l 86.528,86.528 -69.107,69.106 c -15.621,15.621 -40.947,15.621 -56.568,0 l -3.48,-3.48 z"
             style="fill:#ff9270;fill-opacity:1;fill-rule:nonzero;stroke:none"
             id="path2983" /></g><g
           id="g2985"
           transform="translate(111.1541,456.3428)"><path
             d="m 0,0 -55.466,-55.466 22.225,-22.226 h 25.878 l 42.528,42.527 z"
             style="fill:#ffffff;fill-opacity:1;fill-rule:nonzero;stroke:none"
             id="path2987" /></g><g
           id="g2989"
           transform="translate(25.1267,432.5415)"><path
             d="m 0,0 -3.38,-3.38 c -15.621,-15.621 -15.621,-40.948 0,-56.569 L 34.561,-97.891 H 96.89 l 86.528,86.528 -69.107,69.106 c -15.621,15.621 -40.947,15.621 -56.568,0 l -3.48,-3.48 z"
             style="fill:none;stroke:#000000;stroke-width:20;stroke-linecap:round;stroke-linejoin:round;stroke-miterlimit:10;stroke-dasharray:none;stroke-opacity:1"
             id="path2991" /></g><g
           id="g2993"
           transform="translate(111.1541,456.3428)"><path
             d="m 0,0 -55.466,-55.466 22.225,-22.226 h 25.878 l 42.528,42.527 z"
             style="fill:none;stroke:#000000;stroke-width:20;stroke-linecap:round;stroke-linejoin:round;stroke-miterlimit:10;stroke-dasharray:none;stroke-opacity:1"
             id="path2995" /></g><g
           id="g2997"
           transform="translate(10,10)"><path
             d="M 0,0 H 424.214 462 492 V 168 H 0 Z"
             style="fill:#ffdb8c;fill-opacity:1;fill-rule:nonzero;stroke:none"
             id="path2999" /></g><g
           id="g3001"
           transform="translate(10,10)"><path
             d="M 0,0 H 424.214 462 492 V 168 H 0 Z"
             style="fill:none;stroke:#000000;stroke-width:20;stroke-linecap:round;stroke-linejoin:round;stroke-miterlimit:10;stroke-dasharray:none;stroke-opacity:1"
             id="path3003" /></g><g
           id="g3005"
           transform="translate(431.1903,143.3308)"><path
             d="M 0,0 C 14.112,4.903 27.792,11.129 40.849,18.626 L 68.791,34.669"
             style="fill:none;stroke:#000000;stroke-width:20;stroke-linecap:round;stroke-linejoin:round;stroke-miterlimit:10;stroke-dasharray:none;stroke-opacity:1"
             id="path3007" /></g><g
           id="g3009"
           transform="translate(256,130)"><path
             d="M 0,0 H 96.204"
             style="fill:none;stroke:#000000;stroke-width:20;stroke-linecap:round;stroke-linejoin:round;stroke-miterlimit:10;stroke-dasharray:none;stroke-opacity:1"
             id="path3011" /></g><g
           id="g3013"
           transform="translate(73.3913,130)"><path
             d="M 0,0 H 131.608"
             style="fill:none;stroke:#000000;stroke-width:20;stroke-linecap:round;stroke-linejoin:round;stroke-miterlimit:10;stroke-dasharray:none;stroke-opacity:1"
             id="path3015" /></g><g
           id="g3017"
           transform="translate(184.8833,82)"><path
             d="M 0,0 C 48.448,0 96.489,-8.832 141.769,-26.062 L 152.117,-30 v 0 C 96.872,-57.544 35.985,-71.881 -25.745,-71.881 h -95.138"
             style="fill:none;stroke:#000000;stroke-width:20;stroke-linecap:round;stroke-linejoin:round;stroke-miterlimit:10;stroke-dasharray:none;stroke-opacity:1"
             id="path3019" /></g><g
           id="g3021"
           transform="translate(10.0485,82)"><path
             d="M 0,0 H 99.952"
             style="fill:none;stroke:#000000;stroke-width:20;stroke-linecap:round;stroke-linejoin:round;stroke-miterlimit:10;stroke-dasharray:none;stroke-opacity:1"
             id="path3023" /></g><g
           id="g3025"
           transform="translate(378.3333,82)"><path
             d="M 0,0 H 118.667"
             style="fill:none;stroke:#000000;stroke-width:20;stroke-linecap:round;stroke-linejoin:round;stroke-miterlimit:10;stroke-dasharray:none;stroke-opacity:1"
             id="path3027" /></g><g
           id="g3029"
           transform="translate(277.6237,177.9995)"><path
             d="m 0,0 v 16.665 h -35.462 v 24.84 h -35.461 v 24.84 h -35.462 v 24.84 h -35.461 v 24.84 h -35.462 l -0.001,-0.001 0.001,0.001 -41.35,41.351"
             style="fill:none;stroke:#000000;stroke-width:20;stroke-linecap:round;stroke-linejoin:round;stroke-miterlimit:10;stroke-dasharray:none;stroke-opacity:1"
             id="path3031" /></g><g
           id="g3033"
           transform="translate(361.9514,267.7709)"><path
             d="M 0,0 89.769,-89.769"
             style="fill:none;stroke:#000000;stroke-width:20;stroke-linecap:round;stroke-linejoin:round;stroke-miterlimit:10;stroke-dasharray:none;stroke-opacity:1"
             id="path3035" /></g><g
           id="g3037"
           transform="translate(208.5443,421.178)"><path
             d="M 0,0 89.767,-89.767"
             style="fill:none;stroke:#000000;stroke-width:20;stroke-linecap:round;stroke-linejoin:round;stroke-miterlimit:10;stroke-dasharray:none;stroke-opacity:1"
             id="path3039" /></g><g
           id="g3041"
           transform="translate(330.1324,299.5899)"><path
             d="M 0,0 V 0"
             style="fill:none;stroke:#000000;stroke-width:20;stroke-linecap:round;stroke-linejoin:round;stroke-miterlimit:10;stroke-dasharray:none;stroke-opacity:1"
             id="path3043" /></g></g></g></g></svg>
