<svg width="41" height="39" viewBox="0 0 41 39" fill="none" xmlns="http://www.w3.org/2000/svg">
<g clip-path="url(#clip0_460_812)">
<path d="M9.60938 19.5H8.32812V20.7188H9.60938V19.5Z" fill="#947AC6"/>
<path d="M32.6719 4.26562H31.3906V5.48438H32.6719V4.26562Z" fill="#947AC6"/>
<path d="M5.44531 24.9844C5.00185 24.9844 4.56835 25.1095 4.19962 25.3438C3.8309 25.5782 3.54351 25.9113 3.3738 26.301C3.2041 26.6907 3.15969 27.1196 3.24621 27.5333C3.33272 27.947 3.54627 28.327 3.85985 28.6253C4.17342 28.9236 4.57294 29.1267 5.00788 29.209C5.44283 29.2913 5.89365 29.2491 6.30336 29.0876C6.71307 28.9262 7.06325 28.6529 7.30962 28.3021C7.556 27.9514 7.6875 27.539 7.6875 27.1172C7.68684 26.5517 7.4504 26.0096 7.03005 25.6098C6.6097 25.2099 6.03978 24.985 5.44531 24.9844ZM5.44531 28.0312C5.25526 28.0312 5.06947 27.9776 4.91144 27.8772C4.75342 27.7768 4.63025 27.634 4.55752 27.467C4.48479 27.3 4.46576 27.1162 4.50284 26.9389C4.53992 26.7616 4.63144 26.5987 4.76583 26.4708C4.90022 26.343 5.07144 26.256 5.25784 26.2207C5.44425 26.1854 5.63746 26.2035 5.81305 26.2727C5.98864 26.3419 6.13871 26.459 6.2443 26.6094C6.34989 26.7597 6.40625 26.9364 6.40625 27.1172C6.40598 27.3595 6.30465 27.5919 6.12449 27.7632C5.94434 27.9346 5.70009 28.031 5.44531 28.0312Z" fill="#947AC6"/>
<path d="M8.01059 3.34874L6.96813 1.53585C6.91297 1.4399 6.83167 1.35984 6.73278 1.30406C6.63388 1.24829 6.52103 1.21886 6.40606 1.21886C6.29109 1.21886 6.17824 1.24829 6.07934 1.30406C5.98045 1.35984 5.89916 1.4399 5.84399 1.53585L4.80154 3.34874L2.89568 4.34042C2.79482 4.3929 2.71067 4.47023 2.65205 4.56429C2.59343 4.65835 2.5625 4.76569 2.5625 4.87504C2.5625 4.98438 2.59343 5.09172 2.65205 5.18578C2.71067 5.27984 2.79482 5.35717 2.89568 5.40965L4.80154 6.40133L5.84399 8.21422C5.89916 8.31017 5.98045 8.39023 6.07934 8.44601C6.17824 8.50178 6.29109 8.53121 6.40606 8.53121C6.52103 8.53121 6.63388 8.50178 6.73278 8.44601C6.83167 8.39023 6.91297 8.31017 6.96813 8.21422L8.01059 6.40133L9.91645 5.40965C10.0173 5.35717 10.1014 5.27984 10.1601 5.18578C10.2187 5.09172 10.2496 4.98438 10.2496 4.87504C10.2496 4.76569 10.2187 4.65835 10.1601 4.56429C10.1014 4.47023 10.0173 4.3929 9.91645 4.34042L8.01059 3.34874ZM7.23087 5.41765C7.1234 5.47359 7.03503 5.55765 6.97622 5.65987L6.40606 6.65194L5.83566 5.65957C5.77686 5.55734 5.68849 5.47328 5.58102 5.41734L4.538 4.875L5.58126 4.33235C5.68873 4.27641 5.7771 4.19235 5.83591 4.09012L6.40606 3.09806L6.97646 4.09043C7.03527 4.19265 7.12364 4.27671 7.23111 4.33265L8.27412 4.875L7.23087 5.41765Z" fill="#947AC6"/>
<path d="M34.9008 20.7935L32.995 19.8018L31.9525 17.9889C31.8973 17.8929 31.816 17.8129 31.7172 17.7571C31.6183 17.7013 31.5054 17.6719 31.3904 17.6719C31.2755 17.6719 31.1626 17.7013 31.0637 17.7571C30.9648 17.8129 30.8835 17.8929 30.8284 17.9889L29.7859 19.8018L27.8801 20.7935C27.7792 20.8459 27.695 20.9233 27.6364 21.0173C27.5778 21.1114 27.5469 21.2187 27.5469 21.3281C27.5469 21.4374 27.5778 21.5448 27.6364 21.6388C27.695 21.7329 27.7792 21.8102 27.8801 21.8627L29.7859 22.8544L30.8284 24.6673C30.8835 24.7632 30.9648 24.8433 31.0637 24.8991C31.1626 24.9548 31.2755 24.9843 31.3904 24.9843C31.5054 24.9843 31.6183 24.9548 31.7172 24.8991C31.816 24.8433 31.8973 24.7632 31.9525 24.6673L32.995 22.8544L34.9008 21.8627C35.0017 21.8102 35.0858 21.7329 35.1444 21.6388C35.2031 21.5448 35.234 21.4374 35.234 21.3281C35.234 21.2187 35.2031 21.1114 35.1444 21.0173C35.0858 20.9233 35.0017 20.8459 34.9008 20.7935ZM32.2151 21.8708C32.1076 21.9267 32.0192 22.0108 31.9604 22.113L31.3903 23.1051L30.8199 22.1127C30.7611 22.0105 30.6727 21.9264 30.5652 21.8705L29.5222 21.3281L30.5652 20.7855C30.6727 20.7295 30.7611 20.6455 30.8199 20.5432L31.3903 19.5512L31.9607 20.5432C32.0195 20.6455 32.1079 20.7295 32.2153 20.7855L33.2583 21.3281L32.2151 21.8708Z" fill="#947AC6"/>
<path d="M40.689 14.7118L32.0305 9.77019C31.3087 9.3583 30.4828 9.1407 29.641 9.14062H27.5469C27.5457 8.17126 27.1404 7.24191 26.4198 6.55647C25.6992 5.87102 24.7222 5.48546 23.7031 5.48438H21.1406V0H19.8594V5.48438H17.2969C16.2778 5.48546 15.3008 5.87102 14.5802 6.55647C13.8596 7.24191 13.4543 8.17126 13.4531 9.14062H11.359C10.5172 9.1407 9.69128 9.3583 8.9694 9.77019L0.311034 14.7118C0.190896 14.7804 0.0976994 14.8845 0.0457207 15.0083C-0.00625796 15.1321 -0.0141528 15.2686 0.0232455 15.397C0.0606438 15.5255 0.141273 15.6387 0.252782 15.7194C0.364292 15.8001 0.500533 15.8438 0.640636 15.8438H40.3594C40.4995 15.8438 40.6357 15.8001 40.7472 15.7194C40.8588 15.6387 40.9394 15.5255 40.9768 15.397C41.0142 15.2686 41.0063 15.1321 40.9543 15.0083C40.9023 14.8845 40.8091 14.7804 40.689 14.7118ZM17.2969 6.70312H23.7031C24.3825 6.70385 25.0339 6.96089 25.5143 7.41785C25.9947 7.87482 26.2649 8.49438 26.2656 9.14062H14.7344C14.7352 8.49438 15.0054 7.87482 15.4858 7.41785C15.9662 6.96089 16.6175 6.70385 17.2969 6.70312ZM2.95345 14.625L9.6286 10.8153C10.1513 10.5169 10.7494 10.3594 11.359 10.3594H29.6409C30.2504 10.3594 30.8485 10.517 31.3712 10.8153L38.0466 14.625H2.95345Z" fill="#947AC6"/>
<path d="M29.8999 31.817L28.1578 30.5202C28.1844 30.3009 28.1946 30.08 28.1884 29.8594C28.1906 28.8524 27.9532 27.8579 27.494 26.9506C27.0348 26.0432 26.3658 25.2465 25.5369 24.62C25.4815 24.577 25.4345 24.5249 25.398 24.4663C24.3625 22.8396 24.3446 20.739 24.3446 20.7188V17.0625C24.3446 16.9009 24.2771 16.7459 24.157 16.6316C24.0368 16.5173 23.8739 16.4531 23.704 16.4531H18.579C18.4091 16.4531 18.2461 16.5173 18.126 16.6316C18.0058 16.7459 17.9384 16.9009 17.9384 17.0625V20.7179C17.9062 21.6691 17.7152 22.6093 17.3724 23.5034L15.8682 22.931C15.4301 22.7644 14.9412 22.7652 14.5038 22.9334C14.0664 23.1016 13.7142 23.4241 13.521 23.8335C13.3277 24.243 13.3082 24.7076 13.4667 25.1303C13.6252 25.5531 13.9493 25.9012 14.3713 26.1019L15.0785 26.4383C14.7467 26.9694 14.4943 27.5418 14.3287 28.1391C13.9037 27.9371 13.4161 27.8889 12.9565 28.0034C12.497 28.1179 12.0969 28.3874 11.8307 28.7617C11.5644 29.1359 11.4502 29.5894 11.5094 30.0378C11.5685 30.4862 11.7969 30.8988 12.1521 31.1989L14.8921 33.5156H13.7743C13.3495 33.5156 12.9422 33.6761 12.6418 33.9618C12.3415 34.2475 12.1727 34.635 12.1727 35.0391C12.1727 35.4431 12.3415 35.8306 12.6418 36.1163C12.9422 36.402 13.3495 36.5625 13.7743 36.5625H15.885L19.8602 38.1831V39H21.1415V37.7812C21.1415 37.662 21.1047 37.5453 21.0357 37.4458C20.9667 37.3462 20.8684 37.2681 20.7532 37.2211L16.2688 35.393C16.1891 35.3605 16.1032 35.3437 16.0165 35.3438H13.7743C13.6893 35.3438 13.6079 35.3116 13.5478 35.2545C13.4877 35.1974 13.454 35.1199 13.454 35.0391C13.454 34.9583 13.4877 34.8808 13.5478 34.8236C13.6079 34.7665 13.6893 34.7344 13.7743 34.7344H16.3101C17.6153 35.9094 19.3444 36.5637 21.1415 36.5625C22.1683 36.5625 23.0393 36.4153 23.8309 36.0997C23.746 36.6566 23.7036 37.2185 23.704 37.7812H24.9852C24.9799 36.6481 25.1779 35.5223 25.5709 34.4525C25.7215 34.0312 25.9185 33.6262 26.1589 33.2444C26.2465 33.1193 26.2825 32.9677 26.2598 32.8189C26.2371 32.6701 26.1574 32.5345 26.0359 32.4382L22.1922 29.3914C22.1747 29.3775 22.1564 29.3645 22.1374 29.3525C21.2302 28.7771 21.0403 27.6233 21.0387 26.7681L28.8644 32.5939V39H30.1456V32.2969C30.1456 32.2044 30.1235 32.1131 30.0809 32.03C30.0383 31.9468 29.9764 31.874 29.8999 31.817ZM19.2196 19.5H23.0633V20.1094H19.2196V19.5ZM23.0633 17.6719V18.2812H19.2196V17.6719H23.0633ZM14.9441 25.0118C14.8747 24.9788 14.8135 24.9321 14.7645 24.8748C14.7155 24.8176 14.6798 24.7511 14.6599 24.6797C14.64 24.6084 14.6362 24.5338 14.6489 24.461C14.6616 24.3881 14.6904 24.3187 14.7335 24.2572C14.8035 24.1582 14.907 24.0849 15.0268 24.0495C15.1467 24.0141 15.2756 24.0187 15.3923 24.0625L16.7806 24.5908C16.7679 24.6024 16.755 24.6136 16.7415 24.6236C16.4177 24.8702 16.1171 25.1431 15.8431 25.4393L14.9441 25.0118ZM12.7758 29.8246C12.7718 29.6954 12.8087 29.568 12.8817 29.459C12.9547 29.35 13.0604 29.2644 13.1852 29.2132C13.3099 29.162 13.448 29.1476 13.5814 29.1719C13.7149 29.1962 13.8376 29.258 13.9336 29.3494L14.1043 29.5117C14.0981 29.6271 14.0946 29.743 14.0946 29.8594C14.0943 30.3649 14.1543 30.8689 14.2732 31.3616L13.0032 30.2876C12.9339 30.2295 12.8779 30.1583 12.8388 30.0786C12.7997 29.999 12.7782 29.9125 12.7758 29.8246ZM21.3968 30.3473L24.8072 33.0505C24.56 33.5238 24.356 34.0165 24.1975 34.523C23.3204 35.104 22.4184 35.3438 21.1415 35.3438C19.9465 35.3437 18.7811 34.9905 17.8064 34.333C16.8316 33.6754 16.0958 32.7461 15.7005 31.6734C15.3053 30.6007 15.2702 29.4377 15.6001 28.3452C15.93 27.2527 16.6086 26.2847 17.5421 25.5751C17.7182 25.4404 17.8678 25.2771 17.984 25.0928C18.8444 23.7384 19.1057 22.1712 19.1852 21.3281H23.0979C23.1774 22.1721 23.4392 23.7421 24.3021 25.0976C24.4166 25.279 24.5639 25.4397 24.7373 25.5722C25.3772 26.0558 25.9011 26.6638 26.2739 27.3556C26.6468 28.0474 26.8601 28.8069 26.8994 29.5834L20.8957 25.1139C20.8096 25.0498 20.7077 25.0077 20.5996 24.9917C20.4916 24.9756 20.381 24.9862 20.2784 25.0223C20.1759 25.0584 20.0848 25.1189 20.0138 25.198C19.9427 25.2771 19.8942 25.3722 19.8727 25.4742C19.8432 25.6144 19.1796 28.9082 21.3968 30.3473Z" fill="#947AC6"/>
<path d="M17.9375 29.8549L17.2969 29.8594H16.6562C16.6562 29.9473 16.6813 32.0295 18.8634 33.4133L19.5741 32.3993C17.9799 31.3882 17.9385 29.917 17.9375 29.8549Z" fill="#947AC6"/>
</g>
<defs>
<clipPath id="clip0_460_812">
<rect width="41" height="39" fill="white"/>
</clipPath>
</defs>
</svg>
