<svg id="Capa_1" enable-background="new 0 0 509.521 509.521" height="512" viewBox="0 0 509.521 509.521" width="512" xmlns="http://www.w3.org/2000/svg"><g><g><g><path d="m449.111 103.919c2.213-2.758 3.686-6.049 4.235-9.542 2.128-13.534-3.38-24.262-11.954-30.176 14.036-7.93 17.554-28.767 1.18-41.205-1.901-1.444-4.128-2.423-6.476-2.852-9.629-1.756-17.618 1.099-22.956 6.264-6.932-11.896-21.675-17.32-34.913-12.17-13.736 5.344-20.975 20.175-17.137 34.082-17.524 14.797-20.415 43.644 1.936 62.433 4.287 3.604 9.515 5.972 15.061 6.758 12.208 1.731 22.714-1.066 30.752-6.575 11.529 8.078 28.71 7.392 40.272-7.017z" fill="#96c642"/><path d="m354.001 154.642c.603 20.868 18.009 37.296 38.877 36.692 7.85-.227 6.422 10.734 12.345 6.462 2.644 15.209 24.773 12.999 40.656 12.54 17.426-.504 31.143-15.038 30.64-32.464-.125-4.331-1.117-8.432-2.805-12.143 17.964-3.371 31.311-19.393 30.767-38.24-.565-19.558-15.889-35.215-34.99-36.607-7.64-20.351-27.56-34.564-50.504-33.901-28.883.835-51.62 24.926-50.785 53.809.119 4.115.711 8.105 1.72 11.92-9.95 7.068-16.3 18.816-15.921 31.932z" fill="#a0d94c"/><path d="m463.894 126.849-80.808 97.716-20.76-148.669z" fill="#fcd258"/><path d="m339.001 143.443c15.305 3.619 30.645-5.854 34.264-21.159 1.361-5.757.87-11.519-1.087-16.66 11.583 1.033 22.469-6.57 25.223-18.218 3.022-12.78-4.889-25.59-17.669-28.612-3.176-.751-6.354-.827-9.383-.32 1.04-13.729-8.025-26.559-21.848-29.827-14.344-3.392-28.718 4.716-33.446 18.346-16.297 1.603-30.514 13.336-34.493 30.164-5.009 21.183 8.103 42.415 29.286 47.424 3.018.714 6.037 1.059 9.01 1.066 3.208 8.615 10.523 15.521 20.143 17.796z" fill="#d98a54"/><path d="m351.958 134.608c-9.73-.023-19.952-3.669-29.014-11.993-3.998-3.673-6.948-8.351-8.447-13.569-8.167-28.427 10.678-50.831 33.659-53.091 2.768-7.981 8.844-14.068 16.283-17.062-3.847-4.961-9.353-8.688-15.939-10.246-14.344-3.392-28.718 4.716-33.446 18.346-16.297 1.603-30.514 13.336-34.493 30.163-5.009 21.183 8.103 42.415 29.286 47.424 3.018.714 6.037 1.059 9.01 1.066 3.209 8.617 10.524 15.522 20.144 17.797 5.945 1.406 11.896.836 17.163-1.284-1.773-2.287-3.194-4.834-4.206-7.551z" fill="#c27742"/><circle cx="346.074" cy="159.454" fill="#e94442" r="60.309"/><path d="m313.424 139.966c26.38-26.38 70.122-22.717 91.8 7.687-9.283-46.749-67.538-65.1-101.794-30.843-21.134 21.134-23.304 54.05-6.51 77.603-3.791-19.088 1.711-39.654 16.504-54.447z" fill="#cf3636"/></g><circle cx="342.105" cy="155.485" fill="#ff959b" r="29.758"/><path d="m137.162 497.242c-25.914-25.914-43.169-57.366-51.632-90.654-15.4-60.578 81.765-62.488 125.405-112.92 0 0 46.202-149.301 118.714-136.556 24.928 4.381 49.266 13.141 71.778 26.323 21.006 12.3 35.437 25.532 43.702 33.72 3.951 3.913 3.748 10.354-.457 13.993z" fill="#ffdb97"/><path d="m137.162 497.242s-83.683-32.481-129.661-129.661l108.084 14.423z" fill="#f7cb86"/><path d="m7.501 367.581 65.919-76.179 68.252-28.957 29.955-84.535 101.749-117.586c3.775-4.363 10.539-4.403 14.357-.077 62.427 70.738 55.917 179.877-16.469 242.514l-82.462 71.356c-52.801 45.691-131.927 42.838-181.301-6.536z" fill="#ffeabb"/><path d="m379.906 280.044c-8.996-8.996-23.582-8.996-32.577 0-8.996 8.996-8.996 23.582 0 32.578.5.5 1.018.973 1.552 1.418l34.38-29.75c-.929-1.511-2.047-2.938-3.355-4.246z" fill="#f7cb86"/><path d="m92.562 311.093 68.957-29.779 29.955-84.535 101.749-117.586c1.8-2.08 4.279-3.176 6.794-3.287-3.746-5.393-7.84-10.623-12.283-15.658-3.818-4.326-10.582-4.287-14.357.076l-101.75 117.586-29.955 84.535-68.252 28.956-65.92 76.179c6.589 6.589 13.708 12.349 21.224 17.277z" fill="#ffdb97"/><path d="m213.024 431.598-139.878-139.879 98.481-113.809 155.206 155.206z" fill="#ebf3ff"/><path d="m92.562 311.092 98.458-113.789-19.393-19.393-98.481 113.809 19.476 19.476z" fill="#dbeafc"/><circle cx="265.538" cy="152.001" fill="#ffdb97" r="15.011"/></g><g><path d="m504.697 135.065c-3.869-1.481-8.205.458-9.684 4.326-3.738 9.775-12.429 17.043-22.682 18.967-4.785.897-7.456 6.052-5.444 10.476 3.89 8.554 2.549 19.086-4.418 26.469-8.854 9.381-20.001 7.261-21.637 7.534-5.838-5.186-11.844-9.997-18.073-14.476l46.916-56.732c3.07-3.71 1.89-9.323-2.417-11.483l-62.483-31.346c1.616-7.179.609-14.361-2.394-20.527 23.383-10.329 50.986.995 60.088 25.244 1.028 2.74 3.557 4.632 6.476 4.845 9.88.721 18.801 6.266 23.862 14.834 2.107 3.567 6.707 4.749 10.272 2.644 3.566-2.107 4.75-6.706 2.643-10.272-6.752-11.432-18.114-19.263-30.997-21.575-4.361-9.36-10.986-17.239-19.056-23.097 13.07-19.613-.357-44.87-18.229-48.129-8.177-1.492-16.108-.299-22.726 3.279-16.801-17.914-46.209-13.796-57.79 7.584-17.855-8.093-38.555-.629-47.134 16.575-8.135 1.631-15.771 5.435-21.991 10.922-6.806-3.178-15.037-1.553-20.094 4.291-19.946 23.05-194.144 224.359-219.588 253.764-2.71 3.132-2.369 7.868.764 10.579 3.14 2.716 7.875 2.361 10.579-.765l14.082-16.274 83.524 83.524c-45.815 22.571-100.977 15.067-139.202-19.18l20.152-23.288c2.71-3.132 2.369-7.868-.764-10.578-3.133-2.711-7.869-2.369-10.579.763l-24.738 28.588c-2.049 2.27-2.539 5.596-1.141 8.387 24.395 51.484 59.269 84.909 84.242 103.887 26.356 20.03 47.195 28.531 49.272 29.354 2.567 1.055 5.578.625 7.763-1.265 31.683-27.416 272.203-235.543 307.511-266.096 5.67-4.908 7.52-13.028 4.321-19.993 20.256-4.714 33.716-24.939 29.305-46.065 11.715-4.616 21.247-14.062 25.816-26.013 1.479-3.868-.458-8.204-4.327-9.682zm-140.506 23.155c-8.312-2.844-18.041-5.508-27.64-7.437-.67-5.379-1.583-10.707-2.734-15.971 15.642-6.296 32.422 6.524 30.374 23.408zm14.274 5.393c6.308-28.487-21.036-52.854-48.494-43.375-1.032-3.326-2.162-6.62-3.389-9.878 39.982-15.819 81.436 20.46 70.686 62.162-5.215-2.807-12.045-6.087-18.803-8.909zm32.562 15.397c7.93-26.141-.668-53.396-20.252-70.542 2.723-1.7 5.181-3.811 7.275-6.259l54.061 27.12zm-4.368-148.826c2.456 4.214 8.209 4.988 11.695 1.615 6.146-5.945 16.166-5.502 19.682-2.831 9.286 7.053 9.958 17.62 4.389 24.661-16.302-6.425-34.608-5.378-50.02 2.826-4.428-3.162-9.568-5.069-14.879-5.633-1.031-6.796-3.971-13.034-8.352-18.074 6.546-15.794 28.646-17.734 37.485-2.564zm-90.87 24.272c2.913-.286 5.393-2.241 6.352-5.006 3.533-10.185 14.124-15.988 24.635-13.505 10.109 2.39 16.877 11.626 16.095 21.962-.368 4.851 3.911 8.76 8.716 7.964 11.414-1.905 21.192 8.485 18.515 19.809-1.667 7.048-7.813 12.116-14.921 12.512-16.769-7.975-36.513-8.908-54.483-1.641-5.902-12.359-13.273-24.09-22.039-34.977 4.86-3.974 10.857-6.5 17.13-7.118zm-143.766 134.457 143.807 143.807-102.437 88.64-130.01-130.01c12.54-14.492 75.976-87.801 88.64-102.437zm-3.823 208.468 33.82 33.82-64.392 55.72c-19.406-20.882-33.835-45.819-42.223-72.931 25.049 1.129 50.179-4.438 72.795-16.609zm-136.617-1.969c14.879 8.559 31.067 14.236 47.712 16.922 5.84 21.198 15.069 41.261 27.263 59.442-29.529-19.796-55.365-46.12-74.975-76.364zm340.979-111.784-22.807 19.736c-7.304-14.361 9.603-29.041 22.807-19.736zm67.204-58.153-55.688 48.188c-11.972-10.817-30.516-10.458-42.052 1.076-10.616 10.616-11.667 26.876-3.787 38.589l-11.036 9.55-32.726-32.726c17.556-20.269 30.469-44.636 37.387-70.579 1.067-4.003-1.312-8.112-5.314-9.18-4.002-1.064-8.112 1.312-9.179 5.314-6.242 23.408-17.814 45.415-33.53 63.807l-101.976-101.974c102.786-118.01 96.507-112.809 98.728-113.012 2.268 0 46.855 47.53 41.951 119.919-.28 4.133 2.843 7.71 6.976 7.989 4.12.286 7.709-2.844 7.99-6.976.433-6.397.53-12.762.298-19.076 38.467 8.585 73.219 27.545 102.045 56.099.83.823.833 2.197-.087 2.992z"/><path d="m281.456 136.083c-8.777-8.775-23.058-8.775-31.835 0-8.777 8.777-8.777 23.059 0 31.836 8.778 8.776 23.058 8.776 31.835 0 8.777-8.777 8.777-23.058 0-31.836zm-10.606 21.229c-2.929 2.93-7.694 2.93-10.623 0-2.928-2.928-2.928-7.693 0-10.621 2.929-2.93 7.694-2.93 10.623 0 2.928 2.928 2.928 7.693 0 10.621z"/><path d="m291.677 206.326c-3.976 0-7.468 3.238-7.468 7.492 0 4.233 3.436 7.5 7.5 7.5 4.154 0 7.5-3.379 7.5-7.5 0-4.126-3.347-7.492-7.532-7.492z"/><path d="m76.909 350.828c4.17 0 7.5-3.396 7.5-7.5 0-4.115-3.343-7.5-7.5-7.5-4.182 0-7.5 3.414-7.5 7.5 0 4.117 3.345 7.5 7.5 7.5z"/><path d="m134.069 466.198c4.612 0 7.5-3.861 7.5-7.5 0-4.23-3.466-7.502-7.476-7.502-4.169 0-7.524 3.342-7.524 7.502 0 4.136 3.358 7.5 7.5 7.5z"/><path d="m162.199 436.118c4.167 0 7.5-3.397 7.5-7.5 0-4.181-3.412-7.5-7.499-7.5-4.148 0-7.501 3.379-7.501 7.5 0 4.019 3.258 7.5 7.5 7.5z"/><path d="m237.474 193.798c-4.221 0-7.505 3.453-7.505 7.501 0 4.176 3.411 7.5 7.5 7.5 3.867 0 7.5-3.056 7.5-7.5 0-4.175-3.391-7.501-7.495-7.501z"/><path d="m360.339 224.918c-3.788 0-7.5 3.003-7.5 7.5 0 4.084 3.284 7.5 7.5 7.5 4.092 0 7.5-3.313 7.5-7.5 0-4.245-3.49-7.5-7.5-7.5z"/><path d="m398.377 213.956c-4.066 0-7.478 3.312-7.478 7.502 0 4.098 3.369 7.5 7.5 7.5 4.061 0 7.5-3.291 7.5-7.5 0-4.129-3.324-7.502-7.522-7.502z"/></g></g></svg>