<svg width="45" height="48" viewBox="0 0 45 48" fill="none" xmlns="http://www.w3.org/2000/svg">
<g clip-path="url(#clip0_462_956)">
<path d="M21.4403 26.4423H22.5135C22.8778 26.4423 23.1727 26.1277 23.1727 25.7392C23.1727 25.3506 22.8778 25.036 22.5135 25.036H21.5996V23.3306C21.5996 22.942 21.3044 22.6274 20.9404 22.6274C20.5762 22.6274 20.2812 22.942 20.2812 23.3306V25.2118C20.2812 25.8904 20.8014 26.4423 21.4403 26.4423Z" fill="#947AC6"/>
<path d="M19.0888 21.1644C18.8324 20.8894 18.4149 20.8879 18.1567 21.1615C17.2881 22.0821 15.875 22.0821 15.0067 21.1615C14.7485 20.8879 14.331 20.8894 14.0746 21.1644C13.8178 21.4402 13.8191 21.8851 14.0773 22.1591C14.7677 22.8911 15.6745 23.257 16.5815 23.257C17.4886 23.257 18.3956 22.8907 19.0861 22.1591C19.3443 21.8851 19.3456 21.4402 19.0888 21.1644Z" fill="#947AC6"/>
<path d="M26.8749 23.257C27.7816 23.257 28.689 22.8911 29.3794 22.1591C29.6376 21.8851 29.6386 21.4402 29.3822 21.1648C29.1257 20.8894 28.7082 20.8879 28.45 21.1615C27.5814 22.0825 26.1683 22.0825 25.2997 21.1615C25.0415 20.8879 24.624 20.8894 24.3672 21.1648C24.1108 21.4402 24.1121 21.8851 24.3703 22.1591C25.0607 22.8911 25.9675 23.257 26.8749 23.257Z" fill="#947AC6"/>
<path d="M18.2367 28.0045C17.9799 28.2799 17.9812 28.7252 18.2394 28.9988C19.1956 30.0125 20.4521 30.519 21.7115 30.519C22.9797 30.519 24.25 30.0055 25.2182 28.9794C25.4764 28.7055 25.4774 28.2602 25.2209 27.9848C24.9645 27.7094 24.547 27.7083 24.2888 27.9818C22.8719 29.484 20.5751 29.4928 19.1688 28.0016C18.9106 27.7277 18.4931 27.7291 18.2367 28.0045Z" fill="#947AC6"/>
<path d="M36.5091 16.9577C37.6393 17.4367 37.8972 17.7114 38.3459 18.9166C38.4853 19.2912 38.8193 19.5333 39.197 19.5333C39.5747 19.5333 39.9084 19.2912 40.0478 18.917C40.4972 17.7114 40.7547 17.4367 41.8845 16.9577C42.2358 16.809 42.4624 16.4527 42.4624 16.0499C42.4624 15.6471 42.2358 15.2907 41.8849 15.142C40.7547 14.663 40.4972 14.3884 40.0478 13.1817C39.908 12.8082 39.574 12.5668 39.197 12.5668C38.8197 12.5668 38.4856 12.8082 38.3462 13.1824C37.8972 14.3884 37.6393 14.663 36.5095 15.142C36.1586 15.2907 35.9316 15.6471 35.9316 16.0499C35.9316 16.4531 36.1586 16.809 36.5091 16.9577ZM39.197 14.5748C39.5438 15.2545 39.9427 15.68 40.5803 16.0499C39.9427 16.4198 39.5438 16.8453 39.197 17.525C38.8502 16.8453 38.4516 16.4201 37.8141 16.0499C38.4516 15.68 38.8502 15.2545 39.197 14.5748Z" fill="#947AC6"/>
<path d="M2.76302 16.9859C3.89324 17.4653 4.15108 17.74 4.59981 18.9452C4.73885 19.3198 5.07291 19.5615 5.45091 19.5615C5.82822 19.5615 6.16228 19.3202 6.30167 18.9459C6.75074 17.74 7.00823 17.4653 8.1388 16.9859C8.48968 16.8372 8.71627 16.4813 8.71627 16.0785C8.71627 15.6756 8.48968 15.3193 8.1388 15.171C7.00823 14.6916 6.75074 14.4169 6.30167 13.211C6.16228 12.8367 5.82822 12.595 5.45091 12.595C5.07291 12.595 4.73885 12.8371 4.60015 13.211C4.15108 14.4169 3.89324 14.6916 2.76268 15.171C2.41214 15.3197 2.18555 15.676 2.18555 16.0785C2.18555 16.4809 2.41214 16.8372 2.76302 16.9859ZM5.45091 14.6033C5.79767 15.283 6.19661 15.7086 6.83382 16.0785C6.19661 16.4483 5.79767 16.8739 5.45091 17.5536C5.10415 16.8739 4.70521 16.4483 4.068 16.0785C4.70521 15.7086 5.10415 15.283 5.45091 14.6033Z" fill="#947AC6"/>
<path d="M6.99614 6.26687C7.87917 6.64114 8.06491 6.83926 8.41578 7.78116C8.54796 8.13565 8.86417 8.3649 9.22191 8.3649C9.57931 8.3649 9.89551 8.13602 10.0273 7.78153C10.3786 6.83926 10.5643 6.64114 11.4473 6.26687C11.7797 6.12624 11.9943 5.78896 11.9943 5.40737C11.9943 5.0265 11.78 4.68922 11.4473 4.54786C10.5643 4.17323 10.3786 3.97511 10.0277 3.03357C9.89551 2.67908 9.57931 2.44983 9.22191 2.44983C8.86417 2.44983 8.54796 2.67871 8.41613 3.03321C8.06525 3.97511 7.87917 4.17323 6.99511 4.54823C6.66345 4.68922 6.44922 5.0265 6.44922 5.40737C6.44922 5.78896 6.66414 6.12624 6.99614 6.26687ZM9.22157 4.47792C9.45297 4.87562 9.72042 5.1609 10.0929 5.40737C9.72042 5.65383 9.45297 5.93911 9.22157 6.33645C8.99051 5.93911 8.7234 5.65383 8.35055 5.40737C8.7234 5.16054 8.99051 4.87562 9.22157 4.47792Z" fill="#947AC6"/>
<path d="M44.6645 41.732L44.2347 41.2765C43.9765 41.0029 43.559 41.004 43.3025 41.2794C43.0457 41.5548 43.0471 42.0001 43.3053 42.2737L43.6064 42.593L40.6538 45.7238L37.6892 42.5806C37.5223 42.4033 37.2792 42.3352 37.0516 42.4007C36.7474 42.489 36.4333 42.534 36.1178 42.534C35.1819 42.534 34.3019 42.1481 33.641 41.4471L27.3187 34.7432C27.2679 34.6894 27.2411 34.6209 27.2411 34.5455C27.2411 34.47 27.2679 34.4016 27.3187 34.3477C27.4224 34.2379 27.5995 34.2379 27.7025 34.3474L31.2858 38.1468C31.543 38.4193 31.958 38.4193 32.2152 38.1464L32.7522 37.5766C32.8768 37.4448 32.9465 37.2653 32.9465 37.0782C32.9465 36.8911 32.8768 36.7116 32.7522 36.5794L27.9755 31.5147C27.9247 31.4605 27.8975 31.392 27.8975 31.3166C27.8975 31.2411 27.9247 31.1726 27.9751 31.1188C28.0788 31.009 28.2556 31.0086 28.3593 31.1192L33.1367 36.1839C33.3935 36.4567 33.8089 36.4564 34.0661 36.1839L34.6034 35.6141C34.7276 35.4822 34.7977 35.3024 34.7977 35.1157C34.7977 34.9282 34.7276 34.7487 34.6034 34.6169L29.8263 29.5518C29.7755 29.498 29.7488 29.4295 29.7488 29.354C29.7488 29.2786 29.7755 29.2101 29.8263 29.1563C29.93 29.046 30.1065 29.0464 30.2105 29.1563L34.9875 34.2214C35.2447 34.4938 35.6598 34.4942 35.9169 34.2214L36.4542 33.6515C36.5789 33.5197 36.6489 33.3403 36.6489 33.1528C36.6489 32.9656 36.5789 32.7862 36.4546 32.6543L32.8716 28.8556C32.8208 28.8018 32.794 28.7333 32.794 28.6575C32.794 28.5821 32.8212 28.5136 32.8716 28.4601C32.9753 28.3499 33.1521 28.3499 33.2562 28.4601L37.8502 33.3315C38.039 33.5318 38.3223 33.5911 38.5681 33.482C38.8139 33.3729 38.9739 33.1169 38.9739 32.8327V31.0738C38.9742 30.7786 39.2025 30.538 39.4834 30.538C39.7639 30.538 39.9925 30.7782 39.9925 31.0738V35.4852C39.9925 35.6155 40.0262 35.743 40.0904 35.854C40.591 36.7215 40.7317 37.7846 40.4766 38.7708C40.4135 39.0155 40.4787 39.2773 40.6476 39.4564L41.1077 39.9442C41.3658 40.2181 41.783 40.2166 42.0398 39.9413C42.2962 39.6659 42.2952 39.2205 42.037 38.947L41.8369 38.7346C42.0439 37.5609 41.8585 36.3366 41.3109 35.2944V31.0738C41.3109 30.003 40.491 29.1317 39.483 29.1317C38.4757 29.1321 37.6559 30.003 37.6555 31.0738V31.1423L35.5523 28.912C35.5884 28.667 35.6076 28.4165 35.6076 28.1609C35.6076 27.3157 35.4047 26.5203 35.0476 25.8259C35.2691 25.4359 35.3971 24.9804 35.3971 24.4933V22.1938C35.3971 21.1897 34.8543 20.317 34.0619 19.8834V17.1401C34.0619 13.7003 32.7951 10.7881 30.398 8.71829C29.7975 8.19973 29.1325 7.7449 28.4153 7.35671C28.0774 3.75757 25.2069 0.937363 21.7273 0.937363C18.2474 0.937363 15.3772 3.75757 15.039 7.35671C14.3218 7.7449 13.6568 8.19973 13.0566 8.71829C10.6595 10.7881 9.39234 13.7003 9.39234 17.1401V19.8834C8.60029 20.3174 8.05749 21.19 8.05749 22.1938V24.4933C8.05749 25.229 8.34966 25.893 8.81658 26.3668L8.58552 30.104C8.36717 30.1458 8.16632 30.2556 8.00668 30.4252L7.12536 31.3598C6.91697 31.5806 6.80229 31.875 6.80229 32.1889C6.80229 32.4661 6.89225 32.728 7.0567 32.9378L0.422976 40.7202C0.150033 41.0165 0 41.4079 0 41.824C0 42.2466 0.155183 42.6439 0.436709 42.9424C0.716862 43.2397 1.08971 43.4034 1.48557 43.4034C1.87558 43.4034 2.24225 43.2449 2.52138 42.9563L9.86613 35.9173C10.0646 36.0967 10.3135 36.1956 10.5775 36.1956C10.871 36.1956 11.1467 36.0744 11.3538 35.8547L12.2354 34.9201C12.3954 34.7502 12.4994 34.5367 12.5396 34.3049L16.3508 34.0397C16.4607 34.032 16.5661 34.0075 16.6653 33.9694C17.2298 34.2488 17.8247 34.4689 18.4434 34.6249V35.9312H14.0516C10.1092 35.9312 6.90186 39.3341 6.90186 43.5166V46.0145C6.90186 46.6723 7.4038 47.2077 8.02075 47.2077H35.4339C36.0512 47.2077 36.5531 46.6723 36.5531 46.0145V43.9187C36.7086 43.904 36.8638 43.8817 37.0173 43.8509L39.8501 46.8543C40.065 47.082 40.3506 47.2077 40.6538 47.2077C40.9573 47.2077 41.2426 47.082 41.4575 46.8543L44.6642 43.454C44.8777 43.2276 44.9999 42.9138 44.9999 42.593C45.0003 42.2726 44.8777 41.9584 44.6645 41.732ZM25.0119 34.6253C25.3264 34.5466 25.6347 34.4506 25.9358 34.3386C25.9282 34.4067 25.9227 34.4755 25.9227 34.5455C25.9227 34.997 26.0886 35.4215 26.3893 35.7408L26.5692 35.9312H25.0119V34.6253ZM34.1855 27.4622C33.8858 27.1443 33.4876 26.9693 33.0639 26.9693C32.6406 26.9693 32.2423 27.1443 31.9423 27.4625C31.6721 27.7493 31.511 28.1206 31.4812 28.5202L31.1399 28.1587C30.8402 27.8405 30.4419 27.6654 30.0186 27.6654C29.5953 27.6654 29.197 27.8408 28.897 28.1587C28.5962 28.4777 28.4307 28.9021 28.4307 29.354C28.4307 29.4562 28.4393 29.5573 28.4558 29.6562C28.3617 29.6378 28.2652 29.6287 28.1674 29.6287C28.1173 29.6287 28.0675 29.6313 28.0181 29.6364C27.8193 29.1881 27.7084 28.6879 27.7084 28.1609C27.7084 26.239 29.1843 24.676 30.9988 24.676C32.6035 24.676 33.9428 25.8988 34.2312 27.5109L34.1855 27.4622ZM34.0791 24.4929C34.0791 24.5035 34.0781 24.5142 34.0781 24.5248C33.537 24.0084 32.8812 23.6254 32.1565 23.4258V20.9967H32.9269C33.5624 20.9967 34.0791 21.5336 34.0791 22.1935V24.4929ZM21.7277 2.34325C24.2597 2.34325 26.3903 4.19849 26.973 6.6935C25.3813 6.08083 23.6008 5.75746 21.7277 5.75746C19.8545 5.75746 18.074 6.08083 16.482 6.6935C17.065 4.19849 19.1956 2.34325 21.7277 2.34325ZM9.3762 22.1935C9.3762 21.5336 9.89325 20.9967 10.5284 20.9967H11.2988V24.7262C10.7684 24.7397 10.2325 24.8178 9.70305 24.9595C9.63301 24.9782 9.56606 25.0042 9.50254 25.0353C9.42221 24.8723 9.3762 24.6885 9.3762 24.4929V22.1935ZM1.62942 41.9203C1.62118 41.9283 1.61328 41.9364 1.60539 41.9448C1.56453 41.988 1.51784 41.9972 1.48557 41.9972C1.45364 41.9972 1.40694 41.988 1.36609 41.9448C1.32661 41.9034 1.31837 41.8562 1.31837 41.824C1.31837 41.7917 1.32661 41.7445 1.36609 41.7027C1.37399 41.6947 1.38154 41.6859 1.38909 41.6771L7.98986 33.9339L8.92679 34.9271L1.62942 41.9203ZM10.5775 34.6949L8.2137 32.1885L8.78328 31.5846L11.1471 34.091L10.5775 34.6949ZM16.1421 32.6448L11.9299 32.9378L11.8632 32.8671L14.2246 31.3788C14.5381 31.1814 14.6421 30.7504 14.4567 30.4161C14.2717 30.0817 13.8676 29.9707 13.5541 30.1681L10.9102 31.8344L12.4778 29.038C12.6646 28.7044 12.5629 28.273 12.2502 28.0734C11.9377 27.8742 11.5333 27.9829 11.3462 28.3162L9.93891 30.8269L9.86716 30.7504L10.1428 26.2929C10.5844 26.1845 11.029 26.1295 11.4664 26.1295C12.8105 26.1295 14.0382 26.647 14.924 27.586C16.1098 28.8432 16.561 30.7262 16.1421 32.6448ZM15.8534 26.5888C14.9817 25.6644 13.859 25.0606 12.6172 24.8298V18.309H15.2052C15.5694 18.309 15.8644 17.9945 15.8644 17.6059C15.8644 17.2177 15.5694 16.9028 15.2052 16.9028H12.5005C11.8378 16.9028 11.2988 17.4763 11.2988 18.1812V19.5904H10.711V17.1397C10.711 14.139 11.809 11.6048 13.8865 9.81071C15.8633 8.10379 18.648 7.16335 21.7277 7.16335C24.8073 7.16335 27.592 8.10379 29.5688 9.81071C31.646 11.6048 32.7439 14.139 32.7439 17.1397V19.5904H32.1565V18.1812C32.1565 17.4763 31.6175 16.9028 30.9549 16.9028H28.1269C26.9445 16.9028 25.8173 16.2377 25.186 15.168C24.9652 14.7923 24.5848 14.5685 24.168 14.5685C23.7516 14.5685 23.3708 14.7923 23.15 15.1673C22.5187 16.2377 21.3919 16.9032 20.2091 16.9032H18.2814C17.9174 16.9032 17.6222 17.2177 17.6222 17.6063C17.6222 17.9945 17.9174 18.3094 18.2814 18.3094H20.2091C21.7812 18.3094 23.2815 17.4583 24.168 16.0755C25.0545 17.458 26.5548 18.3094 28.1269 18.3094H30.8381V23.2738C28.371 23.3646 26.39 25.5212 26.39 28.1609C26.39 28.9431 26.5651 29.6825 26.8744 30.3391C26.6839 30.6226 26.5795 30.9606 26.5795 31.3166C26.5795 31.6857 26.6921 32.0358 26.8971 32.3262C25.7137 33.0619 24.3362 33.4849 22.8661 33.4849H20.5899C19.4785 33.4849 18.4201 33.2429 17.4584 32.8074C17.9233 30.4637 17.3341 28.1587 15.8534 26.5888ZM18.4784 37.3375C19.1864 37.3375 19.7618 36.7252 19.7618 35.9726V34.8516C20.0347 34.8773 20.3108 34.8912 20.5899 34.8912H22.8661C23.1449 34.8912 23.4209 34.8776 23.6935 34.8516V35.9726C23.6935 36.7252 24.2693 37.3375 24.9772 37.3375H25.1334L21.7277 42.8995L18.3219 37.3375H18.4784ZM8.22023 45.8014V43.5166C8.22023 40.1093 10.836 37.3375 14.0516 37.3375H14.1227L19.3052 45.8014H8.22023ZM24.1498 45.8014L25.6237 43.3943C25.8228 43.0691 25.737 42.6337 25.4325 42.4212C25.1276 42.2088 24.719 42.3004 24.5199 42.6252L23.0155 45.0825C22.782 45.4641 22.4098 45.7241 21.9893 45.8014H21.4657C21.0455 45.7241 20.6733 45.4641 20.4398 45.0825L15.6972 37.3375H16.747L21.1756 44.5702C21.2975 44.7687 21.5048 44.8884 21.7277 44.8884C21.9501 44.8884 22.1578 44.7687 22.2794 44.5702L26.7079 37.3375H27.7578L26.1847 39.9065C25.9856 40.2317 26.0714 40.6675 26.3763 40.8799C26.6808 41.0923 27.0894 41.0007 27.2885 40.6755L28.7668 38.2614L32.7116 42.4443C33.4096 43.1844 34.2844 43.6682 35.2347 43.8539V45.8014H24.1498Z" fill="#947AC6"/>
</g>
<defs>
<clipPath id="clip0_462_956">
<rect width="45" height="48" fill="white"/>
</clipPath>
</defs>
</svg>
