<svg width="591" height="591" viewBox="0 0 591 591" fill="none" xmlns="http://www.w3.org/2000/svg">
<path d="M445.559 417.486C448.763 419.333 451.053 422.316 452.013 425.899C452.974 429.472 452.484 433.203 450.628 436.407C446.814 443.019 438.337 445.3 431.707 441.477L339.742 388.379C335.309 385.831 329.676 387.345 327.128 391.759C324.579 396.173 326.093 401.825 330.507 404.373L406.479 448.237L406.506 448.246C413.1 452.078 415.353 460.546 411.539 467.149C407.725 473.77 399.23 476.05 392.618 472.218L316.647 428.355C312.223 425.806 306.581 427.321 304.033 431.735C301.484 436.158 302.998 441.8 307.412 444.349L375.377 483.595L375.396 483.604C378.591 485.46 380.881 488.434 381.841 492.007C382.802 495.581 382.312 499.312 380.456 502.516C378.609 505.72 375.627 508.011 372.044 508.971C368.47 509.931 364.73 509.442 361.535 507.595L293.561 468.349C289.137 465.791 283.495 467.315 280.947 471.729C278.398 476.143 279.912 481.794 284.326 484.343L344.304 518.972C350.915 522.786 353.187 531.281 349.373 537.893C345.559 544.505 337.064 546.786 330.452 542.963L306.794 529.305C305.861 519.203 300.265 509.664 290.827 504.215C284.76 500.715 278.029 499.487 271.537 500.143C271.454 497.677 271.186 495.212 270.53 492.765C268.295 484.426 262.949 477.454 255.469 473.142C249.531 469.716 242.827 468.377 236.141 469.051C235.79 458.247 230.13 447.849 220.101 442.059C210.073 436.269 198.243 436.573 188.704 441.671C185.943 435.548 181.428 430.405 175.499 426.979C168.019 422.667 159.321 421.521 150.973 423.747C145.469 425.224 140.649 428.17 136.706 432.076L90.7092 413.949L101.116 372.265C102.354 367.316 99.3433 362.301 94.3937 361.073C89.5087 359.827 84.4298 362.837 83.2017 367.796L67.0507 432.483L29.513 424.966C24.4987 423.969 19.6414 427.21 18.6441 432.206C17.6468 437.211 20.8881 442.068 25.8839 443.074L72.0558 452.309C72.6745 452.429 73.2839 452.484 73.8842 452.484C78.0396 452.484 81.7888 449.668 82.8323 445.485L86.1936 432.012L126.169 447.756L117.489 462.781C113.176 470.261 112.031 478.969 114.257 487.307C116.492 495.646 121.838 502.618 129.318 506.93C134.397 509.857 139.947 511.252 145.423 511.252C146.494 511.252 147.556 511.15 148.618 511.049C148.701 513.505 148.978 515.961 149.624 518.39C151.859 526.729 157.206 533.701 164.686 538.013C169.755 540.94 175.305 542.335 180.791 542.335C186.137 542.335 191.392 540.968 196.101 538.456C198.862 544.56 203.369 549.685 209.288 553.102C214.367 556.029 219.917 557.424 225.393 557.424C230.739 557.424 235.994 556.066 240.703 553.545C243.464 559.649 247.971 564.765 253.89 568.182C258.876 571.054 264.399 572.522 270.004 572.522C272.811 572.522 275.637 572.153 278.416 571.405C286.755 569.17 293.727 563.823 298.039 556.343L302.657 548.346C302.675 548.319 302.684 548.282 302.703 548.254L321.218 558.938C326.297 561.865 331.837 563.26 337.322 563.26C348.496 563.26 359.393 557.461 365.367 547.1C368.849 541.06 370.16 534.347 369.541 527.883C371.97 527.8 374.417 527.431 376.827 526.784C385.166 524.549 392.138 519.203 396.45 511.723C399.941 505.674 401.252 498.961 400.624 492.488C411.401 492.109 421.762 486.356 427.542 476.355C430.331 471.526 431.725 466.271 431.855 461.045C445.198 463.916 459.438 458.034 466.622 445.605C470.935 438.125 472.08 429.417 469.854 421.078C469.374 419.278 468.672 417.569 467.915 415.907L504.141 410.837L508.177 426.979C509.211 431.199 512.96 434.016 517.116 434.016C517.716 434.016 518.325 433.96 518.935 433.831L565.107 424.597C570.112 423.599 573.353 418.733 572.346 413.728C571.349 408.723 566.51 405.5 561.478 406.488L523.94 413.995L482.044 246.401L565.938 221.228C570.823 219.76 573.602 214.616 572.134 209.731C570.666 204.846 565.513 202.094 560.637 203.535L504.178 220.471C496.643 200.46 478.082 186.571 456.4 185.029C465.412 175.185 470.953 162.119 470.953 147.75C470.953 142.653 466.816 138.516 461.719 138.516C456.621 138.516 452.484 142.653 452.484 147.75C452.484 168.121 435.918 184.688 415.547 184.688C395.176 184.688 378.609 168.121 378.609 147.75V115.014C392.646 102.88 412.176 99.6297 429.445 107.026L458.08 119.299C460.934 120.527 464.212 120.232 466.798 118.523C469.392 116.815 470.953 113.915 470.953 110.812V103.693C470.953 77.0701 449.289 55.4063 422.667 55.4063C419.13 55.4063 415.667 54.7414 412.379 53.4209L372.81 37.5931C368.322 35.8017 363.262 37.7501 361.119 42.0349L357.536 49.1915C347.342 69.5903 348.478 93.8028 360.141 113.223V147.75C360.141 162.128 365.69 175.204 374.703 185.057C371.785 185.279 368.867 185.703 365.958 186.414C356.595 175.065 342.798 167.548 327.257 166.413C336.187 156.587 341.672 143.576 341.672 129.281V83.1094C341.672 57.6502 320.959 36.9375 295.5 36.9375H240.094C234.996 36.9375 230.859 41.0745 230.859 46.1719V83.1094C230.859 88.2068 234.996 92.3438 240.094 92.3438H323.203V129.281C323.203 149.652 306.637 166.219 286.266 166.219C265.895 166.219 249.328 149.652 249.328 129.281V120.047C249.328 114.95 245.191 110.812 240.094 110.812C234.996 110.812 230.859 114.95 230.859 120.047V129.281C230.859 143.576 236.345 156.587 245.274 166.422C228.726 167.632 214.21 176.118 204.865 188.714C199.638 186.627 194.199 185.389 188.686 184.965C197.643 175.121 203.156 162.082 203.156 147.75V101.578C203.156 76.119 182.443 55.4063 156.984 55.4063H138.516C113.056 55.4063 92.3437 76.119 92.3437 101.578V147.75C92.3437 162.045 97.8289 175.056 106.759 184.891C81.5487 186.728 60.993 205.465 56.4035 229.825L30.3626 222.013C25.496 220.563 20.3433 223.324 18.8658 228.209C17.3975 233.094 20.177 238.238 25.062 239.706L108.956 264.879L92.159 331.856C90.9216 336.805 93.9228 341.82 98.8724 343.057C99.6296 343.242 100.387 343.334 101.126 343.334C105.263 343.334 109.021 340.536 110.074 336.344L121.949 288.944L149.846 297.218C167.17 302.343 185.611 302.814 203.175 298.566L218.042 294.964C225.005 293.265 232.226 294.327 238.413 297.901L254.675 307.292C239.244 319.306 222.179 328.67 203.618 334.857C195.556 337.563 189.258 343.676 186.331 351.608C183.422 359.503 184.235 368.184 188.594 375.442C196.286 388.176 209.611 395.222 223.389 395.222C230.278 395.222 237.277 393.458 243.741 389.774L277.742 370.363L281.251 371.757C306.304 381.804 334.681 379.976 358.238 367.039L383.3 381.518C387.705 384.067 393.366 382.552 395.915 378.148C398.463 373.724 396.958 368.082 392.544 365.533L362.809 348.358C359.827 346.621 356.133 346.723 353.242 348.551C333.786 360.898 309.453 363.16 288.094 354.6L280.429 351.553C277.816 350.518 274.88 350.731 272.442 352.116L234.572 373.724C223.97 379.773 210.71 376.347 204.403 365.912C202.427 362.615 203.082 359.54 203.655 357.998C204.634 355.329 206.767 353.279 209.472 352.365C232.789 344.59 254.148 332.511 272.959 316.444L291.889 300.191C301.299 292.111 314.089 289.322 326.103 292.739C354.397 300.791 384.307 300.81 412.62 292.739L470.454 276.246L499.607 392.858L451.552 399.59L424.476 384.002C420.062 381.472 414.411 382.986 411.862 387.4C409.323 391.824 410.837 397.466 415.261 400.015L445.559 417.486ZM138.562 490.945C131.95 487.122 129.678 478.636 133.492 472.024L147.344 448.033C149.902 443.601 154.574 441.108 159.358 441.108C161.703 441.108 164.086 441.699 166.265 442.964C172.877 446.777 175.148 455.264 171.335 461.876L157.474 485.885C153.651 492.497 145.183 494.769 138.562 490.945ZM191.946 463.113C194.504 458.681 199.176 456.187 203.96 456.187C206.305 456.187 208.688 456.778 210.867 458.043C217.479 461.866 219.75 470.353 215.937 476.965L192.851 516.949C189.037 523.561 180.55 525.842 173.929 522.019C170.725 520.172 168.435 517.19 167.484 513.607C166.523 510.033 167.013 506.302 168.869 503.098L191.946 463.113ZM237.453 532.048C233.639 538.669 225.162 540.94 218.531 537.117C211.92 533.294 209.648 524.808 213.462 518.196L227.313 494.205C229.871 489.773 234.544 487.279 239.327 487.279C241.673 487.279 244.055 487.87 246.235 489.136C252.846 492.959 255.118 501.445 251.304 508.057L237.453 532.048ZM262.681 525.288C265.239 520.846 269.911 518.362 274.704 518.362C277.05 518.362 279.432 518.953 281.602 520.218C288.214 524.041 290.495 532.528 286.672 539.14L282.055 547.137C278.241 553.748 269.764 556.029 263.133 552.206C256.531 548.393 254.259 539.934 258.045 533.331L262.681 525.288ZM430.442 203.156L426.462 215.078L415.547 220.535L404.632 215.078L400.652 203.156H430.442ZM373.835 57.8995L405.518 70.5783C410.994 72.7669 416.766 73.875 422.667 73.875C436.601 73.875 448.338 83.488 451.589 96.4254L436.73 90.0629C415.187 80.8285 391.002 83.4695 372.256 96.4346C367.454 84.0698 367.916 70.0612 373.835 57.8995ZM378.609 203.156H381.186L388.315 224.543C389.09 226.861 390.753 228.782 392.941 229.881L406.312 236.566V275.295C397.217 277.798 387.936 279.377 378.609 280.005V221.625C378.609 215.253 377.473 209.159 375.488 203.461C376.532 203.369 377.575 203.156 378.609 203.156ZM249.328 73.875V55.4063H295.5C307.542 55.4063 317.81 63.1262 321.624 73.875H249.328ZM295.5 183.856V197.449L286.266 202.067L277.031 197.449V183.856C280.042 184.364 283.117 184.688 286.266 184.688C289.414 184.688 292.49 184.364 295.5 183.856ZM156.984 215.918L147.75 220.535L138.516 215.918V203.156H156.984V215.918ZM110.812 147.75V110.812H184.687V147.75C184.687 168.121 168.121 184.688 147.75 184.688C127.379 184.688 110.812 168.121 110.812 147.75ZM138.516 73.875H156.984C169.026 73.875 179.295 81.5949 183.108 92.3438H112.401C116.205 81.5949 126.474 73.875 138.516 73.875ZM74.3644 235.218C76.7838 217.174 92.1128 203.156 110.812 203.156H120.047V221.625C120.047 225.125 122.023 228.32 125.153 229.89L127.379 230.998L125.366 251.12C124.562 250.547 123.704 250.021 122.706 249.716L74.3644 235.218ZM141.489 275.471L145.09 239.466C145.968 239.734 146.836 240.094 147.75 240.094C148.664 240.094 149.532 239.734 150.409 239.466L154.389 279.294L141.489 275.471ZM173.292 282.618L168.13 230.998L170.356 229.89C173.477 228.32 175.453 225.125 175.453 221.625V203.156H184.687C188.695 203.156 192.601 203.904 196.397 205.243C194.79 210.424 193.922 215.918 193.922 221.625V281.464C187.098 282.692 180.181 283.089 173.292 282.618ZM213.72 277.013L212.391 277.336V221.625C212.391 201.254 228.957 184.688 249.328 184.688H258.562V203.156C258.562 206.656 260.539 209.851 263.669 211.421L265.691 212.428L258.627 276.015C258.387 278.176 258.913 280.346 260.123 282.156L267.649 293.45L247.666 281.916C237.342 275.951 225.282 274.215 213.72 277.013ZM283.283 283.615L277.345 274.713L283.32 220.932C284.289 221.265 285.259 221.625 286.266 221.625C287.272 221.625 288.242 221.265 289.211 220.932L295.426 276.865C291.141 278.573 287.078 280.836 283.283 283.615ZM313.572 272.996L306.84 212.428L308.862 211.421C311.992 209.851 313.969 206.656 313.969 203.156V184.688H323.203C343.574 184.688 360.141 201.254 360.141 221.625V280.005C350.38 279.358 340.674 277.696 331.172 274.99C325.364 273.328 319.426 272.746 313.572 272.996ZM424.781 270.078V236.566L438.143 229.881C440.332 228.782 441.994 226.861 442.77 224.543L449.908 203.156H452.484C467.592 203.156 480.723 212.354 486.356 225.827L468.303 231.247C463.575 232.669 460.804 237.545 461.996 242.338L465.994 258.332L424.781 270.078Z" fill="white"/>
</svg>
