<svg width="52" height="45" viewBox="0 0 52 45" fill="none" xmlns="http://www.w3.org/2000/svg">
<g clip-path="url(#clip0_460_600)">
<path d="M13.4062 32.3438H15.0312C15.2467 32.3438 15.4534 32.2697 15.6058 32.1378C15.7581 32.0059 15.8438 31.8271 15.8438 31.6406C15.8438 31.4541 15.7581 31.2753 15.6058 31.1434C15.4534 31.0116 15.2467 30.9375 15.0312 30.9375H13.4062C13.1908 30.9375 12.9841 31.0116 12.8317 31.1434C12.6794 31.2753 12.5938 31.4541 12.5938 31.6406C12.5938 31.8271 12.6794 32.0059 12.8317 32.1378C12.9841 32.2697 13.1908 32.3438 13.4062 32.3438Z" fill="#947AC6"/>
<path d="M18.2812 32.3438H19.9062C20.1217 32.3438 20.3284 32.2697 20.4808 32.1378C20.6331 32.0059 20.7188 31.8271 20.7188 31.6406C20.7188 31.4541 20.6331 31.2753 20.4808 31.1434C20.3284 31.0116 20.1217 30.9375 19.9062 30.9375H18.2812C18.0658 30.9375 17.8591 31.0116 17.7067 31.1434C17.5544 31.2753 17.4688 31.4541 17.4688 31.6406C17.4688 31.8271 17.5544 32.0059 17.7067 32.1378C17.8591 32.2697 18.0658 32.3438 18.2812 32.3438Z" fill="#947AC6"/>
<path d="M13.4062 29.5312H15.0312C15.2467 29.5312 15.4534 29.4572 15.6058 29.3253C15.7581 29.1934 15.8438 29.0146 15.8438 28.8281C15.8438 28.6416 15.7581 28.4628 15.6058 28.3309C15.4534 28.1991 15.2467 28.125 15.0312 28.125H13.4062C13.1908 28.125 12.9841 28.1991 12.8317 28.3309C12.6794 28.4628 12.5938 28.6416 12.5938 28.8281C12.5938 29.0146 12.6794 29.1934 12.8317 29.3253C12.9841 29.4572 13.1908 29.5312 13.4062 29.5312Z" fill="#947AC6"/>
<path d="M18.2812 29.5312H19.9062C20.1217 29.5312 20.3284 29.4572 20.4808 29.3253C20.6331 29.1934 20.7188 29.0146 20.7188 28.8281C20.7188 28.6416 20.6331 28.4628 20.4808 28.3309C20.3284 28.1991 20.1217 28.125 19.9062 28.125H18.2812C18.0658 28.125 17.8591 28.1991 17.7067 28.3309C17.5544 28.4628 17.4688 28.6416 17.4688 28.8281C17.4688 29.0146 17.5544 29.1934 17.7067 29.3253C17.8591 29.4572 18.0658 29.5312 18.2812 29.5312Z" fill="#947AC6"/>
<path d="M13.4062 26.7188H15.0312C15.2467 26.7188 15.4534 26.6447 15.6058 26.5128C15.7581 26.3809 15.8438 26.2021 15.8438 26.0156C15.8438 25.8291 15.7581 25.6503 15.6058 25.5184C15.4534 25.3866 15.2467 25.3125 15.0312 25.3125H13.4062C13.1908 25.3125 12.9841 25.3866 12.8317 25.5184C12.6794 25.6503 12.5938 25.8291 12.5938 26.0156C12.5938 26.2021 12.6794 26.3809 12.8317 26.5128C12.9841 26.6447 13.1908 26.7188 13.4062 26.7188Z" fill="#947AC6"/>
<path d="M18.2812 26.7188H19.9062C20.1217 26.7188 20.3284 26.6447 20.4808 26.5128C20.6331 26.3809 20.7188 26.2021 20.7188 26.0156C20.7188 25.8291 20.6331 25.6503 20.4808 25.5184C20.3284 25.3866 20.1217 25.3125 19.9062 25.3125H18.2812C18.0658 25.3125 17.8591 25.3866 17.7067 25.5184C17.5544 25.6503 17.4688 25.8291 17.4688 26.0156C17.4688 26.2021 17.5544 26.3809 17.7067 26.5128C17.8591 26.6447 18.0658 26.7188 18.2812 26.7188Z" fill="#947AC6"/>
<path d="M13.4062 23.9062H15.0312C15.2467 23.9062 15.4534 23.8322 15.6058 23.7003C15.7581 23.5684 15.8438 23.3896 15.8438 23.2031C15.8438 23.0166 15.7581 22.8378 15.6058 22.7059C15.4534 22.5741 15.2467 22.5 15.0312 22.5H13.4062C13.1908 22.5 12.9841 22.5741 12.8317 22.7059C12.6794 22.8378 12.5938 23.0166 12.5938 23.2031C12.5938 23.3896 12.6794 23.5684 12.8317 23.7003C12.9841 23.8322 13.1908 23.9062 13.4062 23.9062Z" fill="#947AC6"/>
<path d="M18.2812 23.9062H19.9062C20.1217 23.9062 20.3284 23.8322 20.4808 23.7003C20.6331 23.5684 20.7188 23.3896 20.7188 23.2031C20.7188 23.0166 20.6331 22.8378 20.4808 22.7059C20.3284 22.5741 20.1217 22.5 19.9062 22.5H18.2812C18.0658 22.5 17.8591 22.5741 17.7067 22.7059C17.5544 22.8378 17.4688 23.0166 17.4688 23.2031C17.4688 23.3896 17.5544 23.5684 17.7067 23.7003C17.8591 23.8322 18.0658 23.9062 18.2812 23.9062Z" fill="#947AC6"/>
<path d="M25.1875 11.9531C24.972 11.9531 24.7653 12.0272 24.613 12.1591C24.4606 12.2909 24.375 12.4698 24.375 12.6562V14.149L19.2912 12.3912C19.0448 12.3059 18.778 12.2741 18.5142 12.2986C18.2503 12.3231 17.9974 12.4031 17.7775 12.5317C17.5577 12.6603 17.3775 12.8335 17.2529 13.0363C17.1282 13.239 17.0629 13.4651 17.0625 13.6948V19.6875H10.9688V18.6328C10.9688 18.4463 10.8831 18.2675 10.7308 18.1356C10.5784 18.0038 10.3717 17.9297 10.1562 17.9297C9.94076 17.9297 9.7341 18.0038 9.58173 18.1356C9.42935 18.2675 9.34375 18.4463 9.34375 18.6328V28.125H7.3125C6.88152 28.125 6.4682 28.2732 6.16345 28.5369C5.8587 28.8006 5.6875 29.1583 5.6875 29.5312V40.7812C5.25652 40.7812 4.8432 40.9294 4.53845 41.1931C4.2337 41.4569 4.0625 41.8145 4.0625 42.1875V43.5938C4.0625 43.9667 4.2337 44.3244 4.53845 44.5881C4.8432 44.8518 5.25652 45 5.6875 45H46.3125C46.7435 45 47.1568 44.8518 47.4615 44.5881C47.7663 44.3244 47.9375 43.9667 47.9375 43.5938V42.1875C47.9375 41.8145 47.7663 41.4569 47.4615 41.1931C47.1568 40.9294 46.7435 40.7812 46.3125 40.7812V29.5312C46.3125 29.1583 46.1413 28.8006 45.8365 28.5369C45.5318 28.2732 45.1185 28.125 44.6875 28.125H42.6562V22.8516C42.6562 22.6651 42.5706 22.4862 42.4183 22.3544C42.2659 22.2225 42.0592 22.1484 41.8438 22.1484C41.6283 22.1484 41.4216 22.2225 41.2692 22.3544C41.1169 22.4862 41.0312 22.6651 41.0312 22.8516V23.9062H34.9375V18.7573C34.9386 18.4759 34.8416 18.2008 34.6593 17.9679C34.4769 17.735 34.2177 17.555 33.9154 17.4516L32.5 16.9615V10.5469C32.5 10.3604 32.4144 10.1816 32.262 10.0497C32.1097 9.91783 31.903 9.84375 31.6875 9.84375C31.472 9.84375 31.2653 9.91783 31.113 10.0497C30.9606 10.1816 30.875 10.3604 30.875 10.5469V16.399L29.25 15.8365V11.6016C29.25 11.4151 29.1644 11.2362 29.012 11.1044C28.8597 10.9725 28.653 10.8984 28.4375 10.8984C28.222 10.8984 28.0153 10.9725 27.863 11.1044C27.7106 11.2362 27.625 11.4151 27.625 11.6016V15.274L26 14.7115V12.6562C26 12.4698 25.9144 12.2909 25.762 12.1591C25.6097 12.0272 25.403 11.9531 25.1875 11.9531ZM22.3438 21.0938V40.7812H20.7188V35.1562C20.7188 34.7833 20.5475 34.4256 20.2428 34.1619C19.9381 33.8982 19.5247 33.75 19.0938 33.75H14.2188C13.7878 33.75 13.3744 33.8982 13.0697 34.1619C12.765 34.4256 12.5938 34.7833 12.5938 35.1562V40.7812H10.9688V21.0938H22.3438ZM30.2656 40.7812H23.9688V37.9688H30.2656V40.7812ZM19.0938 40.7812H14.2188V35.1562H19.0938V40.7812ZM7.3125 29.5312H9.34375V40.7812H7.3125V29.5312ZM46.3125 43.5938H5.6875V42.1875H46.3125V43.5938ZM34.9375 36.5625H37.7812V40.7812H34.9375V36.5625ZM44.6875 29.5312V40.7812H42.6562V29.5312H44.6875ZM41.0312 25.3125V40.7812H39.4062V36.5625C39.4062 36.1895 39.235 35.8319 38.9303 35.5681C38.6256 35.3044 38.2122 35.1562 37.7812 35.1562H34.9375V33.75H38.5938C38.8092 33.75 39.0159 33.6759 39.1683 33.5441C39.3206 33.4122 39.4062 33.2334 39.4062 33.0469C39.4062 32.8604 39.3206 32.6816 39.1683 32.5497C39.0159 32.4178 38.8092 32.3438 38.5938 32.3438H34.9375V30.9375H38.5938C38.8092 30.9375 39.0159 30.8634 39.1683 30.7316C39.3206 30.5997 39.4062 30.4209 39.4062 30.2344C39.4062 30.0479 39.3206 29.8691 39.1683 29.7372C39.0159 29.6053 38.8092 29.5312 38.5938 29.5312H34.9375V28.125H38.5938C38.8092 28.125 39.0159 28.0509 39.1683 27.9191C39.3206 27.7872 39.4062 27.6084 39.4062 27.4219C39.4062 27.2354 39.3206 27.0566 39.1683 26.9247C39.0159 26.7928 38.8092 26.7188 38.5938 26.7188H34.9375V25.3125H41.0312ZM33.3125 40.7812H31.8906V37.9688C31.8906 37.5958 31.7194 37.2381 31.4147 36.9744C31.1099 36.7107 30.6966 36.5625 30.2656 36.5625H23.9688V21.0938C23.9688 20.7208 23.7975 20.3631 23.4928 20.0994C23.1881 19.8357 22.7747 19.6875 22.3438 19.6875H18.6875V13.6955L28.1198 16.9601L31.3698 18.0851L33.3125 18.7573V40.7812Z" fill="#947AC6"/>
<path d="M27.2188 30.9375H26.2031C25.9876 30.9375 25.781 31.0116 25.6286 31.1434C25.4762 31.2753 25.3906 31.4541 25.3906 31.6406C25.3906 31.8271 25.4762 32.0059 25.6286 32.1378C25.781 32.2697 25.9876 32.3438 26.2031 32.3438H27.2188C27.4342 32.3438 27.6409 32.2697 27.7933 32.1378C27.9456 32.0059 28.0312 31.8271 28.0312 31.6406C28.0312 31.4541 27.9456 31.2753 27.7933 31.1434C27.6409 31.0116 27.4342 30.9375 27.2188 30.9375Z" fill="#947AC6"/>
<path d="M31.0781 30.9375H30.0625C29.847 30.9375 29.6403 31.0116 29.488 31.1434C29.3356 31.2753 29.25 31.4541 29.25 31.6406C29.25 31.8271 29.3356 32.0059 29.488 32.1378C29.6403 32.2697 29.847 32.3438 30.0625 32.3438H31.0781C31.2936 32.3438 31.5003 32.2697 31.6526 32.1378C31.805 32.0059 31.8906 31.8271 31.8906 31.6406C31.8906 31.4541 31.805 31.2753 31.6526 31.1434C31.5003 31.0116 31.2936 30.9375 31.0781 30.9375Z" fill="#947AC6"/>
<path d="M27.2188 33.75H26.2031C25.9876 33.75 25.781 33.8241 25.6286 33.9559C25.4762 34.0878 25.3906 34.2666 25.3906 34.4531C25.3906 34.6396 25.4762 34.8184 25.6286 34.9503C25.781 35.0822 25.9876 35.1562 26.2031 35.1562H27.2188C27.4342 35.1562 27.6409 35.0822 27.7933 34.9503C27.9456 34.8184 28.0312 34.6396 28.0312 34.4531C28.0312 34.2666 27.9456 34.0878 27.7933 33.9559C27.6409 33.8241 27.4342 33.75 27.2188 33.75Z" fill="#947AC6"/>
<path d="M31.0781 33.75H30.0625C29.847 33.75 29.6403 33.8241 29.488 33.9559C29.3356 34.0878 29.25 34.2666 29.25 34.4531C29.25 34.6396 29.3356 34.8184 29.488 34.9503C29.6403 35.0822 29.847 35.1562 30.0625 35.1562H31.0781C31.2936 35.1562 31.5003 35.0822 31.6526 34.9503C31.805 34.8184 31.8906 34.6396 31.8906 34.4531C31.8906 34.2666 31.805 34.0878 31.6526 33.9559C31.5003 33.8241 31.2936 33.75 31.0781 33.75Z" fill="#947AC6"/>
<path d="M27.2188 28.125H26.2031C25.9876 28.125 25.781 28.1991 25.6286 28.3309C25.4762 28.4628 25.3906 28.6416 25.3906 28.8281C25.3906 29.0146 25.4762 29.1934 25.6286 29.3253C25.781 29.4572 25.9876 29.5312 26.2031 29.5312H27.2188C27.4342 29.5312 27.6409 29.4572 27.7933 29.3253C27.9456 29.1934 28.0312 29.0146 28.0312 28.8281C28.0312 28.6416 27.9456 28.4628 27.7933 28.3309C27.6409 28.1991 27.4342 28.125 27.2188 28.125Z" fill="#947AC6"/>
<path d="M31.0781 28.125H30.0625C29.847 28.125 29.6403 28.1991 29.488 28.3309C29.3356 28.4628 29.25 28.6416 29.25 28.8281C29.25 29.0146 29.3356 29.1934 29.488 29.3253C29.6403 29.4572 29.847 29.5312 30.0625 29.5312H31.0781C31.2936 29.5312 31.5003 29.4572 31.6526 29.3253C31.805 29.1934 31.8906 29.0146 31.8906 28.8281C31.8906 28.6416 31.805 28.4628 31.6526 28.3309C31.5003 28.1991 31.2936 28.125 31.0781 28.125Z" fill="#947AC6"/>
<path d="M27.2188 25.3125H26.2031C25.9876 25.3125 25.781 25.3866 25.6286 25.5184C25.4762 25.6503 25.3906 25.8291 25.3906 26.0156C25.3906 26.2021 25.4762 26.3809 25.6286 26.5128C25.781 26.6447 25.9876 26.7188 26.2031 26.7188H27.2188C27.4342 26.7188 27.6409 26.6447 27.7933 26.5128C27.9456 26.3809 28.0312 26.2021 28.0312 26.0156C28.0312 25.8291 27.9456 25.6503 27.7933 25.5184C27.6409 25.3866 27.4342 25.3125 27.2188 25.3125Z" fill="#947AC6"/>
<path d="M31.0781 25.3125H30.0625C29.847 25.3125 29.6403 25.3866 29.488 25.5184C29.3356 25.6503 29.25 25.8291 29.25 26.0156C29.25 26.2021 29.3356 26.3809 29.488 26.5128C29.6403 26.6447 29.847 26.7188 30.0625 26.7188H31.0781C31.2936 26.7188 31.5003 26.6447 31.6526 26.5128C31.805 26.3809 31.8906 26.2021 31.8906 26.0156C31.8906 25.8291 31.805 25.6503 31.6526 25.5184C31.5003 25.3866 31.2936 25.3125 31.0781 25.3125Z" fill="#947AC6"/>
<path d="M27.2188 22.5H26.2031C25.9876 22.5 25.781 22.5741 25.6286 22.7059C25.4762 22.8378 25.3906 23.0166 25.3906 23.2031C25.3906 23.3896 25.4762 23.5684 25.6286 23.7003C25.781 23.8322 25.9876 23.9062 26.2031 23.9062H27.2188C27.4342 23.9062 27.6409 23.8322 27.7933 23.7003C27.9456 23.5684 28.0312 23.3896 28.0312 23.2031C28.0312 23.0166 27.9456 22.8378 27.7933 22.7059C27.6409 22.5741 27.4342 22.5 27.2188 22.5Z" fill="#947AC6"/>
<path d="M31.0781 22.5H30.0625C29.847 22.5 29.6403 22.5741 29.488 22.7059C29.3356 22.8378 29.25 23.0166 29.25 23.2031C29.25 23.3896 29.3356 23.5684 29.488 23.7003C29.6403 23.8322 29.847 23.9062 30.0625 23.9062H31.0781C31.2936 23.9062 31.5003 23.8322 31.6526 23.7003C31.805 23.5684 31.8906 23.3896 31.8906 23.2031C31.8906 23.0166 31.805 22.8378 31.6526 22.7059C31.5003 22.5741 31.2936 22.5 31.0781 22.5Z" fill="#947AC6"/>
<path d="M27.2188 19.6875H26.2031C25.9876 19.6875 25.781 19.7616 25.6286 19.8934C25.4762 20.0253 25.3906 20.2041 25.3906 20.3906C25.3906 20.5771 25.4762 20.7559 25.6286 20.8878C25.781 21.0197 25.9876 21.0938 26.2031 21.0938H27.2188C27.4342 21.0938 27.6409 21.0197 27.7933 20.8878C27.9456 20.7559 28.0312 20.5771 28.0312 20.3906C28.0312 20.2041 27.9456 20.0253 27.7933 19.8934C27.6409 19.7616 27.4342 19.6875 27.2188 19.6875Z" fill="#947AC6"/>
<path d="M31.0781 19.6875H30.0625C29.847 19.6875 29.6403 19.7616 29.488 19.8934C29.3356 20.0253 29.25 20.2041 29.25 20.3906C29.25 20.5771 29.3356 20.7559 29.488 20.8878C29.6403 21.0197 29.847 21.0938 30.0625 21.0938H31.0781C31.2936 21.0938 31.5003 21.0197 31.6526 20.8878C31.805 20.7559 31.8906 20.5771 31.8906 20.3906C31.8906 20.2041 31.805 20.0253 31.6526 19.8934C31.5003 19.7616 31.2936 19.6875 31.0781 19.6875Z" fill="#947AC6"/>
<path d="M10.1562 16.875C10.3717 16.875 10.5784 16.8009 10.7308 16.6691C10.8831 16.5372 10.9688 16.3584 10.9688 16.1719V14.4141C10.9688 14.2276 10.8831 14.0487 10.7308 13.9169C10.5784 13.785 10.3717 13.7109 10.1562 13.7109C9.94076 13.7109 9.7341 13.785 9.58173 13.9169C9.42935 14.0487 9.34375 14.2276 9.34375 14.4141V16.1719C9.34375 16.3584 9.42935 16.5372 9.58173 16.6691C9.7341 16.8009 9.94076 16.875 10.1562 16.875Z" fill="#947AC6"/>
<path d="M41.0312 18.6328V20.3906C41.0312 20.5771 41.1169 20.7559 41.2692 20.8878C41.4216 21.0197 41.6283 21.0938 41.8438 21.0938C42.0592 21.0938 42.2659 21.0197 42.4183 20.8878C42.5706 20.7559 42.6562 20.5771 42.6562 20.3906V18.6328C42.6562 18.4463 42.5706 18.2675 42.4183 18.1356C42.2659 18.0038 42.0592 17.9297 41.8438 17.9297C41.6283 17.9297 41.4216 18.0038 41.2692 18.1356C41.1169 18.2675 41.0312 18.4463 41.0312 18.6328Z" fill="#947AC6"/>
<path d="M46.9495 15.0694C47.9904 14.1908 48.7051 13.0636 49.0021 11.8318C49.2991 10.6 49.165 9.31958 48.617 8.15407C48.0689 6.98855 47.1318 5.99089 45.9253 5.28855C44.7188 4.5862 43.2978 4.21106 41.8438 4.21106C40.3897 4.21106 38.9687 4.5862 37.7622 5.28855C36.5557 5.99089 35.6186 6.98855 35.0705 8.15407C34.5225 9.31958 34.3884 10.6 34.6854 11.8318C34.9825 13.0636 35.6971 14.1908 36.738 15.0694C36.7534 15.0827 36.7697 15.094 36.7859 15.1066C38.1433 16.2411 39.9567 16.8751 41.8438 16.8751C43.7308 16.8751 45.5442 16.2411 46.9016 15.1066C46.9178 15.094 46.9341 15.0827 46.9495 15.0694ZM41.8438 5.625C42.8843 5.62388 43.9051 5.87011 44.795 6.33682C45.6848 6.80353 46.4094 7.47279 46.8897 8.27156C47.37 9.07033 47.5875 9.96792 47.5185 10.8664C47.4496 11.7648 47.0967 12.6296 46.4986 13.3664C45.9328 12.653 45.158 12.0825 44.2536 11.7134C44.6756 11.3098 44.9533 10.8088 45.0528 10.2714C45.1523 9.73394 45.0695 9.18303 44.8144 8.68551C44.5593 8.18799 44.1428 7.76522 43.6155 7.46848C43.0882 7.17175 42.4727 7.0138 41.8438 7.0138C41.2148 7.0138 40.5993 7.17175 40.072 7.46848C39.5447 7.76522 39.1282 8.18799 38.8731 8.68551C38.618 9.18303 38.5352 9.73394 38.6347 10.2714C38.7342 10.8088 39.0119 11.3098 39.4339 11.7134C38.5295 12.0825 37.7547 12.653 37.1889 13.3664C36.5908 12.6296 36.238 11.7648 36.169 10.8664C36.1 9.96792 36.3175 9.07033 36.7978 8.27156C37.2781 7.47279 38.0027 6.80353 38.8925 6.33682C39.7824 5.87011 40.8032 5.62388 41.8438 5.625ZM40.2188 9.84375C40.2188 9.56562 40.3141 9.29373 40.4926 9.06248C40.6712 8.83122 40.925 8.65098 41.2219 8.54454C41.5188 8.43811 41.8456 8.41026 42.1608 8.46452C42.476 8.51878 42.7655 8.65271 42.9928 8.84938C43.2201 9.04605 43.3748 9.29662 43.4375 9.5694C43.5002 9.84219 43.4681 10.1249 43.3451 10.3819C43.2221 10.6389 43.0138 10.8585 42.7466 11.013C42.4793 11.1675 42.1651 11.25 41.8438 11.25C41.4128 11.25 40.9995 11.1018 40.6947 10.8381C40.39 10.5744 40.2188 10.2167 40.2188 9.84375ZM38.3321 14.4141C38.6881 13.8807 39.2 13.4378 39.8164 13.1299C40.4328 12.8219 41.132 12.6598 41.8438 12.6598C42.5555 12.6598 43.2547 12.8219 43.8711 13.1299C44.4875 13.4378 44.9994 13.8807 45.3554 14.4141C44.3562 15.0994 43.1187 15.4723 41.8438 15.4723C40.5688 15.4723 39.3313 15.0994 38.3321 14.4141Z" fill="#947AC6"/>
<path d="M10.1566 -1.01568e-06C8.703 -0.00118442 7.28201 0.372907 6.07541 1.07443C4.86882 1.77594 3.93146 2.77299 3.38325 3.93805C2.83503 5.1031 2.70088 6.38319 2.99795 7.61459C3.29502 8.84598 4.0098 9.9727 5.05088 10.8506C5.06631 10.864 5.08256 10.8752 5.09881 10.8879C6.45622 12.0223 8.26957 12.6564 10.1566 12.6564C12.0437 12.6564 13.857 12.0223 15.2144 10.8879C15.2307 10.8752 15.2469 10.864 15.2624 10.8506C16.3035 9.9727 17.0182 8.84598 17.3153 7.61459C17.6124 6.38319 17.4782 5.1031 16.93 3.93805C16.3818 2.77299 15.4444 1.77594 14.2378 1.07443C13.0312 0.372907 11.6103 -0.00118442 10.1566 -1.01568e-06ZM6.645 10.1953C7.00096 9.66194 7.51286 9.21904 8.12927 8.91111C8.74568 8.60318 9.44488 8.44107 10.1566 8.44107C10.8684 8.44107 11.5676 8.60318 12.184 8.91111C12.8004 9.21904 13.3123 9.66194 13.6683 10.1953C12.6691 10.8806 11.4316 11.2536 10.1566 11.2536C8.88168 11.2536 7.64416 10.8806 6.645 10.1953ZM8.53163 5.625C8.53163 5.34687 8.62693 5.07499 8.80549 4.84373C8.98405 4.61247 9.23784 4.43223 9.53477 4.32579C9.8317 4.21936 10.1584 4.19151 10.4736 4.24577C10.7889 4.30003 11.0784 4.43396 11.3057 4.63063C11.5329 4.8273 11.6877 5.07787 11.7504 5.35065C11.8131 5.62344 11.7809 5.90619 11.6579 6.16315C11.5349 6.42011 11.3267 6.63973 11.0594 6.79425C10.7922 6.94877 10.478 7.03125 10.1566 7.03125C9.72565 7.03125 9.31233 6.88309 9.00758 6.61937C8.70283 6.35564 8.53163 5.99796 8.53163 5.625ZM14.8114 9.14766C14.2456 8.4342 13.4709 7.86371 12.5665 7.49461C12.9885 7.091 13.2661 6.59009 13.3657 6.05264C13.4652 5.51519 13.3824 4.96429 13.1273 4.46676C12.8721 3.96924 12.4557 3.54647 11.9284 3.24973C11.4011 2.953 10.7856 2.79505 10.1566 2.79505C9.52764 2.79505 8.91218 2.953 8.38488 3.24973C7.85758 3.54647 7.44111 3.96924 7.18598 4.46676C6.93086 4.96429 6.84804 5.51519 6.94758 6.05264C7.04712 6.59009 7.32473 7.091 7.74675 7.49461C6.84237 7.86371 6.06761 8.4342 5.50181 9.14766C4.9036 8.4103 4.55073 7.545 4.48166 6.64605C4.41259 5.7471 4.62996 4.84899 5.1101 4.04959C5.59023 3.25019 6.31471 2.58016 7.20457 2.11254C8.09443 1.64492 9.11554 1.39763 10.1566 1.39763C11.1977 1.39763 12.2188 1.64492 13.1087 2.11254C13.9985 2.58016 14.723 3.25019 15.2032 4.04959C15.6833 4.84899 15.9007 5.7471 15.8316 6.64605C15.7625 7.545 15.4097 8.4103 14.8114 9.14766Z" fill="#947AC6"/>
</g>
<defs>
<clipPath id="clip0_460_600">
<rect width="52" height="45" fill="white"/>
</clipPath>
</defs>
</svg>
