<?xml version="1.0" encoding="iso-8859-1"?>
<!-- Generator: Adobe Illustrator 19.0.0, SVG Export Plug-In . SVG Version: 6.00 Build 0)  -->
<svg version="1.1" id="Capa_1" xmlns="http://www.w3.org/2000/svg" xmlns:xlink="http://www.w3.org/1999/xlink" x="0px" y="0px"
	 viewBox="0 0 512 512" style="enable-background:new 0 0 512 512;" xml:space="preserve">
<path style="fill:#2D5871;" d="M483.718,379.028H33.83c-1.945,0-3.521-1.576-3.521-3.521v-37.97h474.398v20.503
	C504.707,369.631,495.31,379.028,483.718,379.028z"/>
<path style="fill:#FF4C4C;" d="M504.692,355.268H324.808V183.344h123.085c7.074,0,13.701,3.457,17.748,9.258l35.157,50.392
	c2.534,3.632,3.893,7.954,3.893,12.382L504.692,355.268L504.692,355.268z"/>
<path style="fill:#F33939;" d="M500.799,242.994l-35.157-50.392c-4.047-5.801-10.675-9.258-17.748-9.258h-44.721
	c7.074,0,13.701,3.457,17.748,9.258l35.157,50.392c2.534,3.632,3.893,7.954,3.893,12.382v71.697c0,4.292-3.48,7.772-7.772,7.772
	h-127.39v20.422h135.162h44.721v-20.65v-79.241C504.692,250.948,503.333,246.627,500.799,242.994z"/>
<path style="fill:#21D8DE;" d="M375.369,279.539v-62.753c0-1.82,1.476-3.296,3.296-3.296h63.072c1.077,0,2.087,0.527,2.703,1.41
	l29.512,42.301c0.386,0.553,0.593,1.211,0.593,1.886v20.452c0,1.82-1.476,3.296-3.296,3.296h-92.584
	C376.845,282.835,375.369,281.36,375.369,279.539z"/>
<circle style="fill:#1D4859;" cx="427.37" cy="370.779" r="43.32"/>
<path style="fill:#E1EFFB;" d="M427.368,386.864c-8.871,0-16.089-7.217-16.089-16.089c0-8.871,7.217-16.089,16.089-16.089
	c8.872,0,16.089,7.217,16.089,16.089C443.457,379.646,436.239,386.864,427.368,386.864z"/>
<path style="fill:#FFB125;" d="M350.129,355.268H13.858c-3.625,0-6.564-2.939-6.564-6.564V104.47c0-3.625,2.939-6.564,6.564-6.564
	h329.708c3.625,0,6.564,2.939,6.564,6.564v250.798H350.129z"/>
<path style="fill:#FF901D;" d="M343.565,97.906h-38.157V315.94c0,10.442-8.465,18.906-18.906,18.906H7.293v13.858
	c0,3.625,2.939,6.564,6.564,6.564h336.272V104.47C350.129,100.845,347.19,97.906,343.565,97.906z"/>
<g>
	<path style="fill:#FFFFFF;" d="M173.314,217.111c-1.964,0-3.938-0.674-5.545-2.054l-55.456-47.552l-55.455,47.552
		c-3.573,3.065-8.956,2.652-12.021-0.922c-3.065-3.574-2.652-8.956,0.922-12.021l61.005-52.311c3.193-2.739,7.906-2.739,11.099,0
		l61.005,52.311c3.575,3.065,3.987,8.447,0.922,12.021C178.104,216.102,175.717,217.111,173.314,217.111z"/>
	<path style="fill:#FFFFFF;" d="M160.082,224.395l-44.265-37.956c-2.016-1.728-4.991-1.728-7.006,0l-44.265,37.956
		c-1.192,1.022-1.879,2.515-1.879,4.085v54.41c0,2.972,2.409,5.382,5.382,5.382h29.355V240.94c0-2.24,1.816-4.056,4.056-4.056
		h21.708c2.24,0,4.056,1.816,4.056,4.056v47.332h29.355c2.972,0,5.382-2.409,5.382-5.382v-54.41
		C161.96,226.91,161.274,225.418,160.082,224.395z"/>
</g>
<circle style="fill:#1D4859;" cx="105.87" cy="370.779" r="43.32"/>
<path style="fill:#E1EFFB;" d="M105.871,386.864c-8.872,0-16.089-7.217-16.089-16.089c0-8.871,7.217-16.089,16.089-16.089
	s16.089,7.217,16.089,16.089C121.961,379.646,114.743,386.864,105.871,386.864z"/>
<path style="fill:#FFFFFF;" d="M261.329,259.928l49.367-36.66c1.297-0.963,1.297-2.905,0-3.868l-49.367-36.66
	c-1.59-1.18-3.846-0.046-3.846,1.934v19.397h-38.649c-1.331,0-2.409,1.079-2.409,2.409v29.708c0,1.331,1.079,2.409,2.409,2.409
	h38.649v19.397C257.483,259.974,259.739,261.108,261.329,259.928z"/>
<path d="M368.076,216.787v62.752c0,5.84,4.751,10.59,10.59,10.59h92.584c5.839,0,10.59-4.75,10.59-10.59v-20.451
	c0-2.18-0.66-4.276-1.905-6.059l-29.51-42.299c-1.979-2.839-5.226-4.533-8.687-4.533h-63.072
	C372.827,206.197,368.076,210.947,368.076,216.787z M382.663,220.784h56.989l27.6,39.56v15.198h-84.589V220.784z"/>
<path d="M511.985,355.228v-99.851c0-5.952-1.8-11.677-5.205-16.556l-35.157-50.392c-5.407-7.751-14.279-12.379-23.73-12.379h-17.192
	c-4.028,0-7.293,3.265-7.293,7.293s3.265,7.293,7.293,7.293h17.192c4.687,0,9.085,2.294,11.767,6.138l35.158,50.393
	c1.688,2.419,2.58,5.257,2.58,8.209v92.596h-24.851c-0.177-0.35-0.364-0.693-0.549-1.037c-0.065-0.12-0.126-0.242-0.192-0.362
	c-0.343-0.626-0.698-1.243-1.066-1.851c-0.124-0.206-0.255-0.408-0.382-0.613c-0.239-0.383-0.482-0.764-0.731-1.14
	c-0.188-0.284-0.377-0.568-0.57-0.848c-0.167-0.241-0.338-0.477-0.508-0.714c-8.378-11.715-21.615-19.719-36.747-21.04
	c-0.463-0.041-0.927-0.078-1.392-0.106c-0.263-0.016-0.527-0.031-0.791-0.043c-0.748-0.034-1.498-0.057-2.251-0.057
	s-1.503,0.023-2.251,0.057c-0.264,0.012-0.528,0.027-0.791,0.043c-0.465,0.029-0.929,0.065-1.392,0.106
	c-15.134,1.321-28.372,9.327-36.75,21.045c-0.169,0.235-0.339,0.47-0.504,0.708c-0.194,0.282-0.384,0.566-0.573,0.852
	c-0.248,0.374-0.49,0.753-0.728,1.135c-0.128,0.206-0.259,0.409-0.385,0.617c-0.367,0.608-0.722,1.224-1.065,1.85
	c-0.065,0.12-0.127,0.242-0.192,0.362c-0.185,0.344-0.372,0.688-0.549,1.037h-24.765V190.638h27.962
	c4.028,0,7.293-3.265,7.293-7.293s-3.265-7.293-7.293-7.293h-27.962v-71.581c0-7.641-6.217-13.858-13.858-13.858H13.858
	C6.217,90.612,0,96.829,0,104.47v161.144c0,4.029,3.265,7.293,7.293,7.293s7.293-3.265,7.293-7.293V105.199h328.249v78.145v164.63
	H151.051c-0.172-0.34-0.354-0.673-0.534-1.008c-0.071-0.133-0.14-0.268-0.212-0.401c-0.339-0.619-0.69-1.229-1.054-1.831
	c-0.132-0.218-0.269-0.432-0.404-0.648c-0.231-0.369-0.465-0.736-0.705-1.099c-0.194-0.294-0.389-0.586-0.589-0.876
	c-0.155-0.224-0.315-0.444-0.473-0.664c-8.377-11.736-21.626-19.756-36.775-21.078c-0.463-0.041-0.926-0.078-1.392-0.106
	c-0.263-0.016-0.527-0.031-0.791-0.043c-0.748-0.034-1.498-0.057-2.251-0.057s-1.503,0.023-2.251,0.057
	c-0.264,0.012-0.528,0.027-0.791,0.043c-0.465,0.029-0.929,0.065-1.392,0.106c-15.144,1.322-28.39,9.337-36.767,21.067
	c-0.162,0.226-0.325,0.45-0.483,0.679c-0.198,0.287-0.392,0.577-0.584,0.869c-0.242,0.366-0.478,0.735-0.711,1.108
	c-0.133,0.214-0.27,0.426-0.4,0.642c-0.364,0.603-0.716,1.213-1.055,1.833c-0.072,0.131-0.14,0.265-0.211,0.398
	c-0.18,0.336-0.362,0.67-0.535,1.011H30.308H14.587v-36.719c0-4.028-3.265-7.293-7.293-7.293S0,307.226,0,311.255v37.448
	c0,7.641,6.217,13.858,13.858,13.858h9.157v12.946c0,5.963,4.851,10.815,10.815,10.815h23.883
	c6.577,20.322,25.674,35.065,48.158,35.065s41.581-14.742,48.158-35.065h225.18c6.577,20.322,25.674,35.065,48.158,35.065
	c22.484,0,41.581-14.742,48.158-35.065h8.192C499.312,386.321,512,373.634,512,357.999L511.985,355.228z M55.889,362.828
	c-0.043,0.27-0.078,0.542-0.116,0.813c-0.073,0.514-0.14,1.029-0.197,1.545c-0.031,0.281-0.06,0.563-0.086,0.845
	c-0.051,0.54-0.091,1.082-0.124,1.625c-0.015,0.248-0.034,0.495-0.045,0.744c-0.037,0.789-0.06,1.581-0.06,2.374
	c0,0.32,0.003,0.64,0.009,0.96H37.602v-9.174h18.325C55.912,362.649,55.903,362.739,55.889,362.828z M141.852,372.527
	c-0.022,0.446-0.058,0.893-0.097,1.339c-0.011,0.124-0.017,0.25-0.028,0.374c-0.05,0.518-0.114,1.036-0.187,1.554
	c-0.007,0.053-0.013,0.108-0.021,0.161c-0.071,0.489-0.156,0.976-0.247,1.463c-3.128,16.7-17.806,29.381-35.4,29.381
	s-32.273-12.681-35.4-29.381c-0.091-0.487-0.176-0.974-0.247-1.463c-0.008-0.053-0.013-0.108-0.021-0.161
	c-0.073-0.518-0.137-1.036-0.187-1.554c-0.012-0.124-0.018-0.249-0.028-0.374c-0.039-0.447-0.075-0.893-0.097-1.339
	c-0.028-0.581-0.044-1.165-0.044-1.753c0-0.59,0.016-1.176,0.045-1.759c0.01-0.199,0.028-0.397,0.041-0.596
	c0.025-0.382,0.05-0.763,0.087-1.142c0.023-0.241,0.054-0.48,0.083-0.721c0.039-0.332,0.079-0.664,0.127-0.994
	c0.038-0.262,0.082-0.522,0.126-0.782c0.051-0.302,0.103-0.603,0.161-0.902c0.054-0.278,0.113-0.554,0.174-0.831
	c0.06-0.276,0.124-0.55,0.19-0.823c0.071-0.29,0.145-0.58,0.224-0.869c0.069-0.256,0.143-0.51,0.217-0.764
	c0.087-0.294,0.175-0.587,0.27-0.88c0.082-0.253,0.169-0.504,0.256-0.754c0.097-0.28,0.195-0.559,0.299-0.837
	c0.063-0.167,0.131-0.332,0.197-0.498c0.279-0.71,0.577-1.409,0.898-2.094c0.039-0.084,0.075-0.17,0.115-0.253
	c0.351-0.734,0.731-1.449,1.129-2.153c0.08-0.142,0.162-0.284,0.245-0.425c0.874-1.497,1.845-2.926,2.915-4.268
	c0.001-0.001,0.002-0.002,0.002-0.003c6.131-7.692,15.284-12.707,25.256-13.546c0.146-0.012,0.291-0.023,0.438-0.033
	c0.839-0.06,1.682-0.099,2.531-0.099s1.692,0.039,2.531,0.099c0.146,0.01,0.292,0.021,0.438,0.033
	c9.971,0.839,19.125,5.854,25.256,13.546c0.001,0.001,0.002,0.002,0.002,0.003c1.07,1.342,2.041,2.771,2.915,4.268
	c0.082,0.141,0.164,0.283,0.245,0.425c0.398,0.703,0.777,1.419,1.128,2.153c0.04,0.083,0.075,0.169,0.115,0.253
	c0.321,0.685,0.62,1.384,0.898,2.094c0.065,0.166,0.134,0.331,0.197,0.498c0.104,0.278,0.202,0.557,0.299,0.837
	c0.087,0.251,0.174,0.501,0.256,0.754c0.094,0.292,0.183,0.586,0.27,0.88c0.075,0.254,0.148,0.508,0.217,0.764
	c0.078,0.289,0.153,0.578,0.224,0.869c0.067,0.273,0.13,0.548,0.19,0.823c0.061,0.276,0.119,0.553,0.174,0.831
	c0.058,0.299,0.111,0.6,0.161,0.902c0.044,0.26,0.088,0.521,0.126,0.782c0.048,0.33,0.088,0.662,0.127,0.994
	c0.028,0.24,0.059,0.48,0.083,0.721c0.037,0.378,0.062,0.76,0.087,1.142c0.013,0.199,0.031,0.397,0.041,0.596
	c0.028,0.583,0.045,1.169,0.045,1.759C141.896,371.362,141.88,371.946,141.852,372.527z M377.385,362.828
	c-0.043,0.269-0.078,0.541-0.116,0.812c-0.073,0.514-0.14,1.029-0.197,1.546c-0.031,0.28-0.059,0.561-0.086,0.843
	c-0.051,0.541-0.091,1.084-0.124,1.628c-0.015,0.247-0.034,0.494-0.045,0.742c-0.037,0.79-0.06,1.581-0.06,2.375
	c0,0.32,0.003,0.64,0.009,0.96H156.473c0.006-0.32,0.01-0.64,0.01-0.96c0-0.794-0.024-1.585-0.06-2.374
	c-0.012-0.249-0.03-0.496-0.045-0.744c-0.033-0.543-0.073-1.085-0.124-1.625c-0.026-0.282-0.055-0.564-0.086-0.845
	c-0.057-0.516-0.124-1.031-0.197-1.545c-0.038-0.271-0.074-0.543-0.116-0.813c-0.014-0.089-0.024-0.178-0.038-0.267H350.13h27.294
	C377.409,362.65,377.399,362.739,377.385,362.828z M463.348,372.527c-0.022,0.446-0.058,0.893-0.097,1.339
	c-0.011,0.124-0.017,0.25-0.028,0.374c-0.05,0.518-0.114,1.036-0.187,1.554c-0.008,0.053-0.013,0.108-0.021,0.161
	c-0.071,0.489-0.156,0.976-0.247,1.463c-3.127,16.7-17.806,29.381-35.4,29.381c-17.589,0-32.266-12.675-35.398-29.369
	c-0.092-0.49-0.177-0.98-0.248-1.472c-0.008-0.059-0.014-0.118-0.023-0.177c-0.072-0.512-0.135-1.024-0.185-1.537
	c-0.013-0.133-0.019-0.268-0.031-0.401c-0.038-0.438-0.074-0.876-0.095-1.313c-0.028-0.582-0.045-1.166-0.045-1.754
	c0-0.59,0.016-1.176,0.045-1.759c0.01-0.199,0.028-0.397,0.041-0.595c0.025-0.382,0.05-0.764,0.087-1.143
	c0.023-0.24,0.054-0.479,0.082-0.718c0.039-0.334,0.079-0.667,0.127-0.997c0.038-0.259,0.082-0.517,0.125-0.775
	c0.051-0.305,0.104-0.61,0.163-0.912c0.053-0.273,0.111-0.545,0.171-0.817c0.062-0.282,0.126-0.562,0.195-0.842
	c0.069-0.284,0.142-0.567,0.219-0.849c0.072-0.264,0.147-0.527,0.224-0.789c0.084-0.285,0.17-0.57,0.262-0.853
	c0.086-0.265,0.176-0.527,0.267-0.789c0.093-0.268,0.187-0.536,0.287-0.802c0.066-0.176,0.138-0.35,0.207-0.524
	c0.275-0.698,0.568-1.386,0.884-2.06c0.043-0.093,0.083-0.188,0.127-0.28c0.349-0.728,0.726-1.439,1.12-2.137
	c0.084-0.148,0.169-0.296,0.255-0.443c0.871-1.491,1.838-2.913,2.903-4.251c0.005-0.006,0.009-0.012,0.014-0.018
	c6.131-7.688,15.282-12.701,25.251-13.54c0.146-0.012,0.292-0.023,0.438-0.033c0.839-0.06,1.682-0.099,2.531-0.099
	s1.692,0.039,2.531,0.099c0.146,0.01,0.292,0.021,0.438,0.033c9.969,0.839,19.119,5.852,25.25,13.54
	c0.005,0.006,0.01,0.013,0.015,0.019c1.065,1.337,2.031,2.759,2.902,4.249c0.086,0.147,0.172,0.295,0.256,0.444
	c0.395,0.698,0.771,1.408,1.12,2.137c0.044,0.092,0.083,0.187,0.127,0.28c0.316,0.674,0.609,1.362,0.884,2.06
	c0.069,0.175,0.141,0.348,0.207,0.524c0.1,0.266,0.193,0.534,0.287,0.802c0.092,0.262,0.182,0.525,0.268,0.789
	c0.091,0.282,0.177,0.566,0.261,0.849c0.078,0.264,0.154,0.528,0.226,0.795c0.076,0.28,0.148,0.561,0.217,0.843
	c0.069,0.281,0.134,0.563,0.196,0.847c0.059,0.27,0.117,0.541,0.17,0.812c0.059,0.304,0.113,0.611,0.164,0.918
	c0.043,0.256,0.087,0.513,0.124,0.77c0.049,0.333,0.089,0.669,0.128,1.005c0.028,0.237,0.058,0.473,0.081,0.71
	c0.037,0.382,0.063,0.766,0.088,1.151c0.013,0.196,0.031,0.392,0.04,0.589c0.028,0.583,0.045,1.17,0.045,1.76
	C463.392,371.362,463.376,371.946,463.348,372.527z M483.717,371.735h-5.748c0.006-0.32,0.009-0.64,0.009-0.96
	c0-0.794-0.024-1.586-0.06-2.375c-0.012-0.248-0.03-0.495-0.045-0.742c-0.033-0.544-0.073-1.087-0.124-1.628
	c-0.026-0.282-0.055-0.563-0.086-0.843c-0.057-0.517-0.124-1.032-0.197-1.546c-0.038-0.271-0.074-0.543-0.116-0.812
	c-0.014-0.089-0.024-0.178-0.038-0.267h19.334C494.774,367.898,489.686,371.735,483.717,371.735z"/>
<path d="M427.368,347.392c-12.893,0-23.382,10.489-23.382,23.383c0,12.894,10.489,23.383,23.382,23.383s23.383-10.489,23.383-23.383
	C450.75,357.881,440.261,347.392,427.368,347.392z M427.368,379.57c-4.85,0-8.795-3.946-8.795-8.796c0-4.85,3.945-8.796,8.795-8.796
	s8.796,3.946,8.796,8.796C436.163,375.624,432.217,379.57,427.368,379.57z"/>
<path d="M105.871,347.392c-12.893,0-23.383,10.489-23.383,23.383c0,12.894,10.49,23.383,23.383,23.383s23.383-10.489,23.383-23.383
	C129.254,357.881,118.764,347.392,105.871,347.392z M105.871,379.57c-4.85,0-8.796-3.946-8.796-8.796
	c0-4.85,3.946-8.796,8.796-8.796s8.796,3.946,8.796,8.796S110.721,379.57,105.871,379.57z"/>
<g>
</g>
<g>
</g>
<g>
</g>
<g>
</g>
<g>
</g>
<g>
</g>
<g>
</g>
<g>
</g>
<g>
</g>
<g>
</g>
<g>
</g>
<g>
</g>
<g>
</g>
<g>
</g>
<g>
</g>
</svg>
