<svg xmlns="http://www.w3.org/2000/svg" version="1.1" xmlns:xlink="http://www.w3.org/1999/xlink" width="512" height="512" x="0" y="0" viewBox="0 0 512 512" style="enable-background:new 0 0 512 512" xml:space="preserve" class=""><g><path d="M75.25 348.744a11.069 11.069 0 0 0-15.35 13.885l15.634 43.078L59.9 448.785A11.084 11.084 0 0 0 70.187 463.9a11.137 11.137 0 0 0 5.078-1.233l91.808-47.149a11.066 11.066 0 0 0-.07-19.65l-91.738-47.116zm22.117 52.941L89.8 380.829l48.444 24.878L89.8 430.585l7.574-20.87a10.994 10.994 0 0 0-.007-8.03z" fill="#8668be" opacity="1" data-original="#000000"></path><path d="M105.076 300.631a105.076 105.076 0 1 0 105.075 105.076 105.2 105.2 0 0 0-105.075-105.076zm0 188.256a83.181 83.181 0 1 1 83.18-83.18 83.275 83.275 0 0 1-83.18 83.18zM501.88 44.873l-.042-.079C487.685 18.387 459.62 1.691 428.6 1.219h-.333c-31.025.472-59.091 17.168-73.286 43.654-34.624 65.881 28 131.7 61.651 167.065l.251.255c3.526 3.472 7.384 5.23 11.473 5.23h.155c4.088 0 7.946-1.758 11.472-5.23l.25-.255c33.642-35.362 96.267-101.184 61.647-167.065zm-73.452 147.682c-39.958-42.457-78.453-91.1-54.112-137.418 10.374-19.357 31.1-31.615 54.112-32.023 23 .407 43.711 12.651 54.092 31.987 24.334 46.378-14.147 95.011-54.092 137.454z" fill="#8668be" opacity="1" data-original="#000000"></path><path d="M428.428 38.574a47.062 47.062 0 1 0 47.062 47.062 47.115 47.115 0 0 0-47.062-47.062zm0 72.228a25.167 25.167 0 1 1 25.166-25.166 25.195 25.195 0 0 1-25.166 25.164zM350.325 244.58H161.35a59.436 59.436 0 0 1-59.369-59.368v-2.69a59.437 59.437 0 0 1 59.369-59.37h17.478a10.948 10.948 0 1 0 0-21.895H161.35a81.356 81.356 0 0 0-81.264 81.265v2.69a81.356 81.356 0 0 0 81.264 81.264h188.975a59.369 59.369 0 1 1 0 118.738H249.837a10.948 10.948 0 1 0 0 21.895h100.488a81.265 81.265 0 0 0 0-162.529zM218.833 123h33a10.948 10.948 0 0 0 0-21.9h-33a10.948 10.948 0 0 0 0 21.9zM290.841 123h33a10.948 10.948 0 1 0 0-21.9h-33a10.948 10.948 0 1 0 0 21.9z" fill="#8668be" opacity="1" data-original="#000000"></path></g></svg>