<svg width="49" height="44" viewBox="0 0 49 44" fill="none" xmlns="http://www.w3.org/2000/svg">
<path d="M18.1492 35.7828V36.9691C18.1492 37.7984 18.9006 38.473 19.824 38.473H29.1761C30.0995 38.473 30.8509 37.7984 30.8509 36.9691V35.7828H47.3252C47.4572 35.7828 47.5645 35.8792 47.5645 35.9977V38.3702C47.5645 39.1994 46.8131 39.8741 45.8896 39.8741H38.7762C38.3797 39.8741 38.0585 40.1626 38.0585 40.5186C38.0585 40.8745 38.3797 41.1631 38.7762 41.1631H45.8896C47.6047 41.1631 49 39.9102 49 38.3702V35.9977C49 35.1685 48.2486 34.4938 47.3252 34.4938H46.1177V12.8457C46.1177 11.3057 44.7225 10.0527 43.0074 10.0527H33.4952V8.50988C33.4952 7.67697 32.9032 6.94478 32.0369 6.68104C31.8955 5.65142 31.3525 4.70259 30.4964 3.99506C29.5927 3.24818 28.4182 2.83688 27.1893 2.83688H20.6872C17.8296 2.83688 15.5048 4.92448 15.5048 7.49049V10.0528H5.99264C4.27755 10.0528 2.88229 11.3058 2.88229 12.8458V15.0428C2.88229 15.3987 3.20357 15.6873 3.60006 15.6873C3.99656 15.6873 4.31784 15.3987 4.31784 15.0428V12.8458C4.31784 12.0166 5.0692 11.3419 5.99264 11.3419H15.5048V12.9538C15.1433 13.3799 14.9281 13.9111 14.9281 14.4868C14.9281 15.8115 16.0656 16.9014 17.5096 17.0118C17.6905 18.9759 18.8546 20.6898 20.5538 21.7436V21.9589L19.4573 22.6114L13.4758 23.7874C11.9548 24.0957 10.8181 25.2867 10.7116 26.6837L10.6046 28.0882C10.5775 28.4433 10.8762 28.751 11.2717 28.7752C11.2884 28.7763 11.3049 28.7768 11.3215 28.7768C11.6955 28.7768 12.0109 28.5164 12.0369 28.1762L12.1439 26.7716C12.2073 25.9387 12.885 25.2286 13.7874 25.0457L19.2881 23.9644L20.0506 28.0222C20.109 28.3336 20.3387 28.5902 20.6649 28.7085C20.7878 28.7531 20.9159 28.7751 21.0432 28.7751C21.2537 28.7751 21.4614 28.715 21.638 28.5981L21.8505 28.4574L23.6528 29.93L21.6797 34.4937H18.8671H17.3478V30.872C17.3478 30.5161 17.0265 30.2275 16.63 30.2275C16.2335 30.2275 15.9123 30.5161 15.9123 30.872V34.4937H11.5557L11.8166 31.0689C11.8436 30.7138 11.545 30.4062 11.1494 30.3819C10.7547 30.3567 10.4114 30.6258 10.3844 30.981L10.1168 34.4938H4.31784V17.8516C4.31784 17.4957 3.99656 17.2071 3.60006 17.2071C3.20357 17.2071 2.88229 17.4957 2.88229 17.8516V34.4938H1.6748C0.751365 34.4938 0 35.1685 0 35.9977V38.3702C0 39.9102 1.39526 41.1631 3.11035 41.1631H35.648C36.0444 41.1631 36.3657 40.8745 36.3657 40.5186C36.3657 40.1626 36.0444 39.8741 35.648 39.8741H3.11035C2.18691 39.8741 1.43555 39.1994 1.43555 38.3702V35.9977C1.43555 35.8792 1.54283 35.7828 1.6748 35.7828H18.1492ZM28.4463 21.9589V21.7436C30.1455 20.6898 31.3095 18.9759 31.4905 17.0118C32.9344 16.9013 34.072 15.8115 34.072 14.4868C34.072 13.911 33.8568 13.3798 33.4953 12.9538V11.3419H43.0075C43.9309 11.3419 44.6823 12.0166 44.6823 12.8458V34.4938H38.8835L38.2886 26.6822C38.1807 25.2642 37.0708 24.1005 35.5225 23.7856L29.5344 22.6041L28.4463 21.9589ZM32.3701 30.2276C31.9736 30.2276 31.6523 30.5162 31.6523 30.8721V34.4938H30.133H27.3204L25.3473 29.9301L27.1497 28.4575L27.3623 28.5983C27.5388 28.7152 27.7465 28.7752 27.957 28.7752C28.0842 28.7752 28.2125 28.7533 28.3353 28.7087C28.6615 28.5903 28.8911 28.3338 28.9496 28.0223L29.713 23.9594L35.2098 25.0439C36.1301 25.2311 36.7918 25.9249 36.8562 26.7703L37.4444 34.4939H33.0878V30.8723C33.0878 30.5161 32.7665 30.2276 32.3701 30.2276ZM24.5 24.876L22.4206 22.5647C23.0779 22.7503 23.7763 22.8505 24.5 22.8505C25.2237 22.8505 25.9221 22.7504 26.5794 22.5647L24.5 24.876ZM27.8843 23.1656L28.3558 23.4346L27.6506 27.1874L27.5266 27.1053C27.5256 27.1046 27.5245 27.1038 27.5234 27.1031L25.5298 25.7827L27.8843 23.1656ZM32.6365 14.4868C32.6365 15.0914 32.1542 15.5963 31.5172 15.7088V13.2648C32.1542 13.3773 32.6365 13.8823 32.6365 14.4868ZM20.6872 4.12595H27.1893C28.9603 4.12595 30.4694 5.36491 30.6248 6.94659C30.6689 7.39595 31.0296 7.77408 31.5227 7.8876C31.8389 7.96039 32.0596 8.21623 32.0596 8.50988V12.059C31.8769 12.0097 31.6864 11.9769 31.4903 11.9619C31.3591 10.5701 30.7306 9.2565 29.6858 8.21571C29.4042 7.93521 28.9894 7.80906 28.5757 7.87841C28.1635 7.94759 27.8283 8.19887 27.6791 8.55061C27.2646 9.52703 26.2042 10.1831 25.0402 10.1831H18.843C18.2865 10.1831 17.8072 10.5247 17.6777 11.0136C17.5952 11.3245 17.5389 11.6419 17.5088 11.9619C17.313 11.9769 17.1227 12.0098 16.9403 12.059V7.49049C16.9403 5.63527 18.6211 4.12595 20.6872 4.12595ZM16.3635 14.4868C16.3635 13.8823 16.8458 13.3774 17.4828 13.2649V15.7089C16.8458 15.5963 16.3635 15.0914 16.3635 14.4868ZM18.9184 16.4759V12.5089C18.9184 12.1597 18.9574 11.8117 19.0349 11.4721H25.0404C26.6627 11.4721 28.1517 10.627 28.8618 9.33651C29.651 10.2355 30.0817 11.3495 30.0817 12.5089V16.4759C30.0817 19.28 27.5778 21.5614 24.5001 21.5614C21.4224 21.5614 18.9184 19.2801 18.9184 16.4759ZM20.6442 23.4346L21.1157 23.1656L23.4703 25.7827L21.4771 27.1029C21.4758 27.1037 21.4744 27.1047 21.4731 27.1055L21.3495 27.1874L20.6442 23.4346ZM24.5 26.7025L25.9717 27.6772L24.5 28.8796L23.0283 27.6773L24.5 26.7025ZM24.5 31.5319L25.7806 34.4938H23.2194L24.5 31.5319ZM29.4152 35.7828V36.9691C29.4152 37.0876 29.3079 37.184 29.176 37.184H19.8239C19.692 37.184 19.5847 37.0876 19.5847 36.9691V35.7828H29.4152Z" fill="#947AC6"/>
<path d="M22.9299 18.9012C23.4329 19.0865 23.9491 19.179 24.4753 19.179C24.9948 19.179 25.5238 19.0887 26.0586 18.9081C26.4297 18.7828 26.6173 18.4112 26.4777 18.078C26.3383 17.7448 25.9247 17.5765 25.5532 17.7016C24.817 17.9503 24.1371 17.9525 23.4747 17.7085C23.1082 17.5734 22.6887 17.7309 22.5383 18.0603C22.3878 18.3896 22.5632 18.7661 22.9299 18.9012Z" fill="#947AC6"/>
<path d="M21.7568 15.2982C22.1533 15.2982 22.4746 15.0096 22.4746 14.6536V13.8904C22.4746 13.5345 22.1533 13.2459 21.7568 13.2459C21.3603 13.2459 21.0391 13.5345 21.0391 13.8904V14.6536C21.0391 15.0096 21.3603 15.2982 21.7568 15.2982Z" fill="#947AC6"/>
<path d="M27.2432 15.2982C27.6397 15.2982 27.9609 15.0096 27.9609 14.6536V13.8904C27.9609 13.5345 27.6397 13.2459 27.2432 13.2459C26.8467 13.2459 26.5254 13.5345 26.5254 13.8904V14.6536C26.5254 15.0096 26.8468 15.2982 27.2432 15.2982Z" fill="#947AC6"/>
<path d="M36.1182 8.97901C36.3019 8.97901 36.4856 8.9161 36.6258 8.79021L38.7732 6.86194C39.0535 6.61023 39.0535 6.20211 38.7732 5.95049C38.4928 5.69878 38.0384 5.69878 37.7581 5.95049L35.6106 7.87875C35.3303 8.13046 35.3303 8.53858 35.6106 8.79021C35.7508 8.9161 35.9346 8.97901 36.1182 8.97901Z" fill="#947AC6"/>
<path d="M37.7579 20.9901C37.8981 21.116 38.0818 21.1789 38.2655 21.1789C38.4492 21.1789 38.6329 21.116 38.7731 20.9901C39.0535 20.7384 39.0535 20.3303 38.7731 20.0787L36.6258 18.1504C36.3454 17.8987 35.891 17.8986 35.6106 18.1504C35.3303 18.4021 35.3303 18.8103 35.6106 19.0619L37.7579 20.9901Z" fill="#947AC6"/>
<path d="M12.3751 8.79021C12.5153 8.91611 12.699 8.97901 12.8827 8.97901C13.0664 8.97901 13.2501 8.91611 13.3903 8.79021C13.6706 8.5385 13.6706 8.13038 13.3903 7.87875L11.2429 5.95049C10.9626 5.69878 10.5082 5.69869 10.2278 5.95049C9.9475 6.2022 9.9475 6.61032 10.2278 6.86194L12.3751 8.79021Z" fill="#947AC6"/>
<path d="M11.2428 20.9901L13.3902 19.0619C13.6705 18.8102 13.6705 18.402 13.3902 18.1504C13.1098 17.8987 12.6554 17.8987 12.3751 18.1504L10.2278 20.0787C9.9475 20.3304 9.9475 20.7385 10.2278 20.9901C10.368 21.116 10.5518 21.1789 10.7354 21.1789C10.9189 21.1789 11.1026 21.116 11.2428 20.9901Z" fill="#947AC6"/>
</svg>
