<svg width="60" height="47" viewBox="0 0 60 47" fill="none" xmlns="http://www.w3.org/2000/svg">
<path d="M37.043 5.34507C36.8194 4.01873 35.4988 3 33.9024 3H15.1743C13.4212 3 12 4.22852 12 5.74403V8.47183" stroke="#947AC6" stroke-miterlimit="10" stroke-linecap="round" stroke-linejoin="round"/>
<path d="M12 11.0775V37.256C12 38.7715 13.4212 40 15.1743 40H33.9024C35.6556 40 37.0768 38.7715 37.0768 37.256V15.1731" stroke="#947AC6" stroke-miterlimit="10" stroke-linecap="round" stroke-linejoin="round"/>
<path d="M15.4688 24.999V28.0459H33.6113V19.8622C33.6113 18.1292 31.9862 16.7244 29.9815 16.7244H19.0986C17.0938 16.7244 15.4688 18.1292 15.4688 19.8622V22.3934" stroke="#947AC6" stroke-miterlimit="10" stroke-linecap="round" stroke-linejoin="round"/>
<path d="M24.5392 16.7244C27.2468 16.7244 29.4417 14.827 29.4417 12.4864C29.4417 10.1459 27.2468 8.24849 24.5392 8.24849C21.8316 8.24849 19.6367 10.1459 19.6367 12.4864C19.6367 14.827 21.8316 16.7244 24.5392 16.7244Z" stroke="#947AC6" stroke-miterlimit="10" stroke-linecap="round" stroke-linejoin="round"/>
<path d="M20.5859 19.8043V16.7244" stroke="#947AC6" stroke-miterlimit="10" stroke-linejoin="round"/>
<path d="M21.8725 25.3659H22.5098C22.6367 25.3659 22.7396 25.2769 22.7396 25.1672V21.6654C22.7396 20.6375 21.7757 19.8043 20.5866 19.8043C19.3975 19.8043 18.4336 20.6375 18.4336 21.6654V25.1672C18.4336 25.2769 18.5365 25.3659 18.6635 25.3659H19.3395" stroke="#947AC6" stroke-miterlimit="10" stroke-linecap="round" stroke-linejoin="round"/>
<path d="M28.7031 16.7244V20.847" stroke="#947AC6" stroke-miterlimit="10" stroke-linejoin="round"/>
<path d="M28.5968 5.64286H20.4785" stroke="#947AC6" stroke-miterlimit="10" stroke-linecap="round" stroke-linejoin="round"/>
<path d="M21.1582 36.5812H21.2728" stroke="#947AC6" stroke-miterlimit="10" stroke-linecap="round" stroke-linejoin="round"/>
<path d="M24.4805 36.5812H24.5951" stroke="#947AC6" stroke-miterlimit="10" stroke-linecap="round" stroke-linejoin="round"/>
<path d="M27.8047 36.5812H27.9192" stroke="#947AC6" stroke-miterlimit="10" stroke-linecap="round" stroke-linejoin="round"/>
<path d="M17.3105 30.9547V34.142" stroke="#947AC6" stroke-miterlimit="10" stroke-linecap="square" stroke-linejoin="round"/>
<path d="M15.4668 32.5484H19.1539" stroke="#947AC6" stroke-miterlimit="10" stroke-linecap="square" stroke-linejoin="round"/>
<path d="M22.041 31.4317H33.6099" stroke="#947AC6" stroke-miterlimit="10" stroke-linecap="round" stroke-linejoin="round"/>
<path d="M22.041 33.6651H33.6099" stroke="#947AC6" stroke-miterlimit="10" stroke-linecap="round" stroke-linejoin="round"/>
<path d="M39.335 5.34507H33.1073C32.4752 5.34507 31.9629 5.78795 31.9629 6.33432V13.0807C31.9629 13.627 32.4752 14.0699 33.1073 14.0699H35.0146V16.1602C35.0146 16.454 35.4255 16.6011 35.6657 16.3934L38.3536 14.0699H44.8562C45.4882 14.0699 46.0005 13.627 46.0005 13.0807V6.33432C46.0005 5.78795 45.4882 5.34507 44.8562 5.34507H42.3492" stroke="#947AC6" stroke-miterlimit="10" stroke-linecap="round" stroke-linejoin="round"/>
<path d="M34.9766 7.57848H42.9858" stroke="#947AC6" stroke-miterlimit="10" stroke-linecap="round" stroke-linejoin="round"/>
<path d="M34.9766 9.58853H42.9858" stroke="#947AC6" stroke-miterlimit="10" stroke-linecap="round" stroke-linejoin="round"/>
<path d="M34.9766 11.5986H40.5401" stroke="#947AC6" stroke-miterlimit="10" stroke-linecap="round" stroke-linejoin="round"/>
<path d="M28.7014 24.1971C29.7716 24.1971 30.6391 23.4472 30.6391 22.5221C30.6391 21.597 29.7716 20.847 28.7014 20.847C27.6312 20.847 26.7637 21.597 26.7637 22.5221C26.7637 23.4472 27.6312 24.1971 28.7014 24.1971Z" stroke="#947AC6" stroke-miterlimit="10" stroke-linecap="round" stroke-linejoin="round"/>
<path d="M37.0768 28.046H12" stroke="#947AC6" stroke-miterlimit="10" stroke-linejoin="round"/>
</svg>
