<?xml version="1.0" encoding="UTF-8" standalone="no"?>
<!-- Created with Inkscape (http://www.inkscape.org/) -->

<svg
   version="1.1"
   id="svg7869"
   xml:space="preserve"
   width="682.66669"
   height="682.66669"
   viewBox="0 0 682.66669 682.66669"
   xmlns="http://www.w3.org/2000/svg"
   xmlns:svg="http://www.w3.org/2000/svg"><defs
     id="defs7873"><clipPath
       clipPathUnits="userSpaceOnUse"
       id="clipPath7883"><path
         d="M 0,512 H 512 V 0 H 0 Z"
         id="path7881" /></clipPath></defs><g
     id="g7875"
     transform="matrix(1.3333333,0,0,-1.3333333,0,682.66667)"><g
       id="g7877"><g
         id="g7879"
         clip-path="url(#clipPath7883)"><g
           id="g7885"
           transform="translate(239.1523,60.5342)"><path
             d="m 0,0 c -9.695,0 -17.555,7.859 -17.555,17.554 v 256.662 c 0,9.695 7.86,17.555 17.555,17.555 h 221.215 v 80.309 h -82.401 c -9.694,0 -17.553,7.859 -17.553,17.554 0,9.695 7.859,17.554 17.553,17.554 h 99.956 c 9.694,0 17.553,-7.859 17.553,-17.554 V 274.216 c 0,-9.695 -7.859,-17.555 -17.553,-17.555 H 17.554 V 17.554 C 17.554,7.859 9.695,0 0,0"
             style="fill:#9d9d9d;fill-opacity:1;fill-rule:nonzero;stroke:none"
             id="path7887" /></g><g
           id="g7889"
           transform="translate(239.1523,60.5342)"><path
             d="m 0,0 c -9.695,0 -17.555,7.859 -17.555,17.554 v 256.662 c 0,9.695 7.86,17.555 17.555,17.555 h 221.215 v 80.309 h -82.401 c -9.694,0 -17.553,7.859 -17.553,17.554 0,9.695 7.859,17.554 17.553,17.554 h 99.956 c 9.694,0 17.553,-7.859 17.553,-17.554 V 274.216 c 0,-9.695 -7.859,-17.555 -17.553,-17.555 H 17.554 V 17.554 C 17.554,7.859 9.695,0 0,0 Z"
             style="fill:none;stroke:#000000;stroke-width:15;stroke-linecap:round;stroke-linejoin:round;stroke-miterlimit:10;stroke-dasharray:none;stroke-opacity:1"
             id="path7891" /></g><g
           id="g7893"
           transform="translate(411.3486,395.8359)"><path
             d="m 0,0 h -279.42 c -12.248,0 -22.177,9.929 -22.177,22.177 v 64.311 c 0,12.247 9.929,22.176 22.177,22.176 H 0 c 12.248,0 22.177,-9.929 22.177,-22.176 V 22.177 C 22.177,9.929 12.248,0 0,0"
             style="fill:#fccd80;fill-opacity:1;fill-rule:nonzero;stroke:none"
             id="path7895" /></g><g
           id="g7897"
           transform="translate(433.5254,482.3203)"><path
             d="M 0,0 V -64.311 C 0,-76.551 -9.93,-86.48 -22.18,-86.48 h -32.48 c 12.25,0 22.17,9.929 22.17,22.169 V 0 c 0,12.25 -9.92,22.18 -22.17,22.18 h 32.48 C -9.93,22.18 0,12.25 0,0"
             style="fill:#e9b765;fill-opacity:1;fill-rule:nonzero;stroke:none"
             id="path7899" /></g><g
           id="g7901"
           transform="translate(329.334,395.8359)"><path
             d="m 0,0 h 82.016 c 12.247,0 22.175,9.93 22.175,22.177 v 64.311 c 0,12.247 -9.928,22.176 -22.175,22.176 h -279.421 c -12.248,0 -22.177,-9.929 -22.177,-22.176 V 22.177 C -219.582,9.93 -209.653,0 -197.405,0 h 163.404"
             style="fill:none;stroke:#000000;stroke-width:15;stroke-linecap:round;stroke-linejoin:round;stroke-miterlimit:10;stroke-dasharray:none;stroke-opacity:1"
             id="path7903" /></g><g
           id="g7905"
           transform="translate(271.8369,17.5313)"><path
             d="m 0,0 v 150.216 c 0,5.54 -4.491,10.031 -10.031,10.031 h -45.307 c -5.54,0 -10.031,-4.491 -10.031,-10.031 V 0 c 0,-5.54 4.491,-10.031 10.031,-10.031 h 45.307 C -4.491,-10.031 0,-5.54 0,0"
             style="fill:#26a5fe;fill-opacity:1;fill-rule:nonzero;stroke:none"
             id="path7907" /></g><g
           id="g7909"
           transform="translate(271.835,167.75)"><path
             d="m 0,0 v -150.22 c 0,-5.54 -4.49,-10.03 -10.029,-10.03 H -35.02 c 5.541,0 10.03,4.49 10.03,10.03 V 0 c 0,5.54 -4.489,10.03 -10.03,10.03 h 24.991 C -4.49,10.03 0,5.54 0,0"
             style="fill:#0182fc;fill-opacity:1;fill-rule:nonzero;stroke:none"
             id="path7911" /></g><g
           id="g7913"
           transform="translate(271.8369,17.5313)"><path
             d="m 0,0 v 150.216 c 0,5.54 -4.491,10.031 -10.031,10.031 h -45.307 c -5.54,0 -10.031,-4.491 -10.031,-10.031 V 0 c 0,-5.54 4.491,-10.031 10.031,-10.031 h 45.307 C -4.491,-10.031 0,-5.54 0,0 Z"
             style="fill:none;stroke:#000000;stroke-width:15;stroke-linecap:round;stroke-linejoin:round;stroke-miterlimit:10;stroke-dasharray:none;stroke-opacity:1"
             id="path7915" /></g><g
           id="g7917"
           transform="translate(99.2051,7.5)"><path
             d="m 0,0 v 0 c -19.343,0 -34.735,16.212 -33.733,35.528 l 8.724,168.209 H 25.01 L 33.734,35.528 C 34.736,16.212 19.344,0 0,0"
             style="fill:#26a5fe;fill-opacity:1;fill-rule:nonzero;stroke:none"
             id="path7919" /></g><g
           id="g7921"
           transform="translate(99.209,7.5)"><path
             d="M 0,0 C -5.497,0 -10.672,1.303 -15.239,3.636 -3.71,9.457 3.972,21.693 3.265,35.531 L -5.46,203.741 H 25.008 L 33.732,35.531 C 34.737,16.208 19.336,0 0,0"
             style="fill:#0182fc;fill-opacity:1;fill-rule:nonzero;stroke:none"
             id="path7923" /></g><g
           id="g7925"
           transform="translate(126.3633,169.8652)"><path
             d="m 0,0 h -54.32 l 2.147,41.376 h 50.027 z"
             style="fill:#0182fc;fill-opacity:1;fill-rule:nonzero;stroke:none"
             id="path7927" /></g><g
           id="g7929"
           transform="translate(99.2051,7.5)"><path
             d="m 0,0 v 0 c -19.343,0 -34.735,16.212 -33.733,35.528 l 8.724,168.209 H 25.01 L 33.734,35.528 C 34.736,16.212 19.344,0 0,0 Z"
             style="fill:none;stroke:#000000;stroke-width:15;stroke-linecap:round;stroke-linejoin:round;stroke-miterlimit:10;stroke-dasharray:none;stroke-opacity:1"
             id="path7931" /></g><g
           id="g7933"
           transform="translate(181.8867,235.2305)"><path
             d="m 0,0 h -165.362 v 105.902 c 0,6.855 5.556,12.411 12.41,12.411 H -12.411 C -5.557,118.313 0,112.757 0,105.902 Z"
             style="fill:#fccd80;fill-opacity:1;fill-rule:nonzero;stroke:none"
             id="path7935" /></g><g
           id="g7937"
           transform="translate(181.8877,341.1289)"><path
             d="M 0,0 V -105.898 H -33.781 V 0 c 0,6.862 -5.56,12.41 -12.41,12.41 H -12.41 C -5.56,12.41 0,6.862 0,0"
             style="fill:#e9b765;fill-opacity:1;fill-rule:nonzero;stroke:none"
             id="path7939" /></g><g
           id="g7941"
           transform="translate(181.8867,302.667)"><path
             d="m 0,0 v 38.466 c 0,6.854 -5.557,12.41 -12.41,12.41 h -140.542 c -6.855,0 -12.41,-5.556 -12.41,-12.41 V -67.437 H 0 v 33.436"
             style="fill:none;stroke:#000000;stroke-width:15;stroke-linecap:round;stroke-linejoin:round;stroke-miterlimit:10;stroke-dasharray:none;stroke-opacity:1"
             id="path7943" /></g><g
           id="g7945"
           transform="translate(161.458,194.6904)"><path
             d="m 0,0 h -124.505 c -11.282,0 -20.429,9.146 -20.429,20.429 V 57.893 H 20.429 V 20.429 C 20.429,9.146 11.282,0 0,0"
             style="fill:#60b8ff;fill-opacity:1;fill-rule:nonzero;stroke:none"
             id="path7947" /></g><g
           id="g7949"
           transform="translate(181.8877,252.5801)"><path
             d="m 0,0 v -37.467 c 0,-11.281 -9.146,-20.427 -20.428,-20.427 h -33.781 c 11.281,0 20.428,9.146 20.428,20.427 l 0,37.467 z"
             style="fill:#26a5fe;fill-opacity:1;fill-rule:nonzero;stroke:none"
             id="path7951" /></g><g
           id="g7953"
           transform="translate(161.458,194.6904)"><path
             d="m 0,0 h -124.505 c -11.282,0 -20.429,9.146 -20.429,20.429 V 57.893 H 20.429 V 20.429 C 20.429,9.146 11.282,0 0,0 Z"
             style="fill:none;stroke:#000000;stroke-width:15;stroke-linecap:round;stroke-linejoin:round;stroke-miterlimit:10;stroke-dasharray:none;stroke-opacity:1"
             id="path7955" /></g><g
           id="g7957"
           transform="translate(57.4238,252.583)"><path
             d="M 0,0 V 55.782"
             style="fill:none;stroke:#000000;stroke-width:15;stroke-linecap:round;stroke-linejoin:round;stroke-miterlimit:10;stroke-dasharray:none;stroke-opacity:1"
             id="path7959" /></g><g
           id="g7961"
           transform="translate(92.1729,347.1611)"><path
             d="M 0,0 V -38.796"
             style="fill:none;stroke:#000000;stroke-width:15;stroke-linecap:round;stroke-linejoin:round;stroke-miterlimit:10;stroke-dasharray:none;stroke-opacity:1"
             id="path7963" /></g><g
           id="g7965"
           transform="translate(139.3945,308.3652)"><path
             d="M 0,0 V -21.347"
             style="fill:none;stroke:#000000;stroke-width:15;stroke-linecap:round;stroke-linejoin:round;stroke-miterlimit:10;stroke-dasharray:none;stroke-opacity:1"
             id="path7967" /></g><g
           id="g7969"
           transform="translate(492,211.9443)"><path
             d="m 0,0 v -192.663 c 0,-6.503 -5.278,-11.781 -11.781,-11.781 h -152.994 c -6.516,0 -11.783,5.278 -11.783,11.781 V 0 c 0,6.515 5.267,11.781 11.783,11.781 H -11.781 C -5.278,11.781 0,6.515 0,0"
             style="fill:#ececec;fill-opacity:1;fill-rule:nonzero;stroke:none"
             id="path7971" /></g><g
           id="g7973"
           transform="translate(492,211.9443)"><path
             d="m 0,0 v -192.663 c 0,-6.503 -5.278,-11.781 -11.781,-11.781 h -29.631 c 6.504,0 11.782,5.278 11.782,11.781 V 0 c 0,6.515 -5.278,11.781 -11.782,11.781 h 29.631 C -5.278,11.781 0,6.515 0,0"
             style="fill:#cecece;fill-opacity:1;fill-rule:nonzero;stroke:none"
             id="path7975" /></g><g
           id="g7977"
           transform="translate(492,211.9443)"><path
             d="m 0,0 v -92.438 l -29.63,-29.63 -82.365,-82.376 h -52.78 c -6.516,0 -11.783,5.278 -11.783,11.781 v 94.982 L -67.096,11.781 h 55.315 C -5.278,11.781 0,6.515 0,0"
             style="fill:#26a5fe;fill-opacity:1;fill-rule:nonzero;stroke:none"
             id="path7979" /></g><g
           id="g7981"
           transform="translate(492,211.9443)"><path
             d="m 0,0 v -92.438 l -29.63,-29.63 V 0 c 0,6.515 -5.278,11.781 -11.782,11.781 h 29.631 C -5.278,11.781 0,6.515 0,0"
             style="fill:#0182fc;fill-opacity:1;fill-rule:nonzero;stroke:none"
             id="path7983" /></g><g
           id="g7985"
           transform="translate(315.4424,114.2637)"><path
             d="M 0,0 109.462,109.462"
             style="fill:none;stroke:#000000;stroke-width:15;stroke-linecap:round;stroke-linejoin:round;stroke-miterlimit:10;stroke-dasharray:none;stroke-opacity:1"
             id="path7987" /></g><g
           id="g7989"
           transform="translate(492,119.5068)"><path
             d="M 0,0 -111.995,-112.007"
             style="fill:none;stroke:#000000;stroke-width:15;stroke-linecap:round;stroke-linejoin:round;stroke-miterlimit:10;stroke-dasharray:none;stroke-opacity:1"
             id="path7991" /></g><g
           id="g7993"
           transform="translate(315.4395,49.333)"><path
             d="m 0,0 v -30.05 c 0,-6.507 5.274,-11.781 11.781,-11.781 h 152.998 c 6.506,0 11.782,5.274 11.782,11.781 v 192.665 c 0,6.507 -5.276,11.781 -11.782,11.781 H 11.781 C 5.274,174.396 0,169.122 0,162.615 V 34.001"
             style="fill:none;stroke:#000000;stroke-width:15;stroke-linecap:round;stroke-linejoin:round;stroke-miterlimit:10;stroke-dasharray:none;stroke-opacity:1"
             id="path7995" /></g><g
           id="g7997"
           transform="translate(350.6221,101.9131)"><path
             d="M 0,0 72.125,72.125"
             style="fill:none;stroke:#000000;stroke-width:15;stroke-linecap:round;stroke-linejoin:round;stroke-miterlimit:10;stroke-dasharray:none;stroke-opacity:1"
             id="path7999" /></g><g
           id="g8001"
           transform="translate(413.8633,231.8096)"><path
             d="m 0,0 h -30.834 c -3.253,0 -5.891,-2.638 -5.891,-5.891 V -27.27 c 0,-9.887 7.599,-18.394 17.475,-18.859 C -8.705,-46.626 0,-38.224 0,-27.788 v -33.371 -13.237 c 0,-9.886 7.599,-18.394 17.475,-18.859 10.545,-0.497 19.25,7.905 19.25,18.341 V -5.891 C 36.725,-2.638 34.088,0 30.834,0 Z"
             style="fill:#fccd80;fill-opacity:1;fill-rule:nonzero;stroke:none"
             id="path8003" /></g><g
           id="g8005"
           transform="translate(413.8633,231.8096)"><path
             d="m 0,0 h -30.834 c -3.253,0 -5.891,-2.638 -5.891,-5.891 V -27.27 c 0,-9.887 7.599,-18.394 17.475,-18.859 C -8.705,-46.626 0,-38.224 0,-27.788 v -33.371 -13.237 c 0,-9.886 7.599,-18.394 17.475,-18.859 10.545,-0.497 19.25,7.905 19.25,18.341 V -5.891 C 36.725,-2.638 34.088,0 30.834,0 Z"
             style="fill:none;stroke:#000000;stroke-width:15;stroke-linecap:round;stroke-linejoin:round;stroke-miterlimit:10;stroke-dasharray:none;stroke-opacity:1"
             id="path8007" /></g></g></g></g></svg>
