<?xml version="1.0"?>
<svg xmlns="http://www.w3.org/2000/svg" viewBox="0 0 512 512" width="512" height="512"><g id="filled_outline" data-name="filled outline"><path d="M456,424c0,35.346-89.543,64-200,64S56,459.346,56,424V88H456Z" style="fill:#fdb62f"/><path d="M104,112V280a40,40,0,0,0,40,40h0a40,40,0,0,0,40-40V232a32,32,0,0,1,32-32h0a32,32,0,0,1,32,32v16a40,40,0,0,0,40,40h0a40,40,0,0,0,40-40V232a32,32,0,0,1,32-32h0a32,32,0,0,0,32-32V112Z" style="fill:#ff421d"/><ellipse cx="256" cy="88" rx="200" ry="64" style="fill:#fadbb7"/><path d="M456,236.7A225.344,225.344,0,0,1,336,345.177V344H176v1.177A225.344,225.344,0,0,1,56,236.7v31.494a241.153,241.153,0,0,0,120,94.05V376H336V362.239a241.153,241.153,0,0,0,120-94.05Z" style="fill:#f29706"/><path d="M411.9,47.929A398.219,398.219,0,0,1,158.305,143.84c28.9,5.188,62.2,8.16,97.7,8.16,110.457,0,200-28.654,200-64C456,72.828,439.467,58.9,411.9,47.929Z" style="fill:#f4c08e"/><ellipse cx="256" cy="88" rx="152" ry="32" style="fill:#6cbbc7"/><path d="M383.014,70.445a398.785,398.785,0,0,1-91.908,48.663C358.1,115.768,408,103.125,408,88,408,81.514,398.769,75.487,383.014,70.445Z" style="fill:#56959f"/><rect x="176" y="376" width="160" height="32" style="fill:#6cbbc7"/><path d="M281.264,376A120,120,0,0,1,234.8,408H336V376Z" style="fill:#56959f"/><path d="M154.234,119.867C182.527,125.109,218.668,128,256,128s73.473-2.891,101.766-8.133C396.953,112.6,416,102.18,416,88c0-31.574-100.574-40-160-40S96,56.426,96,88C96,102.18,115.047,112.6,154.234,119.867ZM256,64c88.676,0,140.657,15.671,143.933,23.9-.766,1.22-7.148,9.2-45.081,16.23C327.488,109.207,292.383,112,256,112s-71.488-2.793-98.852-7.867c-38.034-7.052-44.362-15.069-45.073-16.039C115.612,79.593,167.538,64,256,64Z"/><path d="M496,128a8,8,0,0,0-8-8H464V88c0-46.766-107.168-72-208-72S48,41.234,48,88v32H24a8,8,0,0,0-8,8v40A239.766,239.766,0,0,0,48,287.568V424c0,46.766,107.168,72,208,72s208-25.234,208-72V287.568A239.766,239.766,0,0,0,496,168ZM184,384H328v16H184Zm159.6-10a7.891,7.891,0,0,0-7.6-6H176a7.891,7.891,0,0,0-7.6,6A224.947,224.947,0,0,1,64,283.185V116.776c7.848,6.606,18.566,12.687,32,18.143V280a48,48,0,0,0,96,0V232a24,24,0,0,1,48,0v16a48,48,0,0,0,96,0V232a24.027,24.027,0,0,1,24-24,40.047,40.047,0,0,0,40-40V140.784c21.155-6.772,37.246-14.766,48-23.753V283.185A224.947,224.947,0,0,1,343.6,374ZM256,160c46.853,0,91.74-5.2,128-14.643V168a24.027,24.027,0,0,1-24,24,40.047,40.047,0,0,0-40,40v16a32,32,0,0,1-64,0V232a40,40,0,0,0-80,0v48a32,32,0,0,1-64,0V140.69C150.24,152.98,201.792,160,256,160Zm0-128c113.148,0,192,29.512,192,56,0,13.523-22.332,28.562-58.277,39.242C353.328,138.047,305.84,144,256,144c-57.578,0-111.957-7.992-149.195-21.922h0C80,112.055,64,99.312,64,88,64,61.512,142.852,32,256,32ZM32,136H48V250.857A223.911,223.911,0,0,1,32,168ZM256,480c-113.148,0-192-29.512-192-56V311.63a240.656,240.656,0,0,0,104,79.52V408a8,8,0,0,0,8,8H336a8,8,0,0,0,8-8V391.15a240.656,240.656,0,0,0,104-79.52V424C448,450.488,369.148,480,256,480ZM480,168a223.912,223.912,0,0,1-16,82.858V136h16Z"/></g></svg>
