<svg height="512" viewBox="0 0 128 128" width="512" xmlns="http://www.w3.org/2000/svg"><g><g><path d="m1.75 1.747h124.5v124.5h-124.5z" fill="#ffc080"/><path d="m1.75 89.783 18.231 18.231 17.607-17.607-35.838-35.838z" fill="#cc825d"/><path d="m37.588 90.407-17.607 17.607 18.233 18.233h35.214z" fill="#995a4d"/><path d="m90.409 37.587 17.607-17.607-18.233-18.233h-35.214z" fill="#cc825d"/><path d="m126.25 38.214-18.234-18.234-17.607 17.607 35.841 35.841z" fill="#995a4d"/><path d="m1.75 54.569 4.28 4.28 17.607-17.607-21.887-21.887z" fill="#ffc080"/><path d="m33.944 36.972h24.9v89.269h-24.9z" fill="#e69f6e" transform="matrix(.707 -.707 .707 .707 -44.116 56.708)"/><path d="m86.759 104.365-17.607 17.607 4.276 4.275h35.214z" fill="#cc825d"/><path d="m1.75 19.355 53.445 53.445 17.607-17.606-53.447-53.447h-17.605z" fill="#995a4d"/><path d="m126.25 108.642-53.448-53.448-17.607 17.606 53.447 53.447h17.608z" fill="#ffc080"/><path d="m41.243 23.635 17.607-17.607-4.281-4.281h-35.214z" fill="#ffc080"/><path d="m69.158 1.759h24.9v89.269h-24.9z" fill="#e69f6e" transform="matrix(.707 -.707 .707 .707 -8.902 71.294)"/><path d="m126.25 73.428-4.277-4.277-17.607 17.607 21.884 21.884z" fill="#cc825d"/></g><g><path d="m126.25 0h-124.5a1.749 1.749 0 0 0 -1.75 1.747v124.5a1.749 1.749 0 0 0 1.75 1.753h8.25a1.75 1.75 0 1 0 0-3.5h-6.5v-30.492l15.244 15.244 15.245 15.248h-8.052a1.75 1.75 0 1 0 0 3.5h100.313a1.749 1.749 0 0 0 1.75-1.75v-124.503a1.749 1.749 0 0 0 -1.75-1.747zm-1.75 33.989-15.247-15.247-15.245-15.242h30.492zm-10.093 45.2 7.567-7.566 2.526 2.526v30.265l-17.659-17.656zm10.093-9.989-1.289-1.289-30.327-30.324 7.566-7.566 7.566-7.567 16.484 16.485zm-35.441-65.7 16.482 16.482-7.566 7.567-7.566 7.566-30.321-30.324-1.294-1.291zm-35.214 0 2.531 2.531-7.566 7.563-7.567 7.566-17.663-17.66zm-50.345 0h15.131l21.375 21.372 30.321 30.321-7.566 7.567-7.561 7.566-30.326-30.321-21.374-21.374zm73.219 108.431-7.567 7.569-30.327-30.33-30.325-30.321 7.566-7.566 7.567-7.566 30.325 30.321 30.327 30.327zm-73.219-88.351 17.662 17.662-7.562 7.566-7.571 7.566-2.529-2.529zm0 35.214 1.292 1.292 30.321 30.321-7.566 7.567-7.566 7.566-16.481-16.481zm35.438 65.7-16.482-16.479 7.566-7.567 7.566-7.566 30.327 30.327 1.285 1.291zm35.214 0-2.525-2.525 7.566-7.566 7.567-7.566 17.657 17.663zm50.348 0h-15.134l-21.366-21.366-30.33-30.328 7.566-7.567 7.564-7.565 2.418 2.418a1.75 1.75 0 0 0 2.474-2.475l-3.655-3.655-30.319-30.321 15.133-15.135 30.321 30.324 30.328 30.327-15.134 15.132-3.913-3.913a1.75 1.75 0 1 0 -2.475 2.475l5.151 5.155 21.371 21.366z"/><path d="m85.729 65.646a1.749 1.749 0 0 0 -2.474 2.474l6.688 6.69a1.75 1.75 0 0 0 2.475-2.475z"/></g></g></svg>