<svg height="512" viewBox="0 0 128 128" width="512" xmlns="http://www.w3.org/2000/svg"><g><g><path d="m104.225 105.558a8.438 8.438 0 0 1 -8.425-8.428v-15.589a2.43 2.43 0 0 0 -2.427-2.429h-7.443v-6h7.44a8.438 8.438 0 0 1 8.427 8.429v15.589a2.429 2.429 0 0 0 4.857 0v-42.13h6v42.13a8.438 8.438 0 0 1 -8.429 8.428z" fill="#eaeaf0"/><path d="m109.307 48.75h-6.833a4.755 4.755 0 0 1 -4.75-4.75v-7.5a1.75 1.75 0 1 1 3.5 0v7.5a1.251 1.251 0 0 0 1.25 1.25h6.833a1.75 1.75 0 1 1 0 3.5z" fill="#eaeaf0"/><path d="m99.984 26.75h-13.359v6h9.639v6.862h10.329l.061.048v13.59h6v-16.5z" fill="#f7502f"/><path d="m85.93 26.75h10.337v6h-10.337z" fill="#d93922"/><path d="m106.654 51.093h6v6h-6z" fill="#d8d8d8"/><path d="m9.451 38.518h91.407v68.557h-91.407z" fill="#f7502f" transform="matrix(0 1 -1 0 127.951 17.643)"/><rect fill="#fdd82e" height="44.593" rx="6" width="68.558" x="20.875" y="6.5"/><path d="m44.857 6.518h20.593v44.558h-20.593z" fill="#eaeaf0" transform="matrix(0 1 -1 0 83.95 -26.357)"/><path d="m15.346 115.5h79.615v6h-79.615z" fill="#d93922"/><circle cx="55.154" cy="85.748" fill="#eaeaf0" r="13.904"/><path d="m61.154 88.133a6 6 0 0 1 -12 0c0-4.6 6-10.77 6-10.77s6 6.17 6 10.77z" fill="#fdd82e"/></g><g fill="#051720"><path d="m114.4 36.75a1.749 1.749 0 0 0 -.666-1.374l-12.67-10a1.751 1.751 0 0 0 -1.084-.376h-8.8v-12.5a7.759 7.759 0 0 0 -7.75-7.75h-27.5a1.75 1.75 0 0 0 0 3.5h27.5a4.255 4.255 0 0 1 4.25 4.25v32.622a4.253 4.253 0 0 1 -4.247 4.221h-56.558a4.252 4.252 0 0 1 -4.245-4.2v-18.053c0-.017 0-.032 0-.048v-14.542a4.255 4.255 0 0 1 4.25-4.25h10.87a1.75 1.75 0 0 0 0-3.5h-10.875a7.759 7.759 0 0 0 -7.75 7.75v32.593.1 68.557h-3.779a1.75 1.75 0 0 0 -1.75 1.75v6a1.75 1.75 0 0 0 1.75 1.75h79.616a1.749 1.749 0 0 0 1.75-1.75v-6a1.749 1.749 0 0 0 -1.75-1.75h-3.782v-32.89h2.19a.681.681 0 0 1 .68.68v15.59a10.175 10.175 0 1 0 20.35 0v-20.5a1.75 1.75 0 0 0 -3.5 0v20.5a6.675 6.675 0 1 1 -13.35 0v-15.59a4.185 4.185 0 0 0 -4.18-4.18h-2.19v-2.5h2.19a6.687 6.687 0 0 1 6.68 6.68v15.59a4.175 4.175 0 1 0 8.35 0v-38.287h2.5v9.032a1.75 1.75 0 0 0 3.5 0zm-3.5.849v11.744h-2.5v-9.683a1.913 1.913 0 0 0 -.7-1.4 1.745 1.745 0 0 0 -1.111-.4h-8.579v-5.013c0-.033.01-.064.01-.1v-4.247h1.353zm-9.68 3.761h3.68v3.89h-2.43a1.251 1.251 0 0 1 -1.25-1.25zm-6.7-12.86v2.5h-3.337v-2.5zm-48.27 85.25a1.75 1.75 0 0 0 0 3.5h46.962v2.5h-76.112v-2.5h19.067a1.75 1.75 0 0 0 0-3.5h-13.537v-62.181a7.7 7.7 0 0 0 4.245 1.274h56.558a7.707 7.707 0 0 0 4.247-1.275v62.182zm58.65-16.62a.675.675 0 1 1 -1.35 0v-15.59a10.192 10.192 0 0 0 -10.18-10.18h-2.19v-26.209c0-.02 0-.039 0-.058v-10.593h3.33v5.11a1.749 1.749 0 0 0 1.75 1.75h1.46v2.64a4.756 4.756 0 0 0 4.75 4.75h2.43zm3.5-41.787v-2.5h2.5v.407.029 1.692.029.343z"/><path d="m26.875 77.207a1.75 1.75 0 0 0 -1.75 1.75v7a1.75 1.75 0 0 0 3.5 0v-7a1.749 1.749 0 0 0 -1.75-1.75z"/><path d="m44.9 8.25h4.291a1.75 1.75 0 0 0 0-3.5h-4.291a1.75 1.75 0 0 0 0 3.5z"/><path d="m31.125 18.5v20.593a1.75 1.75 0 0 0 1.75 1.75h44.558a1.75 1.75 0 0 0 1.75-1.75v-20.593a1.75 1.75 0 0 0 -1.75-1.75h-44.558a1.75 1.75 0 0 0 -1.75 1.75zm3.5 1.75h41.058v17.093h-41.058z"/><path d="m55.154 70.094a15.654 15.654 0 1 0 15.654 15.654 15.671 15.671 0 0 0 -15.654-15.654zm0 27.807a12.154 12.154 0 1 1 12.154-12.153 12.167 12.167 0 0 1 -12.154 12.152z"/><path d="m53.9 76.143c-.665.683-6.495 6.828-6.495 11.99a7.75 7.75 0 0 0 15.5 0c0-5.162-5.831-11.307-6.5-11.99a1.8 1.8 0 0 0 -2.505 0zm1.255 16.24a4.255 4.255 0 0 1 -4.25-4.25c0-2.5 2.455-6 4.25-8.145 1.794 2.149 4.25 5.645 4.25 8.145a4.255 4.255 0 0 1 -4.251 4.25z"/></g></g></svg>