<svg id="icon" height="512" viewBox="0 0 512 512" width="512" xmlns="http://www.w3.org/2000/svg"><path d="m23.571 66.461h464.859v182.56h-464.859z" fill="#ff7b69"/><path d="m488.43 249.02h-77.477-9.106-145.847-154.953-77.476v75.671 75.671h154.953 154.953 154.953v-68.061z" fill="#ff7b69"/><path d="m23.571 66.461h77.476v91.28h-77.476z" fill="#d85656"/><path d="m59.65 204.649a147.628 147.628 0 0 1 20.574 5.061 125.853 125.853 0 0 0 65.835 2.981 321.918 321.918 0 0 1 82.517-7.285 127.584 127.584 0 0 1 100.5 56.038q3.26 4.845 6.427 10.157a77.225 77.225 0 0 0 66.327 38.006h9.709a76.888 76.888 0 0 1 76.891 76.893v45.08h-464.859v-196.321a30.975 30.975 0 0 1 36.079-30.61z" fill="#53737f"/><path d="m411.542 332.016h-22.8a77.225 77.225 0 0 1 -66.332-38.006q-3.155-5.312-6.426-10.157c-22.612-33.624-46.925-54.307-87.409-56.038a321.824 321.824 0 0 0 -82.516 7.285 125.853 125.853 0 0 1 -65.835-2.982c-7.307-2.363-17.144-5.432-23.484-6.516-18.881-3.225-33.169 20.186-33.169 39.341v166.637h464.859v-22.68a76.888 76.888 0 0 0 -76.888-76.884z" fill="#7f90a0"/><path d="m225.151 208.268-54.551 118.122a9.8 9.8 0 0 0 8.9 13.91h109.1a9.8 9.8 0 0 0 8.9-13.91l-54.554-118.122a9.8 9.8 0 0 0 -17.795 0z" fill="#e6e6e6"/><path d="m234.048 377.8a5.821 5.821 0 0 1 -5.82-5.821v-59.16a5.821 5.821 0 0 1 11.641 0v59.16a5.822 5.822 0 0 1 -5.821 5.821z" fill="#53737f"/><rect fill="#d85656" height="81.542" rx="15.55" width="31.1" x="218.498" y="363.996"/><path d="m87.034 375.315h-1.071a24.053 24.053 0 0 1 -24.026-24.025v-10.49a5.821 5.821 0 0 1 11.641 0v10.49a12.4 12.4 0 0 0 12.385 12.385h1.071a12.4 12.4 0 0 0 11.973-9.215l2.032-7.676a24.05 24.05 0 0 1 23.227-17.877 12.446 12.446 0 0 0 12.26-10.633l2.182-15.274a5.82 5.82 0 0 1 11.524 1.646l-2.182 15.275a24.145 24.145 0 0 1 -23.784 20.628 12.4 12.4 0 0 0 -11.973 9.215l-2.032 7.677a24.05 24.05 0 0 1 -23.227 17.874z" fill="#53737f"/><path d="m67.758 318.261a5.821 5.821 0 0 1 -5.821-5.821v-3.148a5.821 5.821 0 1 1 11.641 0v3.148a5.821 5.821 0 0 1 -5.82 5.821z" fill="#53737f"/><path d="m390.608 412a24.244 24.244 0 0 1 -23.269-17.151l-2.283-7.364a12.722 12.722 0 0 0 -8.328-8.368l-10.3-3.245a24.22 24.22 0 0 1 -16.748-19.469l-1.954-12.478a5.821 5.821 0 0 1 11.5-1.8l1.954 12.48a12.641 12.641 0 0 0 8.744 10.166l10.3 3.245a24.361 24.361 0 0 1 15.947 16.026l2.284 7.363a12.72 12.72 0 0 0 24.871-3.763v-17.842a5.82 5.82 0 1 1 11.64 0v17.848a24.388 24.388 0 0 1 -24.358 24.352z" fill="#53737f"/><g fill="#333"><path d="m488.43 60.641h-464.86a5.82 5.82 0 0 0 -5.82 5.82v163.493a5.758 5.758 0 0 0 .2 1.452 37.059 37.059 0 0 0 -.2 3.852 5.82 5.82 0 1 0 11.64 0 25.234 25.234 0 0 1 8.981-19.323 24.917 24.917 0 0 1 20.3-5.548 142.235 142.235 0 0 1 19.761 4.86 131.717 131.717 0 0 0 68.881 3.127 317.726 317.726 0 0 1 51.538-6.994 5.82 5.82 0 1 0 -.614-11.623q-6.949.368-13.892 1.035v-37.231h143.312v79.639h-5.492a132.463 132.463 0 0 0 -49.448-34.241 5.821 5.821 0 0 0 -4.3 10.819 120.624 120.624 0 0 1 55.829 44.914c2.177 3.236 4.28 6.559 6.253 9.881a83.465 83.465 0 0 0 71.332 40.854h9.708a71.149 71.149 0 0 1 71.071 71.073v39.264h-204.667a5.821 5.821 0 0 0 0 11.641h210.487a5.821 5.821 0 0 0 5.82-5.821v-365.123a5.82 5.82 0 0 0 -5.82-5.82zm-459.04 11.64h65.836v79.639h-65.836zm143.31 129.839c-9.387 1.234-18.712 2.859-27.9 4.887a120.008 120.008 0 0 1 -62.79-2.835 153.821 153.821 0 0 0 -21.382-5.259 36.511 36.511 0 0 0 -29.767 8.125q-.757.639-1.475 1.315v-44.792h143.314zm77.476-50.2h-143.309v-79.639h143.313zm11.641 0v-79.639h143.316v79.639h-143.312zm220.793 192.329a82.736 82.736 0 0 0 -71.068-40.462h-9.708a71.77 71.77 0 0 1 -61.323-35.159c-2.085-3.507-4.306-7.018-6.6-10.433-.763-1.135-1.553-2.247-2.349-3.355h151.048zm0-101.049h-143.31v-79.639h143.31zm0-91.28h-65.836v-79.639h65.836z"/><path d="m383.927 98.424a5.863 5.863 0 0 0 1.134-.116 5.853 5.853 0 0 0 2.1-.873 5.814 5.814 0 0 0 .886-.713 5.916 5.916 0 0 0 1.7-4.118 6.247 6.247 0 0 0 -.116-1.15 6.367 6.367 0 0 0 -.86-2.08 6.142 6.142 0 0 0 -.728-.888 7.179 7.179 0 0 0 -.886-.728 6.737 6.737 0 0 0 -1-.538 5.592 5.592 0 0 0 -1.091-.32 5.836 5.836 0 0 0 -5.252 1.586 6.208 6.208 0 0 0 -.728.888 5.425 5.425 0 0 0 -.524 1.005 5.863 5.863 0 0 0 -.335 1.075 6.16 6.16 0 0 0 -.115 1.15 5.811 5.811 0 0 0 5.82 5.82z"/><path d="m221.41 94.831a6.481 6.481 0 0 0 .525 1 6.92 6.92 0 0 0 .727.887 5.91 5.91 0 0 0 4.118 1.7 5.978 5.978 0 0 0 1.134-.116 5.853 5.853 0 0 0 2.1-.873 5.822 5.822 0 0 0 .887-.713 7 7 0 0 0 .727-.887 6.39 6.39 0 0 0 .524-1 5.815 5.815 0 0 0 .448-2.229 6.247 6.247 0 0 0 -.116-1.15 5.867 5.867 0 0 0 -.336-1.075 5.307 5.307 0 0 0 -.524-1.005 6.2 6.2 0 0 0 -.727-.888 5.837 5.837 0 0 0 -5.252-1.586 5.622 5.622 0 0 0 -1.092.32 6.826 6.826 0 0 0 -1 .538 6.112 6.112 0 0 0 -.887.728 5.862 5.862 0 0 0 -1.7 4.118 5.978 5.978 0 0 0 .115 1.135 6.055 6.055 0 0 0 .329 1.096z"/><path d="m221.41 118.781a5.83 5.83 0 0 0 .525 1 5.834 5.834 0 0 0 1.614 1.615 6.642 6.642 0 0 0 1 .538 5.486 5.486 0 0 0 1.092.32 4.967 4.967 0 0 0 1.135.116 5.813 5.813 0 0 0 5.82-5.82 6.06 6.06 0 0 0 -.116-1.134 6 6 0 0 0 -.336-1.091 6.314 6.314 0 0 0 -.524-1 6 6 0 0 0 -.727-.872 5.881 5.881 0 0 0 -5.252-1.6 5.907 5.907 0 0 0 -2.1.874 5.172 5.172 0 0 0 -.887.728 5.941 5.941 0 0 0 -.727.872 6.4 6.4 0 0 0 -.525 1 5.8 5.8 0 0 0 -.45 2.225 6.126 6.126 0 0 0 .115 1.15 5.931 5.931 0 0 0 .343 1.079z"/><path d="m383.927 122.374a4.885 4.885 0 0 0 1.134-.116 5.457 5.457 0 0 0 1.091-.32 6.558 6.558 0 0 0 1-.538 5.976 5.976 0 0 0 .886-.728 5.828 5.828 0 0 0 0-8.236 5.931 5.931 0 0 0 -.886-.712 5.928 5.928 0 0 0 -2.1-.874 5.818 5.818 0 1 0 -1.134 11.524z"/><path d="m353.849 94.831a5.791 5.791 0 0 0 .539 1 4.75 4.75 0 0 0 .727.873 5.159 5.159 0 0 0 .874.727 5.624 5.624 0 0 0 1 .539 6.288 6.288 0 0 0 1.091.334 5.684 5.684 0 0 0 2.285 0 5.826 5.826 0 0 0 1.077-.334 4.747 4.747 0 0 0 1-.539 4.626 4.626 0 0 0 .888-.727 5.337 5.337 0 0 0 .728-.873 6.826 6.826 0 0 0 .538-1 6.239 6.239 0 0 0 .334-1.092 5.9 5.9 0 0 0 .117-1.135 5.966 5.966 0 0 0 -.117-1.15 5.709 5.709 0 0 0 -.334-1.075 5.593 5.593 0 0 0 -.538-1.005 5.494 5.494 0 0 0 -.728-.888 5.367 5.367 0 0 0 -.888-.728 5.541 5.541 0 0 0 -1-.538 5.777 5.777 0 0 0 -1.077-.32 5.533 5.533 0 0 0 -2.285 0 6.223 6.223 0 0 0 -1.091.32 6.776 6.776 0 0 0 -1 .538 6.12 6.12 0 0 0 -.888.728 5.463 5.463 0 0 0 -.713.888 4.881 4.881 0 0 0 -.539 1.005 5.783 5.783 0 0 0 -.334 1.075 6.247 6.247 0 0 0 -.116 1.15 6.062 6.062 0 0 0 .116 1.135 6.325 6.325 0 0 0 .334 1.092z"/><path d="m364.284 179.064a5.853 5.853 0 0 0 -2.1-.873 5.977 5.977 0 0 0 -2.27 0 5.853 5.853 0 0 0 -2.1.873 5.348 5.348 0 0 0 -.888.727 6.221 6.221 0 0 0 -.727.874 6.638 6.638 0 0 0 -.523 1 5.837 5.837 0 0 0 -.335 1.091 6.017 6.017 0 0 0 -.117 1.136 5.871 5.871 0 0 0 1.7 4.118 6.471 6.471 0 0 0 .888.727 6.836 6.836 0 0 0 1 .539 5.552 5.552 0 0 0 1.091.32 5.611 5.611 0 0 0 2.27 0 5.613 5.613 0 0 0 1.091-.32 6.991 6.991 0 0 0 1-.539 7.263 7.263 0 0 0 .886-.727 6.165 6.165 0 0 0 .728-.888 5.969 5.969 0 0 0 .524-1 5.557 5.557 0 0 0 .334-1.091 5.75 5.75 0 0 0 -1.586-5.239 5.255 5.255 0 0 0 -.866-.728z"/><path d="m383.869 178.191a5.8 5.8 0 0 0 -1.077.334 5.895 5.895 0 0 0 -1.892 1.266 5.192 5.192 0 0 0 -.727.874 6.55 6.55 0 0 0 -.539 1 7.337 7.337 0 0 0 -.335 1.091 5.991 5.991 0 0 0 -.1 1.136 5.866 5.866 0 0 0 .1 1.135 6.8 6.8 0 0 0 .335 1.091 5.889 5.889 0 0 0 .539 1 5.254 5.254 0 0 0 .727.888 5.387 5.387 0 0 0 .887.727 5.626 5.626 0 0 0 1 .539 5.755 5.755 0 0 0 1.077.32 5.088 5.088 0 0 0 1.149.116 5.79 5.79 0 0 0 4.1-1.7 4.625 4.625 0 0 0 .728-.888 5.889 5.889 0 0 0 .539-1 5.77 5.77 0 0 0 .335-1.091 5.946 5.946 0 0 0 .1-1.135 5.827 5.827 0 0 0 -6.954-5.7z"/><path d="m455.617 278.183a5.467 5.467 0 0 0 .539 1 5.822 5.822 0 0 0 .713.887 5.965 5.965 0 0 0 5.252 1.587 5.655 5.655 0 0 0 1.091-.335 5.056 5.056 0 0 0 1-.539 5.2 5.2 0 0 0 .886-.713 6.927 6.927 0 0 0 .728-.887 6.468 6.468 0 0 0 .539-1 7.314 7.314 0 0 0 .335-1.092 6.039 6.039 0 0 0 .1-1.134 6.19 6.19 0 0 0 -.1-1.149 7.1 7.1 0 0 0 -.335-1.077 5.413 5.413 0 0 0 -.539-1 5.849 5.849 0 0 0 -1.614-1.614 5.9 5.9 0 0 0 -1-.539 5.554 5.554 0 0 0 -1.091-.321 5.456 5.456 0 0 0 -2.269 0 5.927 5.927 0 0 0 -1.092.321 6.56 6.56 0 0 0 -1 .539 5.915 5.915 0 0 0 -.887.727 5.21 5.21 0 0 0 -.713.887 4.7 4.7 0 0 0 -.539 1 5.883 5.883 0 0 0 -.335 1.077 6.124 6.124 0 0 0 -.115 1.149 5.976 5.976 0 0 0 .115 1.134 6.055 6.055 0 0 0 .331 1.092z"/><path d="m366.422 206.376a5.979 5.979 0 0 0 -.524-1 6.147 6.147 0 0 0 -.728-.886 6.917 6.917 0 0 0 -.886-.728 6.617 6.617 0 0 0 -1-.539 5.615 5.615 0 0 0 -1.091-.321 5.461 5.461 0 0 0 -2.27 0 5.554 5.554 0 0 0 -1.091.321 6.478 6.478 0 0 0 -1 .539 7.078 7.078 0 0 0 -.888.728 6.277 6.277 0 0 0 -.727.886 5.975 5.975 0 0 0 -.523 1 5.493 5.493 0 0 0 -.335 1.091 5.559 5.559 0 0 0 0 2.269 5.779 5.779 0 0 0 .335 1.092 6.554 6.554 0 0 0 .523 1 7.273 7.273 0 0 0 .727.887 5.3 5.3 0 0 0 .888.713 5.475 5.475 0 0 0 1 .539 5.586 5.586 0 0 0 1.091.335 5.564 5.564 0 0 0 2.27 0 5.649 5.649 0 0 0 1.091-.335 5.574 5.574 0 0 0 1-.539 5.814 5.814 0 0 0 .886-.713 7.1 7.1 0 0 0 .728-.887 6.56 6.56 0 0 0 .524-1 5.667 5.667 0 0 0 .334-3.361 5.557 5.557 0 0 0 -.334-1.091z"/><path d="m23.57 437.4h164.64a5.821 5.821 0 0 0 0-11.641h-158.82v-157.823a5.82 5.82 0 1 0 -11.64 0v163.643a5.821 5.821 0 0 0 5.82 5.821z"/><path d="m61.937 351.29a24.053 24.053 0 0 0 24.026 24.025h1.071a24.049 24.049 0 0 0 23.227-17.876l2.032-7.677a12.4 12.4 0 0 1 11.972-9.215 24.145 24.145 0 0 0 23.785-20.628l2.182-15.275a5.82 5.82 0 0 0 -11.524-1.644l-2.182 15.274a12.447 12.447 0 0 1 -12.261 10.635 24.049 24.049 0 0 0 -23.226 17.877l-2.032 7.676a12.4 12.4 0 0 1 -11.973 9.215h-1.071a12.4 12.4 0 0 1 -12.385-12.387v-10.49a5.821 5.821 0 0 0 -11.641 0z"/><path d="m67.758 318.259a5.82 5.82 0 0 0 5.82-5.82v-3.147a5.821 5.821 0 1 0 -11.641 0v3.147a5.821 5.821 0 0 0 5.821 5.82z"/><path d="m346.428 375.875 10.3 3.245a12.726 12.726 0 0 1 8.329 8.368l2.282 7.364a24.361 24.361 0 0 0 47.63-7.209v-17.843a5.82 5.82 0 1 0 -11.64 0v17.848a12.72 12.72 0 0 1 -24.871 3.763l-2.284-7.363a24.363 24.363 0 0 0 -15.947-16.026l-10.3-3.245a12.641 12.641 0 0 1 -8.744-10.166l-1.954-12.48a5.821 5.821 0 0 0 -11.5 1.8l1.954 12.478a24.22 24.22 0 0 0 16.745 19.466z"/><path d="m288.6 334.48h-29.431a5.82 5.82 0 0 0 0 11.64h29.431a15.621 15.621 0 0 0 14.181-22.17l-54.552-118.123a15.621 15.621 0 0 0 -28.363 0l-54.552 118.12a15.62 15.62 0 0 0 14.179 22.171h48.735v12.882a21.394 21.394 0 0 0 -15.55 20.545v50.441a21.37 21.37 0 1 0 42.74 0v-50.439a21.393 21.393 0 0 0 -15.549-20.547v-46.183a5.821 5.821 0 0 0 -11.641 0v21.663h-48.735a3.98 3.98 0 0 1 -3.612-5.65l54.552-118.12a3.982 3.982 0 0 1 7.229 0l54.555 118.123a3.982 3.982 0 0 1 -3.614 5.649zm-54.555 35.336a9.742 9.742 0 0 1 9.73 9.731v50.441a9.73 9.73 0 1 1 -19.459 0v-50.441a9.741 9.741 0 0 1 9.732-9.731z"/></g></svg>