<svg width="44" height="45" viewBox="0 0 44 45" fill="none" xmlns="http://www.w3.org/2000/svg">
<path d="M36.9017 24.6H35.7551C35.8351 24.4227 35.8817 24.2318 35.8817 24.0273V18.5795C35.8817 17.8091 35.2684 17.1886 34.5217 17.1886H28.9617C28.2084 17.1886 27.6017 17.8159 27.6017 18.5795V24.0273C27.6017 24.2318 27.6484 24.4227 27.7284 24.6H26.0284C26.1084 24.4227 26.1551 24.2318 26.1551 24.0273V18.5795C26.1551 17.8091 25.5417 17.1886 24.7951 17.1886H19.2351C18.4817 17.1886 17.8751 17.8159 17.8751 18.5795V24.0273C17.8751 24.2318 17.9217 24.4227 18.0017 24.6H16.3017C16.3817 24.4227 16.4284 24.2318 16.4284 24.0273V18.5795C16.4284 17.8091 15.8151 17.1886 15.0684 17.1886H9.50839C8.75505 17.1886 8.14839 17.8159 8.14839 18.5795V24.0273C8.14839 24.2318 8.19505 24.4227 8.27505 24.6H7.12839C3.89505 24.6 1.26172 27.2932 1.26172 30.6C1.26172 33.9068 3.89505 36.6 7.12839 36.6H9.17505V41.0727H8.08839C7.32839 41.0727 6.70172 41.7068 6.70172 42.4909C6.70172 43.275 7.32172 43.9091 8.08839 43.9091H13.8951C14.6551 43.9091 15.2817 43.275 15.2817 42.4909C15.2817 41.7068 14.6617 41.0727 13.8951 41.0727H12.8084V36.6H31.2417V41.0727H30.1351C29.3751 41.0727 28.7484 41.7068 28.7484 42.4909C28.7484 43.275 29.3684 43.9091 30.1351 43.9091H35.9417C36.7017 43.9091 37.3284 43.275 37.3284 42.4909C37.3284 41.7068 36.7084 41.0727 35.9417 41.0727H34.8551V36.6H36.9017C40.1351 36.6 42.7684 33.9068 42.7684 30.6C42.7684 27.2932 40.1351 24.6 36.9017 24.6ZM31.1684 18H32.3084V19.2477L32.0151 18.9682C31.9351 18.8932 31.8417 18.8591 31.7417 18.8591C31.6417 18.8591 31.5417 18.8932 31.4684 18.9682L31.1751 19.2477V18H31.1684ZM28.3951 24.0273V18.5795C28.3951 18.2659 28.6484 18.0068 28.9551 18.0068H30.3617V20.1955C30.3617 20.3591 30.4551 20.5091 30.6017 20.5705C30.6551 20.5909 30.7084 20.6045 30.7617 20.6045C30.8617 20.6045 30.9617 20.5636 31.0351 20.4955L31.7284 19.8273L32.4217 20.4955C32.5417 20.6045 32.7084 20.6386 32.8551 20.5705C33.0017 20.5023 33.0951 20.3591 33.0951 20.1955V18H34.5017C34.8084 18 35.0617 18.2591 35.0617 18.5727V24.0205C35.0617 24.3341 34.8084 24.5932 34.5017 24.5932H28.9417C28.6484 24.6 28.3951 24.3409 28.3951 24.0273ZM21.4351 18H22.5751V19.2477L22.2817 18.9682C22.2017 18.8932 22.1084 18.8591 22.0084 18.8591C21.9084 18.8591 21.8084 18.8932 21.7351 18.9682L21.4417 19.2477V18H21.4351ZM18.6617 24.0273V18.5795C18.6617 18.2659 18.9151 18.0068 19.2217 18.0068H20.6284V20.1955C20.6284 20.3591 20.7217 20.5091 20.8684 20.5705C20.9217 20.5909 20.9751 20.6045 21.0284 20.6045C21.1284 20.6045 21.2284 20.5636 21.3017 20.4955L22.0017 19.8273L22.6951 20.4955C22.8151 20.6045 22.9817 20.6386 23.1284 20.5705C23.2751 20.5023 23.3684 20.3591 23.3684 20.1955V18H24.7751C25.0817 18 25.3351 18.2591 25.3351 18.5727V24.0205C25.3351 24.3341 25.0817 24.5932 24.7751 24.5932H19.2151C18.9151 24.6 18.6617 24.3409 18.6617 24.0273ZM11.7017 18H12.8417V19.2477L12.5484 18.9682C12.4684 18.8932 12.3751 18.8591 12.2751 18.8591C12.1751 18.8591 12.0751 18.8932 12.0017 18.9682L11.7084 19.2477V18H11.7017ZM8.92839 24.0273V18.5795C8.92839 18.2659 9.18172 18.0068 9.48839 18.0068H10.8951V20.1955C10.8951 20.3591 10.9884 20.5091 11.1351 20.5705C11.1884 20.5909 11.2417 20.6045 11.2951 20.6045C11.3951 20.6045 11.4951 20.5636 11.5684 20.4955L12.2617 19.8273L12.9551 20.4955C13.0751 20.6045 13.2417 20.6386 13.3884 20.5705C13.5351 20.5023 13.6284 20.3591 13.6284 20.1955V18H15.0351C15.3417 18 15.5951 18.2591 15.5951 18.5727V24.0205C15.5951 24.3341 15.3417 24.5932 15.0351 24.5932H9.47505C9.18172 24.6 8.92839 24.3409 8.92839 24.0273ZM14.4484 42.4841C14.4484 42.8114 14.1884 43.0773 13.8684 43.0773H8.06172C7.74172 43.0773 7.48172 42.8114 7.48172 42.4841C7.48172 42.1568 7.74172 41.8909 8.06172 41.8909H13.8684C14.1884 41.8909 14.4484 42.1568 14.4484 42.4841ZM11.9817 41.0727H9.94839V36.6H11.9817V41.0727ZM36.5217 42.4841C36.5217 42.8114 36.2617 43.0773 35.9417 43.0773H30.1351C29.8151 43.0773 29.5551 42.8114 29.5551 42.4841C29.5551 42.1568 29.8151 41.8909 30.1351 41.8909H35.9417C36.2617 41.8909 36.5217 42.1568 36.5217 42.4841ZM34.0551 41.0727H32.0217V36.6H34.0551V41.0727ZM36.9017 35.775H7.10172C4.30838 35.775 2.03505 33.45 2.03505 30.5932C2.03505 27.7364 4.30838 25.4114 7.10172 25.4114H36.9017C39.6951 25.4114 41.9684 27.7364 41.9684 30.5932C41.9684 33.45 39.6951 35.775 36.9017 35.775Z" fill="#947AC6"/>
<path d="M36.7342 27.0205H7.26758C5.33424 27.0205 3.76758 28.6295 3.76758 30.6C3.76758 32.5705 5.34091 34.1795 7.26758 34.1795H36.7342C38.6676 34.1795 40.2342 32.5705 40.2342 30.6C40.2342 28.6295 38.6609 27.0205 36.7342 27.0205ZM29.6142 30.6C29.6142 32.1205 28.4009 33.3614 26.9142 33.3614C25.4276 33.3614 24.2142 32.1205 24.2142 30.6C24.2142 29.0795 25.4276 27.8386 26.9142 27.8386C28.4009 27.8386 29.6142 29.0795 29.6142 30.6ZM19.7876 30.6C19.7876 32.1205 18.5742 33.3614 17.0876 33.3614C15.6009 33.3614 14.3876 32.1205 14.3876 30.6C14.3876 29.0795 15.6009 27.8386 17.0876 27.8386C18.5742 27.8386 19.7876 29.0795 19.7876 30.6ZM4.56758 30.6C4.56758 29.0795 5.78091 27.8386 7.26758 27.8386C8.75424 27.8386 9.96758 29.0795 9.96758 30.6C9.96758 32.1205 8.75424 33.3614 7.26758 33.3614C5.78091 33.3614 4.56758 32.1205 4.56758 30.6ZM9.49424 33.3614C10.2742 32.7068 10.7676 31.7114 10.7676 30.6C10.7676 29.4886 10.2742 28.4932 9.49424 27.8386H14.8609C14.0809 28.4932 13.5876 29.4886 13.5876 30.6C13.5876 31.7114 14.0809 32.7068 14.8609 33.3614H9.49424ZM19.3142 33.3614C20.0942 32.7068 20.5876 31.7114 20.5876 30.6C20.5876 29.4886 20.0942 28.4932 19.3142 27.8386H24.6809C23.9009 28.4932 23.4076 29.4886 23.4076 30.6C23.4076 31.7114 23.9009 32.7068 24.6809 33.3614H19.3142ZM29.1409 33.3614C29.9209 32.7068 30.4142 31.7114 30.4142 30.6C30.4142 29.4886 29.9209 28.4932 29.1409 27.8386H34.5076C33.7276 28.4932 33.2342 29.4886 33.2342 30.6C33.2342 31.7114 33.7276 32.7068 34.5076 33.3614H29.1409ZM36.7342 33.3614C35.2476 33.3614 34.0342 32.1205 34.0342 30.6C34.0342 29.0795 35.2476 27.8386 36.7342 27.8386C38.2209 27.8386 39.4342 29.0795 39.4342 30.6C39.4342 32.1205 38.2209 33.3614 36.7342 33.3614Z" fill="#947AC6"/>
<path d="M36.7337 28.3295C35.5137 28.3295 34.5137 29.3455 34.5137 30.6C34.5137 31.8477 35.507 32.8705 36.7337 32.8705C37.9537 32.8705 38.9537 31.8545 38.9537 30.6C38.9537 29.3455 37.9537 28.3295 36.7337 28.3295ZM36.7337 32.0455C35.9537 32.0455 35.3203 31.3977 35.3203 30.6C35.3203 29.8023 35.9537 29.1545 36.7337 29.1545C37.5137 29.1545 38.147 29.8023 38.147 30.6C38.147 31.3977 37.5137 32.0455 36.7337 32.0455Z" fill="#947AC6"/>
<path d="M26.9134 32.8705C28.1334 32.8705 29.1334 31.8545 29.1334 30.6C29.1334 29.3523 28.14 28.3295 26.9134 28.3295C25.6934 28.3295 24.6934 29.3455 24.6934 30.6C24.6934 31.8477 25.6867 32.8705 26.9134 32.8705ZM26.9134 29.1477C27.6934 29.1477 28.3267 29.7955 28.3267 30.5932C28.3267 31.3909 27.6934 32.0386 26.9134 32.0386C26.1334 32.0386 25.5 31.3909 25.5 30.5932C25.4934 29.8023 26.1267 29.1477 26.9134 29.1477Z" fill="#947AC6"/>
<path d="M17.0872 32.8705C18.3072 32.8705 19.3072 31.8545 19.3072 30.6C19.3072 29.3523 18.3139 28.3295 17.0872 28.3295C15.8605 28.3295 14.8672 29.3455 14.8672 30.6C14.8739 31.8477 15.8672 32.8705 17.0872 32.8705ZM17.0872 29.1477C17.8672 29.1477 18.5005 29.7955 18.5005 30.5932C18.5005 31.3909 17.8672 32.0386 17.0872 32.0386C16.3072 32.0386 15.6739 31.3909 15.6739 30.5932C15.6739 29.8023 16.3072 29.1477 17.0872 29.1477Z" fill="#947AC6"/>
<path d="M9.48687 30.6C9.48687 29.3523 8.49354 28.3295 7.26687 28.3295C6.04021 28.3295 5.04688 29.3455 5.04688 30.6C5.04688 31.8477 6.04021 32.8705 7.26687 32.8705C8.49354 32.8705 9.48687 31.8477 9.48687 30.6ZM5.85354 30.6C5.85354 29.8023 6.48687 29.1545 7.26687 29.1545C8.04687 29.1545 8.68021 29.8023 8.68021 30.6C8.68021 31.3977 8.04687 32.0455 7.26687 32.0455C6.48687 32.0455 5.85354 31.3977 5.85354 30.6Z" fill="#947AC6"/>
<path d="M42.5276 1.09773H1.47422C1.25422 1.09773 1.07422 1.28182 1.07422 1.50682C1.07422 1.73182 1.25422 1.91591 1.47422 1.91591H30.9276V2.44091C30.9276 3.40227 31.6876 4.17955 32.6276 4.17955H34.0876V6.92727C33.7676 7.14546 33.4876 7.43182 33.2742 7.75909H15.4476C14.9076 6.94091 13.9942 6.40227 12.9609 6.40227C11.3076 6.40227 9.96755 7.77273 9.96755 9.46364C9.96755 10.0773 10.1476 10.65 10.4542 11.1341L9.08755 12.5318C8.82089 12.7977 8.68089 13.1591 8.68089 13.5409C8.68089 13.9227 8.82755 14.2773 9.08755 14.55L10.0876 15.5727C10.2409 15.7364 10.4942 15.7295 10.6542 15.5727C10.8142 15.4159 10.8142 15.15 10.6542 14.9932L9.65422 13.9705C9.54089 13.8545 9.48089 13.7045 9.48089 13.5409C9.48089 13.3773 9.54089 13.2273 9.65422 13.1114L10.9809 11.7545C11.5076 12.2318 12.2009 12.525 12.9609 12.525C13.7209 12.525 14.4142 12.2318 14.9409 11.7545L16.2742 13.1182C16.5076 13.3568 16.5076 13.7386 16.2742 13.9773L15.2742 15C15.1142 15.1568 15.1142 15.4227 15.2742 15.5795C15.3542 15.6614 15.4542 15.7023 15.5609 15.7023C15.6609 15.7023 15.7676 15.6614 15.8409 15.5795L16.8409 14.5568C17.1076 14.2909 17.2476 13.9295 17.2476 13.5477C17.2476 13.1659 17.1009 12.8114 16.8409 12.5386L15.5076 11.175H33.2809C33.8209 11.9932 34.7342 12.5318 35.7676 12.5318C37.4209 12.5318 38.7609 11.1614 38.7609 9.47046C38.7609 8.41364 38.2342 7.47955 37.4342 6.92727V4.17955H38.8942C39.8342 4.17955 40.5942 3.40227 40.5942 2.44091V1.91591H42.5209C42.7409 1.91591 42.9209 1.73182 42.9209 1.50682C42.9209 1.28182 42.7476 1.09773 42.5276 1.09773ZM12.9609 11.7068C11.7542 11.7068 10.7676 10.6977 10.7676 9.46364C10.7676 8.22955 11.7542 7.22046 12.9609 7.22046C14.1676 7.22046 15.1542 8.22955 15.1542 9.46364C15.1542 10.7045 14.1676 11.7068 12.9609 11.7068ZM15.8276 10.3568C15.9142 10.0773 15.9542 9.77728 15.9542 9.47046C15.9542 9.16364 15.9076 8.86364 15.8276 8.58409H32.9009C32.8142 8.86364 32.7742 9.16364 32.7742 9.47046C32.7742 9.77728 32.8209 10.0773 32.9009 10.3568H15.8276ZM37.9542 9.46364C37.9542 10.6977 36.9676 11.7068 35.7609 11.7068C34.5542 11.7068 33.5676 10.6977 33.5676 9.46364C33.5676 8.22955 34.5542 7.22046 35.7609 7.22046C36.9742 7.22727 37.9542 8.22955 37.9542 9.46364ZM36.6342 6.53864C36.3609 6.45 36.0676 6.40909 35.7676 6.40909C35.4676 6.40909 35.1742 6.45682 34.9009 6.53864V4.17955H36.6342V6.53864ZM39.7942 2.44091C39.7942 2.94546 39.3942 3.36136 38.8942 3.36136H32.6276C32.1342 3.36136 31.7276 2.95227 31.7276 2.44091V1.91591H39.7876V2.44091H39.7942Z" fill="#947AC6"/>
<path d="M35.7602 7.71818C34.8202 7.71818 34.0469 8.50227 34.0469 9.47046C34.0469 10.4386 34.8135 11.2227 35.7602 11.2227C36.7069 11.2227 37.4735 10.4386 37.4735 9.47046C37.4735 8.50227 36.7069 7.71818 35.7602 7.71818ZM35.7602 10.3977C35.2602 10.3977 34.8535 9.98182 34.8535 9.47046C34.8535 8.95909 35.2602 8.54318 35.7602 8.54318C36.2602 8.54318 36.6669 8.95909 36.6669 9.47046C36.6735 9.98182 36.2669 10.3977 35.7602 10.3977Z" fill="#947AC6"/>
<path d="M12.9614 7.71818C12.0214 7.71818 11.248 8.50227 11.248 9.47046C11.248 10.4386 12.0147 11.2227 12.9614 11.2227C13.908 11.2227 14.6747 10.4386 14.6747 9.47046C14.6747 8.50227 13.908 7.71818 12.9614 7.71818ZM12.9614 10.3977C12.4614 10.3977 12.0547 9.98182 12.0547 9.47046C12.0547 8.95909 12.4614 8.54318 12.9614 8.54318C13.4614 8.54318 13.868 8.95909 13.868 9.47046C13.868 9.98182 13.4614 10.3977 12.9614 10.3977Z" fill="#947AC6"/>
<path d="M31.3415 21.8386H29.4215C29.2015 21.8386 29.0215 22.0227 29.0215 22.2477C29.0215 22.4727 29.2015 22.6568 29.4215 22.6568H31.3415C31.5615 22.6568 31.7415 22.4727 31.7415 22.2477C31.7415 22.0227 31.5682 21.8386 31.3415 21.8386Z" fill="#947AC6"/>
<path d="M31.3415 23.025H29.4215C29.2015 23.025 29.0215 23.2091 29.0215 23.4341C29.0215 23.6591 29.2015 23.8432 29.4215 23.8432H31.3415C31.5615 23.8432 31.7415 23.6591 31.7415 23.4341C31.7415 23.2091 31.5682 23.025 31.3415 23.025Z" fill="#947AC6"/>
<path d="M21.6071 21.8386H19.6871C19.4671 21.8386 19.2871 22.0227 19.2871 22.2477C19.2871 22.4727 19.4671 22.6568 19.6871 22.6568H21.6071C21.8271 22.6568 22.0071 22.4727 22.0071 22.2477C22.0071 22.0227 21.8271 21.8386 21.6071 21.8386Z" fill="#947AC6"/>
<path d="M21.6071 23.025H19.6871C19.4671 23.025 19.2871 23.2091 19.2871 23.4341C19.2871 23.6591 19.4671 23.8432 19.6871 23.8432H21.6071C21.8271 23.8432 22.0071 23.6591 22.0071 23.4341C22.0071 23.2091 21.8271 23.025 21.6071 23.025Z" fill="#947AC6"/>
<path d="M11.8747 21.8386H9.95469C9.73469 21.8386 9.55469 22.0227 9.55469 22.2477C9.55469 22.4727 9.73469 22.6568 9.95469 22.6568H11.8747C12.0947 22.6568 12.2747 22.4727 12.2747 22.2477C12.2747 22.0227 12.0947 21.8386 11.8747 21.8386Z" fill="#947AC6"/>
<path d="M11.8747 23.025H9.95469C9.73469 23.025 9.55469 23.2091 9.55469 23.4341C9.55469 23.6591 9.73469 23.8432 9.95469 23.8432H11.8747C12.0947 23.8432 12.2747 23.6591 12.2747 23.4341C12.2747 23.2091 12.0947 23.025 11.8747 23.025Z" fill="#947AC6"/>
</svg>
