<svg width="50" height="42" viewBox="0 0 50 42" fill="none" xmlns="http://www.w3.org/2000/svg">
<g clip-path="url(#clip0_460_671)">
<path d="M37.5 24.2812C37.9315 24.2812 38.2812 23.9874 38.2812 23.625C38.2812 23.2626 37.9315 22.9688 37.5 22.9688C37.0685 22.9688 36.7188 23.2626 36.7188 23.625C36.7188 23.9874 37.0685 24.2812 37.5 24.2812Z" fill="#947AC6"/>
<path d="M42.1875 24.2812C42.619 24.2812 42.9688 23.9874 42.9688 23.625C42.9688 23.2626 42.619 22.9688 42.1875 22.9688C41.756 22.9688 41.4062 23.2626 41.4062 23.625C41.4062 23.9874 41.756 24.2812 42.1875 24.2812Z" fill="#947AC6"/>
<path d="M41.4055 26.0951C41.1078 26.5952 40.5094 26.9063 39.843 26.9063C39.1766 26.9063 38.5781 26.5952 38.2805 26.0951L38.1984 25.9567L36.8008 26.544L36.8828 26.6825C37.4469 27.6301 38.5813 28.2188 39.843 28.2188C41.1047 28.2188 42.2391 27.6301 42.8031 26.6818L42.8852 26.5433L41.4875 25.956L41.4055 26.0951Z" fill="#947AC6"/>
<path d="M49.2188 20.832C49.2188 17.6676 46.1547 15.0938 42.3875 15.0938H40.625V12.4688H44.5312C47.1164 12.4688 49.2188 10.7028 49.2188 8.53125C49.2188 6.35972 47.1164 4.59375 44.5312 4.59375C44.1484 4.59375 43.7687 4.63509 43.3953 4.71647C42.4617 2.32444 39.7836 0.65625 36.7188 0.65625C33.7117 0.65625 31.0687 2.25619 30.0906 4.60687C28.8586 4.68956 27.7609 5.17584 26.9812 5.90625H13.2812C11.9891 5.90625 10.9375 6.78956 10.9375 7.875V11.8125H4.6875C2.53359 11.8125 0.78125 13.2845 0.78125 15.0938V33.4688C0.78125 35.278 2.53359 36.75 4.6875 36.75H18.75C18.8469 36.75 18.9422 36.7375 19.0383 36.7316L19.5406 39.4748L19.5438 39.4741C19.6063 40.5129 20.6234 41.3438 21.875 41.3438H31.25C32.2672 41.3438 33.1266 40.7932 33.45 40.0306H39.0625C42.0773 40.0306 44.5312 37.9693 44.5312 35.4368V32.1549C44.5312 31.3635 44.1039 30.662 43.4422 30.1803C44.8156 29.4827 45.7938 28.2955 46.032 26.9062H46.0938C47.8172 26.9062 49.2188 25.7289 49.2188 24.2812C49.2188 23.7838 49.0438 23.3238 48.757 22.9268L48.8687 22.6459C49.1008 22.0598 49.2188 21.4495 49.2188 20.832ZM47.6562 20.832C47.6562 21.2067 47.5836 21.5755 47.4719 21.9378C47.0547 21.7632 46.5906 21.6562 46.0938 21.6562H45.95C45.6266 20.8943 44.7672 20.3438 43.75 20.3438H40.4914C39.275 20.3438 38.1313 19.9461 37.2711 19.2235L36.9297 18.9368L36.4719 19.0647C35.0461 19.4637 34.0195 20.4606 33.7047 21.6562H33.5938C33.0969 21.6562 32.6336 21.7632 32.2156 21.9371C32.1039 21.5755 32.0312 21.2067 32.0312 20.832C32.0312 18.3914 34.3945 16.4062 37.3 16.4062H42.3883C45.293 16.4062 47.6562 18.3914 47.6562 20.832ZM33.5938 25.5938C32.732 25.5938 32.0312 25.0051 32.0312 24.2812C32.0312 23.5574 32.732 22.9688 33.5938 22.9688V25.5938ZM30.4656 5.90822H30.4703C30.5227 5.91412 30.575 5.92003 30.6297 5.922L31.2687 5.94956L31.4266 5.4285C32.0422 3.3915 34.2188 1.96875 36.7188 1.96875C39.3414 1.96875 41.5992 3.5385 42.0875 5.7015L42.2766 6.53887L43.1922 6.17138C43.6289 5.9955 44.0797 5.90625 44.5312 5.90625C46.2547 5.90625 47.6562 7.08356 47.6562 8.53125C47.6562 9.97894 46.2547 11.1562 44.5312 11.1562H30.4688C28.7453 11.1562 27.3438 9.97894 27.3438 8.53125C27.3438 7.08488 28.743 5.90822 30.4656 5.90822ZM12.5 7.875C12.5 7.51341 12.8508 7.21875 13.2812 7.21875H26.0539C25.8805 7.63022 25.7812 8.07056 25.7812 8.53125C25.7812 10.7028 27.8836 12.4688 30.4688 12.4688H39.0625V15.0938H37.3C33.5328 15.0938 30.4688 17.6676 30.4688 20.832C30.4688 21.4495 30.5867 22.0598 30.8195 22.6459L30.9312 22.9268C30.6437 23.3231 30.4688 23.7838 30.4688 24.2812C30.4688 25.7289 31.8703 26.9062 33.5938 26.9062H33.6562C33.9523 28.6348 35.3953 30.0536 37.3172 30.5996C35.5797 31.5958 34.3344 33.0645 33.7711 34.7812H32.0312H30.4688C28.7461 34.7812 27.3438 35.9586 27.3438 37.4062H24.1148L22.6562 28.8278V15.0938C22.6562 13.2845 20.9039 11.8125 18.75 11.8125H12.5V7.875ZM38.2812 34.7806L35.3969 34.7812C35.9289 33.4628 36.9625 32.3433 38.3594 31.5873C38.3109 31.7723 38.2805 31.9613 38.2805 32.1556L38.2812 34.7806ZM32.0312 37.4062H28.9062C28.9062 36.6824 29.607 36.0938 30.4688 36.0938H32.0312V37.4062ZM19.5477 30.8825C19.5367 30.8227 19.5312 30.763 19.5312 30.7033C19.5312 30.0569 20.1578 29.5306 20.9273 29.5306H21.1977L22.5367 37.4062H21.875C21.4797 37.4062 21.1125 37.4968 20.7859 37.6425L19.5477 30.8825ZM17.9688 19.6875H5.46875V15.75H17.9688V19.6875ZM5.46875 21H17.9688V24.9375H5.46875V21ZM5.46875 26.25H17.9688V30.1875H5.46875V26.25ZM5.46875 31.5H17.9688V35.4375H5.46875V31.5ZM2.34375 33.4688V15.0938C2.34375 14.0083 3.39531 13.125 4.6875 13.125H18.75C20.0422 13.125 21.0938 14.0083 21.0938 15.0938V28.2181H20.9273C20.4195 28.2181 19.9492 28.3362 19.5312 28.5259V15.75C19.5312 15.0262 18.8305 14.4375 17.9688 14.4375H5.46875C4.60703 14.4375 3.90625 15.0262 3.90625 15.75V35.3167C2.99922 35.0451 2.34375 34.3232 2.34375 33.4688ZM31.25 40.0312H21.875C21.4445 40.0312 21.0938 39.7366 21.0938 39.375C21.0938 39.0134 21.4445 38.7188 21.875 38.7188H32.0312V39.375C32.0312 39.7366 31.6805 40.0312 31.25 40.0312ZM42.968 35.4368C42.968 37.2461 41.2156 38.7181 39.0617 38.7181H33.593L33.5938 36.0938L38.7391 36.0931L40.0719 37.214L41.1773 36.2867L39.8438 35.1652V32.1549C39.8438 31.8045 40.0062 31.4744 40.3008 31.227C40.5914 30.9829 40.9758 30.8483 41.3859 30.8444H41.4055V30.8431C42.2672 30.8431 42.968 31.4318 42.968 32.1556V35.4368ZM44.5312 26.25C44.5312 28.0586 42.7797 29.5306 40.6266 29.5312L39.6594 29.5306L39.657 29.5312H39.0625C36.9086 29.5312 35.1562 28.0593 35.1562 26.25V22.4188C35.1562 21.5854 35.7062 20.8359 36.5609 20.4553C37.6602 21.233 39.0367 21.6562 40.4914 21.6562H43.75C44.1805 21.6562 44.5312 21.9509 44.5312 22.3125V26.25ZM46.0938 25.5938V22.9688C46.9555 22.9688 47.6562 23.5574 47.6562 24.2812C47.6562 25.0051 46.9555 25.5938 46.0938 25.5938Z" fill="#947AC6"/>
<path d="M10.1562 17.0625H11.7188V18.375H10.1562V17.0625Z" fill="#947AC6"/>
<path d="M7.03125 17.0625H8.59375V18.375H7.03125V17.0625Z" fill="#947AC6"/>
<path d="M10.1562 27.5625H11.7188V28.875H10.1562V27.5625Z" fill="#947AC6"/>
<path d="M7.03125 27.5625H8.59375V28.875H7.03125V27.5625Z" fill="#947AC6"/>
<path d="M11.7188 22.3125H13.2812V23.625H11.7188V22.3125Z" fill="#947AC6"/>
<path d="M14.8438 22.3125H16.4062V23.625H14.8438V22.3125Z" fill="#947AC6"/>
<path d="M11.7188 32.8125H13.2812V34.125H11.7188V32.8125Z" fill="#947AC6"/>
<path d="M14.8438 32.8125H16.4062V34.125H14.8438V32.8125Z" fill="#947AC6"/>
</g>
<defs>
<clipPath id="clip0_460_671">
<rect width="50" height="42" fill="white"/>
</clipPath>
</defs>
</svg>
