<svg xmlns="http://www.w3.org/2000/svg" version="1.1" xmlns:xlink="http://www.w3.org/1999/xlink" xmlns:svgjs="http://svgjs.com/svgjs" width="512" height="512" x="0" y="0" viewBox="0 0 64 64" style="enable-background:new 0 0 512 512" xml:space="preserve" class=""><g><g data-name="shopping · shop · ecommerce · bill · online"><path fill="#7655b6" d="M8 13h48a2 2 0 0 1 2 2v30H6V15a2 2 0 0 1 2-2z" data-original="#004fac" class=""></path><path fill="#74f5db" d="M10 17h44v24H10z" data-original="#bddbff" class=""></path><path fill="#58595b" d="M61 57v2a2.006 2.006 0 0 1-2 2H5a2.006 2.006 0 0 1-2-2v-2z" data-original="#58595b" class=""></path><path fill="#939598" d="M61 57H3l3-12h52z" data-original="#939598"></path><path fill="#808285" d="M58 45h-2.726a9.654 9.654 0 0 1-9.643 10H3.5L3 57h58z" data-original="#808285"></path><path fill="#d1d3d4" d="M38 53H26l-1 4h14z" data-original="#d1d3d4"></path><path fill="#bcbec0" d="m25.5 55-.5 2h14l-.5-2z" data-original="#bcbec0" class=""></path><path fill="#9bc9ff" d="M30 41h24V17a24 24 0 0 1-24 24z" data-original="#9bc9ff" class=""></path><path fill="#74f5db" d="M51 7v2h8V7a4 4 0 0 0-8 0z" data-original="#ff5023" class=""></path><path fill="#9bc9ff" d="M58.126 4.532A3.989 3.989 0 0 1 59 7a3.964 3.964 0 0 0-.874-2.468z" data-original="#9bc9ff" class=""></path><path fill="#f5f772" d="M55 3H21a4 4 0 0 0-4 4v38h30a4 4 0 0 0 4-4V7a4 4 0 0 1 4-4z" data-original="#ffdaaa" class=""></path><path fill="#f5f772" d="M27 45h20a4 4 0 0 0 4-4V21a24 24 0 0 1-24 24z" data-original="#ffc477" class=""></path><path fill="#9bc9ff" d="M55 3a3.989 3.989 0 0 1 2.472.877A3.962 3.962 0 0 0 55 3zM58.126 4.532a4.131 4.131 0 0 0-.3-.362 4.392 4.392 0 0 0-.358-.293 4.052 4.052 0 0 1 .658.655z" data-original="#9bc9ff" class=""></path><path fill="#74f5db" d="M13 41a4 4 0 0 0 4 4h30a4 4 0 0 1-4-4v-4H13z" data-original="#ff5023" class=""></path><g fill="#231f20"><path d="M59 44.88V15a3.009 3.009 0 0 0-3-3h-4v-2h7a1 1 0 0 0 1-1V7a5 5 0 0 0-5-5H21a5 5 0 0 0-5 5v5H8a3.009 3.009 0 0 0-3 3v29.88L2.03 56.76 2 59a3.009 3.009 0 0 0 3 3h54a3.009 3.009 0 0 0 3-3v-2zM52 7a3 3 0 1 1 6 0v1h-6zm0 11h1v22h-1zm2 24a1 1 0 0 0 1-1V17a1 1 0 0 0-1-1h-2v-2h4a1 1 0 0 1 1 1v29h-6.03a4.84 4.84 0 0 0 .93-2zM18 7a3.009 3.009 0 0 1 3-3h30.03A4.924 4.924 0 0 0 50 7v2c0 .01.01.02.01.03s-.01.02-.01.03V41a3 3 0 0 1-6 0v-4a1 1 0 0 0-1-1H18zm24 31v3a4.985 4.985 0 0 0 1 3H17a3.009 3.009 0 0 1-3-3v-3zm-29-2a1 1 0 0 0-1 1v3h-1V18h5v18zM7 15a1 1 0 0 1 1-1h8v2h-6a1 1 0 0 0-1 1v24a1 1 0 0 0 1 1h2.1a4.84 4.84 0 0 0 .93 2H7zm-.22 31h50.44l2.5 10H39.78l-.81-3.24A1 1 0 0 0 38 52H26a1 1 0 0 0-.97.76L24.22 56H4.28zm30.94 10H26.28l.5-2h10.44zM60 59a1 1 0 0 1-1 1H5a1 1 0 0 1-1-1v-1h56z" fill="#231f20" data-original="#231f20"></path><path d="M37 48h2v2h-2zM9 48h2v2H9zM13 48h2v2h-2zM17 48h2v2h-2zM21 48h2v2h-2zM41 48h2v2h-2zM45 48h2v2h-2zM49 48h2v2h-2zM25 48h2v2h-2zM29 48h2v2h-2zM33 48h2v2h-2zM53 48h2v2h-2zM41 52h6v2h-6zM49 52h2v2h-2zM53 52h2v2h-2zM9 52h2v2H9zM13 52h2v2h-2zM17 52h6v2h-6zM34 16c-1.221 0-2-.592-2-1a1 1 0 0 0-2 0c0 1.421 1.259 2.571 3 2.9V19a1 1 0 0 0 2 0v-1.1c1.741-.327 3-1.477 3-2.9 0-1.682-1.757-3-4-3-1.221 0-2-.592-2-1s.779-1 2-1 2 .592 2 1a1 1 0 0 0 2 0c0-1.421-1.259-2.571-3-2.9V7a1 1 0 0 0-2 0v1.1c-1.741.327-3 1.477-3 2.9 0 1.682 1.757 3 4 3 1.221 0 2 .592 2 1s-.779 1-2 1zM29 26h16a1 1 0 0 0 0-2H29a1 1 0 0 0 0 2zM29 30h16a1 1 0 0 0 0-2H29a1 1 0 0 0 0 2zM29 34h16a1 1 0 0 0 0-2H29a1 1 0 0 0 0 2zM23 26h2a1 1 0 0 0 0-2h-2a1 1 0 0 0 0 2zM23 30h2a1 1 0 0 0 0-2h-2a1 1 0 0 0 0 2zM23 34h2a1 1 0 0 0 0-2h-2a1 1 0 0 0 0 2z" fill="#231f20" data-original="#231f20"></path></g></g></g></svg>