<svg height="511pt" viewBox="0 -122 511.99818 511" width="511pt" xmlns="http://www.w3.org/2000/svg"><path d="m7.5 224.308594 82.078125-190.265625c2.425781-5.628907 6.082031-10.683594 10.863281-14.519531 8.992188-7.207032 20.40625-11.519532 32.824219-11.519532h245.457031c12.425782 0 23.839844 4.3125 32.832032 11.519532 4.78125 3.835937 8.441406 8.890624 10.867187 14.519531l82.078125 190.265625c-14.617188-18.140625-37.019531-29.738282-62.132812-29.738282-25.101563 0-47.503907 11.597657-62.117188 29.738282-14.617188-18.140625-37.019531-29.738282-62.132812-29.738282-25.101563 0-47.503907 11.597657-62.117188 29.738282-14.617188-18.140625-37.019531-29.738282-62.132812-29.738282-25.101563 0-47.503907 11.597657-62.117188 29.738282-14.617188-18.140625-37.019531-29.738282-62.132812-29.738282-25.097657 0-47.5 11.597657-62.117188 29.738282zm0 0" fill="#ea6789"/><path d="m422.421875 34.042969c-2.429687-5.628907-6.085937-10.683594-10.867187-14.519531-8.992188-7.207032-20.40625-11.519532-32.832032-11.519532-4.484375 0-8.839844.5625-12.996094 1.621094 11.164063 2.84375 20.898438 9.257812 27.910157 17.960938l73.761719 170.992187c14.738281 4.863281 27.574218 13.90625 37.101562 25.730469zm0 0" fill="#c7416a"/><path d="m7.5 224.308594c14.617188-18.140625 37.015625-29.738282 62.117188-29.738282 25.113281 0 47.515624 11.597657 62.132812 29.738282 14.617188-18.140625 37.015625-29.738282 62.117188-29.738282 25.113281 0 47.515624 11.597657 62.132812 29.738282 14.613281-18.140625 37.015625-29.738282 62.117188-29.738282 25.113281 0 47.515624 11.597657 62.132812 29.738282 14.613281-18.140625 37.015625-29.738282 62.117188-29.738282 25.113281 0 47.515624 11.597657 62.132812 29.738282v27.246094c0 3.859374-4.609375 5.855468-7.414062 3.210937-14.277344-13.472656-33.535157-21.726563-54.71875-21.726563-23.308594 0-44.289063 10-58.871094 25.953126-1.730469 1.898437-4.761719 1.898437-6.496094 0-14.582031-15.953126-35.5625-25.953126-58.882812-25.953126-23.308594 0-44.289063 10-58.871094 25.953126-1.730469 1.898437-4.761719 1.898437-6.496094 0-14.582031-15.953126-35.5625-25.953126-58.882812-25.953126-23.308594 0-44.289063 10-58.867188 25.953126-1.734375 1.898437-4.765625 1.898437-6.5 0-14.582031-15.953126-35.5625-25.953126-58.882812-25.953126-21.171876 0-40.425782 8.253907-54.707032 21.726563-2.804687 2.644531-7.410156.644531-7.410156-3.210937zm0 0" fill="#eab875"/><path d="m467.398438 198.578125v38.46875c11.199218 3.695313 21.304687 9.808594 29.691406 17.71875 2.800781 2.648437 7.410156.648437 7.410156-3.207031v-27.246094c-9.527344-11.828125-22.363281-20.871094-37.101562-25.734375zm0 0" fill="#c68d4e"/><path d="m511.410156 221.398438c-.003906-.011719-.007812-.019532-.011718-.03125-.003907-.007813-.007813-.019532-.011719-.027344l-82.078125-190.269532c-2.988282-6.925781-7.503906-12.941406-13.0625-17.394531-10.589844-8.492187-23.917969-13.171875-37.523438-13.171875h-44.835937c-.191407-.003906-.378907-.003906-.570313 0h-77.085937c-.074219 0-.152344-.003906-.230469-.003906s-.15625.003906-.230469.003906h-77.078125c-.195312-.007812-.394531-.007812-.585937 0h-35.773438c-4.140625 0-7.5 3.359375-7.5 7.5 0 4.144532 3.359375 7.5 7.5 7.5h26.789063l-13.523438 62.683594c-12.230468-9.820312-27.578125-15.269531-43.75-15.269531-10.277344 0-20.253906 2.222656-29.308594 6.378906l13.921876-32.277344c2.03125-4.707031 5.054687-8.75 8.742187-11.699219 0 0 6.40625-4.464843 9.921875-6.011718 3.789062-1.671875 5.507812-6.097656 3.835938-9.890625-1.671876-3.789063-6.101563-5.503907-9.890626-3.835938-4.6875 2.066407-9.101562 4.734375-13.121093 7.933594-.007813.003906-.101563.082031-.105469.085937-5.605469 4.476563-10.15625 10.519532-13.15625 17.476563l-52.839844 122.488281c-.070312.152344-.136718.304688-.195312.460938l-29.039063 67.3125c-.003906.007812-.007812.019531-.011719.027344-.003906.011718-.007812.019531-.011718.03125-.410156.972656-.6015628 1.988281-.589844 2.992187v27.167969c0 4.757812 2.824219 9.046875 7.191406 10.933594 4.359375 1.878906 9.414063.992187 12.867188-2.269532 13.449218-12.691406 31.050781-19.679687 49.5625-19.679687 20.242187 0 39.6875 8.570312 53.34375 23.507812 2.242187 2.457031 5.445312 3.867188 8.785156 3.867188s6.542969-1.410157 8.785156-3.863281c13.65625-14.941407 33.097656-23.511719 53.335938-23.511719 20.242187 0 39.6875 8.570312 53.34375 23.507812 2.242187 2.457031 5.445312 3.867188 8.785156 3.867188s6.542969-1.410157 8.785156-3.863281c13.65625-14.941407 33.097656-23.511719 53.332032-23.511719 20.246093 0 39.691406 8.570312 53.347656 23.507812 2.242187 2.457031 5.445312 3.867188 8.785156 3.867188s6.542969-1.410157 8.785156-3.863281c9.878906-10.808594 22.585938-18.277344 36.757813-21.605469 4.03125-.945313 6.53125-4.980469 5.585937-9.015625-.945312-4.03125-4.980468-6.53125-9.015625-5.585938-16.046875 3.765625-30.539062 11.925782-42.113281 23.675782-16.339844-16.550782-38.796875-25.980469-62.132812-25.980469-23.328126 0-45.777344 9.429687-62.117188 25.984375-16.339844-16.554688-38.792969-25.984375-62.128906-25.984375-23.328125 0-45.78125 9.429687-62.121094 25.984375-16.335938-16.554688-38.792969-25.984375-62.128906-25.984375-20.023438 0-39.167969 6.773437-54.621094 19.203125v-17.71875c29.613281-34.230469 82.835938-32.855469 110.910156 1.988281.105469.085937 1.628906 2.265625 4.742188 2.714844 2.8125.394531 5.402344-.746094 7.011718-2.804688 13.792969-17.066406 34.273438-26.851562 56.207032-26.851562 20.757812 0 40.304687 7.9375 56.433594 27.117187.105468.125.195312.222656.292968.320313.179688.191406.421875.414062.605469.5625 1.3125 1.09375 3.082031 1.789062 5.003906 1.734375 1.816407-.058594 3.457031-.734375 4.738281-1.859375.09375-.082031.203126-.179688.292969-.269531.125-.125.210938-.210938.324219-.339844.101562-.113282.160156-.179688.265625-.3125.003906-.003906.007813-.007813.011719-.011719 13.796875-17.121094 34.308594-26.941406 56.277344-26.941406 37.628906 0 57.269531 27.949219 57.167968 27.859375 6.019532 5.292968 11.914063-1.886719 10.679688-.765625 32.136718-37.683594 83.5-33.949219 111.035156-2.140625v17.714844c-12.046875-9.695313-26.332031-15.964844-41.703125-18.25-4.089844-.597657-7.910156 2.21875-8.519531 6.316406s2.21875 7.914062 6.316406 8.523437c14.613281 2.167969 28.046875 8.703125 38.847656 18.886719 3.453125 3.261719 8.503906 4.152344 12.863282 2.273438 4.371093-1.886719 7.191406-6.175782 7.191406-10.933594v-27.167969c.015625-1.003906-.175782-2.019531-.585938-2.992187zm-384.011718-12.480469c-27.667969-24.511719-68.230469-28.835938-100.457032-10.738281l16.101563-37.324219c12.027343-13.1875 29.210937-20.730469 47.328125-20.730469 18.253906 0 35.347656 7.535156 47.382812 20.78125zm14.070312-65.230469c-14.097656-11.921875-32.097656-18.5625-51.097656-18.5625-12.496094 0-24.640625 2.917969-35.515625 8.34375l16.121093-37.371094c10.296876-11.566406 25.128907-18.179687 40.871094-18.179687 15.390625 0 29.816406 6.261719 40.078125 17.285156zm107.03125 62.570312c-15.339844-12.347656-34.476562-19.1875-54.632812-19.1875-18.074219 0-35.335938 5.503907-49.769532 15.550782l8.902344-41.253906c12.054688-13.53125 29.328125-21.242188 47.785156-21.242188 18.421875 0 35.664063 7.675781 47.714844 21.144531zm0-65.273437c-13.539062-10.21875-30.203125-15.859375-47.714844-15.859375-15.378906 0-30.101562 4.351562-42.628906 12.335938l8.925781-41.390626c10.304688-11.5625 25.074219-18.15625 40.863281-18.15625 15.628907 0 30.261719 6.457032 40.554688 17.804688zm0-65.214844c-11.660156-8.292969-25.765625-12.851562-40.554688-12.851562-12.84375 0-25.164062 3.4375-35.816406 9.773437l12.335938-57.1875h64.035156zm130.222656-60.265625c10.355469 0 20.085938 3.414063 28.140625 9.871094 3.652344 2.929688 6.652344 6.953125 8.671875 11.636719l13.925782 32.285156c-9.058594-4.15625-19.039063-6.378906-29.320313-6.378906-16.164063 0-31.511719 5.449219-43.738281 15.269531l-13.523438-62.683594zm-115.222656 0h64.035156l12.335938 57.1875c-10.65625-6.335937-22.984375-9.773437-35.828125-9.773437-14.789063 0-28.886719 4.558593-40.542969 12.851562zm0 80.214844c10.289062-11.347656 24.917969-17.800781 40.542969-17.800781 15.792969 0 30.566406 6.589843 40.871093 18.152343l8.929688 41.390626c-12.53125-7.984376-27.257812-12.335938-42.644531-12.335938-17.507813 0-34.164063 5.640625-47.699219 15.859375zm54.617188 91.351562c-20.148438 0-39.28125 6.839844-54.617188 19.1875v-44.984374c12.050781-13.472657 29.285156-21.148438 47.703125-21.148438 18.464844 0 35.742187 7.710938 47.796875 21.242188l8.898438 41.257812c-14.433594-10.046875-31.695313-15.554688-49.78125-15.554688zm41.953124-91.867187c10.265626-11.023437 24.683594-17.285156 40.070313-17.285156 15.75 0 30.585937 6.613281 40.882813 18.179687l16.121093 37.371094c-10.878906-5.425781-23.023437-8.34375-35.527343-8.34375-18.996094 0-36.992188 6.640625-51.085938 18.5625zm24.53125 113.714844-10.355468-48.011719c12.03125-13.246094 29.125-20.78125 47.371094-20.78125 18.125 0 35.308593 7.542969 47.339843 20.730469l16.105469 37.324219c-31.636719-17.757813-72.234375-14.273438-100.460938 10.738281zm0 0"/></svg>