<svg xmlns="http://www.w3.org/2000/svg" version="1.1" xmlns:xlink="http://www.w3.org/1999/xlink" xmlns:svgjs="http://svgjs.com/svgjs" width="512" height="512" x="0" y="0" viewBox="0 0 512 512" style="enable-background:new 0 0 512 512" xml:space="preserve" class=""><g><path fill="#011c27" d="M182.1 265H83.8c-6.3 0-11.5 5.1-11.5 11.5v31.9c0 6.4 5.2 11.5 11.5 11.5h98.3c6.4 0 11.5-5.1 11.5-11.5v-31.9c0-6.4-5.2-11.5-11.5-11.5zm-5 38.4H88.8v-21.9h88.3z" data-original="#011c27"></path><path fill="#011c27" d="M467.6 301.4h-6.1v-54.5c0-15.8-9.3-29.5-22.6-36.1 1.2-.6 2.5-1.3 3.7-1.9 14.1-5.7 21.6-8.1 37.9-10.9 2.6-.4 4.9-2.1 6.1-4.5s1.1-5.2-.2-7.6c-5.5-10-8.9-16.5-13.2-24.3l-6-11.1-.1-.1-17.3-32c-8.8-16.3-16.7-30.9-28.2-52.2l-.1-.1c-5.6-10.2-9.1-16.7-13.5-24.9l-5.7-10.5c-1.7-3.1-5.1-4.8-8.7-4.3-17.7 2.9-26.2 5.6-41.5 11.8-.1.1-.1.1-.2.1-.1.1-.2.1-.2.1-7.9 3.8-16.1 8.1-24.7 13.1l-3.1-3.7c-3.4-4.1-7-8.3-10.9-13L287.3 4c-2.3-2.7-6-3.7-9.3-2.4-16.9 6.5-24.7 10.8-38.3 19.9l-.2.2c-.1 0-.1.1-.1.1-34.7 26.1-62.3 58.7-88.9 90.2-7 8.3-14.2 16.8-21.5 25.2H83c-36.1 0-65.4 29.3-65.4 65.4v300.2c0 4.6 3.7 8.3 8.3 8.3h395.4c22.2 0 40.3-18.1 40.3-40.3v-54.4h11.8c11.6 0 21-9.4 21-21.1v-67.1c0-14.8-12-26.8-26.8-26.8zm-16.7-134.5c.3-.3.7-.6 1-.8 1.2-.8 2.4-1.5 3.8-2l2.9 5.4c2.7 5 5 9.4 7.8 14.4-8.3 1.8-14.7 3.8-22.5 6.7-.1-.2-.1-.4-.1-.6-.3-1.1-.5-2.2-.6-3.3-.1-.3-.1-.6-.1-.9-.1-1.3-.2-2.7-.1-3.9 0-.1 0-.2.1-.3.1-1.2.3-2.4.6-3.5.1-.2.1-.5.2-.7.4-1.2.8-2.4 1.3-3.6l.1-.1c.6-1.3 1.4-2.4 2.3-3.5.3-.3.6-.7.9-1 .7-.9 1.5-1.6 2.4-2.3zm-60.2-123 2.9 5.2c2.5 4.7 4.8 8.9 7.3 13.6-.8-.1-1.6 0-2.4-.1-.6-.1-1.2-.1-1.8-.2-2-.2-4-.6-5.9-1-.7-.2-1.4-.3-2.1-.6-1.5-.4-3.1-.9-4.6-1.4-.6-.2-1.2-.4-1.8-.7-1.6-.7-3.1-1.4-4.6-2.2-.6-.3-1.2-.7-1.7-1-1.6-1-3.1-2-4.5-3.2-.3-.3-.7-.6-1-.9-.7-.6-1.2-1.2-1.8-1.8 7.2-2.4 13.3-4.1 22-5.7zm-38.2 12.8c10.6 13.8 28.1 22 47.6 22.6.5.1.9.1 1.4.1.4 0 .9.1 1.3.1 2.3 0 4.5-.1 6.8-.3h.1c10.1 18.7 17.4 32.2 25.5 47.2l12.5 23.1c-.3.2-.6.3-.8.5-1.3.7-2.6 1.3-3.8 2.1-.4.3-.8.5-1.2.8-1.5 1-2.9 2.2-4.1 3.4-.4.3-.7.7-1 1-1 1-1.9 2.1-2.8 3.2-.3.4-.7.9-1 1.4-1 1.4-1.9 2.9-2.7 4.5-.1.1-.1.2-.2.2-.7 1.4-1.2 2.8-1.7 4.2l-.3.9c-.3 1.2-.7 2.3-.9 3.5l-.3 1.2c-.2 1.2-.3 2.4-.4 3.6-.1.3-.1.7-.1 1-.2 3-.1 6.1.4 9.2.1.4.2.9.3 1.4.2 1 .4 2.2.7 3.2.1.6.3 1.1.4 1.7.1.3.2.7.3 1-5.7 2.9-11.5 6.1-17.2 9.4h-89.8l.5-.5c3-3.1 6-6.1 8.9-8.9.9-.8 1.7-1.7 2.6-2.5 2.3-2.2 4.6-4.3 6.8-6.3l2.4-2.1c2.6-2.3 5.2-4.5 7.8-6.7 1.2-.9 2.3-1.8 3.4-2.7 2.1-1.7 4.1-3.3 6.2-4.9.7-.5 1.3-1 2-1.5 12.4-8.2 19.2-12 34.8-17.9 2.5-1 4.4-3.1 5.1-5.7s.1-5.3-1.7-7.4l-8-9.6c-3-3.6-5.7-6.9-8.7-10.4-2-2.4-4.2-5-6.6-7.8-.9-1-1.7-2-2.7-3.2-10.7-12.9-19.1-23-27.2-32.6-.9-1.1-1.9-2.3-2.8-3.4-.1-.1-.2-.3-.3-.4l-6.3-7.5c5.3-3.2 10.1-5.8 14.8-8.2zm4.5 83.4c0-.3.1-.6.1-.9.1-1.3.3-2.5.6-3.7.3-1.4.9-2.8 1.6-4 .2-.4.4-.8.7-1.1.6-.9 1.2-1.8 1.9-2.6.3-.3.6-.7.8-.9 1-1 2.1-1.9 3.4-2.7 5.1 6 9.1 10.8 13.7 16.3l.7.8c-1.7.8-3.3 1.5-4.9 2.2-.5.2-1 .5-1.5.7l-3.6 1.8c-.7.3-1.3.7-1.9 1-.9.5-1.8 1-2.8 1.5-.7.4-1.5.9-2.2 1.3-.6.4-1.2.8-1.8 1.1-.7.4-1.4.8-2 1.3l-.3-.6c-.5-1-.9-2-1.2-3l-.3-.9c-.3-1.3-.7-2.5-.8-3.8 0-.2 0-.3-.1-.5-.1-1.1-.1-2.2-.1-3.3zM278.4 19.2l13.7 16.5c-.9.1-1.8.3-2.6.4-.5.1-.9.1-1.4.2-2.1.2-4.2.2-6.3.2-.6-.1-1.2-.1-1.7-.1-1.9-.1-3.8-.3-5.6-.6-.3 0-.5-.1-.8-.1-2-.3-3.9-.9-5.9-1.5-.4-.2-.9-.3-1.4-.4-1.9-.7-3.7-1.4-5.4-2.4-.2-.1-.5-.3-.7-.4-.8-.4-1.5-1-2.3-1.5 6.5-4.1 12.2-7 20.4-10.3zM119.5 172c1.4-1.5 2.8-2.9 4.1-4.4.9-1 1.9-2 2.8-3 1.4-1.5 2.8-3 4.1-4.6.8-.8 1.6-1.7 2.3-2.5 1.9-2 3.7-4.1 5.4-6.1.2-.2.3-.4.5-.6h.1c8.2-9.3 16.3-18.9 24.1-28.2 24.6-29 49.9-59 80.5-83.3.4.3.9.6 1.3.9 1.2 1 2.4 1.9 3.8 2.8.7.4 1.4.9 2.1 1.3 1.4.8 2.8 1.6 4.2 2.3.7.3 1.3.7 2 1 2 .9 4.1 1.7 6.2 2.4.2.1.3.1.4.2 2.3.7 4.6 1.2 7 1.7.7.2 1.5.2 2.3.3 1.7.3 3.4.4 5.1.6.9.1 1.8.1 2.7.1.8 0 1.5.1 2.2.1.9 0 1.9-.1 2.9-.1.8-.1 1.7-.1 2.6-.2 2-.1 4.1-.4 6.2-.7.5-.1 1-.1 1.5-.2 2.6-.5 5.1-1.1 7.7-1.8.2-.1.3-.1.5-.1 2.5 3 4.9 5.9 7.2 8.6l7.6 9.1 3.5 4.2c3 3.6 6 7.2 8.9 10.7.2.2.3.3.4.6 2.8 3.3 5.6 6.7 8.6 10.2.2.2.4.5.6.7 1.4 1.7 2.8 3.3 4.2 5 .2.2.3.4.5.6 1.3 1.5 2.6 3.1 3.9 4.6 1.9 2.3 3.8 4.5 5.8 7-.3.2-.4.4-.7.6-1.2.9-2.4 1.9-3.4 2.9-.3.3-.6.6-.9.8-1.3 1.3-2.4 2.7-3.5 4.2-.2.3-.4.7-.7 1-.8 1.2-1.5 2.5-2.2 3.8-.2.5-.4.9-.7 1.4-.7 1.7-1.4 3.4-1.9 5.2-.3 1.4-.6 2.9-.8 4.4-.1.4-.1.9-.1 1.4-.1 1-.2 2.1-.2 3.1v1.6c.1 1 .1 2.1.2 3.1.1.4.1.9.1 1.4.2 1.5.5 3 .9 4.4 0 .1.1.2.1.2.3 1.4.8 2.8 1.3 4.2.2.4.3.9.5 1.3.4 1 .9 2 1.4 3.1.2.4.4.9.7 1.4.2.3.3.7.5 1l-.2.2c-.6.4-1.2.9-1.8 1.4l-4.5 3.6c-.8.7-1.7 1.4-2.5 2.1-1.3 1.1-2.5 2.2-3.8 3.3l-2.7 2.4c-1.3 1.2-2.5 2.3-3.8 3.4-.9.8-1.8 1.7-2.7 2.5-1.3 1.3-2.7 2.5-4 3.8-.8.8-1.7 1.6-2.5 2.4-1.9 1.9-3.8 3.8-5.7 5.8-.8.7-1.5 1.5-2.3 2.3-1.7 1.8-3.4 3.5-5.1 5.4-.9.9-1.9 1.9-2.8 2.9s-1.9 2.1-2.9 3.2H82.1c.3-.3.6-.6.9-.8 1.3-1 2.4-2 3.6-3l5.4-4.5c1.3-1.1 2.5-2.2 3.7-3.3 1.7-1.5 3.3-3 4.9-4.5l3.6-3.3c1.5-1.5 3-2.9 4.6-4.4 1.1-1.1 2.3-2.2 3.4-3.3 1.4-1.5 2.9-2.9 4.3-4.4.9-.8 2-1.9 3-2.9zm-85.3 30.5c0-26.9 21.9-48.8 48.8-48.8h31.1l-.2.2c-3 3.3-6.2 6.6-9.4 9.9l-2.5 2.5c-3.3 3.3-6.7 6.7-10.3 10.1l-.4.4c-3.6 3.4-7.5 6.8-11.4 10.2-.9.9-1.9 1.7-2.9 2.5-4 3.4-8.2 6.7-12.4 10-1.3.8-2.5 1.7-3.6 2.4-.4.2-.7.4-1 .7-.8.5-1.5.9-2.2 1.4-.4.3-.8.5-1.2.7-.6.4-1.2.7-1.8 1.1-.3.2-.7.4-1 .6-.2.1-.3.2-.5.3H34.2zM445 470.7c0 13.1-10.7 23.7-23.7 23.7H34.2v-30.8H445zm0-23.6H34.2V223.3h387.1c13 0 23.7 10.6 23.7 23.6v54.5h-38.1c-31.6 0-57.4 25.7-57.4 57.4 0 15.3 6 29.7 16.8 40.7 10.9 10.8 25.3 16.8 40.6 16.8H445zm32.8-51.9c0 2.5-2 4.5-4.5 4.5h-66.5c-10.8 0-21.1-4.3-28.9-12-7.7-7.8-12-18.1-12-28.9 0-22.5 18.3-40.9 40.9-40.9h60.7c5.6 0 10.2 4.5 10.2 10.1v67.2z" data-original="#011c27"></path><path fill="#74f5db" d="M447.8 149.4c-.3.2-.6.3-.8.5-1.3.7-2.6 1.3-3.8 2.1-.4.3-.8.5-1.2.8-1.5 1-2.9 2.2-4.1 3.4-.4.3-.7.7-1 1-1 1-1.9 2.1-2.8 3.2-.3.4-.7.9-1 1.4-1 1.4-1.9 2.9-2.7 4.5-.1.1-.1.2-.2.2-.7 1.4-1.2 2.8-1.7 4.2l-.3.9c-.3 1.2-.7 2.3-.9 3.5l-.3 1.2c-.2 1.2-.3 2.4-.4 3.6-.1.3-.1.7-.1 1-.2 3-.1 6.1.4 9.2.1.4.2.9.3 1.4.2 1 .4 2.2.7 3.2.1.6.3 1.1.4 1.7.1.3.2.7.3 1-5.7 2.9-11.5 6.1-17.2 9.4h-89.8l.5-.5c3-3.1 6-6.1 8.9-8.9.9-.8 1.7-1.7 2.6-2.5 2.3-2.2 4.6-4.3 6.8-6.3l2.4-2.1c2.6-2.3 5.2-4.5 7.8-6.7 1.2-.9 2.3-1.8 3.4-2.7 2.1-1.7 4.1-3.3 6.2-4.9.7-.5 1.3-1 2-1.5 12.4-8.2 19.2-12 34.8-17.9 2.5-1 4.4-3.1 5.1-5.7s.1-5.3-1.7-7.4l-8-9.6c-3-3.6-5.7-6.9-8.7-10.4-2-2.4-4.2-5-6.6-7.8-.9-1-1.7-2-2.7-3.2-10.7-12.9-19.1-23-27.2-32.6-.9-1.1-1.9-2.3-2.8-3.4-.1-.1-.2-.3-.3-.4l-6.3-7.5c5-2.9 9.8-5.5 14.6-7.9 10.6 13.8 28.1 22 47.6 22.6.5.1.9.1 1.4.1.4 0 .9.1 1.3.1 2.3 0 4.5-.1 6.8-.3h.1c10.1 18.7 17.4 32.2 25.5 47.2z" data-original="#e9efff" class=""></path><path fill="#7655b6" d="M406.9 301.4H445v-54.5c0-13-10.7-23.6-23.7-23.6H34.2v223.8H445v-30.8h-38.1c-15.2 0-29.6-6-40.6-16.8-10.9-11-16.8-25.4-16.8-40.7-.1-31.7 25.7-57.4 57.4-57.4zm-213.3 7c0 6.4-5.2 11.5-11.5 11.5H83.8c-6.3 0-11.5-5.1-11.5-11.5v-31.9c0-6.4 5.2-11.5 11.5-11.5h98.3c6.4 0 11.5 5.1 11.5 11.5z" data-original="#1886ea" class=""></path><g fill="#9bd8f9"><path d="M466.4 183.9c-8.3 1.8-14.7 3.8-22.5 6.7-.1-.2-.1-.4-.1-.6-.3-1.1-.5-2.2-.6-3.3-.1-.3-.1-.6-.1-.9-.1-1.3-.2-2.7-.1-3.9 0-.1 0-.2.1-.3.1-1.2.3-2.4.6-3.5.1-.2.1-.5.2-.7.4-1.2.8-2.4 1.3-3.6l.1-.1c.6-1.3 1.4-2.4 2.3-3.5.3-.3.6-.7.9-1 .7-.8 1.5-1.5 2.4-2.2.3-.3.7-.6 1-.8 1.2-.8 2.4-1.5 3.8-2l2.9 5.4c2.7 4.8 5.1 9.2 7.8 14.3zM380.5 141.3c-1.7.8-3.3 1.5-4.9 2.2-.5.2-1 .5-1.5.7l-3.6 1.8c-.7.3-1.3.7-1.9 1-.9.5-1.8 1-2.8 1.5-.7.4-1.5.9-2.2 1.3-.6.4-1.2.8-1.8 1.1-.7.4-1.4.8-2 1.3l-.3-.6c-.5-1-.9-2-1.2-3l-.3-.9c-.3-1.3-.7-2.5-.8-3.8 0-.2 0-.3-.1-.5-.1-1.1-.1-2.2-.1-3.3 0-.3.1-.6.1-.9.1-1.3.3-2.5.6-3.7.3-1.4.9-2.8 1.6-4 .2-.4.4-.8.7-1.1.6-.9 1.2-1.8 1.9-2.6.3-.3.6-.7.8-.9 1-1 2.1-1.9 3.4-2.7 5.1 6 9.1 10.8 13.7 16.3zM292.1 35.6c-.9.1-1.8.3-2.6.4-.5.1-.9.1-1.4.2-2.1.2-4.2.2-6.3.2-.6-.1-1.2-.1-1.7-.1-1.9-.1-3.8-.3-5.6-.6-.3 0-.5-.1-.8-.1-2-.3-3.9-.9-5.9-1.5-.4-.2-.9-.3-1.4-.4-1.9-.7-3.7-1.4-5.4-2.4-.2-.1-.5-.3-.7-.4-.8-.4-1.5-1-2.3-1.5 6.5-4 12.1-6.8 20.4-10.2zM400.9 62.7c-.8-.1-1.6 0-2.4-.1-.6-.1-1.2-.1-1.8-.2-2-.2-4-.6-5.9-1-.7-.2-1.4-.3-2.1-.6-1.5-.4-3.1-.9-4.6-1.4-.6-.2-1.2-.4-1.8-.7-1.6-.7-3.1-1.4-4.6-2.2-.6-.3-1.2-.7-1.7-1-1.6-1-3.1-2-4.5-3.2-.3-.3-.7-.6-1-.9-.7-.6-1.2-1.2-1.8-1.8 7.2-2.6 13.3-4.3 22.1-5.9l2.9 5.2c2.5 5 4.7 9.1 7.2 13.8z" fill="#9bd8f9" data-original="#9bd8f9" class=""></path></g><path fill="#74f5db" d="M355.4 111.3c-.3.2-.4.4-.7.6-1.2.9-2.4 1.9-3.4 2.9-.3.3-.6.6-.9.8-1.3 1.3-2.4 2.7-3.5 4.2-.2.3-.4.7-.7 1-.8 1.2-1.5 2.5-2.2 3.8-.2.5-.4.9-.7 1.4-.7 1.7-1.4 3.4-1.9 5.2-.3 1.4-.6 2.9-.8 4.4-.1.4-.1.9-.1 1.4-.1 1-.2 2.1-.2 3.1v1.6c.1 1 .1 2.1.2 3.1.1.4.1.9.1 1.4.2 1.5.5 3 .9 4.4 0 .1.1.2.1.2.3 1.4.8 2.8 1.3 4.2.2.4.3.9.5 1.3.4 1 .9 2 1.4 3.1.2.4.4.9.7 1.4.2.3.3.7.5 1l-.2.2c-.6.4-1.2.9-1.8 1.4l-4.5 3.6c-.8.7-1.7 1.4-2.5 2.1-1.3 1.1-2.5 2.2-3.8 3.3l-2.7 2.4c-1.3 1.2-2.5 2.3-3.8 3.4-.9.8-1.8 1.7-2.7 2.5-1.3 1.3-2.7 2.5-4 3.8-.8.8-1.7 1.6-2.5 2.4-1.9 1.9-3.8 3.8-5.7 5.8-.8.7-1.5 1.5-2.3 2.3-1.7 1.8-3.4 3.5-5.1 5.4-.9.9-1.9 1.9-2.8 2.9s-1.9 2.1-2.9 3.2H82.1c.3-.3.6-.6.9-.8 1.3-1 2.4-2 3.6-3l5.4-4.5c1.3-1.1 2.5-2.2 3.7-3.3 1.7-1.5 3.3-3 4.9-4.5l3.6-3.3c1.5-1.5 3-2.9 4.6-4.4 1.1-1.1 2.3-2.2 3.4-3.3 1.4-1.5 2.9-2.9 4.3-4.4 1-1.1 2.1-2.2 3.1-3.3 1.4-1.5 2.8-2.9 4.1-4.4.9-1 1.9-2 2.8-3 1.4-1.5 2.8-3 4.1-4.6.8-.8 1.6-1.7 2.3-2.5 1.9-2 3.7-4.1 5.4-6.1.2-.2.3-.4.5-.6h.1c8.2-9.3 16.3-18.9 24.1-28.2 24.6-29 49.9-59 80.5-83.3.4.3.9.6 1.3.9 1.2 1 2.4 1.9 3.8 2.8.7.4 1.4.9 2.1 1.3 1.4.8 2.8 1.6 4.2 2.3.7.3 1.3.7 2 1 2 .9 4.1 1.7 6.2 2.4.2.1.3.1.4.2 2.3.7 4.6 1.2 7 1.7.7.2 1.5.2 2.3.3 1.7.3 3.4.4 5.1.6.9.1 1.8.1 2.7.1.8 0 1.5.1 2.2.1.9 0 1.9-.1 2.9-.1.8-.1 1.7-.1 2.6-.2 2-.1 4.1-.4 6.2-.7.5-.1 1-.1 1.5-.2 2.6-.5 5.1-1.1 7.7-1.8.2-.1.3-.1.5-.1 2.5 3 4.9 5.9 7.2 8.6l7.6 9.1 3.5 4.2c3 3.6 6 7.2 8.9 10.7.2.2.3.3.4.6 2.8 3.3 5.6 6.7 8.6 10.2.2.2.4.5.6.7 1.4 1.7 2.8 3.3 4.2 5 .2.2.3.4.5.6 1.3 1.5 2.6 3.1 3.9 4.6 1.9 2.7 3.8 5 5.8 7.4z" data-original="#e9efff" class=""></path><g fill="#2a428c"><path d="m114.1 153.7-.2.2c-3 3.3-6.2 6.6-9.4 9.9l-2.5 2.5c-3.3 3.3-6.7 6.7-10.3 10.1l-.4.4c-3.6 3.4-7.5 6.8-11.4 10.2-.9.9-1.9 1.7-2.9 2.5-4 3.4-8.2 6.7-12.4 10-1.3.8-2.5 1.7-3.6 2.4-.4.2-.7.4-1 .7-.8.5-1.5.9-2.2 1.4-.4.3-.8.5-1.2.7-.6.4-1.2.7-1.8 1.1-.3.2-.7.4-1 .6-.2.1-.3.2-.5.3H34.2v-4.3c0-26.9 21.9-48.8 48.8-48.8h31.1zM477.8 328.1v67.1c0 2.5-2 4.5-4.5 4.5h-66.5c-10.8 0-21.1-4.3-28.9-12-7.7-7.8-12-18.1-12-28.9 0-22.5 18.3-40.9 40.9-40.9h60.7c5.7.1 10.3 4.6 10.3 10.2zM445 463.7v7.1c0 13.1-10.7 23.7-23.7 23.7H34.2v-30.8zM88.8 281.5h88.3v21.9H88.8z" fill="#f5f772" data-original="#2a428c" class=""></path></g></g></svg>