<svg id="Filloutline" enable-background="new 0 0 128 128" height="512" viewBox="0 0 128 128" width="512" xmlns="http://www.w3.org/2000/svg" xmlns:xlink="http://www.w3.org/1999/xlink"><linearGradient id="lg1"><stop offset="0" stop-color="#6c6f73"/><stop offset="1" stop-color="#56585b"/></linearGradient><linearGradient id="SVGID_1_" gradientUnits="userSpaceOnUse" x1="107" x2="107" xlink:href="#lg1" y1="37.25" y2="112.01"/><linearGradient id="lg2"><stop offset="0" stop-color="#58595b"/><stop offset="1" stop-color="#414042"/></linearGradient><linearGradient id="SVGID_3_" gradientUnits="userSpaceOnUse" x1="92" x2="98" xlink:href="#lg2" y1="63" y2="63"/><linearGradient id="SVGID_4_" gradientUnits="userSpaceOnUse" x1="87" x2="103" xlink:href="#lg1" y1="118" y2="118"/><linearGradient id="SVGID_5_" gradientUnits="userSpaceOnUse" x1="21" x2="21" xlink:href="#lg1" y1="37.25" y2="112.011"/><linearGradient id="SVGID_7_" gradientUnits="userSpaceOnUse" x1="30" x2="36" xlink:href="#lg2" y1="63" y2="63"/><linearGradient id="SVGID_8_" gradientUnits="userSpaceOnUse" x1="12" x2="118" y1="63.5" y2="63.5"><stop offset="0" stop-color="#7c7e82"/><stop offset="1" stop-color="#6d6e71"/></linearGradient><linearGradient id="SVGID_9_" gradientUnits="userSpaceOnUse" x1="13" x2="115" y1="9" y2="9"><stop offset="0" stop-color="#ac766a"/><stop offset="1" stop-color="#93634d"/></linearGradient><linearGradient id="SVGID_10_" gradientUnits="userSpaceOnUse" x1="25" x2="41" xlink:href="#lg1" y1="118" y2="118"/><linearGradient id="SVGID_11_" gradientUnits="userSpaceOnUse" x1="12" x2="118" xlink:href="#lg1" y1="63.5" y2="63.5"/><linearGradient id="SVGID_12_" gradientUnits="userSpaceOnUse" x1="7" x2="13" xlink:href="#lg2" y1="64" y2="64"/><linearGradient id="SVGID_13_" gradientUnits="userSpaceOnUse" x1="115" x2="121" xlink:href="#lg2" y1="64" y2="64"/><linearGradient id="SVGID_14_" gradientUnits="userSpaceOnUse" x1="2" x2="18" xlink:href="#lg1" y1="123" y2="123"/><linearGradient id="SVGID_15_" gradientUnits="userSpaceOnUse" x1="110" x2="126" xlink:href="#lg1" y1="123" y2="123"/><g><g><path d="m95 85h24v-6h-24z" fill="url(#SVGID_1_)"/><path d="m95 50h24v-6h-24z" fill="url(#SVGID_1_)"/><path d="m92 115h6v-104h-6z" fill="url(#SVGID_3_)"/><path d="m88 121h14c.55 0 1-.45 1-1v-4c0-.55-.45-1-1-1h-14c-.55 0-1 .45-1 1v4c0 .55.45 1 1 1z" fill="url(#SVGID_4_)"/><path d="m9 79h24v6h-24z" fill="url(#SVGID_5_)"/><path d="m9 44h24v6h-24z" fill="url(#SVGID_5_)"/><path d="m30 11h6v104h-6z" fill="url(#SVGID_7_)"/><path d="m118 12v8l-106 95v-8z" fill="url(#SVGID_8_)"/><path d="m13 4h102v10h-102z" fill="url(#SVGID_9_)"/><path d="m40 121h-14c-.55 0-1-.45-1-1v-4c0-.55.45-1 1-1h14c.55 0 1 .45 1 1v4c0 .55-.45 1-1 1z" fill="url(#SVGID_10_)"/><path d="m12 12v8l106 95v-8z" fill="url(#SVGID_11_)"/><path d="m11 126h-2c-1.1 0-2-.9-2-2v-120c0-1.1.9-2 2-2h2c1.1 0 2 .9 2 2v120c0 1.1-.9 2-2 2z" fill="url(#SVGID_12_)"/><path d="m119 126h-2c-1.1 0-2-.9-2-2v-120c0-1.1.9-2 2-2h2c1.1 0 2 .9 2 2v120c0 1.1-.9 2-2 2z" fill="url(#SVGID_13_)"/><path d="m17 126h-14c-.55 0-1-.45-1-1v-4c0-.55.45-1 1-1h14c.55 0 1 .45 1 1v4c0 .55-.45 1-1 1z" fill="url(#SVGID_14_)"/><path d="m125 126h-14c-.55 0-1-.45-1-1v-4c0-.55.45-1 1-1h14c.55 0 1 .45 1 1v4c0 .55-.45 1-1 1z" fill="url(#SVGID_15_)"/></g><path d="m125 119.011h-3v-115c0-1.654-1.346-3-3-3h-2c-1.302 0-2.402.839-2.816 2h-100.368c-.414-1.161-1.514-2-2.816-2h-2c-1.654 0-3 1.346-3 3v115h-3c-1.103 0-2 .897-2 2v4c0 1.103.897 2 2 2h14c1.103 0 2-.897 2-2v-4c0-1.103-.897-2-2-2h-3v-4.449l15-13.443v12.893h-3c-1.103 0-2 .897-2 2v4c0 1.103.897 2 2 2h14c1.103 0 2-.897 2-2v-4c0-1.103-.897-2-2-2h-3v-20.064l28-25.094 26 23.302v21.855h-3c-1.103 0-2 .897-2 2v4c0 1.103.897 2 2 2h14c1.103 0 2-.897 2-2v-4c0-1.103-.897-2-2-2h-3v-14.685l15 13.443v6.241h-3c-1.103 0-2 .897-2 2v4c0 1.103.897 2 2 2h14c1.103 0 2-.897 2-2v-4c0-1.102-.897-1.999-2-1.999zm-54.038-55.5 20.038-17.959v35.918zm22.038-19.751 4-3.585v46.672l-4-3.585zm21 40.251h-15v-4h15zm0-6h-15v-27h15zm0-29h-15v-4h15zm-15 37h15v16.072l-15-13.444zm15-43h-15v-4.629l15-13.443zm0-20.759-44.537 39.915-2.964-2.657 47.501-42.571zm-54.962 41.259-22.038 19.751v-39.502zm-24.038 21.543-4 3.585v-50.256l4 3.585zm-21-40.043h15v4h-15zm0 6h15v27h-15zm0 29h15v4h-15zm0 6h15v4.421l-15 13.443zm15-43h-15v-19.864l15 13.443zm68-28v14.477l-4 3.585v-18.062zm2 0h14.154l-14.154 12.685zm15-2h-99.386l-.614-.551v-7.449h100zm-85 2v10.893l-12.154-10.893zm2 0h4v16.27l-4-3.585zm6 0h54v19.855l-26 23.302-28-25.095zm-20.003 110h-13.997v-4h14zm-8.997-6v-115c0-.552.449-1 1-1h2c.551 0 1 .448 1 1v115zm31.997 1h-13.997v-4h14zm-4.997-6h-4v-14.685l4-3.585zm-21-2.136v-5.313l46.537-41.707 2.964 2.657zm88 8.136h-14v-4h14zm-5-6h-4v-20.062l4 3.585zm-83-93.551v-5.313l100 89.623v5.313zm102-16.449c0-.552.449-1 1-1h2c.551 0 1 .448 1 1v115h-4zm8.997 121h-13.997v-4h14z" fill="#3a322b"/></g></svg>