<svg width="47" height="40" viewBox="0 0 47 40" fill="none" xmlns="http://www.w3.org/2000/svg">
<g clip-path="url(#clip0_462_924)">
<path d="M28.9456 2.86864C25.623 2.86864 22.9199 5.16915 22.9199 7.99684C22.9199 10.8245 25.623 13.125 28.9456 13.125C32.2681 13.125 34.9712 10.8245 34.9712 7.99684C34.9712 5.16915 32.2681 2.86864 28.9456 2.86864ZM33.9418 7.56949H31.9158C31.7035 6.49753 30.7074 5.64975 29.4478 5.46906V3.74471C31.8164 3.94582 33.7055 5.55351 33.9418 7.56949ZM26.937 7.99684C26.937 7.05428 27.8381 6.28744 28.9456 6.28744C30.0531 6.28744 30.9541 7.05428 30.9541 7.99684C30.9541 8.93941 30.0531 9.70624 28.9456 9.70624C27.8381 9.70624 26.937 8.93941 26.937 7.99684ZM28.4434 3.74471V5.46898C27.0205 5.67308 25.9327 6.72864 25.9327 7.99676C25.9327 8.62582 26.2008 9.2024 26.6442 9.64898L25.1339 10.7741C24.3807 10.0265 23.9242 9.0565 23.9242 7.99676C23.9242 5.78462 25.9095 3.95983 28.4434 3.74471ZM28.9456 12.2703C27.7843 12.2703 26.7148 11.9322 25.8632 11.3668L27.4204 10.2068C27.8681 10.4314 28.3893 10.5609 28.9456 10.5609C30.4357 10.5609 31.6759 9.63522 31.9157 8.42419H33.9417C33.689 10.5807 31.5449 12.2703 28.9456 12.2703Z" fill="#947AC6"/>
<path d="M40.4514 12.5623C40.1741 12.5623 39.9492 12.371 39.9492 12.135V9.6676C39.9492 9.43153 40.1741 9.24025 40.4514 9.24025C40.7286 9.24025 40.9535 9.43153 40.9535 9.6676V12.135C40.9535 12.371 40.7286 12.5623 40.4514 12.5623Z" fill="#947AC6"/>
<path d="M43.4631 12.5623C43.1858 12.5623 42.9609 12.371 42.9609 12.135V7.9582C42.9609 7.72214 43.1858 7.53085 43.4631 7.53085C43.7404 7.53085 43.9652 7.72214 43.9652 7.9582V12.135C43.9652 12.371 43.7404 12.5623 43.4631 12.5623Z" fill="#947AC6"/>
<path d="M37.4377 12.5623C37.1604 12.5623 36.9355 12.371 36.9355 12.135V7.9582C36.9355 7.72214 37.1604 7.53085 37.4377 7.53085C37.715 7.53085 37.9398 7.72214 37.9398 7.9582V12.135C37.9398 12.371 37.715 12.5623 37.4377 12.5623Z" fill="#947AC6"/>
<path d="M4.96146 12.7232C2.41422 12.7232 0.341797 10.9595 0.341797 8.79162C0.341797 6.62376 2.41422 4.86 4.96146 4.86C7.5087 4.86 9.58111 6.62376 9.58111 8.79162C9.58111 10.9595 7.5088 12.7232 4.96146 12.7232ZM4.96146 5.7147C2.96787 5.7147 1.34607 7.09496 1.34607 8.79162C1.34607 10.4883 2.96787 11.8685 4.96146 11.8685C6.95504 11.8685 8.57684 10.4883 8.57684 8.79162C8.57684 7.09496 6.95504 5.7147 4.96146 5.7147Z" fill="#947AC6"/>
<path d="M44.4892 33.3028H44.1268C44.9821 32.6614 45.5233 31.7223 45.5233 30.677C45.5233 28.6301 43.3671 26.9779 40.9742 27.2008V26.8926C40.9742 25.7144 39.8479 24.7558 38.4635 24.7558H38.1012C38.9564 24.1144 39.4976 23.1753 39.4976 22.13C39.4976 20.2015 37.6578 18.6325 35.3964 18.6325C33.135 18.6325 31.2951 20.2015 31.2951 22.13C31.2951 23.1753 31.8363 24.1144 32.6916 24.7558H32.3292C30.9448 24.7558 29.8186 25.7144 29.8186 26.8926V27.2461C29.2944 27.1579 28.7521 27.1579 28.228 27.2461V26.8926C28.228 25.7144 27.1017 24.7558 25.7173 24.7558H25.356C26.2109 24.1144 26.7514 23.1751 26.7514 22.13C26.7514 20.2015 24.9116 18.6325 22.6502 18.6325C20.3887 18.6325 18.5489 20.2015 18.5489 22.13C18.5489 23.1751 19.0894 24.1144 19.9443 24.7558H19.5832C18.1988 24.7558 17.0725 25.7144 17.0725 26.8926V27.2008C14.6795 26.9779 12.5235 28.6302 12.5235 30.677C12.5235 31.7223 13.0647 32.6614 13.9199 33.3028H13.5576C12.1732 33.3028 11.0469 34.2614 11.0469 35.4396V39.5726C11.0469 39.8087 11.2717 40 11.549 40H21.7003C21.9776 40 22.2024 39.8087 22.2024 39.5726V35.4396C22.2024 34.2614 21.0762 33.3028 19.6918 33.3028H19.3294C20.1847 32.6614 20.7259 31.7223 20.7259 30.677C20.7259 29.1844 19.6234 27.9079 18.0768 27.4068V26.8926C18.0768 26.1856 18.7526 25.6105 19.5832 25.6105H25.7174C26.548 25.6105 27.2238 26.1856 27.2238 26.8926V27.535C25.8621 28.1045 24.9221 29.2988 24.9221 30.677C24.9221 31.7225 25.4635 32.6615 26.3192 33.3028H25.9562C24.5718 33.3028 23.4455 34.2614 23.4455 35.4396V39.5726C23.4455 39.8087 23.6704 40 23.9477 40H34.099C34.3763 40 34.6011 39.8087 34.6011 39.5726V35.4396C34.6011 34.2614 33.4748 33.3028 32.0904 33.3028H31.7275C32.5831 32.6616 33.1245 31.7226 33.1245 30.677C33.1245 29.2988 32.1845 28.1045 30.8228 27.535V26.8926C30.8228 26.1856 31.4986 25.6105 32.3292 25.6105H38.4635C39.2942 25.6105 39.97 26.1856 39.97 26.8926V27.4068C38.4233 27.9079 37.3209 29.1844 37.3209 30.677C37.3209 31.7223 37.8621 32.6614 38.7173 33.3028H38.355C36.9706 33.3028 35.8443 34.2614 35.8443 35.4396V39.5726C35.8443 39.8087 36.0692 40 36.3464 40H46.4977C46.775 40 46.9999 39.8087 46.9999 39.5726V35.4396C46.9999 34.2613 45.8736 33.3028 44.4892 33.3028ZM19.6918 34.1575C20.5224 34.1575 21.1982 34.7326 21.1982 35.4396V39.1453H12.0511V35.4396C12.0511 34.7326 12.7269 34.1575 13.5576 34.1575H19.6918ZM19.7216 30.677C19.7216 32.1343 18.3323 33.3198 16.6246 33.3198C14.9169 33.3198 13.5276 32.1343 13.5276 30.677C13.5276 29.2197 14.917 28.0342 16.6247 28.0342C18.3324 28.0342 19.7216 29.2197 19.7216 30.677ZM22.6504 24.7728C20.9427 24.7728 19.5534 23.5873 19.5534 22.13C19.5534 20.6727 20.9427 19.4872 22.6504 19.4872C24.358 19.4872 25.7473 20.6727 25.7473 22.13C25.7473 23.5873 24.3579 24.7728 22.6504 24.7728ZM32.0905 34.1575C32.9212 34.1575 33.5969 34.7326 33.5969 35.4396V39.1453H24.4499V35.4396C24.4499 34.7326 25.1257 34.1575 25.9563 34.1575H32.0905ZM32.1204 30.677C32.1204 32.1343 30.731 33.3198 29.0234 33.3198C27.3157 33.3198 25.9264 32.1343 25.9264 30.677C25.9264 29.2197 27.3157 28.0342 29.0234 28.0342C30.731 28.0342 32.1204 29.2197 32.1204 30.677ZM35.3964 24.7728C33.6887 24.7728 32.2994 23.5873 32.2994 22.13C32.2994 20.6727 33.6888 19.4872 35.3964 19.4872C37.104 19.4872 38.4934 20.6727 38.4934 22.13C38.4934 23.5873 37.1041 24.7728 35.3964 24.7728ZM38.3252 30.677C38.3252 29.2197 39.7145 28.0342 41.4221 28.0342C43.1298 28.0342 44.5191 29.2197 44.5191 30.677C44.5191 32.1343 43.1298 33.3198 41.4221 33.3198C39.7145 33.3198 38.3252 32.1343 38.3252 30.677ZM45.9956 39.1453H36.8486V35.4396C36.8486 34.7326 37.5243 34.1575 38.355 34.1575H44.4892C45.3198 34.1575 45.9956 34.7326 45.9956 35.4396V39.1453Z" fill="#947AC6"/>
<path d="M46.4979 0H20.3868C20.1095 0 19.8846 0.191282 19.8846 0.42735V7.61829L16.3289 11.8608C15.396 11.4956 14.264 11.7544 13.6674 12.462L10.3165 16.4363C8.51021 15.3267 6.76951 13.8814 4.39802 13.8814C1.973 13.8814 0 15.5605 0 17.6244V37.6193C0 38.9011 1.22531 39.9439 2.73142 39.9439C3.65074 39.9439 4.4655 39.5555 4.96071 38.9611C5.45602 39.5555 6.27068 39.9439 7.19 39.9439C8.69611 39.9439 9.92142 38.9011 9.92142 37.6193V29.4519C9.92142 29.2158 9.69656 29.0245 9.41928 29.0245C9.142 29.0245 8.91715 29.2158 8.91715 29.4519V37.6193C8.91715 38.4298 8.14235 39.0892 7.19 39.0892C6.23764 39.0892 5.46285 38.4298 5.46285 37.6193V27.6068C5.46285 27.3708 5.23799 27.1795 4.96071 27.1795C4.68343 27.1795 4.45857 27.3708 4.45857 27.6068V37.6193C4.45857 38.4298 3.68378 39.0892 2.73142 39.0892C1.77907 39.0892 1.00427 38.4299 1.00427 37.6193V24.7511H9.41938C9.69666 24.7511 9.92152 24.5598 9.92152 24.3238V20.4782C11.04 20.7009 12.2582 20.3238 12.9392 19.5351L17.175 14.6298C17.7686 13.9424 17.7233 13.0252 17.1215 12.3869L19.8846 9.09009V15.5662C19.8846 15.8023 20.1095 15.9936 20.3868 15.9936H46.4979C46.7751 15.9936 47 15.8023 47 15.5662V0.42735C47 0.191282 46.7751 0 46.4979 0ZM16.3658 14.1237L12.13 19.029C11.5122 19.7443 10.3214 19.9034 9.47562 19.3841L5.57111 16.9855C5.34625 16.8471 5.03241 16.8905 4.87012 17.0818C4.70783 17.2732 4.75855 17.5403 4.98341 17.6784L8.88782 20.077C8.88792 20.077 8.88792 20.0771 8.88792 20.0771L8.88802 20.0772C8.89766 20.0831 8.9074 20.0891 8.91725 20.0949V23.8964H1.00427V17.6244C1.00427 16.0317 2.52675 14.7361 4.39802 14.7361C6.60762 14.7361 8.45267 16.3454 10.137 17.3802C10.4027 17.513 10.6366 17.4805 10.8389 17.2828L14.4834 12.9603C14.8634 12.5096 15.6445 12.4168 16.1549 12.7641C16.644 13.0969 16.7367 13.6942 16.3658 14.1237ZM45.9957 15.1389H20.8889V7.89188L21.6376 6.99863C21.7987 6.8065 21.7461 6.53966 21.5204 6.40256C21.3235 6.28308 21.06 6.30188 20.889 6.43598V0.854701H45.9958V15.1389H45.9957Z" fill="#947AC6"/>
<path d="M44.2007 24.1741C43.9234 24.1741 43.6986 23.9828 43.6986 23.7468V23.1941C43.6986 22.3904 44.1784 21.6562 45.0863 21.071C46.4713 20.1782 46.1262 18.2924 44.192 18.2906C43.4037 18.2906 42.5219 18.7762 42.5219 19.4982C42.5219 19.7343 42.297 19.9256 42.0197 19.9256C41.7424 19.9256 41.5176 19.7343 41.5176 19.4982C41.5176 18.308 42.8587 17.4359 44.1931 17.4359C47.0626 17.4385 47.8354 20.3711 45.6926 21.7523C45.241 22.0434 44.7028 22.5298 44.7028 23.1941V23.7468C44.7028 23.9828 44.4781 24.1741 44.2007 24.1741Z" fill="#947AC6"/>
<path d="M44.294 26.0185C44.6268 26.0185 44.8965 25.7889 44.8965 25.5057C44.8965 25.2225 44.6268 24.9929 44.294 24.9929C43.9612 24.9929 43.6914 25.2225 43.6914 25.5057C43.6914 25.7889 43.9612 26.0185 44.294 26.0185Z" fill="#947AC6"/>
<path d="M9.42036 27.5641C9.78088 27.5641 10.0731 27.3154 10.0731 27.0085C10.0731 26.7017 9.78088 26.453 9.42036 26.453C9.05984 26.453 8.76758 26.7017 8.76758 27.0085C8.76758 27.3154 9.05984 27.5641 9.42036 27.5641Z" fill="#947AC6"/>
</g>
<defs>
<clipPath id="clip0_462_924">
<rect width="47" height="40" fill="white"/>
</clipPath>
</defs>
</svg>
