<?xml version="1.0" encoding="iso-8859-1"?>
<!-- Generator: Adobe Illustrator 19.0.0, SVG Export Plug-In . SVG Version: 6.00 Build 0)  -->
<svg version="1.1" id="Capa_1" xmlns="http://www.w3.org/2000/svg" xmlns:xlink="http://www.w3.org/1999/xlink" x="0px" y="0px"
	 viewBox="0 0 512 512" style="enable-background:new 0 0 512 512;" xml:space="preserve">
<g>
	<circle style="fill:#5278A1;" cx="83.01" cy="335.61" r="35.09"/>
	<circle style="fill:#5278A1;" cx="182.99" cy="335.61" r="35.09"/>
	<circle style="fill:#5278A1;" cx="282.98" cy="335.61" r="35.09"/>
	<circle style="fill:#5278A1;" cx="382.96" cy="335.61" r="35.09"/>
</g>
<path style="fill:#E8E9EA;" d="M419.2,335.613H25.293c-9.827,0-17.793-7.966-17.793-17.793V113.008
	c0-9.827,7.966-17.793,17.793-17.793h205.119c87.268,0,171.613,31.448,237.579,88.58l0,0c23.186,20.081,36.508,49.243,36.508,79.917
	v12.069c0,17.382-9.05,33.511-23.886,42.568l0,0C462.119,329.639,440.869,335.613,419.2,335.613z"/>
<g>
	<path style="fill:#95D4E9;" d="M349.739,275.055l-12.027-11.351c-5.41-5.104-12.484-7.915-19.921-7.915H7.5v14.561h310.291
		c3.707,0,7.232,1.401,9.928,3.944l12.027,11.35c1.407,1.328,3.202,1.986,4.996,1.986c1.934,0,3.864-0.766,5.295-2.284
		C352.797,282.422,352.664,277.815,349.739,275.055z"/>
	<path style="fill:#95D4E9;" d="M7.5,300.246v17.574c0,9.827,7.966,17.793,17.793,17.793H419.2c21.669,0,42.919-5.974,61.414-17.265
		c7.397-4.516,13.354-10.791,17.47-18.102L7.5,300.246L7.5,300.246z"/>
</g>
<g>
	<path style="fill:#6CB6DE;" d="M467.992,183.795L467.992,183.795c-19.388-16.792-40.373-31.345-62.544-43.553h-56.365
		c-7.845,0-11.656,9.59-5.95,14.974l18.099,17.081c22.529,21.262,52.335,33.106,83.313,33.106h42.417
		C481.703,197.449,475.346,190.164,467.992,183.795z"/>
	<path style="fill:#6CB6DE;" d="M7.5,205.403h308.199c9.692,0,14.4-11.848,7.352-18.5l-42.619-40.222
		c-4.382-4.136-10.18-6.44-16.206-6.44H7.5V205.403z"/>
</g>
<rect x="133" y="140.24" style="opacity:0.1;enable-background:new    ;" width="99.98" height="195.37"/>
<path style="fill:#4A5359;" d="M486.707,416.785H25.293c-9.827,0-17.793-7.966-17.793-17.793v-10.5
	c0-9.827,7.966-17.793,17.793-17.793h461.413c9.827,0,17.793,7.966,17.793,17.793v10.5
	C504.5,408.819,496.534,416.785,486.707,416.785z"/>
<path style="opacity:0.1;enable-background:new    ;" d="M128.508,370.698H25.293c-9.827,0-17.793,7.966-17.793,17.793v10.5
	c0,9.827,7.966,17.793,17.793,17.793h104.744C116.657,407.646,117.786,378.293,128.508,370.698z"/>
<path style="fill:#FFCE71;" d="M461.716,278.589h-8.276c-7.64,0-14.536-4.582-17.496-11.625l-9.505-22.615
	c-1.875-4.462,1.401-9.394,6.242-9.394h4.175c13.136,0,24.991,7.877,30.081,19.987l4.065,9.672
	C473.793,271.252,468.918,278.589,461.716,278.589z"/>
<path style="opacity:0.05;enable-background:new    ;" d="M67.245,95.215H25.293c-9.827,0-17.793,7.966-17.793,17.793V317.82
	c0,9.827,7.966,17.793,17.793,17.793h81.563C58.471,295.393,67.245,138.645,67.245,95.215z"/>
<path d="M484.522,324.75c8.188-4.999,14.872-11.966,19.6-20.068c0.366-0.497,0.674-1.037,0.909-1.617
	c4.485-8.281,6.968-17.652,6.968-27.284v-12.069c0-32.871-14.251-64.065-39.099-85.585c-19.77-17.123-41.172-31.967-63.784-44.422
	c-0.059-0.033-0.119-0.066-0.179-0.098c-54.336-29.889-115.694-45.892-178.526-45.892H25.293C11.347,87.715,0,99.062,0,113.008
	V317.82c0,13.946,11.347,25.293,25.293,25.293H41.1c1.352,7.574,4.708,14.458,9.506,20.085H25.293
	C11.347,363.198,0,374.545,0,388.491v10.501c0,13.946,11.347,25.293,25.293,25.293h330.412c4.143,0,7.5-3.357,7.5-7.5
	s-3.357-7.5-7.5-7.5H25.293c-5.676,0-10.293-4.617-10.293-10.293v-10.501c0-5.676,4.618-10.293,10.293-10.293h461.414
	c5.676,0,10.293,4.617,10.293,10.293v10.501c0,5.676-4.617,10.293-10.293,10.293h-86.435c-4.143,0-7.5,3.357-7.5,7.5
	s3.357,7.5,7.5,7.5h86.435c13.946,0,25.293-11.347,25.293-25.293v-10.501c0-13.946-11.347-25.293-25.293-25.293h-71.346
	c4.828-5.663,8.197-12.599,9.532-20.23C445.961,342.011,466.467,335.773,484.522,324.75z M463.082,189.464
	c3.059,2.649,5.925,5.472,8.604,8.439h-27.141c-29.183,0-56.942-11.03-78.165-31.06l-18.1-17.083
	c-0.173-0.162-0.576-0.544-0.283-1.281s0.849-0.737,1.086-0.737h54.441C424.615,159.504,444.591,173.449,463.082,189.464z
	 M15,147.742h25.925c4.142,0,7.5-3.357,7.5-7.5s-3.358-7.5-7.5-7.5H15v-19.734c0-5.676,4.618-10.293,10.293-10.293h205.119
	c49.58,0,98.202,10.392,142.911,30.027h-24.24c-6.666,0-12.564,4.003-15.026,10.198s-0.92,13.155,3.929,17.73l18.1,17.082
	c24.018,22.668,55.434,35.151,88.46,35.151h38.29c9.168,15.164,14.165,32.69,14.165,50.808v12.069c0,5.907-1.28,11.674-3.605,16.966
	H240.483v-79.843h75.216c7.508,0,14.151-4.509,16.924-11.486c2.773-6.977,1.036-14.815-4.425-19.968l-42.618-40.223
	c-5.799-5.471-13.382-8.484-21.354-8.484H83.01c-4.142,0-7.5,3.357-7.5,7.5s3.358,7.5,7.5,7.5h42.491v50.161H15V147.742z
	 M240.483,197.903v-50.161h23.743c4.128,0,8.056,1.561,11.059,4.393l42.618,40.222c1.379,1.302,1.08,2.765,0.779,3.52
	c-0.3,0.757-1.087,2.025-2.983,2.025L240.483,197.903L240.483,197.903z M140.501,292.746v-79.843h84.982v79.843H140.501z
	 M225.483,307.746v20.367h-84.982v-20.367H225.483z M140.501,197.903v-50.161h84.982v50.161H140.501z M15,212.903h110.501v79.843H15
	V212.903z M25.293,328.113c-5.676,0-10.293-4.617-10.293-10.293v-10.074h110.501v20.367H25.293z M83.01,363.198
	c-12.61,0-23.264-8.509-26.54-20.085h53.08C106.274,354.689,95.62,363.198,83.01,363.198z M115.414,363.198
	c4.797-5.627,8.154-12.511,9.506-20.085h16.163c1.352,7.574,4.709,14.458,9.506,20.085H115.414z M182.992,363.198
	c-12.61,0-23.263-8.509-26.54-20.085h53.08C206.256,354.689,195.603,363.198,182.992,363.198z M215.396,363.198
	c4.797-5.627,8.154-12.511,9.506-20.085h16.163c1.352,7.574,4.708,14.458,9.506,20.085H215.396z M282.975,363.198
	c-12.61,0-23.263-8.509-26.54-20.085h53.08C306.238,354.689,295.585,363.198,282.975,363.198z M315.379,363.198
	c4.797-5.627,8.154-12.511,9.506-20.085h16.162c1.352,7.574,4.708,14.458,9.506,20.085H315.379z M382.957,363.198
	c-12.61,0-23.264-8.509-26.54-20.085h53.08C406.221,354.689,395.567,363.198,382.957,363.198z M240.483,328.113v-20.367h241.911
	c-1.768,1.544-3.659,2.962-5.689,4.201c-17.323,10.576-37.209,16.166-57.506,16.166L240.483,328.113L240.483,328.113z
	 M209.003,227.455h-18.417c-4.142,0-7.5,3.357-7.5,7.5s3.358,7.5,7.5,7.5h18.417c4.142,0,7.5-3.357,7.5-7.5
	C216.503,230.813,213.145,227.455,209.003,227.455z"/>
<g>
</g>
<g>
</g>
<g>
</g>
<g>
</g>
<g>
</g>
<g>
</g>
<g>
</g>
<g>
</g>
<g>
</g>
<g>
</g>
<g>
</g>
<g>
</g>
<g>
</g>
<g>
</g>
<g>
</g>
</svg>
