<svg xmlns="http://www.w3.org/2000/svg" version="1.1" xmlns:xlink="http://www.w3.org/1999/xlink" width="512" height="512" x="0" y="0" viewBox="0 0 64 64" style="enable-background:new 0 0 512 512" xml:space="preserve"><g><path d="M32 0C14.355 0 0 14.356 0 32s14.355 32 32 32c17.644 0 32-14.355 32-32S49.644 0 32 0zm0 4c15.439 0 28 12.56 28 28 0 5.603-1.66 10.821-4.505 15.203A24.112 24.112 0 0 0 42.972 30.67 13.93 13.93 0 0 0 46 22c0-7.72-6.28-14-14-14s-14 6.28-14 14a13.93 13.93 0 0 0 3.028 8.67C14.562 34.006 9.96 40.129 8.505 47.203A27.827 27.827 0 0 1 4 32C4 16.56 16.56 4 32 4zM22 22c0-5.514 4.486-10 10-10s10 4.486 10 10-4.486 10-10 10-10-4.486-10-10zm10 38c-7.82 0-14.898-3.227-19.983-8.414.164-7.855 4.965-14.918 12.158-17.982A13.92 13.92 0 0 0 32 36c2.896 0 5.59-.884 7.825-2.396 7.193 3.064 11.994 10.127 12.158 17.982C46.898 56.773 39.82 60 32 60z" fill="#ffffff" opacity="1" data-original="#000000"></path></g></svg>