<svg id="Capa_1" enable-background="new 0 0 511 511" height="512" viewBox="0 0 511 511" width="512" xmlns="http://www.w3.org/2000/svg"><g id="Outline_31_"><g><path d="m39.5 415.5h144v64h-144z" fill="#f6c97d"/><path d="m183.5 415.5h144v64h-144z" fill="#ee998b"/><path d="m327.5 415.5h144v64h-144z" fill="#ee998b"/><path d="m71.5 455.5v-40h-32v64h144v-24z" fill="#f3b752"/><path d="m215.5 455.5v-40h-32v64h144v-24z" fill="#e87764"/><path d="m359.5 455.5v-40h-32v64h144v-24z" fill="#e87764"/><g fill="#ee998b"><path d="m39.5 223.5h144v64h-144z"/><path d="m183.5 223.5h144v64h-144z"/><path d="m327.5 223.5h144v64h-144z"/></g><path d="m71.5 263.5v-40h-32v64h144v-24z" fill="#e87764"/><path d="m215.5 263.5v-40h-32v64h144v-24z" fill="#e87764"/><path d="m359.5 263.5v-40h-32v64h144v-24z" fill="#e87764"/><path d="m39.5 31.5h144v64h-144z" fill="#ee998b"/><path d="m71.5 71.5v-40h-32v64h144v-24z" fill="#e87764"/><path d="m255.5 319.5h144v64h-144z" fill="#f6c97d"/><path d="m399.5 319.5h104v64h-104z" fill="#ee998b"/><path d="m7.5 319.5h104v64h-104z" fill="#ee998b"/><path d="m111.5 319.5h144v64h-144z" fill="#ee998b"/><path d="m31.5 359.5v-40h-24v64h104v-24z" fill="#e87764"/><path d="m111.5 319.5v64h144v-24h-112v-40z" fill="#e87764"/><path d="m255.5 319.5v64h144v-24h-112v-40z" fill="#f0a526"/><path d="m399.5 319.5v64h104v-24h-72v-40z" fill="#e87764"/><path d="m255.5 127.5h144v64h-144z" fill="#ee998b"/><path d="m7.5 127.5h104v64h-104z" fill="#ee998b"/><path d="m111.5 127.5h144v64h-144z" fill="#f6c97d"/><path d="m31.5 167.5v-40h-24v64h104v-24z" fill="#e87764"/><path d="m111.5 127.5v64h144v-24h-112v-40z" fill="#f0a526"/><path d="m255.5 127.5v64h144v-24h-112v-40z" fill="#e87764"/></g><g><path d="m471.5 408h-432c-4.142 0-7.5 3.357-7.5 7.5v64c0 4.143 3.358 7.5 7.5 7.5h432c4.142 0 7.5-3.357 7.5-7.5v-64c0-4.143-3.358-7.5-7.5-7.5zm-424.5 15h129v49h-129zm144 0h129v49h-129zm273 49h-129v-49h129z"/><path d="m39.5 216c-4.142 0-7.5 3.357-7.5 7.5v64c0 4.143 3.358 7.5 7.5 7.5h432c4.142 0 7.5-3.357 7.5-7.5v-64c0-4.143-3.358-7.5-7.5-7.5h-24.217c-4.142 0-7.5 3.357-7.5 7.5s3.358 7.5 7.5 7.5h16.717v49h-129v-49h77.326c4.142 0 7.5-3.357 7.5-7.5s-3.358-7.5-7.5-7.5zm7.5 15h129v49h-129zm144 0h129v49h-129z"/><path d="m39.5 103h144c4.142 0 7.5-3.357 7.5-7.5v-64c0-4.143-3.358-7.5-7.5-7.5h-144c-4.142 0-7.5 3.357-7.5 7.5v64c0 4.143 3.358 7.5 7.5 7.5zm7.5-64h129v49h-129z"/><path d="m503.5 376h-96.5v-49h96.5c4.142 0 7.5-3.357 7.5-7.5s-3.358-7.5-7.5-7.5h-496c-4.142 0-7.5 3.357-7.5 7.5s3.358 7.5 7.5 7.5h96.5v49h-96.5c-4.142 0-7.5 3.357-7.5 7.5s3.358 7.5 7.5 7.5h496c4.142 0 7.5-3.357 7.5-7.5s-3.358-7.5-7.5-7.5zm-384.5-49h129v49h-129zm144 0h129v49h-129z"/><path d="m7.5 184c-4.142 0-7.5 3.357-7.5 7.5s3.358 7.5 7.5 7.5h392c4.142 0 7.5-3.357 7.5-7.5v-64c0-4.143-3.358-7.5-7.5-7.5h-392c-4.142 0-7.5 3.357-7.5 7.5s3.358 7.5 7.5 7.5h96.5v49zm384.5 0h-129v-49h129zm-144 0h-129v-49h129z"/></g></g></svg>