<svg xmlns="http://www.w3.org/2000/svg" version="1.1" xmlns:xlink="http://www.w3.org/1999/xlink" xmlns:svgjs="http://svgjs.com/svgjs" width="512" height="512" x="0" y="0" viewBox="0 0 176 176" style="enable-background:new 0 0 512 512" xml:space="preserve" class=""><g><g data-name="Layer 2"><path d="m118.43 57.57-.22-.22a42.72 42.72 0 0 0-68.28 49.59l1.88 3.7-3.5 17-.05.22 16.89-4 3.85 1.95a42.78 42.78 0 0 0 49.22-8 42.72 42.72 0 0 0 .22-60.19zm-1.72 47.72c-2.07 3.26-5.34 7.24-9.45 8.23-7.2 1.75-18.25.06-32-12.75l-.17-.16C63 89.41 59.86 80.08 60.62 72.68c.42-4.21 3.92-8 6.87-10.49a3.94 3.94 0 0 1 6.15 1.41l4.45 10.06a3.89 3.89 0 0 1-.49 4l-2.25 2.92a3.88 3.88 0 0 0-.35 4.27c1.26 2.2 4.28 5.45 7.63 8.47 3.76 3.39 7.93 6.5 10.57 7.57a3.85 3.85 0 0 0 4.19-.89l2.61-2.63a4 4 0 0 1 3.9-1l10.57 3a4 4 0 0 1 2.24 5.92z" fill="#74f5db" data-original="#000000" class=""></path><path d="M152 0H24A24 24 0 0 0 0 24v128a24 24 0 0 0 24 24h128a24 24 0 0 0 24-24V24a24 24 0 0 0-24-24zm-9.47 89.3a54.57 54.57 0 0 1-78.82 47.11l-27.55 6.53a2.13 2.13 0 0 1-2.24-.87 2.09 2.09 0 0 1-.33-1.63l5.79-28.11a54.56 54.56 0 1 1 103.15-23z" fill="#74f5db" data-original="#000000" class=""></path></g></g></svg>